<svg id="Group_188865" data-name="Group 188865" xmlns="http://www.w3.org/2000/svg" xmlns:xlink="http://www.w3.org/1999/xlink" width="474.709" height="493.2" viewBox="0 0 474.709 493.2">
  <defs>
    <clipPath id="clip-path">
      <rect id="Rectangle_4353" data-name="Rectangle 4353" width="474.709" height="493.2" fill="none"/>
    </clipPath>
    <clipPath id="clip-path-2">
      <path id="Path_42054" data-name="Path 42054" d="M250.315,385.455a376.022,376.022,0,0,1,54.631,28.258q8.053-33.434,16.105-66.87a523.016,523.016,0,0,1-56.805-28.88q-6.026,33.932-13.931,67.492" transform="translate(-250.315 -317.963)" fill="none"/>
    </clipPath>
  </defs>
  <g id="Group_188860" data-name="Group 188860">
    <g id="Group_188859" data-name="Group 188859" clip-path="url(#clip-path)">
      <path id="Path_42035" data-name="Path 42035" d="M72.325,127.816a21.874,21.874,0,0,1-12.685-3.26c-3.065-1.923-5.725-4.777-6.574-8.289-1.087-4.493.979-9.263,4.084-12.689s7.156-5.818,10.99-8.4c5.206-3.5,10.121-7.433,15.023-11.348,3.342-2.661,6.784-5.385,10.859-6.675S103,76.3,106.014,79.319c2.6,2.619,3.331,6.6,5.671,9.463a6.647,6.647,0,0,0,3.528,2.383c3.01.687,6.027-1.753,7.071-4.658,1.01-2.816.642-5.9.2-8.864a14.2,14.2,0,0,1,10.266.141c2.856,1.184,5.221,3.275,7.536,5.323q4.2,3.745,8.411,7.476a42.354,42.354,0,0,1,7.189,7.51,14.343,14.343,0,0,1,2.736,9.82,8.307,8.307,0,0,1-2.01,4.514,9.109,9.109,0,0,1-6.465,2.611,26.931,26.931,0,0,1-7.07-1.028,143.252,143.252,0,0,0-16.235,32.53,9.415,9.415,0,0,1-5.907,5.441,23.275,23.275,0,0,1-8.2.967c-16.381-.286-33.4-5.641-44.3-17.875a50.06,50.06,0,0,1,3.894-7.257" transform="translate(7.611 11.029)" fill="#85dae1"/>
      <path id="Path_42036" data-name="Path 42036" d="M285.9,96.136a82.326,82.326,0,0,1-22.215-.66c-1.479-.249-2.96-.553-4.422-.891-3.387-.8-10.787-2.853-10.787-2.853s-5.723,2.069-8.772,3A615.761,615.761,0,0,1,29.65,120.954C19.649,209.906,9.521,299.5,0,389.181a31.044,31.044,0,0,0,9.5,4.332q-2.034-2.085-4.172-3.9,18.452-127.169,31.13-255.14c1,.089,2.015.179,3.013.251,26.156,2.175,52.49.34,78.592-2.549,41.382-4.583,83.174-12.053,121.4-32.645a83.047,83.047,0,0,1,21.788-1.658c.695.051,1.355.124,2.014.213a35.087,35.087,0,0,1,16.19,6.364c9.521,8.63,21.342,14.211,32.985,19.667,47.373,22.2,95.8,44.715,148.341,50.278-.285,1.285-.553,2.585-.838,3.87-20.309,94.316-39.261,188.92-55.86,284.254-1.819.82-3.62,1.641-5.42,2.461,7.06,2.46,11.41,1.39,11.41,1.39q32.307-149.152,64.632-298.3A522.7,522.7,0,0,1,285.9,96.136" transform="translate(0 13.23)" fill="#e98107"/>
      <path id="Path_42037" data-name="Path 42037" d="M233.085,97.328a35.094,35.094,0,0,1,16.189,6.365,32.117,32.117,0,0,1-19.2,4.386,32.628,32.628,0,0,1-20.789-9.307,83.091,83.091,0,0,1,21.787-1.658c.7.054,1.355.125,2.015.214" transform="translate(30.184 13.983)" fill="#ff9681"/>
      <path id="Path_42038" data-name="Path 42038" d="M311.772,123.129c-11.643-5.456-23.464-11.036-32.985-19.666a32.123,32.123,0,0,1-19.2,4.386A32.63,32.63,0,0,1,238.8,98.542c-38.226,20.594-80.018,28.064-121.4,32.646-26.1,2.888-52.437,4.725-78.592,2.549-1-.071-2.015-.16-3.013-.249q-12.462,128-31.13,255.14,2.139,1.818,4.172,3.9a109.559,109.559,0,0,1,11.179,13.479c18.15,2.925,35.588,3.1,53.987,3.014,45.626-.232,93.426-5.723,131.118-31.47,15.422,29.008,41.525,51.3,70.337,67.11,28.813,15.8,59.978,25,91.573,34.037,9.609-4.547,20.148-9.735,30.97-14.71,1.8-.819,3.6-1.64,5.42-2.46,16.6-95.335,35.551-189.937,55.86-284.255.285-1.284.553-2.586.838-3.87-52.543-5.562-100.968-28.08-148.341-50.279" transform="translate(0.672 14.213)" fill="#fff"/>
      <path id="Path_42039" data-name="Path 42039" d="M104.034,144.556a.286.286,0,0,0,.28.239.247.247,0,0,0,.049,0,631.8,631.8,0,0,0,103.741-26.542.286.286,0,1,0-.188-.54A631.387,631.387,0,0,1,104.27,144.227a.286.286,0,0,0-.236.33m213.913-1.968a.287.287,0,0,0,.113.389,298.841,298.841,0,0,0,92.034,32.445.242.242,0,0,0,.05,0,.286.286,0,0,0,.05-.568,298.231,298.231,0,0,1-91.86-32.384.287.287,0,0,0-.388.113M55.732,140.765q7.394.421,14.777.421a258.8,258.8,0,0,0,62.673-7.7.289.289,0,0,0,.207-.348.286.286,0,0,0-.348-.208,258.276,258.276,0,0,1-77.275,7.267.276.276,0,0,0-.3.269.287.287,0,0,0,.269.3M360.1,151.543a.276.276,0,0,0,.073.01.286.286,0,0,0,.072-.563,257.542,257.542,0,0,1-81.817-37.864.286.286,0,0,0-.327.469,258.114,258.114,0,0,0,82,37.947m94.9,23.8a.283.283,0,0,0-.38-.138c-10.241,4.769-20.935,9.121-31.783,12.933a.286.286,0,0,0,.1.556.281.281,0,0,0,.1-.016c10.866-3.819,21.576-8.178,31.834-12.955a.285.285,0,0,0,.138-.38M47.819,151.389a.286.286,0,1,0,.42-.388,73.222,73.222,0,0,1-11.295-16.216.286.286,0,1,0-.508.262,73.749,73.749,0,0,0,11.383,16.342m370.988,39.453c-48.289-15.269-99.145-33.577-143.915-63.9-7.74-5.239-15.154-11.233-16.98-19.543a.19.19,0,0,0-.031-.058.145.145,0,0,0-.021-.042.277.277,0,0,0-.145-.112h-.01l0,0c-.008,0-.014,0-.019,0a.279.279,0,0,0-.173.03.2.2,0,0,0-.034.018.4.4,0,0,0-.042.024c-6.236,6.162-14.512,9.723-21.779,12.577-34,13.309-69.742,19.773-106.42,25.747-27.491,4.481-54.256,8.36-79.49,6.613a.279.279,0,0,0-.3.239C36.531,232.231,25.9,317.118,17.827,404.74a.285.285,0,1,0,.569.05c8.058-87.509,18.681-172.3,31.568-252.008,25.218,1.709,51.926-2.164,79.36-6.637,36.709-5.979,72.481-12.449,106.537-25.778,7.055-2.772,15.048-6.221,21.269-12.051-18.872,77.753-36.1,162.928-54.2,267.946a.284.284,0,0,0,.235.33.226.226,0,0,0,.049,0,.286.286,0,0,0,.28-.238c18.08-104.928,35.294-190.042,54.147-267.737,2.252,7.933,9.432,13.722,16.923,18.794,44.756,30.313,95.56,48.627,143.817,63.894-19.548,88.681-37.563,184.94-53.543,286.1a.285.285,0,0,0,.238.327.3.3,0,0,0,.045,0,.287.287,0,0,0,.283-.241C381.4,376.252,399.433,279.919,419,191.176a.285.285,0,0,0-.193-.334" transform="translate(2.571 15.458)"/>
      <path id="Path_42040" data-name="Path 42040" d="M179.822,177.843c-5.074,29.535-10.149,59.08-16.453,88.377-3.6,16.706-7.6,33.425-8.289,51.3C131.6,323.305,107.957,328.4,83.456,333.4q5.2-68.007,14.465-135.726c25.26-7.8,50.689-15.051,81.9-19.826" transform="translate(12.037 25.65)" fill="#744ec5"/>
      <path id="Path_42041" data-name="Path 42041" d="M169.88,197.966a9.779,9.779,0,0,0-14.54,8.407c-1.982-1.914-5.506-1.223-7.363.811s-2.393,4.942-2.506,7.695c-3.413-1.072-7.084.428-10.161,2.251a46.577,46.577,0,0,0-9.019,6.968c-.919.909-1.81,2.443-.884,3.345a2.267,2.267,0,0,0,1.407.5c6.738.633,12.383-4.9,18.9-6.726a2.433,2.433,0,0,0,.356,3.136,6.051,6.051,0,0,0,3.1,1.438,27.452,27.452,0,0,0,15.948-1.3q2.456-13.25,4.765-26.528" transform="translate(18.031 28.377)" fill="#fff"/>
      <path id="Path_42042" data-name="Path 42042" d="M121.786,246.19c-4.236.338-8.57,1.275-12.008,3.774a11.558,11.558,0,0,0,2.472-4.369,4.944,4.944,0,0,0-1.086-4.71,3.2,3.2,0,0,0-4.506.011,26.08,26.08,0,0,0,.794-7.048,8.8,8.8,0,0,0-2.905-6.277c-2.727-2.213-6.758-1.87-10.029-.592-.455.178-.886.412-1.326.621q-5.939,49.355-9.736,98.853c17.974-3.664,35.484-7.387,52.807-11.393.2-.31.38-.626.547-.955a11.161,11.161,0,0,0-10.272-16.2,13.972,13.972,0,0,0,7.074-4.012,4.864,4.864,0,0,0,1.522-2.851c.181-2.493-2.679-4.053-5.142-4.472a20.038,20.038,0,0,0-9.666.747c7.576-5.528,15.159-11.792,18.844-20.416,1.954-4.575,2.615-10.114.022-14.36-3.393-5.555-10.916-6.872-17.4-6.356" transform="translate(12.037 32.59)" fill="#392563"/>
      <path id="Path_42043" data-name="Path 42043" d="M147.037,296.208l8.04,4.245c-23.481,5.775-47.123,10.876-71.621,15.867.143-1.943.3-3.905.463-5.848Z" transform="translate(12.037 42.721)" fill="#f0898a"/>
      <path id="Path_42044" data-name="Path 42044" d="M161.791,179.505q4.921-.882,10.02-1.658c-5.082,29.526-10.145,59.068-16.456,88.38-3.6,16.689-7.6,33.413-8.291,51.3l-8.04-4.244s3.262-21.876,4.706-32.289c1.248-9.146,14.781-83.423,18.062-101.485" transform="translate(20.051 25.65)" fill="#ef5255"/>
      <path id="Path_42045" data-name="Path 42045" d="M266.712,291.641c.027-19.609,3.254-39.115,8.173-58.1,2.912-11.236,6.492-22.48,12.828-32.207,5.679-8.721,13.825-16.209,23.783-19.237s21.785-.906,28.817,6.766a31.926,31.926,0,0,1,5.906,9.9c6.569,16.543,3.908,35.151.782,52.675q-6.4,35.9-14.848,71.4A161.323,161.323,0,0,1,287.79,307.5c-7.609-3.954-15.074-8.672-21.078-15.856" transform="translate(38.467 26.073)" fill="#392563"/>
      <path id="Path_42046" data-name="Path 42046" d="M343.067,243.03q.287-1.612.568-3.234a27.365,27.365,0,0,0-27.413,9.539,3.954,3.954,0,0,1-3.762,2.128,27.893,27.893,0,0,0-10.91,3.317c-2.974,1.631-5.941,4.524-5.35,7.864.136.765.4,1.7-.191,2.2-.328.277-.8.288-1.189.47-1.5.7-.748,3.069.564,4.071,3.2,2.444,7.737,1.838,11.551,3.129,2.825.957,5.166,2.928,7.615,4.631A46.574,46.574,0,0,0,334.825,285q4.457-20.919,8.242-41.971" transform="translate(42.402 34.484)" fill="#ef5255"/>
      <path id="Path_42047" data-name="Path 42047" d="M306.069,234.757c1.788-.3,3.945-1.014,4.227-2.806.195-1.24-.661-2.523-.276-3.718a3.124,3.124,0,0,1,1.419-1.562c2.8-1.751,6.818-2.1,8.28-5.056,1.09-2.206.094-4.983-1.679-6.69s-4.157-2.592-6.463-3.451-4.683-1.787-6.4-3.551c-1.375-1.414-2.216-3.259-3.437-4.809-3.159-4.013-8.28-5.5-13.466-6.282-.517.721-1.023,1.447-1.5,2.187-6.336,9.727-9.916,20.97-12.828,32.208-.243.935-.461,1.878-.7,2.816.579.153,1.165.286,1.745.395a89.613,89.613,0,0,0,31.078.319" transform="translate(39.41 28.389)" fill="#85dae1"/>
      <path id="Path_42048" data-name="Path 42048" d="M273.165,276.1c17.562,13.568,37.709,25.871,60.086,28.348-.357,1.57-.714,3.12-1.088,4.69a161.8,161.8,0,0,1-44.378-15.352c-7.6-3.958-15.065-8.665-21.074-15.85V277.6a66.854,66.854,0,0,1,6.473-1.8c0,.108-.018.2-.018.3" transform="translate(38.467 39.778)" fill="#f0898a"/>
      <path id="Path_42049" data-name="Path 42049" d="M287.713,201.34c5.688-8.719,13.818-16.207,23.784-19.238a30.745,30.745,0,0,1,17.491-.108,34.123,34.123,0,0,0-17.579,4.244c-8.38,4.564-14.835,12.141-19.381,20.539-4.529,8.4-7.292,17.634-9.61,26.887a340.173,340.173,0,0,0-9.235,55.842c-2.193.5-4.35,1.088-6.473,1.8.072-19.506,3.3-38.885,8.166-57.767,2.924-11.233,6.507-22.483,12.837-32.2" transform="translate(38.467 26.073)" fill="#f0aab5"/>
      <path id="Path_42050" data-name="Path 42050" d="M264.245,317.963q-6.024,33.93-13.93,67.491a375.972,375.972,0,0,1,54.631,28.259q8.053-33.434,16.105-66.871a523.223,523.223,0,0,1-56.806-28.879" transform="translate(36.102 45.859)" fill="#f2b212"/>
      <path id="Path_42051" data-name="Path 42051" d="M278.938,338.27l.244-4.845a35.872,35.872,0,0,0-2.787,4.673,19.6,19.6,0,0,0-5.34-1.094l4.167,2.861a34.49,34.49,0,0,0-3.289,4.468l5.34-2.827a.565.565,0,0,1,.9.229l2.619,3.748a29.646,29.646,0,0,0-1.358-5.1,30.517,30.517,0,0,0,4.464-.332q-2.434-1.011-4.961-1.78m26.077,39.988-5.273,2.163c-.341-.476-1.358-1.536-2.308-2.653a16.547,16.547,0,0,0,.811,4.359,26.144,26.144,0,0,0-4.5-.144l4.987,2.315a39.031,39.031,0,0,0-1.5,4.768,32.135,32.135,0,0,0,4.087-4.773q1.984,1.121,4.027,2.132a18.525,18.525,0,0,0-2.515-4.262l2.18-3.9m6.5-23.742a10.51,10.51,0,0,0-5.211-.611q-.23-2.623-.461-5.243l-2.133,5.679a15.951,15.951,0,0,0-4.886-.565,21.145,21.145,0,0,1,4.215,2.089q-1.15,2.128-2.171,4.325a16.565,16.565,0,0,0,3.6-2.794q2.094,1.416,4.187,2.831a17.406,17.406,0,0,0-2.045-4.24q2.478-.64,4.9-1.47" transform="translate(39.094 48.089)" fill="#fff"/>
    </g>
  </g>
  <g id="Group_188862" data-name="Group 188862" transform="translate(286.417 363.822)">
    <g id="Group_188861" data-name="Group 188861" clip-path="url(#clip-path-2)">
      <path id="Path_42052" data-name="Path 42052" d="M246.054,371.738A20.961,20.961,0,1,1,267.015,392.7a20.962,20.962,0,0,1-20.961-20.961" transform="translate(-250.93 -313.23)" fill="#198cbd"/>
      <path id="Path_42053" data-name="Path 42053" d="M245.86,385.632q-.832,0-1.668-.056c-1.5-.1-3.248-.778-3.264-2.333a2.976,2.976,0,0,1,1.1-2.041,23.946,23.946,0,0,1,5.633-4.131.446.446,0,0,1,.418.788,23.045,23.045,0,0,0-5.424,3.976,2.212,2.212,0,0,0-.834,1.4c.01,1.015,1.6,1.393,2.436,1.451,5.123.357,10.279-1.087,15.533-2.728,11.251-3.516,23.163-7.671,34.03-14.2a20.854,20.854,0,0,0,5.008-3.845,3.682,3.682,0,0,0,1.079-2.107,2.905,2.905,0,0,0-1.7-2.557,7.4,7.4,0,0,0-3.473-.573,25.04,25.04,0,0,0-8.919,1.824.446.446,0,0,1-.334-.827,25.974,25.974,0,0,1,9.236-1.888,8.152,8.152,0,0,1,3.89.668,3.756,3.756,0,0,1,2.184,3.413,4.632,4.632,0,0,1-1.3,2.636,21.6,21.6,0,0,1-5.217,4.02c-10.95,6.58-22.92,10.758-34.226,14.29-4.774,1.492-9.465,2.823-14.192,2.823" transform="translate(-251.669 -312.221)"/>
    </g>
  </g>
  <g id="Group_188864" data-name="Group 188864">
    <g id="Group_188863" data-name="Group 188863" clip-path="url(#clip-path)">
      <path id="Path_42055" data-name="Path 42055" d="M119.457,25.119c-7.67-3.292-16.366-4.744-24.441-2.635s-15.343,8.18-17.562,16.225c-1.373,4.982-.852,10.512-3.261,15.084-2.984,5.666-9.918,8.745-11.98,14.807a14.537,14.537,0,0,0,.162,8.793c.884,2.948,2.5,5.823,5.116,7.437,3.279,2.022,7.6,1.776,10.824,3.882,2.481,1.619,3.973,4.417,6.361,6.172a9.675,9.675,0,0,0,6.856,1.783c2.624-.331,5.075-1.74,7.719-1.711,2.793.03,5.307,1.655,8.04,2.23a11.163,11.163,0,0,0,11.358-4.7c1.485-2.274,2.177-5.165,4.324-6.828,1.566-1.212,3.652-1.546,5.308-2.633,2.484-1.631,3.608-4.648,4.522-7.476,1.315-4.069,2.529-8.379,1.682-12.57-.938-4.651-4.329-8.645-4.666-13.377-.275-3.856,1.539-7.647,1.188-11.5-.527-5.77-5.5-10.392-11.551-12.989" transform="translate(8.885 3.1)"/>
      <path id="Path_42056" data-name="Path 42056" d="M146.809,112.943c.777-5.523-2.375-10.845-6.042-15.049s-8.037-7.919-10.588-12.885c-1.185-2.324-1.928-5.117-.9-7.512.848-1.95,2.7-3.262,3.87-5.031a3.182,3.182,0,0,0,.648-2.224,4.042,4.042,0,0,0-.57-1.269c-.452-.747-.9-1.5-1.359-2.258a2.451,2.451,0,0,0-1.242-1.231,1.655,1.655,0,0,0-1.54.474,3.6,3.6,0,0,0-.865-.568,1.443,1.443,0,0,0-1.258,0,1.913,1.913,0,0,0-.549.518,4.944,4.944,0,0,0-.357.513,3.9,3.9,0,0,0-.905-.617,1.815,1.815,0,0,0-1.626,0,2.534,2.534,0,0,0-.68.69c-1.133,1.558-1.878,3.4-3.227,4.775-.37.37-.82.863-.61,1.35a.852.852,0,0,0,.291.336,1.927,1.927,0,0,0,1.288.358c-1.8,1.871-3.575,3.985-3.845,6.556a12.182,12.182,0,0,0,.656,4.484c2.865,10.219,6.822,20.324,13.4,28.658,2.367,2.985,5.431,5.912,9.233,6.141a6.417,6.417,0,0,0,3.716-.868,7.444,7.444,0,0,0,3.056-5.341" transform="translate(16.834 9.41)" fill="#fec8c8"/>
      <path id="Path_42057" data-name="Path 42057" d="M130.207,65.325a1.783,1.783,0,0,0-1.687.5,5.152,5.152,0,0,0-.828.887L126,68.882q-.879,1.128-1.758,2.254a1.431,1.431,0,0,0-.371,1.053A2.071,2.071,0,0,1,122.38,72a.7.7,0,0,1-.395-.475.748.748,0,0,1,.2-.507,6.505,6.505,0,0,1,.933-.954c.2-.181.412-.367.605-.568a10.819,10.819,0,0,0,1.378-1.966c.2-.339.411-.69.633-1.02a.163.163,0,1,0-.27-.182c-.228.338-.438.692-.643,1.036a10.541,10.541,0,0,1-1.332,1.906c-.184.19-.389.373-.587.55a6.754,6.754,0,0,0-.977,1,1.041,1.041,0,0,0-.257.737.886.886,0,0,0,.375.6,3.627,3.627,0,0,1-1.181.83,2.379,2.379,0,0,1-.739.157.163.163,0,0,0,.008.326h.008a2.771,2.771,0,0,0,.841-.179,4.006,4.006,0,0,0,1.355-.96,2.347,2.347,0,0,0,1.045.252,2.478,2.478,0,0,0,.657-.1.8.8,0,0,0,.588.217,1.623,1.623,0,0,0,.334-.038c.124-.023.243-.061.363-.093a11.09,11.09,0,0,0-4.749,7.8.163.163,0,0,0,.145.178h.017a.161.161,0,0,0,.161-.145,10.753,10.753,0,0,1,7.738-9.027.163.163,0,1,0-.082-.315,9.868,9.868,0,0,0-1.227.419,4.926,4.926,0,0,0,1.354-1.96.164.164,0,0,0-.1-.209.162.162,0,0,0-.209.1,4.674,4.674,0,0,1-3.478,2.935c-.169.037-.478.073-.625-.082a.343.343,0,0,1-.032-.053c-.144-.215.054-.608.267-.878q.882-1.128,1.759-2.254Q127.1,68,127.95,66.915a4.829,4.829,0,0,1,.779-.835,1.462,1.462,0,0,1,1.387-.442.161.161,0,0,0,.2-.11.163.163,0,0,0-.111-.2" transform="translate(17.302 9.413)"/>
      <path id="Path_42058" data-name="Path 42058" d="M136.055,53.342a66.529,66.529,0,0,0-4.348-14.593q-5.01.481-10.035.957a7.715,7.715,0,0,0-3.863-6.387,8.073,8.073,0,0,1,1.946,7.691c-2.743.323-5.508.5-8.281.554a7.058,7.058,0,0,0-3.016-6.809,8.979,8.979,0,0,1,1.018,7.087q-7.708,1.648-15.309,3.734A20.917,20.917,0,0,0,92.7,57.715c.458,2.466,1.355,5.006.628,7.407a8.546,8.546,0,0,0-3.826-5.49,5.345,5.345,0,0,0-4.881-.128,3.9,3.9,0,0,0-1.347,1.118,5.416,5.416,0,0,0-.954,2.624,8.318,8.318,0,0,0,12,8.4,22.459,22.459,0,0,0,9.7,8.438,25.73,25.73,0,0,1-2.169,5.553c2.53,2.617,3.268,6.539,5.583,9.364a6.643,6.643,0,0,0,3.528,2.385c3.01.687,6.027-1.754,7.071-4.659a16.529,16.529,0,0,0,.339-7.9,23.02,23.02,0,0,1,1.481-2.724,18.578,18.578,0,0,0,15.113-12.868,32.808,32.808,0,0,0,1.093-15.893" transform="translate(11.865 4.805)" fill="#fec8c8"/>
      <path id="Path_42059" data-name="Path 42059" d="M118.69,22.812a17.657,17.657,0,0,1,10.276,9.2,19.524,19.524,0,0,0-8.047-3.446A27.706,27.706,0,0,0,103.527,30.7,26.885,26.885,0,0,0,91.1,43.033C88.447,48.488,87.767,54.7,87.955,60.8a5.248,5.248,0,0,0-3.454.4,42.465,42.465,0,0,1-.881-17.028,26.974,26.974,0,0,1,8.1-15.505,27.905,27.905,0,0,1,11.026-5.885,26.327,26.327,0,0,1,15.94.031" transform="translate(11.988 3.109)" fill="#f2b212"/>
      <path id="Path_42060" data-name="Path 42060" d="M130.978,39.63q-5.01.481-10.035.957a7.711,7.711,0,0,0-3.864-6.387,8.074,8.074,0,0,1,1.947,7.691c-2.744.323-5.508.5-8.28.554a7.06,7.06,0,0,0-3.017-6.809,8.989,8.989,0,0,1,1.02,7.087q-7.708,1.646-15.31,3.732A20.921,20.921,0,0,0,91.974,58.6c.458,2.466,1.355,5,.629,7.407a8.544,8.544,0,0,0-3.827-5.49,5.217,5.217,0,0,0-1.427-.533c-.187-6.094.491-12.307,3.147-17.763A26.9,26.9,0,0,1,102.92,29.886a27.709,27.709,0,0,1,17.393-2.132A19.532,19.532,0,0,1,128.36,31.2a4.228,4.228,0,0,1,.39.3,11.871,11.871,0,0,1,4.449,7.915c-.743.072-1.477.138-2.221.212" transform="translate(12.594 3.923)"/>
      <path id="Path_42061" data-name="Path 42061" d="M88.317,65.7a.216.216,0,0,1-.189-.11,2.489,2.489,0,0,1,.627-3.1,2.429,2.429,0,0,1,1.453-.5h.022a2.085,2.085,0,0,1,.906.2,5.022,5.022,0,0,0-2.3-2.28,2.882,2.882,0,0,0-1.941-.278,1.5,1.5,0,0,0-1.142,1.323.224.224,0,0,1-.217.216.216.216,0,0,1-.215-.219,1.912,1.912,0,0,1,1.46-1.739,3.306,3.306,0,0,1,2.242.306,5.442,5.442,0,0,1,2.843,3.346.217.217,0,0,1-.394.174,1.451,1.451,0,0,0-1.241-.616h-.016a2,2,0,0,0-1.193.413,2.068,2.068,0,0,0-.514,2.54.216.216,0,0,1-.082.3.209.209,0,0,1-.106.029" transform="translate(12.305 8.528)"/>
      <path id="Path_42062" data-name="Path 42062" d="M113.775,53.653a2.953,2.953,0,0,1,2.1-.763,9.042,9.042,0,0,1,2.253.39.781.781,0,0,0,.642-.021.635.635,0,0,0,.217-.487,1.931,1.931,0,0,0-.8-1.6,3.343,3.343,0,0,0-1.736-.6,4.31,4.31,0,0,0-2.618.549,3.1,3.1,0,0,0-1.486,2.173.921.921,0,0,0,.063.564c.2.366.831.332,1.366-.2" transform="translate(16.201 7.291)" fill="#ff9681"/>
      <path id="Path_42063" data-name="Path 42063" d="M114.138,63.164a5.418,5.418,0,0,1-1.589-.261,4.816,4.816,0,0,1-1.542-.771,3.69,3.69,0,0,1-1.387-2.833.25.25,0,0,1,.271-.272.273.273,0,0,1,.272.27,3.136,3.136,0,0,0,1.177,2.409,4.3,4.3,0,0,0,1.372.681,3.52,3.52,0,0,0,2.942-.188.271.271,0,0,1,.306.447,3.19,3.19,0,0,1-1.822.518" transform="translate(15.81 8.513)"/>
      <path id="Path_42064" data-name="Path 42064" d="M103.147,53.784a4.766,4.766,0,1,0,3.468,5.968,4.884,4.884,0,0,0-3.468-5.968m30.83-2.774c-.088-.031-.174-.064-.264-.09a4.766,4.766,0,1,0-2.661,9.141,5.128,5.128,0,0,0,3.237-.113,36.872,36.872,0,0,0-.311-8.938" transform="translate(13.966 7.314)" fill="#ff9681"/>
      <path id="Path_42065" data-name="Path 42065" d="M131.548,65.362a.129.129,0,0,0-.169.073,19.324,19.324,0,0,1-4.528,6.976,19.84,19.84,0,0,1-10.163,4.943c-.523.1-.949.17-1.342.222a25.844,25.844,0,0,1-11.16-.963h0a.13.13,0,0,0-.076.249c.165.051.33.1.494.149a26.089,26.089,0,0,0,10.777.824c.4-.051.828-.122,1.357-.223A20.1,20.1,0,0,0,127.031,72.6a19.584,19.584,0,0,0,4.591-7.069.129.129,0,0,0-.073-.168M113.935,84.008a24.948,24.948,0,0,1,1.414-3.744.129.129,0,0,0-.062-.173.125.125,0,0,0-.174.061,25.261,25.261,0,0,0-1.429,3.784,8.424,8.424,0,0,0-.357,4.046.132.132,0,0,0,.092.1.134.134,0,0,0,.064,0,.13.13,0,0,0,.1-.154,8.184,8.184,0,0,1,.352-3.919" transform="translate(15.002 9.426)"/>
      <path id="Path_42066" data-name="Path 42066" d="M108.4,45.114a5,5,0,1,0,3.573,6.246,5.09,5.09,0,0,0-3.573-6.246m20.392-.889a5.18,5.18,0,1,0-.121,7.195,5.09,5.09,0,0,0,.121-7.195" transform="translate(14.688 6.173)" fill="#fff"/>
      <path id="Path_42067" data-name="Path 42067" d="M108.8,45.753a3.868,3.868,0,1,0,2.633,4.8,3.867,3.867,0,0,0-2.633-4.8m19.614-1.143a3.868,3.868,0,1,0,0,5.471,3.869,3.869,0,0,0,0-5.471" transform="translate(14.979 6.271)"/>
      <path id="Path_42068" data-name="Path 42068" d="M100.4,47.191a.218.218,0,0,0-.346.264,2.272,2.272,0,0,0,1.182.764l.109.03a4.431,4.431,0,0,0,1.03.108c.051-.148.109-.293.172-.433a4.339,4.339,0,0,1-1.1-.1,1.9,1.9,0,0,1-1.05-.635m30.085-4.919a.217.217,0,0,0-.429-.064,1.91,1.91,0,0,1-.614,1.062,4.284,4.284,0,0,1-.914.616,4.116,4.116,0,0,1,.358.3,4.347,4.347,0,0,0,.851-.592c.027-.024.055-.05.081-.078a2.274,2.274,0,0,0,.667-1.239" transform="translate(14.424 6.061)"/>
      <path id="Path_42069" data-name="Path 42069" d="M120.7,5.942c-.049-2.013-.271-4.138.625-5.941A23.472,23.472,0,0,0,115.1,2.708a26.663,26.663,0,0,0-5.758,4.308,17.753,17.753,0,0,0-4.9,14.685,9.273,9.273,0,0,0-2.142-2.774,16.129,16.129,0,0,0-7.324-3.306c-2.645-.576-5.356-.82-8-1.42a15.58,15.58,0,0,1-7.254-3.44A16.791,16.791,0,0,0,83.968,22.6a16.786,16.786,0,0,0,11.315,5.469,23.245,23.245,0,0,0,9.933-1.929,6.323,6.323,0,0,0,.074-.816c.086.251.167.5.265.747a16.493,16.493,0,0,0,6.217-1.849,16.573,16.573,0,0,0,7.013-7.836A24.1,24.1,0,0,0,120.7,5.942" transform="translate(11.497 0)" fill="#e98107"/>
      <path id="Path_42070" data-name="Path 42070" d="M99.056,21.5c-1.777-.741-3.6-1.435-5.422-2.061a.135.135,0,0,0-.166.081.131.131,0,0,0,.081.166c1.815.624,3.634,1.315,5.408,2.054a7.047,7.047,0,0,1,2.682,1.648.124.124,0,0,0,.061.039.13.13,0,0,0,.135-.211A7.238,7.238,0,0,0,99.056,21.5m11.516-7.7a.132.132,0,0,0-.184-.011,24.149,24.149,0,0,0-6.285,8.845.13.13,0,0,0,.071.169l.013,0a.129.129,0,0,0,.157-.076,23.891,23.891,0,0,1,6.218-8.748.132.132,0,0,0,.011-.184" transform="translate(13.48 1.984)"/>
      <path id="Path_42071" data-name="Path 42071" d="M106.988,106.13c-2-5.563-4-11.131-5.644-16.808a5.64,5.64,0,0,1-.246-3.38,1.622,1.622,0,0,1,.577-.83,2.1,2.1,0,0,1,1.508-.174,2.352,2.352,0,0,1,1.826.974,2.5,2.5,0,0,1,.212.751q1.679,9.63,3.357,19.258c.041.247.049.568-.178.672a.584.584,0,0,1-.359,0c-.356-.077-.9-.03-1.052-.463" transform="translate(14.556 12.242)" fill="#198cbd"/>
      <path id="Path_42072" data-name="Path 42072" d="M105.22,86.665a2.522,2.522,0,0,0-.213-.751,2.35,2.35,0,0,0-1.824-.974,2.1,2.1,0,0,0-1.509.174,1.622,1.622,0,0,0-.577.83,5.644,5.644,0,0,0,.246,3.379c.134.462.284.919.421,1.38a6.028,6.028,0,0,0,4-.929l-.542-3.109" transform="translate(14.556 12.242)" fill="#f2b212"/>
      <path id="Path_42073" data-name="Path 42073" d="M124.488,112.475a2.552,2.552,0,0,1-.926,1.349,19.219,19.219,0,0,1-14.941,4.735c-2.009-.241-3.981-.8-6-.843a26.5,26.5,0,0,0-7.678,1.435A148.023,148.023,0,0,1,72.717,123.4a18.046,18.046,0,0,1-5.469.062,6.445,6.445,0,0,1-4.479-2.877,6.345,6.345,0,0,1-.757-2.925,11.132,11.132,0,0,1,4.429-8.845,18.3,18.3,0,0,1,9.479-3.551,54.424,54.424,0,0,1,10.25.164q5.384.415,10.768.84c3.226.252,6.929.327,9.13-2.044.675-.735,1.14-1.648,1.843-2.356a2.562,2.562,0,0,1,2.692-.834c1.128.473,1.642,2.1,2.714,2.137a26.606,26.606,0,0,0,4.084-.113,8.06,8.06,0,0,1,4,.586,1.966,1.966,0,0,1,.772.605.872.872,0,0,1,.1.852c.017.006.027,0,.045,0a1.761,1.761,0,0,1,1.394.894.941.941,0,0,1,.069.635,1.172,1.172,0,0,1-.487.618,2.706,2.706,0,0,1,.539.076,1.3,1.3,0,0,1,.454.177,1.105,1.105,0,0,1,.374.515,2.166,2.166,0,0,1-.241,1.856,4.8,4.8,0,0,1-1.159,1.217l.387.195c.55-.03.944.636.839,1.184" transform="translate(8.943 14.553)" fill="#fec8c8"/>
      <path id="Path_42074" data-name="Path 42074" d="M113.764,104.951a5.251,5.251,0,0,1,1.576-.2c.033.009.062.009.043,0a.163.163,0,1,0,.092-.312.294.294,0,0,0-.074-.01,5.459,5.459,0,0,0-1.708.2c-.629.143-1.258.283-1.886.423s-1.258.28-1.887.422a.163.163,0,0,0,.037.322.2.2,0,0,0,.035,0c.628-.143,1.256-.283,1.886-.423s1.258-.28,1.887-.422m3.85,4.282a.163.163,0,0,0-.224.053,4.6,4.6,0,0,1-1.128,1.182c-.046.041-.1.08-.143.116l-.035.029a14.462,14.462,0,0,1-3.671,2.015.163.163,0,0,0,.056.316.162.162,0,0,0,.056-.01,14.723,14.723,0,0,0,3.757-2.062l.037-.029c.053-.041.11-.086.153-.125a5.061,5.061,0,0,0,1.2-1.26.163.163,0,0,0-.054-.224m-1.112-2.356a.163.163,0,0,0-.2-.26l-.1.076a18.548,18.548,0,0,1-5.5,2.357.163.163,0,0,0,.047.319.174.174,0,0,0,.048-.007,18.814,18.814,0,0,0,5.6-2.407Z" transform="translate(15.835 15.06)"/>
    </g>
  </g>
</svg>
