<svg xmlns="http://www.w3.org/2000/svg" xmlns:xlink="http://www.w3.org/1999/xlink" width="1366" height="164" viewBox="0 0 1366 164">
  <defs>
    <clipPath id="clip-path">
      <rect id="Rectangle_5579" data-name="Rectangle 5579" width="1366" height="164" transform="translate(0 90)" fill="#fff"/>
    </clipPath>
    <clipPath id="clip-path-2">
      <rect id="Rectangle_5578" data-name="Rectangle 5578" width="160.012" height="133.396" fill="none"/>
    </clipPath>
  </defs>
  <g id="Mask_Group_14" data-name="Mask Group 14" transform="translate(0 -90)" clip-path="url(#clip-path)">
    <g id="Group_189882" data-name="Group 189882" transform="translate(106 120.604)">
      <g id="Group_189870" data-name="Group 189870" transform="translate(993.988 0)" clip-path="url(#clip-path-2)">
        <path id="Path_42735" data-name="Path 42735" d="M164.415,349.534c0,3.407-31.763,6.169-70.943,6.169s-70.943-2.762-70.943-6.169,31.763-6.169,70.943-6.169,70.943,2.762,70.943,6.169" transform="translate(-14.585 -222.307)" fill="#ccd7f3"/>
        <path id="Path_42736" data-name="Path 42736" d="M130.374,136.89c.586.413.7,1.289,1.8,1.512-1.094.266-1.245,1.111-1.783,1.6l-.06-.31-.121-.237.023-.008a1.158,1.158,0,0,0-.989-.892c-.02-.092-.041-.185-.061-.277a1.38,1.38,0,0,0,1.2-1.4Z" transform="translate(-83.634 -88.622)" fill="#ececf0"/>
        <path id="Path_42737" data-name="Path 42737" d="M223.029,21.087c-.82.269-1.081.884-1.376,1.544a1.814,1.814,0,0,0-1.161-1.523,1.983,1.983,0,0,0,1.16-1.653,2.249,2.249,0,0,0,1.376,1.633" transform="translate(-142.755 -12.595)" fill="#ececf0"/>
        <path id="Path_42738" data-name="Path 42738" d="M168.33,71.362c.071-.151.252-.306-.019-.442a2.071,2.071,0,0,0,.74-1.39,2.083,2.083,0,0,0,1.381,1.592,2.075,2.075,0,0,0-1.332,1.724,2.625,2.625,0,0,0-.77-1.485" transform="translate(-108.971 -45.016)" fill="#ececf0"/>
        <path id="Path_42739" data-name="Path 42739" d="M161.775,248.932a2.475,2.475,0,0,0,1.848,1.784A3.116,3.116,0,0,0,161.5,253.2a3.337,3.337,0,0,0-.394-1.281,1.781,1.781,0,0,0-1.168-.853.467.467,0,0,1-.3-.437c0-.369.263-.085.4-.13.984-.333,1.274-1.172,1.47-2.184l.269.612" transform="translate(-103.357 -160.771)" fill="#ececf0"/>
        <path id="Path_42740" data-name="Path 42740" d="M188.468,107.612c-1.16.266-1.506,1.2-1.794,2.217-.234-.537-.224-1.15-.708-1.534l-.287-.316a.819.819,0,0,0-.622-.337l-.52-.167.029-.049-.046-.034.536-.159a1.109,1.109,0,0,0,.777-.46l.2-.271-.009.022.222-.389-.02.017a.8.8,0,0,0,.241-.643l.181-.375c.269.481.24,1.124.8,1.411l.014.014c.042.631.974.412,1,1.053" transform="translate(-119.465 -68.068)" fill="#ececf0"/>
        <path id="Path_42741" data-name="Path 42741" d="M265.687,65.327a4.134,4.134,0,0,0-.289.464,6.223,6.223,0,0,0-.21.661c-.347-.748-.44-1.535-1.175-1.878a.386.386,0,0,0-.382-.162l.016.01c.182-.183-.769-.127-.083-.445a1.853,1.853,0,0,0,1.232-1.621.263.263,0,0,0,.189-.333c.123,0,.275-.026.306.13a2.994,2.994,0,0,0,1.867,2.055,3.483,3.483,0,0,0-1.469,1.118" transform="translate(-170.477 -40.154)" fill="#ececf0"/>
        <path id="Path_42742" data-name="Path 42742" d="M150.011,215.267a.318.318,0,0,1-.264-.321c1.168-.136,1.529-1.03,1.868-2.185a2.781,2.781,0,0,0,2.176,2.292,2.559,2.559,0,0,0-2.007,2.1c-.234.179-.234.179-.39-.267a1.9,1.9,0,0,0-1.383-1.618" transform="translate(-96.952 -137.749)" fill="#ececf0"/>
        <path id="Path_42743" data-name="Path 42743" d="M261.445,152.642c-.942.3-1.149,1.139-1.467,2.02-.556-.89-.644-2.153-2.093-2.2a2.76,2.76,0,0,0,2.045-2.6c.372,1.273.8,2.214,2.029,2.412l-.515.37" transform="translate(-166.964 -97.025)" fill="#ececf0"/>
        <path id="Path_42744" data-name="Path 42744" d="M185.137,183.435l-.364.848a2.636,2.636,0,0,0-1.993-2.353c.63-.264,1.144-.435,1.41-.929.377-.362.413-.879.617-1.428a2.965,2.965,0,0,0,1.985,2.329,2.632,2.632,0,0,0-1.655,1.533" transform="translate(-118.339 -116.262)" fill="#ececf0"/>
        <path id="Path_42745" data-name="Path 42745" d="M215.317,169.038a2.473,2.473,0,0,0-1.533,1.856,2.149,2.149,0,0,0-1.541-1.822,2.114,2.114,0,0,0,1.532-1.67,2.284,2.284,0,0,0,1.542,1.636" transform="translate(-137.414 -108.382)" fill="#ececf0"/>
        <path id="Path_42746" data-name="Path 42746" d="M255.289,108.165a.607.607,0,0,1-.369.363c-.606.243-.751.853-1.052,1.353l-.268-.387c-.039-.677-.577-.9-1.186-1.218a1.836,1.836,0,0,0,1.372-1.717.353.353,0,0,0,.075-.1c.2.8.509,1.508,1.427,1.708" transform="translate(-163.422 -68.924)" fill="#ececf0"/>
        <path id="Path_42747" data-name="Path 42747" d="M308.359,204.153c.427-.334.311-.927.647-1.382a2.69,2.69,0,0,0,2,2.3,2.614,2.614,0,0,0-1.852,1.948c-.147.4-.289.4-.369-.021a2.364,2.364,0,0,0-1.777-1.884c.516-.275,1.087-.41,1.349-.96" transform="translate(-198.769 -131.281)" fill="#ececf0"/>
        <path id="Path_42748" data-name="Path 42748" d="M285.5,234.385a2.453,2.453,0,0,0-1.628,1.8,2.166,2.166,0,0,0-1.533-1.757,2.1,2.1,0,0,0,1.5-1.941c.288.992.626,1.607,1.656,1.9" transform="translate(-182.796 -150.52)" fill="#ececf0"/>
        <path id="Path_42749" data-name="Path 42749" d="M163.638,150.911a2.471,2.471,0,0,0-1.546,1.859,2.052,2.052,0,0,0-1.558-1.858,1.967,1.967,0,0,0,1.548-1.808,2.508,2.508,0,0,0,1.556,1.807" transform="translate(-103.935 -96.535)" fill="#ececf0"/>
        <path id="Path_42750" data-name="Path 42750" d="M264.71,190.171a1.936,1.936,0,0,0,1.318-1.458,2.176,2.176,0,0,0,1.342,1.385,2.24,2.24,0,0,0-1.306,1.707c-.243-.891-.513-1.466-1.354-1.634" transform="translate(-171.383 -122.18)" fill="#ececf0"/>
        <path id="Path_42751" data-name="Path 42751" d="M201.481,252.718v0c-.687.169-1.007.686-1.264,1.635-.193-.9-.46-1.438-1.285-1.678a2.2,2.2,0,0,0,1.289-1.407,3.128,3.128,0,0,0,1.259,1.447" transform="translate(-128.796 -162.682)" fill="#ececf0"/>
        <path id="Path_42752" data-name="Path 42752" d="M222.663,130.467a1.968,1.968,0,0,0,1.5,1.473,1.99,1.99,0,0,0-1.472,1.5c-.3-.655-.5-1.258-1.5-1.434a1.971,1.971,0,0,0,1.471-1.537" transform="translate(-143.208 -84.469)" fill="#ececf0"/>
        <path id="Path_42753" data-name="Path 42753" d="M226.541,297.942c-.17-.6-.912-.65-1.137-1.2.886-.169,1.2-.807,1.333-1.685.338.749.614,1.49,1.66,1.769a2.388,2.388,0,0,0-1.577,1.723l-.279-.612" transform="translate(-145.935 -191.033)" fill="#ececf0"/>
        <path id="Path_42754" data-name="Path 42754" d="M228.783,220.6l-.234.621c-.276-1.263-.719-2.2-2.187-2.467a2.6,2.6,0,0,0,2.2-2.231,3.063,3.063,0,0,0,1.908,2.223.524.524,0,0,1-.05.079.584.584,0,0,1-.072.059,2.232,2.232,0,0,0-1.562,1.717" transform="translate(-146.554 -140.185)" fill="#ececf0"/>
        <path id="Path_42755" data-name="Path 42755" d="M317.1,170.45c.011-.858-.793-1.11-1.219-1.644.872-.115,1.1-.8,1.341-1.591a2.351,2.351,0,0,0,1.54,1.683c-.972.3-.951,1.233-1.546,1.675-.007,0-.046-.026-.064-.046a.585.585,0,0,1-.052-.077" transform="translate(-204.513 -108.261)" fill="#ececf0"/>
        <path id="Path_42756" data-name="Path 42756" d="M278.361,276.319a2.078,2.078,0,0,0-1.5-1.945,1.985,1.985,0,0,0,1.5-1.846,2.365,2.365,0,0,0,1.571,1.842,2.474,2.474,0,0,0-1.57,1.949" transform="translate(-179.246 -176.444)" fill="#ececf0"/>
        <path id="Path_42757" data-name="Path 42757" d="M146.374,114.942c.582-.2.414-.952.9-1.225a1.716,1.716,0,0,1,1.143-.74c-.022-.331-.374-.3-.529-.481-.887-.362-1.064-1.226-1.391-2.188a2.623,2.623,0,0,1-2.19,2.557,2.326,2.326,0,0,1,2.07,2.077" transform="translate(-93.428 -71.417)" fill="#ccd7f3"/>
        <path id="Path_42758" data-name="Path 42758" d="M116.379,181.629l-.212.486a1.882,1.882,0,0,1-1.233,1.147c1.017.134,1.1,1.08,1.595,1.638a1.545,1.545,0,0,1,.785-1.261l.182-.148.4-.163c-.026-.086-.053-.172-.08-.258-.887-.026-.984-.9-1.437-1.44" transform="translate(-74.412 -117.593)" fill="#ccd7f3"/>
        <path id="Path_42759" data-name="Path 42759" d="M203.439,38.976a2.689,2.689,0,0,1,1.652-1.79,2.207,2.207,0,0,1-1.636-1.77c-.224.894-.533,1.554-1.46,1.8.922.218,1.181.923,1.444,1.76" transform="translate(-130.779 -22.93)" fill="#ccd7f3"/>
        <path id="Path_42760" data-name="Path 42760" d="M162.525,72.553c.214-.793.5-1.3,1.115-1.526.072-.151.252-.306-.019-.441-.732-.225-.87-.919-1.193-1.572a2.124,2.124,0,0,1-1.361,1.807c.853.262,1.077.968,1.458,1.733" transform="translate(-104.28 -44.681)" fill="#ccd7f3"/>
        <path id="Path_42761" data-name="Path 42761" d="M207.483,148.025a2.364,2.364,0,0,0-1.777-1.884c.516-.275,1.087-.41,1.349-.96a14.992,14.992,0,0,0-13.51-8.937c-.219-.011-.436-.033-.654-.051a26.839,26.839,0,0,0-5.011.6,41.153,41.153,0,0,0-5.179,1.587c-3.26,1.305-6.448,2.835-9.95,3.4-3.15.508-6.168.352-8.487-2.3l-.363.848a2.636,2.636,0,0,0-1.993-2.353c.63-.264,1.144-.435,1.41-.928a8.557,8.557,0,0,1,5.8-9.173,5.091,5.091,0,0,1,6.375,5.8,1.917,1.917,0,0,1-2.857,1.577,5.567,5.567,0,0,1-1.454-.863c-.4-.326-.8-.638-1.334-1.057a5.536,5.536,0,0,0,.579,1.88c1.186,2.738,2.944,3.867,5.919,3.688a11.2,11.2,0,0,0,6.941-3.18,10.7,10.7,0,0,0,3.655-8.846,13.65,13.65,0,0,0-2.393-6.677,19.2,19.2,0,0,0-9.783-7.784,21.6,21.6,0,0,0-8.3-.557c-1.16.266-1.506,1.2-1.794,2.217-.234-.537-.224-1.15-.707-1.535l-.529.106-2.226.94-.6.338-1.449.837-.028-.016a.312.312,0,0,1-.369.221l0,.018c-.067.293-.318.385-.548.5l-1.037.908-2.229,2.489-.159.183-2.084,3.81a.177.177,0,0,1-.049.14,7.325,7.325,0,0,1-.675,1.7l-.095.375a2.948,2.948,0,0,1-.356,1.13l-.071.385-.14.563-.121.388c-.206,1.421-.489,2.835-.6,4.264a18.906,18.906,0,0,0,.982,7.8l.148.39.05.062-.052.051-.164.113c.063.46.691.436.76.89l1.878,2.652c.385.313.779.615,1.153.94a16.032,16.032,0,0,0,12.6,4.252c.546-.2,1.166-.017,1.693-.323l.4-.086.379-.05,1.874-.612.39-.156a.358.358,0,0,1,.171-.061c2.7-1.106,5.392-2.233,8.393-2.2a8.477,8.477,0,0,1,8.376,7.748,5.6,5.6,0,0,1-5.33,6.084,11.966,11.966,0,0,1-5.813-1.324c-1.7-.806-3.367-1.683-5.048-2.529l-.2-.148.006.014a.64.64,0,0,1-.563-.383,2.267,2.267,0,0,1-1.31-.4l-.57-.188-.286-.165-.474-.048-.087.013-.087-.017a3.074,3.074,0,0,1-1.14-.309c-.345-.021-.691-.026-1.034-.067a11.375,11.375,0,0,0-7.781,1.952,12.668,12.668,0,0,0-4.025,4.771,2.475,2.475,0,0,0,1.848,1.784,3.117,3.117,0,0,0-2.118,2.489,3.323,3.323,0,0,0-.394-1.28,11.067,11.067,0,0,0,1.119,6.665,7.2,7.2,0,0,0,6.341,4.284,20.863,20.863,0,0,0,5.034-.526,28,28,0,0,1,5.575-.778,13.164,13.164,0,0,1,6.91.875,6.315,6.315,0,0,1,3.492,8.9,44.19,44.19,0,0,1-2.435,4.01l.166.162a10.559,10.559,0,0,0,4.451-14.7c-1.16-2.175-3.212-3.04-5.428-3.649-2.324-.638-4.753-.841-7.029-1.685a6.494,6.494,0,0,1-2.353-1.327c-.968-.935-1.55-1.979-.91-3.352-.687.17-1.008.687-1.265,1.636-.193-.9-.46-1.438-1.285-1.678a2.2,2.2,0,0,0,1.289-1.407,3.128,3.128,0,0,0,1.259,1.447c1.449-1.724,3.292-1.982,5.426-1.689a16.465,16.465,0,0,1,6.96,3.153,35.022,35.022,0,0,0,4.537,2.911,17.11,17.11,0,0,0,3.937,1.2,22.791,22.791,0,0,0,9.724-1.921,11.385,11.385,0,0,0,6.673-7.365,19.325,19.325,0,0,0,.444-10.593c-.147.4-.289.4-.369-.022M176.92,118.308a1.968,1.968,0,0,0,1.5,1.473,1.99,1.99,0,0,0-1.472,1.5c-.3-.655-.5-1.258-1.5-1.434a1.972,1.972,0,0,0,1.471-1.537m-21.3,10.236a2.052,2.052,0,0,0-1.558-1.858,1.967,1.967,0,0,0,1.548-1.808,2.509,2.509,0,0,0,1.555,1.807,2.47,2.47,0,0,0-1.546,1.859m36.525,13.391c-.243-.891-.513-1.466-1.353-1.633a1.936,1.936,0,0,0,1.318-1.459,2.175,2.175,0,0,0,1.342,1.386,2.238,2.238,0,0,0-1.306,1.706m6.394,16.039a2.166,2.166,0,0,0-1.532-1.757,2.1,2.1,0,0,0,1.5-1.941c.289.993.626,1.607,1.656,1.9a2.455,2.455,0,0,0-1.628,1.8" transform="translate(-97.465 -72.31)" fill="#ccd7f3"/>
        <path id="Path_42762" data-name="Path 42762" d="M213.326,234.333l0,0h0Z" transform="translate(-138.115 -151.716)" fill="#ccd7f3"/>
        <path id="Path_42763" data-name="Path 42763" d="M259.947,139.97l-.013-.026c0,.012,0,.024,0,.036Z" transform="translate(-168.291 -90.605)" fill="#ccd7f3"/>
        <path id="Path_42764" data-name="Path 42764" d="M234.452,80.19c1.352,2.158,4.031,3.857,6.929,1.526a.354.354,0,0,0,.075-.1,5.036,5.036,0,0,0,1.417-3.208c.024-1.592-.842-2.33-2.4-2-.611.128-1.2.343-1.889.543a2.151,2.151,0,0,1,1.319-1.884,4.017,4.017,0,0,1,4.887,1.709,4.058,4.058,0,0,1-.659,5.264c-.4.439-.83.859-1.245,1.288a.608.608,0,0,1-.37.364l-.978,1.846-.167.633.016.049-.046.034a10.306,10.306,0,0,0,1.321,7.173q-.075-.919-.151-1.839c-.195-2.361-.182-4.678,1.565-6.569a17.366,17.366,0,0,1,3.284-2.513c2.406-1.6,3.848-3.733,3.413-6.733a7.946,7.946,0,0,0-4.544-6.512,4.1,4.1,0,0,0-.289.464,6.152,6.152,0,0,0-.21.662c-.348-.748-.44-1.535-1.175-1.878l-.383-.162.016.01a16.535,16.535,0,0,0-3.832-.218,7.777,7.777,0,0,0-4.516,1.824,8.228,8.228,0,0,0-2.582,6.693,10.446,10.446,0,0,0,1.2,3.541" transform="translate(-151.016 -44.08)" fill="#ccd7f3"/>
        <path id="Path_42765" data-name="Path 42765" d="M142.267,217.1a3.338,3.338,0,0,1-1.383-1.618.318.318,0,0,1-.264-.321,5.464,5.464,0,0,1-.466-1.74c-.058-.11-.1-.289-.179-.315-.2-.06-.122.144-.137.23a3.55,3.55,0,0,1-.6,1.757,2.6,2.6,0,0,1-.265.78c-.325.427-.477,1.11-1.244,1-.025.1-.05.2-.074.3-.517.526-1.312.49-2,.906,2.453.336,3.975,2.15,4.237,4.9.66-2.377,1.7-4.421,4.495-4.962l-1.724-.649c-.234.179-.234.179-.39-.267" transform="translate(-87.824 -137.967)" fill="#ccd7f3"/>
        <path id="Path_42766" data-name="Path 42766" d="M203,80.664a3.8,3.8,0,0,1,3.066,3.292l-.151.251c.384.35.466.182.552-.25a4.064,4.064,0,0,1,1.751-2.674c.385-.259.943-.2,1.239-.691a4.024,4.024,0,0,1-3.062-3.555c-.017-.093.1-.436-.248-.258l-.053.375A3.68,3.68,0,0,1,203,80.664" transform="translate(-131.431 -49.677)" fill="#ccd7f3"/>
        <path id="Path_42767" data-name="Path 42767" d="M282.471,118.881l-.081-.361-.175-.561-.354-1.134-.155-.4-.184-.374-1.142-1.82a10.571,10.571,0,0,0-2.5-1.978c-3.575-1.791-8.9-.546-11.6,2.659a7.842,7.842,0,0,0-1.656,6.971,11.564,11.564,0,0,1,.2,5.053c-.7,2.786-2.568,4.753-4.761,6.5,3.356-.874,6.671-1.843,9.383-4.192v.006l.324-.389.432-.546a7.849,7.849,0,0,0,.957-3.014v-.381q-.007-.376-.013-.753a5.948,5.948,0,0,1,.2-3.027l.316-.758a2.382,2.382,0,0,1,1.558-1.54l0,.014a.54.54,0,0,1,.575-.218l-.015.029.213-.137a1.94,1.94,0,0,1,.951-.025.682.682,0,0,1,.581.149l.4.2a1.8,1.8,0,0,1,.556,2.671.716.716,0,0,1-.378.569c-.669,1.072-1.525.948-2.45.384l.005.355a.759.759,0,0,1,.085.576l.265,1.112.69.964a.132.132,0,0,1,.087.1l.949.589a7.315,7.315,0,0,0,2.386.37l.411-.067,1.492-.48.208-.127a7.669,7.669,0,0,0,1.545-1.505l.248-.43a8.9,8.9,0,0,0,.613-4.109,2.045,2.045,0,0,1-.152-.944" transform="translate(-168.368 -72.147)" fill="#ccd7f3"/>
        <path id="Path_42768" data-name="Path 42768" d="M293.414,91.2c.654-1.556.826-1.753,2.1-2.427a2.928,2.928,0,0,1-2.086-2.256,2.5,2.5,0,0,1-2.185,2.319,2.592,2.592,0,0,1,2.176,2.365" transform="translate(-188.558 -56.013)" fill="#ccd7f3"/>
        <path id="Path_42769" data-name="Path 42769" d="M259.952,140.02l-.011.01.1.13-.085-.14" transform="translate(-168.295 -90.654)" fill="#ccd7f3"/>
        <path id="Path_42770" data-name="Path 42770" d="M220.588,297.522l-.6-1.263a2.654,2.654,0,0,1-2.019,2.384c1.4.344,1.832,1.243,2.071,2.591a3.123,3.123,0,0,1,1.689-2.516c-.17-.6-.912-.65-1.137-1.2" transform="translate(-141.118 -191.809)" fill="#ccd7f3"/>
        <path id="Path_42771" data-name="Path 42771" d="M236.4,224.52a2.844,2.844,0,0,1-1.607-1.3,2.232,2.232,0,0,0-1.562,1.717c.772.35.857,1.166,1.23,1.932a3.153,3.153,0,0,1,1.938-2.347" transform="translate(-151.001 -144.519)" fill="#ccd7f3"/>
        <path id="Path_42772" data-name="Path 42772" d="M307.563,166.579a4.746,4.746,0,0,1-1.081-2.779l.017-.025-.29.079a3.483,3.483,0,0,1-1.705,3.376l-.767.363-.7.274c.549.189,1.01.2,1.337.532,1.431.658,1.651,2.065,2.043,3.521.343-1.655.886-2.989,2.369-3.7.011-.858-.793-1.111-1.22-1.644" transform="translate(-196.194 -106.034)" fill="#ccd7f3"/>
        <path id="Path_42773" data-name="Path 42773" d="M338.249,190.675a2.126,2.126,0,0,1-1.329,1.78c.861.273,1.128.927,1.454,1.654.3-.767.579-1.4,1.509-1.648a3.237,3.237,0,0,1-1.634-1.786" transform="translate(-218.134 -123.45)" fill="#ccd7f3"/>
        <path id="Path_42774" data-name="Path 42774" d="M327.667,127.261a2.883,2.883,0,0,0,1.857,2.515c-.039.344-.44.276-.6.493a1.525,1.525,0,0,0-.823.91c-.26.3-.26.693-.433,1.126-.327-1.112-.634-2.182-1.986-2.295-.007-.075-.013-.15-.02-.225.229-.041.485-.016.629-.262l.191-.177a.549.549,0,0,0,.593-.583,1.242,1.242,0,0,0,.4-1.119c.179-.071.167-.236.192-.384" transform="translate(-210.847 -82.393)" fill="#ececf0"/>
        <path id="Path_42775" data-name="Path 42775" d="M14.352,172.427a54.386,54.386,0,0,1,4.14-4.926c1.79-2.11,3.628-4.179,5.408-6.3.517-.616.928-.8,1.61-.218q10.068,8.54,20.168,17.04a.958.958,0,0,1,.406,1.189c-.484,1.358-1.611,2.241-2.5,3.278-2.209,2.566-4.4,5.151-6.656,7.674-.28.312-.512.688-.988.737-.466-.118-.694-.56-1.081-.788-6.266-5.225-12.452-10.547-18.719-15.772a5.181,5.181,0,0,1-1.783-1.917" transform="translate(-9.292 -104)" fill="#adc3f4"/>
        <path id="Path_42776" data-name="Path 42776" d="M5.06,194.082c2.819,2.359,5.648,4.708,8.456,7.081q6.148,5.2,12.272,10.42c.265.424,0,.746-.241,1.034a30.3,30.3,0,0,1-1.977,2.407,7.622,7.622,0,0,0-2.443,3.943c-2.18-1.551-4.136-3.368-6.161-5.108-1.567-1.346-3.207-2.608-4.762-3.974-2.07-1.821-4.2-3.569-6.315-5.344-.908-.764-1.845-1.495-2.732-2.281-1.458-1.293-1.549-2.2-.209-3.6,1.243-1.295,2.305-2.734,3.5-4.067a5.263,5.263,0,0,1,.617-.512" transform="translate(0 -125.656)" fill="#33479d"/>
        <path id="Path_42777" data-name="Path 42777" d="M66.7,224.9q4.7-5.43,9.411-10.857c.223-.257.491-.475.738-.71l2.333,2.006c.263.606-.232.922-.534,1.27q-4.538,5.231-9.074,10.462c-.546.464-.887,1.141-1.539,1.5a.689.689,0,0,1-.56-.039A.979.979,0,0,0,66,228.82c-.439.543-.7,1-.11,1.585a.617.617,0,0,1,.095.656,2.768,2.768,0,0,1-.707.9,1.957,1.957,0,0,1-2.913-2.588c1.124-1.406,2.354-2.723,3.548-4.07a.965.965,0,0,1,.79-.4" transform="translate(-40.056 -138.119)" fill="#f7f7e0"/>
        <path id="Path_42778" data-name="Path 42778" d="M83.034,230.232q4.094-4.755,8.186-9.513c.572-.667,1.11-1.363,1.664-2.046.312-.123.67-.378.911.037.212.366-.1.638-.328.9l-9.729,11.16c-.472.134-.659-.108-.7-.535" transform="translate(-53.759 -141.454)" fill="#adc3f4"/>
        <path id="Path_42779" data-name="Path 42779" d="M65.223,244.576c-1.352,1.566-2.709,3.129-4.055,4.7-.776.907-.7,1.321.27,2.2.768.7,1.453.783,2.144-.084.262-.329.568-.622.854-.931.452-.061.753.058.709.591-.319.382-.613.789-.962,1.142a2.024,2.024,0,0,1-3.22.1c-.431-.381-.838-.79-1.256-1.186-.453-1.427.487-2.329,1.3-3.211a29.806,29.806,0,0,0,3.36-4.172,1.7,1.7,0,0,1,.855.853" transform="translate(-38.581 -157.795)" fill="#7b88d0"/>
        <path id="Path_42780" data-name="Path 42780" d="M72.238,258.013a1.382,1.382,0,0,0-.709-.591,2.687,2.687,0,0,0-.489-.475c-.65-.373-.639-.767-.1-1.224a.948.948,0,0,0,.225-.26c.627-1.162,1.407-1.324,2.364-.371.4.051.756.149.794.643,1.051.619.805,1.579.665,2.513-.073.487-.14.974-.231,1.61l-2.52-1.845" transform="translate(-45.673 -164.754)" fill="#fd4d0a"/>
        <path id="Path_42781" data-name="Path 42781" d="M79.81,254.01l-.794-.643,1.417-1.56.7.535L79.81,254.01" transform="translate(-51.158 -163.03)" fill="#7b88d0"/>
        <path id="Path_42782" data-name="Path 42782" d="M90.142,89.96h0a1.756,1.756,0,0,0-1.387,1.356,16.956,16.956,0,0,0-.639,4.232,3.875,3.875,0,0,0,1.368-1.338,2.75,2.75,0,0,0,2.369.168q.381-2.167.762-4.335c-.822-.105-1.633-.516-2.473-.084" transform="translate(-57.049 -58.118)" fill="#33479d"/>
        <path id="Path_42783" data-name="Path 42783" d="M80.423,151.762h0a2.161,2.161,0,0,0-1.293,1.124,15.354,15.354,0,0,0-.676,4.192,2.742,2.742,0,0,1,1.533-1.319,7.08,7.08,0,0,1,2.21.156q.319-2.059.64-4.119a3.749,3.749,0,0,0-2.415-.033" transform="translate(-50.794 -98.13)" fill="#33479d"/>
        <path id="Path_42784" data-name="Path 42784" d="M87.81,106.146h0a2.325,2.325,0,0,0-1.343,1.177,13.044,13.044,0,0,0-.609,3.691,2.582,2.582,0,0,1,1.719-1.406,6.5,6.5,0,0,1,2.028.208l.573-3.615a4.424,4.424,0,0,0-2.369-.055" transform="translate(-55.588 -68.626)" fill="#33479d"/>
        <path id="Path_42785" data-name="Path 42785" d="M92.828,90.555q9,1.416,17.992,2.827c.608.095.777.4.683.982q-2.024,12.611-4.028,25.225a1.813,1.813,0,0,1-.932-.009q-8.349-1.33-16.7-2.652a2.031,2.031,0,0,1-1.235-.442,1.117,1.117,0,0,1-.141-.832c.177-1.164.3-2.337.589-3.482.26-2.373.7-4.718,1.075-7.074.281-1.786.495-3.583.9-5.349A26.915,26.915,0,0,1,91.6,96.17a5.184,5.184,0,0,1,.213-1.322c.079-1.166.32-2.308.511-3.457a1.12,1.12,0,0,1,.507-.836" transform="translate(-57.262 -58.629)" fill="#656fcb"/>
        <path id="Path_42786" data-name="Path 42786" d="M85.923,115.863c-2.965,17.3-.407,10.694-5.753,13.338.751-4.323,1.062-8.479,2.226-12.827.654-1.04,2.732-1.454,3.527-.511" transform="translate(-51.905 -74.672)" fill="#ccd7f3"/>
        <path id="Path_42787" data-name="Path 42787" d="M81.657,163.026l17.785,2.831a1.7,1.7,0,0,1,1.023.343l-.081.585a.8.8,0,0,1-.942.267q-9.36-1.478-18.719-2.969c-.5-.079-.991-.18-1.389.254a3.8,3.8,0,0,0-.407.665,1.328,1.328,0,0,0,1.051,1.843,2.638,2.638,0,0,1,.909.218c.312.356.688.133,1.043.113a5.82,5.82,0,0,1,1.177.194c.332.067.494.648.96.315,4.309.614,8.6,1.356,12.9,2.012.408,0,.8.123,1.207.153.268.02.563.126.779-.149a.48.48,0,0,1,.2-.1c.372.166.45.555.645.856-.013.533-.24.709-.8.619-6.484-1.043-12.973-2.054-19.456-3.1-1.666-.269-2.374-1.982-1.63-3.787.079-1.009.889-1.258,1.637-1.575a2.388,2.388,0,0,1,2.107.411" transform="translate(-50.253 -105.241)" fill="#877ef0"/>
        <path id="Path_42788" data-name="Path 42788" d="M87.664,103.653c.573-1.368,2.077-1.607,3.736-1.169-.023.861-.246,1.17-.468,1.28-.393.194-.789-.234-1.432-.2a2.135,2.135,0,0,0-1.446.888c-.2.182-.451.368-.568.3-.166-.1,0-.673.179-1.1" transform="translate(-56.597 -66.222)" fill="#ccd7f3"/>
        <path id="Path_42789" data-name="Path 42789" d="M138.827,174.64l.772-.077q-.293,1.836-.586,3.673c-.389-.121-.726-.281-.616-.79a.442.442,0,0,1-.207-.451,2.351,2.351,0,0,1,.06-.508,4.062,4.062,0,0,1,.079-.491,3.953,3.953,0,0,1,.078-.488,2.068,2.068,0,0,1,.064-.371.592.592,0,0,1,.357-.5" transform="translate(-89.468 -113.018)" fill="#33479d"/>
        <path id="Path_42790" data-name="Path 42790" d="M103.633,125.116c.267-1.686.527-3.374.8-5.059.154-.934.475-1.174,1.395-1.031q4.127.641,8.25,1.31c1.14.186,1.362.506,1.179,1.674q-.728,4.672-1.482,9.339c-.05.31-.147.612-.223.917a.743.743,0,0,1-.94.61q-4.553-.719-9.106-1.446c-.692-.111-.787-.591-.693-1.178q.411-2.568.815-5.137" transform="translate(-66.548 -77.037)" fill="#ccd7f3"/>
        <path id="Path_42791" data-name="Path 42791" d="M115.034,107.024c-1.557-.247-3.114-.5-4.673-.738-.459-.071-.874-.23-.793-.765.077-.51.483-.612.966-.534q4.67.752,9.344,1.482c.473.074.822.234.722.8-.1.59-.531.555-.972.484q-2.3-.367-4.594-.729" transform="translate(-70.932 -67.957)" fill="#ccd7f3"/>
        <path id="Path_42792" data-name="Path 42792" d="M87.211,169.582a6.847,6.847,0,0,1,2.539.261c.335.044.233.358.206.578-.078.648-.171,1.294-.258,1.941-.466.57-.412-.288-.685-.25a1.157,1.157,0,0,0-1.42-.23c-.244-.109-.616.847-.76-.091a.8.8,0,0,1-.146-.481,2.384,2.384,0,0,1,.062-.5,3.834,3.834,0,0,1,.079-.49,1.717,1.717,0,0,1,.115-.487.437.437,0,0,1,.268-.252" transform="translate(-56.122 -109.753)" fill="#fd4d0a"/>
        <path id="Path_42793" data-name="Path 42793" d="M89.266,175.43c.8-.61.8-.61,1.42.23l-1.42-.23" transform="translate(-57.794 -113.3)" fill="#e4eae6"/>
        <path id="Path_42794" data-name="Path 42794" d="M101.29,169.088q-9.641-1.538-19.284-3.073a1.133,1.133,0,0,0-1.331.578h0c-.924,1.291-.427,2.52,1.123,2.772l.845.14.074-.5q.04-.233.079-.465t.069-.471c.026-.156.052-.312.078-.469l.039-.154c.477.094.964.116,1.442.2,1.028.179,1.021.184.913,1.2-.044.414-.282.878.17,1.232.312.044.624.086.935.135l12.374,1.939c.465.081.933.147,1.394.247.422.092.588-.08.579-.483l.069-.02.032-.483.067-.481.08-.455q.035-.24.07-.48c.013-.1.026-.208.039-.311l.142-.595" transform="translate(-51.932 -107.466)" fill="#f7f7e0"/>
        <path id="Path_42795" data-name="Path 42795" d="M294.4,327.124l-.282-.976a2.421,2.421,0,0,1-1.31.035l.45.017a1.02,1.02,0,0,0,.813-.175,17.4,17.4,0,0,1-.925-2.073c-.365-1.2-1.486-1.875-1.939-3.012a4.1,4.1,0,0,0-1.218-1.891,1.743,1.743,0,0,0-.94-.353c-3.933-.429-7.814-1.18-11.705-1.869-2.148-.364-4.272-.849-6.41-1.262a69.482,69.482,0,0,0-13.037-1.455c-1.033.018-2.065.006-3.1.01a20.991,20.991,0,0,0-3.362.34,25.772,25.772,0,0,0-13.546,5.606,8.394,8.394,0,0,0-2.6,2.895c.007.284.216.411.427.515a8.83,8.83,0,0,1,3.836,3.922c.162.3.311.616.693.7a3.774,3.774,0,0,0,1.591-.134,54.289,54.289,0,0,1,12.548-1.518,74.266,74.266,0,0,1,8.948.5c3.807.379,7.616.727,11.426,1.067.658,0,1.3.159,1.962.16q8.4,0,16.795,0a1.313,1.313,0,0,0,1.039-.257q-.079-.392-.158-.785" transform="translate(-152.336 -203.365)" fill="#cdb299"/>
        <path id="Path_42796" data-name="Path 42796" d="M106.888,312.2c-3.274-1.559-6.812-1.933-10.357-2.137a51.429,51.429,0,0,0-9.821.539c-5.793.779-11.459,2.19-17.171,3.37-3.682.761-7.381,1.424-11.092,2.022a3.4,3.4,0,0,0-1.42.4,4.244,4.244,0,0,0-.819,1.321c-.412.7-.66,1.611-1.257,2.051a3.262,3.262,0,0,0-1.13,1.754c-.337.934-.7,1.859-1.048,2.789.217.208.492.145.748.153l.316.006c-.187,0-.374,0-.561,0a.921.921,0,0,0-.671.16l-.157.619c.368.352.835.263,1.269.259,4.346-.041,8.7.138,13.039-.159,2.4-.2,4.808-.315,7.211-.463,2.54-.156,5.075-.365,7.612-.548,3.506-.252,7.012-.457,10.524-.569,2.18-.07,4.349.153,6.521.3a29.275,29.275,0,0,1,6.962,1.212,1.822,1.822,0,0,0,.8.066c.343-.158.457-.5.612-.794a7.614,7.614,0,0,1,6.262-4.32c.4-.043.853-.015,1.112-.439a2.135,2.135,0,0,0-.35-1.033,15.525,15.525,0,0,0-7.137-6.56" transform="translate(-33.957 -200.705)" fill="#cdb299"/>
        <path id="Path_42797" data-name="Path 42797" d="M305.534,245.23a58.972,58.972,0,0,1,7.238-4.257c2.142-1.1,4.326-2.11,6.492-3.16l2.525-.951c-.5,1.8-.972,3.475-1.436,5.153-.158.57-.688.437-1.05.5q-3.755.657-7.462,1.538a60.862,60.862,0,0,0-6.262,1.811,1.12,1.12,0,0,1-.679.151c-.072-.491.52-.445.635-.785" transform="translate(-197.399 -153.353)" fill="#bea38d"/>
        <path id="Path_42798" data-name="Path 42798" d="M303.516,260.6c.042.466-.589.389-.635.785a3.168,3.168,0,0,1-1.1.486,6.215,6.215,0,0,1,1.74-1.271" transform="translate(-195.381 -168.72)" fill="#92806d"/>
        <path id="Path_42799" data-name="Path 42799" d="M247.251,352.792a6.573,6.573,0,0,0,1.6-.174c9.232-.282,18.467-.053,27.7-.121,1.389-.011,2.776.047,4.162.166a2.98,2.98,0,0,0,1.094-.041c6.185.3,12.374.076,18.561.144.446,0,.891-.012,1.337-.018.86.121,1.283.506,1.236,1.127s-.507.948-1.385.948q-25.783,0-51.566.007c-.329,0-.688-.118-.983.146a5.042,5.042,0,0,1-1.8-.018c-.481-.09-.926-.274-.875-.9.049-.164.132-.289.326-.189.637.328.66-.01.544-.5-.047-.2-.132-.4.043-.576" transform="translate(-159.486 -228.204)" fill="#656fcb"/>
        <path id="Path_42800" data-name="Path 42800" d="M50.268,352.757c4.347-.021,8.7.169,13.042-.118.443-.029.889-.009,1.334-.011a24.247,24.247,0,0,0,3.688-.05c1.127-.021,2.256-.062,3.383-.064,9.957-.013,19.913,0,29.87-.019a18.179,18.179,0,0,0,2.024.123l.6.171c.135.164.054.34.025.512-.036.221-.168.5.105.615.3.124.355-.2.47-.382.141-.225.186-.566.587-.468a.883.883,0,0,1,.37,1.092,1.213,1.213,0,0,1-1.107.855,14.413,14.413,0,0,0-2.332.157c-.183-.476-.6-.329-.937-.329q-19.485-.006-38.971,0H50.5a1.337,1.337,0,0,1-1.162-.343.983.983,0,0,1-.194-1.028,1.116,1.116,0,0,1,1.119-.71" transform="translate(-31.776 -228.217)" fill="#656fcb"/>
        <path id="Path_42801" data-name="Path 42801" d="M215.221,338.557l.32.062a9.845,9.845,0,0,1,4.723,4.9,3.814,3.814,0,0,0,.137.516c.139.332.216.672-.129.9-.421.275-.575-.132-.779-.377-.83-2.465-2.266-4.458-4.865-5.141a7.1,7.1,0,0,0-8.691,4.374c-.11.261-.215.524-.332.782s-.289.537-.638.391a.543.543,0,0,1-.279-.722c.072-.248.16-.491.24-.736a8.717,8.717,0,0,1,4.09-4.5,9.773,9.773,0,0,1,3.8-.854c.193.2.432.1.656.1l.974.079.769.238" transform="translate(-132.499 -218.926)" fill="#fd4d0a"/>
        <path id="Path_42802" data-name="Path 42802" d="M290.143,314.407a7.637,7.637,0,0,1,3.316,0h-3.316" transform="translate(-187.849 -203.44)" fill="#cac8b4"/>
        <path id="Path_42803" data-name="Path 42803" d="M175.508,326.754q-.016-1.178-.032-2.357c-.148-.785.078-1.581-.07-2.366l-.029-.355a.336.336,0,0,1-.022-.481q.007-1.471.013-2.942a.29.29,0,0,1,.236-.093,27.126,27.126,0,0,1,7.221.909,2.245,2.245,0,0,1,.874.334.215.215,0,0,1,.058.241c-.06,3.079-.12,6.158-.183,9.411L182.139,328a2.871,2.871,0,0,1-.918-.5c-.087-.056-.166-.124-.248-.187-1.766-1.376-1.1-1.3-2.993-.186a2.071,2.071,0,0,1-.6.235,11.29,11.29,0,0,0-1.749.918c-.2-.337-.043-.712-.135-1.041a.4.4,0,0,1,.009-.489" transform="translate(-113.472 -205.987)" fill="#fd4d0a"/>
        <path id="Path_42804" data-name="Path 42804" d="M217.635,347.054c-.579-.085-1.214-.1-1.087-.974a.621.621,0,0,0-.011-.671,8.961,8.961,0,0,0-2.358-3.381,6.667,6.667,0,0,0-4.816-1.509,7.189,7.189,0,0,0-6.173,3.836,1.013,1.013,0,0,0-.2.958c.345.284.577.632.363,1.076a1.084,1.084,0,0,1-1.118.673c-.516-.032-1.036,0-1.554-.008-.271,0-.53,0-.581.355a1.3,1.3,0,0,0,1.447,1.051q8.033.009,16.066,0a1.323,1.323,0,0,0,1.463-1.229c-.447-.34-.963-.1-1.442-.173" transform="translate(-129.553 -220.456)" fill="#33479d"/>
        <path id="Path_42805" data-name="Path 42805" d="M278.674,349.285A92.592,92.592,0,0,0,262.4,348.6a44.5,44.5,0,0,0-8.924,1.418c.217.223.5.132.748.132q15.649.007,31.3,0c.3,0,.634.1.911-.128-2.587-.244-5.176-.474-7.762-.735" transform="translate(-164.112 -225.603)" fill="#33479d"/>
        <path id="Path_42806" data-name="Path 42806" d="M132.188,349.966c-.553-.166-1.1-.363-1.66-.493a50.637,50.637,0,0,0-12.61-1.051c-8.25.2-16.46,1.092-24.7,1.553.244.236.55.136.827.136q18.7.006,37.4,0c.251,0,.532.1.741-.143" transform="translate(-60.355 -225.566)" fill="#33479d"/>
        <path id="Path_42807" data-name="Path 42807" d="M175.994,317.116c.316-.724.973-.642,1.583-.672a26.321,26.321,0,0,1,6.777,1.16c.2.307.223.579-.155.769a46.638,46.638,0,0,0-5.658-1.029,13.639,13.639,0,0,0-2.028-.046c-.219.007-.411.076-.518-.181" transform="translate(-113.945 -204.877)" fill="#cc3b30"/>
        <path id="Path_42808" data-name="Path 42808" d="M286.613,322.518c-2.839-.6-5.692-1.13-8.542-1.668a72.693,72.693,0,0,0-9.888-1.174,33.851,33.851,0,0,0-13.558,2.194,19.664,19.664,0,0,0-3.879,1.828c1.293-.425,2.55-.939,3.835-1.374A36.564,36.564,0,0,1,265.1,320.28a58.379,58.379,0,0,1,11.259.918c5.035.808,10.036,1.793,15.052,2.7a10.5,10.5,0,0,0,2.907.386c-2.568-.592-5.128-1.221-7.706-1.764" transform="translate(-162.342 -206.944)" fill="#95806d"/>
        <path id="Path_42809" data-name="Path 42809" d="M250.7,332.771c8.8-3.714,17.924-3.748,27.177-2.278-9.291-1.913-18.44-2.194-27.177,2.278" transform="translate(-162.309 -213.121)" fill="#95806d"/>
        <path id="Path_42810" data-name="Path 42810" d="M259.351,340.5c7.058-2.217,14.229-1.944,21.43-1-7.218-1.315-14.4-1.831-21.43,1" transform="translate(-167.913 -219.112)" fill="#95806d"/>
        <path id="Path_42811" data-name="Path 42811" d="M125.81,316.112a73.693,73.693,0,0,0-7.859.276c-2.526.264-5.03.628-7.527,1.076-3.014.541-5.968,1.348-8.958,2-1.427.311-2.832.721-4.248,1.086a.607.607,0,0,0,.488.091c4.985-1.192,9.989-2.264,15.068-3a70.3,70.3,0,0,1,12.065-.715c.051-.01.1-.019.153-.026.478-.341,1.1-.342,1.583-.672a1.2,1.2,0,0,0-.765-.111" transform="translate(-62.942 -204.656)" fill="#95806d"/>
        <path id="Path_42812" data-name="Path 42812" d="M134.455,334.021a63.2,63.2,0,0,0-9.041.136c-2.525.177-5.044.478-7.547.886a47.141,47.141,0,0,0-4.943.9c7.37-.936,14.73-1.966,22.191-1.351.019-.79-.22-.543-.66-.575" transform="translate(-73.111 -216.186)" fill="#95806d"/>
        <path id="Path_42813" data-name="Path 42813" d="M121.522,343.674a126.416,126.416,0,0,1,19.183-.722q0-.244.009-.488a92.217,92.217,0,0,0-19.192,1.21" transform="translate(-78.678 -221.696)" fill="#95806d"/>
        <path id="Path_42814" data-name="Path 42814" d="M146.59,327.029q-.011-.241-.022-.482a2.183,2.183,0,0,0-.929-.121,77.925,77.925,0,0,0-9.394.647c-1.821.215-3.63.522-5.445.789,5.254-.521,10.491-1.224,15.79-.833" transform="translate(-84.685 -211.34)" fill="#95806d"/>
        <path id="Path_42815" data-name="Path 42815" d="M199.421,319.733a1.142,1.142,0,0,1-.155.769c.01.054.02.108.03.162a16.991,16.991,0,0,1,7.326,4.127,13.708,13.708,0,0,0-7.2-5.057" transform="translate(-129.012 -207.007)" fill="#95806d"/>
        <path id="Path_42816" data-name="Path 42816" d="M184.837,343.408a6.2,6.2,0,0,0-3.072-.248.593.593,0,0,0-.487.317l4.755.635-.756-.613c-.169.073-.293-.057-.44-.091" transform="translate(-117.366 -222.099)" fill="#95806d"/>
        <path id="Path_42817" data-name="Path 42817" d="M218.5,202.226c-1.618.477-4.082,1.239-7.043,2.3-9.961,3.558-17.094,6.187-23.069,12.324a34.635,34.635,0,0,0-5.434,7.337,90.917,90.917,0,0,0-1.8-15.252,53.669,53.669,0,0,0-2.342-8.753,52.359,52.359,0,0,0-6.78-12.411c-1.483-2.051-3.017-4.058-4.572-6.052-.362-.464-.708-.672-1.306-.289-2.6,1.663-5.218,3.29-7.834,4.923q-3.019,1.885-6.048,3.753c1.371,1.263,2.739,2.531,4.074,3.83,1.92,1.869,3.82,3.759,5.633,5.739,1.383,1.511,2.8,3,4.142,4.54a122.945,122.945,0,0,1,8.21,10.389,53.587,53.587,0,0,1,4.977,8.218,22.809,22.809,0,0,1,1.976,7.109c.021.192-.069.514.212.555,0,0,0,.008-.006.013,0,1.647,0,3.293,0,5.063l4.233-5.823c.343.029.473-.329.641-.548q3.71-4.854,7.857-9.341a60.018,60.018,0,0,1,10.773-9.374l-.011.009c.591-.441,1.264-.752,1.868-1.172a95.584,95.584,0,0,1,12.954-6.957c.079-.035.287-.152.577-.3,1.04-.531,1.933-.929,2.6-1.209-.982.3-2.552.777-4.478,1.385" transform="translate(-98.584 -117.332)" fill="#f7f7e0"/>
        <path id="Path_42818" data-name="Path 42818" d="M138.762,266.257a5.719,5.719,0,0,0-.783-1.274c-.117-.1-.232-.207-.347-.312a1.518,1.518,0,0,0-.118-.251,58.182,58.182,0,0,0-7.267-9.44,65.93,65.93,0,0,0-5.814-5.584c-2.927-2.439-5.979-4.707-9.111-6.868l-2.523-1.738a.4.4,0,0,1-.034.17,3.942,3.942,0,0,0-2.171-1.338,1.411,1.411,0,0,1-.252.3c-1.21.806-2.365,1.686-3.533,2.552a88.613,88.613,0,0,0-7.374,6.348c-2.389,2.214-4.6,4.61-6.845,6.974a.465.465,0,1,0,.4.837,20.239,20.239,0,0,1,2.271.21c3.032.214,6.058.5,9.085.782,3.392.314,6.777.665,10.156,1.1a95.18,95.18,0,0,1,13.437,2.556,23.653,23.653,0,0,1,8.547,3.887,20.97,20.97,0,0,1,1.66,1.569c.182.178.422.462.661.3.3-.2.072-.529-.042-.78" transform="translate(-59.754 -155.14)" fill="#f7f7e0"/>
        <path id="Path_42819" data-name="Path 42819" d="M123.636,305.337a5.04,5.04,0,0,0-.417-1.71,3.449,3.449,0,0,1-.276-.514,11.481,11.481,0,0,0-4.176-6.4,19.193,19.193,0,0,0-6.139-3.11,71.864,71.864,0,0,0-13.842-3.052c-2.459-.342-4.924-.64-7.4-.832-2.553-.2-5.1-.486-7.647-.735a25.789,25.789,0,0,0-2.992-.178l-.013.017a.668.668,0,0,0-.051-.1,9.565,9.565,0,0,0-2.06-.331c-.351-.051-.717-.165-1.035.116a.605.605,0,0,1-.193.416c-2.2,2.231-4.239,4.6-6.319,6.936-1.908,2.143-3.841,4.263-5.639,6.5,2.99-.335,5.947-.886,8.893-1.468,5.131-1.014,10.236-2.152,15.361-3.2a74.678,74.678,0,0,1,10.646-1.43,42.867,42.867,0,0,1,9.174.448,18.446,18.446,0,0,1,8.411,3.267,13.559,13.559,0,0,1,4.768,5.912c.142.355.41.286.682.2a.7.7,0,0,0,.264-.751" transform="translate(-42.366 -186.669)" fill="#f7f7e0"/>
        <path id="Path_42820" data-name="Path 42820" d="M167.265,252.486c-.055-.23-.123-.456-.176-.685a21.309,21.309,0,0,0-1.764-8.656c-1.747-4.12-4.423-7.665-7.064-11.224-2.155-2.9-4.406-5.735-6.791-8.455-2.091-2.385-4.186-4.768-6.474-6.971a30.516,30.516,0,0,0-2.48-2.445c.011-.021.024-.039.033-.062a7.814,7.814,0,0,0-2.382-2.243c-.011-.008-.046.019-.07.029a1.025,1.025,0,0,1-.439.435,77.476,77.476,0,0,0-8.872,5.861,2.7,2.7,0,0,0,.914.734c5.43,3.451,10.81,6.973,15.929,10.883a61.64,61.64,0,0,1,9.154,8.629,56.467,56.467,0,0,1,7.247,10.283,16.814,16.814,0,0,1,2.4,7.264c.011.269-.02.618.418.619.3-.164.283-.471.334-.744a12.655,12.655,0,0,0,.084-3.251" transform="translate(-84.675 -137.091)" fill="#f7f7e0"/>
        <path id="Path_42821" data-name="Path 42821" d="M289.178,297.771c-2.415-3.564-4.872-7.1-7.208-10.716a4.307,4.307,0,0,0-2.822-1.949q-4.674-1.157-9.425-1.9a48,48,0,0,0-5.5-.7,38.1,38.1,0,0,0-7.84.261,26.033,26.033,0,0,0-7.947,2.549c-.2.106-1.346.924-1.391.94a7.4,7.4,0,0,0-.564.542c-1.44,1.7-2.906,3.381-4.3,5.121-1.717,2.147-3.4,4.322-4.907,6.628h0a25.635,25.635,0,0,0-2.649,3.938.238.238,0,0,0,.32.062,9.129,9.129,0,0,1,.681-.947,21.538,21.538,0,0,1,6.847-5,32.775,32.775,0,0,1,11.723-2.779,15.1,15.1,0,0,1,3.316,0c1.649-.013,3.283.192,4.925.292a98.619,98.619,0,0,1,9.808,1.5c1.568.256,3.086.772,4.68.894a10.693,10.693,0,0,0,2.061.408c3.5.662,7.022,1.235,10.568,1.621a1.883,1.883,0,0,0-.381-.765" transform="translate(-151.907 -182.852)" fill="#f6f7e0"/>
        <path id="Path_42822" data-name="Path 42822" d="M186.172,341.79c-.911.193-1.765-.241-2.66-.24a7.072,7.072,0,0,1-.851-.1,9.254,9.254,0,0,1,1.42-.956c.289-.223.487.014.685.168.473.369.939.75,1.407,1.126" transform="translate(-118.261 -220.39)" fill="#cdb098"/>
        <path id="Path_42823" data-name="Path 42823" d="M105.646,229.689c12.717,7.01,37.336,25.843,35.286,38.546-.867-1.033-.667-3.969-2.045-5.652-7.149-12.18-38.824-10.245-46.931-12.365,15.717.49,40.713,2.685,46.605,10.346-8.52-15.869-22.206-22.262-32.915-30.875" transform="translate(-59.536 -148.709)" fill="#ad9680"/>
        <path id="Path_42824" data-name="Path 42824" d="M185.9,246.167c5.5-7.014,11.489-14.429,19.263-19.255-15.2,10.469-25.844,32.6-24.065,25.042,1.612-17.426-19.613-35.47-27.381-43.923-.519-.276-2.088-2.226-.473-1.021,14.12,13.657,29.951,30.2,28.6,43.817-.561,2.63,2.609-4.056,4.055-4.661" transform="translate(-98.754 -133.774)" fill="#92806d"/>
        <path id="Path_42825" data-name="Path 42825" d="M332.465,71.956a2.478,2.478,0,0,1,1.184-1.5q6.424-3.6,12.825-7.245c.442-.252.682-.214.9.214a3.3,3.3,0,0,1,.868,1.1q5.045,8.97,10.114,17.925a2.115,2.115,0,0,1,.471,1.31c-.13.425-.515.578-.851.77-3.875,2.216-7.773,4.389-11.663,6.579-.9.506-1.731,1-1.88,2.143a.355.355,0,0,1-.2.234c-.5-.084-.606-.543-.806-.889-2.249-3.907-4.426-7.854-6.666-11.766q-1.857-3.241-3.672-6.506a5.64,5.64,0,0,1-.648-1.428,1.081,1.081,0,0,1,.025-.939" transform="translate(-215.172 -40.822)" fill="#f6f7e0"/>
        <path id="Path_42826" data-name="Path 42826" d="M300.242,90.324a3.956,3.956,0,0,1,1.187-.66.688.688,0,0,1,.369.388c2.187,4.017,4.487,7.97,6.72,11.961,1.4,2.5,2.856,4.966,4.221,7.485a1.318,1.318,0,0,1,.214,1.193,1.7,1.7,0,0,1-.77.652c-3.841,2.179-7.7,4.334-11.548,6.495-.4.222-.788.576-1.312.309a7.893,7.893,0,0,1-1.3-2.052q-4.809-8.506-9.606-17.02a2.358,2.358,0,0,1-.446-1.242c-.057-.241-.354-.453.088-.7,3.434-1.9,6.852-3.819,10.276-5.734.264.047.385.256.5.458q1.129,1.968,2.245,3.943a1.182,1.182,0,0,1,.207.816c-.152.375-.509.513-.824.695-2.345,1.349-4.712,2.66-7.05,4.021,2.3-1.255,4.579-2.556,6.862-3.846a2.356,2.356,0,0,1,1.222-.5,1.131,1.131,0,0,1,.621,1.135,4.4,4.4,0,0,1-1.892,1.334c-2,1.092-3.95,2.274-5.948,3.37q3.138-1.705,6.241-3.472a5.963,5.963,0,0,1,1.823-.881,1.119,1.119,0,0,1,.641,1.124c-.2.482-.661.66-1.064.89-2.146,1.224-4.295,2.443-6.458,3.637a.6.6,0,0,0-.271.232c2.288-1.278,4.515-2.571,6.773-3.81.407-.223.778-.561,1.3-.493a1.236,1.236,0,0,1,.6,1.142,3.048,3.048,0,0,1-1.316.953c-1.992,1.1-3.955,2.264-5.965,3.336a1.829,1.829,0,0,0-.6.434c2.418-1.351,4.691-2.691,7.015-3.94a2.084,2.084,0,0,1,1.081-.426,1.092,1.092,0,0,1,.614,1.127c-.24.485-.729.66-1.156.9-2.227,1.27-4.466,2.517-6.681,3.808,2.4-1.292,4.751-2.664,7.128-3.995a1.543,1.543,0,0,1,.939-.351,1.172,1.172,0,0,1,.647,1.122c-.125.353-.44.5-.733.674-2.382,1.376-4.806,2.675-7.172,4.079,2.189-1.155,4.325-2.407,6.485-3.613a3.362,3.362,0,0,1,1.634-.708c.362.294.836.464,1.048.93a1.166,1.166,0,0,1-.629.561c-2.517,1.4-5.033,2.812-7.525,4.261,3.029-1.666,6.02-3.4,9.071-5.027a1.349,1.349,0,0,1,.7-.019c-1.03-1.678-1.964-3.412-2.929-5.127q-2.468-4.384-4.947-8.761c-.189-.334-.457-.659-.327-1.094" transform="translate(-186.346 -58.052)" fill="#f6f7e0"/>
        <path id="Path_42827" data-name="Path 42827" d="M287.1,80.785q3.7,6.527,7.4,13.054,2.015,3.557,4.02,7.119c.366.513.78.269,1.174.059,1.345-.715,2.658-1.487,3.985-2.235q3.707-2.087,7.407-4.186a3.166,3.166,0,0,1,2.489-.39,1.627,1.627,0,0,0,1.892-1.128,2.6,2.6,0,0,1,1.367-1.724c3.768-2.139,7.553-4.247,11.313-6.4.418-.239.957-.4.893-1.057q-4.569-8.12-9.137-16.24c-.756-1.345-1.491-2.7-2.236-4.053.656-.484,1.053-.312,1.452.4q5.513,9.87,11.079,19.71c.478.849.451.951-.432,1.448Q323.94,88.45,318.1,91.715c-.585.325-.922.633-.79,1.388a1.589,1.589,0,0,1-.868,1.716c-.686.387-1.355.806-2.055,1.165a1.826,1.826,0,0,1-2.1-.389c-.3-.387-.509-.309-.841-.12q-3.524,2.01-7.059,4c-1.716.966-3.456,1.891-5.15,2.893-.695.411-1.038.275-1.414-.408-1.4-2.554-2.862-5.079-4.3-7.617-2.248-3.977-4.476-7.965-6.756-11.923-.422-.733-.441-1.225.336-1.635" transform="translate(-185.474 -41.002)" fill="#656fcb"/>
        <path id="Path_42828" data-name="Path 42828" d="M337.8,110.226a1.21,1.21,0,0,0-.208-.888c-1.844-3.315-3.772-6.583-5.583-9.918-1.587-2.921-3.3-5.773-4.956-8.657a5.67,5.67,0,0,1-.635-1.521,1.783,1.783,0,0,1,1.534-.11c.426-.187.553.218.793.4.973,1.94,2.084,3.8,3.142,5.695,1.148,2.052,2.323,4.09,3.459,6.149,1.5,2.718,3.05,5.407,4.581,8.108.154.272.324.534.487.8.1.29-.153.231-.238.186a2.965,2.965,0,0,0-2.171-.159.254.254,0,0,1-.205-.088" transform="translate(-211.334 -57.631)" fill="#e0e3cd"/>
        <path id="Path_42829" data-name="Path 42829" d="M331.56,89.076c-.362.06-.507-.31-.793-.4.144-.273.446-.256.677-.369q.059.384.117.77" transform="translate(-214.15 -57.172)" fill="#656fcb"/>
        <path id="Path_42830" data-name="Path 42830" d="M334.065,131.366a2.184,2.184,0,0,1,2.527.144.066.066,0,0,0,.063-.012.2.2,0,0,0,.025-.072,2.331,2.331,0,0,1,1.422-2.315c4.182-2.318,8.336-4.687,12.5-7.041a6.7,6.7,0,0,0,.573-.405c.506.537.152.782-.32,1.047-3.981,2.237-7.951,4.494-11.936,6.724a2,2,0,0,0-1.086,1.537,1.915,1.915,0,0,1-2.178,1.265,2.163,2.163,0,0,0-1.962.152c-3.953,2.233-7.923,4.438-11.859,6.7-.647.372-.967.344-1.18-.366.254.2.451-.006.638-.112q6.3-3.542,12.593-7.1a1.368,1.368,0,0,0,.183-.149" transform="translate(-207.601 -78.77)" fill="#e0e3cd"/>
        <path id="Path_42831" data-name="Path 42831" d="M304.844,101.285c.174.265.469.533-.078.835q-3.618,2-7.213,4.04c-.306.173-.5.192-.7-.157-.209-.366-.029-.534.246-.69q3.563-2.017,7.129-4.028c.177-.1.375-.22.616,0" transform="translate(-192.134 -65.495)" fill="#e0e3cd"/>
        <path id="Path_42832" data-name="Path 42832" d="M332.518,139.905c.235.4-.08.5-.328.636-1.415.8-2.827,1.608-4.243,2.408q-2.911,1.643-5.831,3.27c-.189.1-.435.454-.651.059-.207-.379.21-.434.4-.54q4.956-2.822,9.93-5.612a.948.948,0,0,1,.727-.221" transform="translate(-208.092 -90.568)" fill="#e0e3cd"/>
        <path id="Path_42833" data-name="Path 42833" d="M319.1,141.6c.87-.507,1.678-.993,2.5-1.454q3.974-2.228,7.957-4.44c.184-.1.38-.387.591-.063s-.117.409-.3.512q-4.442,2.52-8.892,5.024c-.479.27-.958.54-1.442.8-.132.071-.289.171-.417-.007a.264.264,0,0,1,0-.374" transform="translate(-206.546 -87.721)" fill="#e0e3cd"/>
        <path id="Path_42834" data-name="Path 42834" d="M335.117,144.154c.247.437-.138.5-.36.631-1.322.754-2.652,1.5-3.979,2.241q-2.987,1.677-5.977,3.35c-.209.116-.485.428-.675.119-.223-.362.2-.472.431-.6q4.969-2.812,9.953-5.6c.172-.1.356-.363.609-.142" transform="translate(-209.809 -93.275)" fill="#e0e3cd"/>
        <path id="Path_42835" data-name="Path 42835" d="M325.532,134.331a1.953,1.953,0,0,1,.982.06q-4.552,2.58-9.106,5.155c-.186.1-.452.344-.617.056-.19-.334.17-.426.384-.548q4.177-2.364,8.358-4.723" transform="translate(-205.067 -86.945)" fill="#e0e3cd"/>
        <path id="Path_42836" data-name="Path 42836" d="M322.47,130.807l.328.531-7.49,4.176c-.206.115-.415.224-.625.333-.173.09-.349.311-.527.019s.073-.363.251-.463c1.071-.608,2.147-1.211,3.217-1.821q2.425-1.383,4.846-2.774" transform="translate(-203.358 -84.689)" fill="#e0e3cd"/>
        <path id="Path_42837" data-name="Path 42837" d="M310.407,109.411l.266.46q-4,2.271-7.993,4.542c-.2.111-.395.355-.585.026s.1-.4.3-.512l8.009-4.516" transform="translate(-195.548 -70.837)" fill="#e0e3cd"/>
        <path id="Path_42838" data-name="Path 42838" d="M317.751,122.337l.276.456-7.948,4.485c-.2.115-.445.311-.616.031-.191-.312.15-.391.335-.5q3.973-2.245,7.952-4.478" transform="translate(-200.321 -79.205)" fill="#e0e3cd"/>
        <path id="Path_42839" data-name="Path 42839" d="M312.784,113.635l.256.463q-3.2,1.838-6.4,3.674c-.522.3-1.053.583-1.584.867-.186.1-.394.375-.589.039s.15-.408.325-.508c1.613-.924,3.236-1.832,4.854-2.747,1.047-.592,2.091-1.191,3.136-1.787" transform="translate(-197.088 -73.571)" fill="#e0e3cd"/>
        <path id="Path_42840" data-name="Path 42840" d="M315.342,117.866l.327.538q-3.938,2.2-7.877,4.4c-.211.117-.477.411-.67.093s.177-.428.39-.55q3.75-2.139,7.5-4.27c.113-.064.218-.143.326-.216" transform="translate(-198.807 -76.311)" fill="#e0e3cd"/>
        <path id="Path_42841" data-name="Path 42841" d="M320.105,126.578l.265.453-8.051,4.591c-.177.1-.369.294-.522,0-.2-.387.2-.445.382-.55,2.226-1.275,4.465-2.53,6.7-3.791.411-.232.818-.469,1.227-.7" transform="translate(-201.833 -81.951)" fill="#e0e3cd"/>
        <path id="Path_42842" data-name="Path 42842" d="M299.559,110.386c.291-.176.577-.36.873-.527,2.143-1.207,4.285-2.416,6.439-3.6.178-.1.438-.479.643-.093.157.3-.163.447-.391.575q-3.525,1.98-7.055,3.951c-.151.084-.326.347-.54.092-.1-.123-.159-.281.031-.395" transform="translate(-193.864 -68.624)" fill="#e0e3cd"/>
        <path id="Path_42843" data-name="Path 42843" d="M319.55,91.536l8.535,15.1a2.433,2.433,0,0,1-2.941-.606q-1.343-2.092-2.676-4.361c-1.826-3.115-3.423-6.147-4.824-9.052a10.877,10.877,0,0,1,1.906-1.079" transform="translate(-205.654 -59.264)" fill="#fd4d0a"/>
        <path id="Path_42844" data-name="Path 42844" d="M397.425,167.34q-4.523-3.7-9.035-7.409c-1.5-1.3-3.029-2.574-4.633-3.748-.507-.23-.638.244-.838.493q-3.094,3.863-6.157,7.752c-2.955,3.734-5.863,7.507-8.869,11.2a1.712,1.712,0,0,0-.582,1.231.8.8,0,0,0,.221.4q1.884,1.655,3.884,3.168a.66.66,0,0,0,.581.156,1.74,1.74,0,0,0,.733.97q4.349,3.533,8.723,7.036c.24.191.461.435.819.36q7.656-10.216,15.318-20.427a.736.736,0,0,0-.165-1.185m-10.49,11.06c-.878,1.093-1.674,2.252-2.492,3.392-.717,1-.81,1.014-1.746.269-1.928-1.534-3.833-3.095-5.755-4.637a4.128,4.128,0,0,0-1.449-.937c-.017-.327-.333-.485-.545-.684-.636-.594-1.346-1.1-2.017-1.657-.512-.423-.584-.806-.13-1.324.758-.865,1.413-1.815,2.145-2.7,1.442-1.749,1.432-1.737,3.221-.3.446.359.8.924,1.487.87.044.527.477.777.835,1.068,2.082,1.69,4.142,3.408,6.229,5.091.6.485.737.9.217,1.549" transform="translate(-237.808 -101.079)" fill="#656fcb"/>
        <path id="Path_42845" data-name="Path 42845" d="M375.567,151.584c-.132-.131-.255-.274-.4-.391-1.707-1.406-2.493-1.323-3.859.407q-2.777,3.516-5.55,7.035-4.82,6.126-9.636,12.256a.274.274,0,0,0,.264.31,6.032,6.032,0,0,1,2.459.863,1.171,1.171,0,0,0,.177,0c.347.36.819.577,1.158.948q2.9-3.7,5.8-7.4,2.242-2.853,4.495-5.7,3.009-3.782,6.035-7.55a2.857,2.857,0,0,0-.949-.774" transform="translate(-230.567 -97.253)" fill="#33479d"/>
        <path id="Path_42846" data-name="Path 42846" d="M355.51,211.889a.853.853,0,0,0-1.292.057,1.8,1.8,0,0,0-.24.049c-1.317.869-1.4,1.84-.254,2.853.913.8,1.892,1.525,2.834,2.293q6.049,4.933,12.116,9.843c.394.318.757.778,1.377.639l1.33-1.754.534-.627q-8.2-6.681-16.4-13.352" transform="translate(-228.493 -137.012)" fill="#f6f7e0"/>
        <path id="Path_42847" data-name="Path 42847" d="M384.082,198.826c-1.02-.85-2.027-1.716-3.065-2.544-.451-.36-.557-.674-.167-1.153,1.174-1.441,2.344-2.887,3.472-4.364.455-.6.81-.593,1.353-.113.858.758,1.779,1.446,2.673,2.164,2.538,2.1,5.058,4.219,7.629,6.276.543.435.5.714.148,1.188-1.123,1.491-2.25,2.98-3.315,4.511-.414.6-.679.476-1.152.092-2.511-2.037-5.048-4.042-7.576-6.059" transform="translate(-246.421 -123.21)" fill="#fd4d0a"/>
        <path id="Path_42848" data-name="Path 42848" d="M356.993,217.685c-1.492-1.474-6.122-4.267-5.994-5.887.332-1.638,1.837-3.631,3.7-2.488,2.707,1.733,4.756,3.959,7.451,5.994,3.024,2.948,7.19,5.089,9.407,8.1-1.424,1.112-4.663-3.05-5.774-3.528-3.589-2.885-7-5.663-10.574-8.564-.648-.463-1.2-1.315-2.132-1-2.854,1.7.488,3.063,1.855,4.4,4.713,4.1,9.851,7.468,14.116,11.735.2,2.178-12.274-8.517-12.058-8.762" transform="translate(-227.248 -135.296)" fill="#656fcb"/>
        <path id="Path_42849" data-name="Path 42849" d="M143.2,24.331l1.811,3.243a.956.956,0,0,1,.137.713,2.3,2.3,0,0,0,1.1,2.336,2.491,2.491,0,0,0,3.287.261,19.934,19.934,0,0,1,5.067.713q7.485,1.353,14.969,2.712,4.162.764,8.327,1.509a2.458,2.458,0,0,1,1.1.37c.454.1.9.219,1.362.291s.8.249.693.747c-.1.448-.506.43-.881.363l-6.88-1.228Q162.236,34.385,151.18,32.4a2.367,2.367,0,0,0-1.743.2c-2.234,1.295-6.294-1.6-5.806-4.145a1.76,1.76,0,0,0-.426-1.682,4.011,4.011,0,0,1-1.6-3.007L128.9,1.15c-.2-.349-.44-.762.008-1.039.5-.312.761.1.981.5.239.437.507.859.762,1.287a2.008,2.008,0,0,1,.857.918c3.317,5.962,6.7,11.885,9.977,17.872a26.344,26.344,0,0,0,1.3,2.338,2.287,2.287,0,0,1,.408,1.306" transform="translate(-83.298 0)" fill="#fd4d0a"/>
        <path id="Path_42850" data-name="Path 42850" d="M157.191,67.408l1.6,3.007-3.455,4.854c-.445-.632-.027-1.516-.563-1.744-.484-.206-1.166.057-2.039.139l4.453-6.256" transform="translate(-98.888 -43.642)" fill="#656fcb"/>
        <path id="Path_42851" data-name="Path 42851" d="M138.326,6.646a1.119,1.119,0,0,0-.661-.5c-1.116-.241-2.228-.5-3.341-.758l10.668,19.091a4.113,4.113,0,0,0,3.393-1.618,88.044,88.044,0,0,0-10.059-16.21" transform="translate(-86.966 -3.485)" fill="#f7f7e0"/>
        <path id="Path_42852" data-name="Path 42852" d="M196.887,35.67h0a4.59,4.59,0,0,0-3.755-3.071c-1.834-.262-3.612-.9-5.424-1.328a110.886,110.886,0,0,0-17.432-3.2c-.234-.017-.524.107-.82-.226a33.9,33.9,0,0,1,7.936.459,127.158,127.158,0,0,1,17.051,4c.294.088.733.426.9-.116.128-.406-.312-.392-.564-.466-7.091-2.082-14.22-3.984-21.624-4.594-.195-.016-.5.135-.595-.28.337-.041.653-.09.971-.117a65.118,65.118,0,0,1,14.685.751c2.164.3,4.312.726,6.468,1.082.251.042.614.234.683-.227.054-.362-.289-.342-.51-.417a2.413,2.413,0,0,0-.317-.06A90.58,90.58,0,0,0,176.937,25.9c-1.3.007-2.6.077-3.9.118a1.635,1.635,0,0,1,.777-.338,61.546,61.546,0,0,1,12.532-.919c2.616.037,5.23.208,7.845.3.239.009.624.224.7-.232.091-.573-.388-.387-.656-.418-.6-.071-1.214-.111-1.822-.142-6.458-.333-12.908-.443-19.291.859-1.2.244-2.368.627-3.789,1.009a52.989,52.989,0,0,1,6.082-4.263A118.561,118.561,0,0,1,190.2,14.445c.292-.125.847-.163.624-.669-.193-.436-.567-.074-.828.032-2.89,1.178-5.718,2.5-8.5,3.911a63.892,63.892,0,0,0-13.658,8.817c.438-1.406.887-2.614,1.188-3.857,1.646-6.8,1.7-13.708,1.293-20.64-.025-.429-.062-.858-.1-1.287-.015-.177-.025-.385-.269-.382s-.414.119-.4.394c.009.215.033.429.047.643a82.929,82.929,0,0,1-.435,16.96c-.091.638-.207,1.273-.323,1.907-.107.59-.231,1.178-.347,1.766A103.433,103.433,0,0,0,166.936,1.13c-.057-.351.141-1.063-.5-.965-.568.086-.177.662-.137.993.289,2.385.677,4.759.919,7.148.539,5.321.944,10.65.087,15.98a5.33,5.33,0,0,1-.677,2.242c-.351-1.543-.622-2.986-1.01-4.4A135.561,135.561,0,0,0,157.8,1.882c-.136-.3-.143-.982-.68-.737-.515.234-.015.684.091,1.018a10.055,10.055,0,0,0,.481,1.079,152.273,152.273,0,0,1,6.651,16.908,17.954,17.954,0,0,1,.995,4.659l-.9-2.13a3.793,3.793,0,0,0-3.048,1.791,7.316,7.316,0,0,0,1.826,3.442,15.352,15.352,0,0,1,4.114,2.684,1.468,1.468,0,0,0,.172.081c.005.24.255.35.471.477q8.146,1.437,16.292,2.872,6.5,1.14,13.012,2.26l-.388-.617" transform="translate(-101.574 -0.101)" fill="#f7f7e0"/>
        <path id="Path_42853" data-name="Path 42853" d="M164.582,56.56a30.015,30.015,0,0,0,3.393-1.618,11.109,11.109,0,0,1,1.445,3.208,22,22,0,0,0-2.963,1.752,31.716,31.716,0,0,1-1.874-3.343" transform="translate(-106.556 -35.571)" fill="#656fcb"/>
        <path id="Path_42854" data-name="Path 42854" d="M178.84,80.943l.4.745a2.25,2.25,0,0,1-3.076.252c-1.919-1.293-2.176-1.888-1.611-3.733a9.78,9.78,0,0,1,4.291,2.737" transform="translate(-112.839 -50.633)" fill="#656fcb"/>
      </g>
      <g id="Group_189871" data-name="Group 189871" transform="translate(109.696 106.543)" opacity="0.6">
        <path id="Path_42855" data-name="Path 42855" d="M14.352,168.835a37.823,37.823,0,0,1,2.879-3.426c1.245-1.467,2.523-2.906,3.761-4.379.36-.428.646-.554,1.12-.152q7,5.939,14.026,11.85a.666.666,0,0,1,.282.827,7.657,7.657,0,0,1-1.741,2.28c-1.536,1.784-3.059,3.582-4.629,5.337-.194.217-.356.478-.687.512-.324-.082-.483-.39-.752-.548-4.358-3.634-8.66-7.335-13.018-10.968a3.6,3.6,0,0,1-1.24-1.333" transform="translate(-10.833 -160.634)" fill="#adc3f4"/>
        <path id="Path_42856" data-name="Path 42856" d="M3.519,194.082c1.961,1.641,3.928,3.274,5.88,4.925q4.275,3.613,8.534,7.247c.184.295,0,.519-.168.719a21.076,21.076,0,0,1-1.375,1.674,5.3,5.3,0,0,0-1.7,2.742c-1.516-1.079-2.877-2.343-4.285-3.552-1.09-.936-2.23-1.813-3.311-2.764-1.44-1.266-2.924-2.482-4.392-3.717-.631-.531-1.283-1.039-1.9-1.587-1.014-.9-1.077-1.532-.145-2.5.865-.9,1.6-1.9,2.431-2.828a3.663,3.663,0,0,1,.429-.356" transform="translate(0 -185.881)" fill="#33479d"/>
        <path id="Path_42857" data-name="Path 42857" d="M65.228,221.377q3.271-3.776,6.545-7.55c.155-.178.342-.33.513-.494l1.622,1.4c.183.421-.162.641-.371.883q-3.156,3.638-6.311,7.276c-.38.322-.617.794-1.07,1.041a.479.479,0,0,1-.389-.027.681.681,0,0,0-1.028.2c-.305.378-.486.693-.076,1.1a.429.429,0,0,1,.066.456,1.925,1.925,0,0,1-.491.624,1.361,1.361,0,0,1-2.026-1.8c.782-.978,1.637-1.894,2.467-2.831a.671.671,0,0,1,.549-.278" transform="translate(-46.7 -200.412)" fill="#f7f7e0"/>
        <path id="Path_42858" data-name="Path 42858" d="M83.034,226.654q2.847-3.307,5.693-6.615c.4-.464.772-.948,1.157-1.423.217-.086.466-.263.634.026.148.255-.072.444-.228.623l-6.766,7.761c-.328.093-.458-.075-.49-.372" transform="translate(-62.675 -204.299)" fill="#adc3f4"/>
        <path id="Path_42859" data-name="Path 42859" d="M63.508,244.316c-.94,1.089-1.884,2.176-2.82,3.269-.54.631-.484.919.188,1.531.534.486,1.011.545,1.491-.059.182-.229.395-.433.594-.648.314-.043.524.04.493.411-.222.266-.427.549-.669.794a1.408,1.408,0,0,1-2.239.067c-.3-.265-.583-.549-.873-.825-.315-.992.339-1.62.9-2.233a20.727,20.727,0,0,0,2.336-2.9,1.18,1.18,0,0,1,.595.593" transform="translate(-44.979 -223.351)" fill="#7b88d0"/>
        <path id="Path_42860" data-name="Path 42860" d="M71.722,256.934a.961.961,0,0,0-.493-.411,1.867,1.867,0,0,0-.34-.33c-.452-.259-.444-.534-.068-.851a.659.659,0,0,0,.156-.181c.436-.808.978-.921,1.644-.258.276.036.526.1.552.447.731.43.56,1.1.462,1.748-.051.338-.1.677-.161,1.12l-1.753-1.283" transform="translate(-53.248 -231.463)" fill="#fd4d0a"/>
        <path id="Path_42861" data-name="Path 42861" d="M79.568,253.34l-.552-.447L80,251.808l.49.372-.923,1.16" transform="translate(-59.642 -229.453)" fill="#7b88d0"/>
      </g>
      <g id="Group_189872" data-name="Group 189872" transform="translate(499.449 28.158)" opacity="0.6">
        <path id="Path_42862" data-name="Path 42862" d="M14.352,174.356a63.286,63.286,0,0,1,4.817-5.733c2.083-2.455,4.221-4.863,6.293-7.328.6-.717,1.08-.926,1.873-.254Q39.05,170.979,50.8,180.871a1.115,1.115,0,0,1,.473,1.383c-.563,1.58-1.875,2.608-2.914,3.815-2.571,2.986-5.118,5.993-7.746,8.93-.325.363-.6.8-1.15.857-.542-.137-.808-.652-1.257-.916-7.292-6.08-14.49-12.273-21.783-18.353a6.03,6.03,0,0,1-2.075-2.23" transform="translate(-8.464 -160.634)" fill="#adc3f4"/>
        <path id="Path_42863" data-name="Path 42863" d="M5.888,194.082c3.28,2.745,6.572,5.479,9.839,8.24q7.154,6.046,14.28,12.126c.309.494,0,.868-.281,1.2a35.261,35.261,0,0,1-2.3,2.8,8.869,8.869,0,0,0-2.842,4.589c-2.537-1.805-4.813-3.92-7.169-5.943-1.824-1.566-3.732-3.034-5.541-4.625-2.409-2.119-4.893-4.153-7.349-6.219-1.056-.889-2.146-1.739-3.18-2.655-1.7-1.5-1.8-2.563-.243-4.187,1.447-1.507,2.682-3.182,4.068-4.733a6.129,6.129,0,0,1,.718-.6" transform="translate(0 -180.36)" fill="#33479d"/>
        <path id="Path_42864" data-name="Path 42864" d="M67.49,226.793q5.474-6.318,10.951-12.633c.26-.3.571-.552.859-.827l2.714,2.335c.306.705-.27,1.073-.621,1.477q-5.281,6.087-10.559,12.174c-.636.539-1.032,1.328-1.791,1.742a.8.8,0,0,1-.651-.046,1.139,1.139,0,0,0-1.719.338c-.511.632-.813,1.16-.128,1.844a.718.718,0,0,1,.11.763,3.221,3.221,0,0,1-.822,1.045,2.277,2.277,0,0,1-3.39-3.012c1.308-1.637,2.739-3.169,4.128-4.736a1.123,1.123,0,0,1,.919-.465" transform="translate(-36.487 -191.713)" fill="#f7f7e0"/>
        <path id="Path_42865" data-name="Path 42865" d="M83.034,232.155q4.764-5.533,9.526-11.069c.665-.776,1.292-1.586,1.936-2.38.363-.143.78-.44,1.061.043.247.426-.12.743-.382,1.043L83.854,232.778c-.549.155-.767-.125-.82-.623" transform="translate(-48.968 -194.75)" fill="#adc3f4"/>
        <path id="Path_42866" data-name="Path 42866" d="M66.145,244.715c-1.573,1.823-3.152,3.641-4.718,5.47-.9,1.055-.811,1.537.315,2.562.893.813,1.691.911,2.5-.1.3-.382.661-.724.993-1.084.526-.071.876.068.825.688-.371.445-.714.918-1.119,1.329-1.264,1.28-2.394,1.309-3.747.113-.5-.443-.975-.919-1.461-1.38-.528-1.66.567-2.71,1.513-3.737a34.681,34.681,0,0,0,3.909-4.855,1.974,1.974,0,0,1,1,.992" transform="translate(-35.142 -209.635)" fill="#7b88d0"/>
        <path id="Path_42867" data-name="Path 42867" d="M72.515,258.592a1.608,1.608,0,0,0-.825-.688,3.126,3.126,0,0,0-.569-.553c-.757-.434-.743-.893-.114-1.424a1.1,1.1,0,0,0,.261-.3c.73-1.353,1.637-1.541,2.75-.432.462.06.88.174.924.748,1.223.72.937,1.838.773,2.925-.085.566-.163,1.133-.269,1.874l-2.933-2.147" transform="translate(-41.603 -215.974)" fill="#fd4d0a"/>
        <path id="Path_42868" data-name="Path 42868" d="M79.94,254.371l-.924-.748,1.649-1.815.82.622-1.545,1.94" transform="translate(-46.599 -214.403)" fill="#7b88d0"/>
      </g>
      <g id="Group_189873" data-name="Group 189873" transform="translate(922.28 54.532) rotate(98)" opacity="0.6">
        <path id="Path_42869" data-name="Path 42869" d="M14.352,174.356a63.286,63.286,0,0,1,4.817-5.733c2.083-2.455,4.221-4.863,6.293-7.328.6-.717,1.08-.926,1.873-.254Q39.05,170.979,50.8,180.871a1.115,1.115,0,0,1,.473,1.383c-.563,1.58-1.875,2.608-2.914,3.815-2.571,2.986-5.118,5.993-7.746,8.93-.325.363-.6.8-1.15.857-.542-.137-.808-.652-1.257-.916-7.292-6.08-14.49-12.273-21.783-18.353a6.03,6.03,0,0,1-2.075-2.23" transform="translate(-8.464 -160.634)" fill="#adc3f4"/>
        <path id="Path_42870" data-name="Path 42870" d="M5.888,194.082c3.28,2.745,6.572,5.479,9.839,8.24q7.154,6.046,14.28,12.126c.309.494,0,.868-.281,1.2a35.261,35.261,0,0,1-2.3,2.8,8.869,8.869,0,0,0-2.842,4.589c-2.537-1.805-4.813-3.92-7.169-5.943-1.824-1.566-3.732-3.034-5.541-4.625-2.409-2.119-4.893-4.153-7.349-6.219-1.056-.889-2.146-1.739-3.18-2.655-1.7-1.5-1.8-2.563-.243-4.187,1.447-1.507,2.682-3.182,4.068-4.733a6.129,6.129,0,0,1,.718-.6" transform="translate(0 -180.36)" fill="#33479d"/>
        <path id="Path_42871" data-name="Path 42871" d="M67.49,226.793q5.474-6.318,10.951-12.633c.26-.3.571-.552.859-.827l2.714,2.335c.306.705-.27,1.073-.621,1.477q-5.281,6.087-10.559,12.174c-.636.539-1.032,1.328-1.791,1.742a.8.8,0,0,1-.651-.046,1.139,1.139,0,0,0-1.719.338c-.511.632-.813,1.16-.128,1.844a.718.718,0,0,1,.11.763,3.221,3.221,0,0,1-.822,1.045,2.277,2.277,0,0,1-3.39-3.012c1.308-1.637,2.739-3.169,4.128-4.736a1.123,1.123,0,0,1,.919-.465" transform="translate(-36.487 -191.713)" fill="#f7f7e0"/>
        <path id="Path_42872" data-name="Path 42872" d="M83.034,232.155q4.764-5.533,9.526-11.069c.665-.776,1.292-1.586,1.936-2.38.363-.143.78-.44,1.061.043.247.426-.12.743-.382,1.043L83.854,232.778c-.549.155-.767-.125-.82-.623" transform="translate(-48.968 -194.75)" fill="#adc3f4"/>
        <path id="Path_42873" data-name="Path 42873" d="M66.145,244.715c-1.573,1.823-3.152,3.641-4.718,5.47-.9,1.055-.811,1.537.315,2.562.893.813,1.691.911,2.5-.1.3-.382.661-.724.993-1.084.526-.071.876.068.825.688-.371.445-.714.918-1.119,1.329-1.264,1.28-2.394,1.309-3.747.113-.5-.443-.975-.919-1.461-1.38-.528-1.66.567-2.71,1.513-3.737a34.681,34.681,0,0,0,3.909-4.855,1.974,1.974,0,0,1,1,.992" transform="translate(-35.142 -209.635)" fill="#7b88d0"/>
        <path id="Path_42874" data-name="Path 42874" d="M72.515,258.592a1.608,1.608,0,0,0-.825-.688,3.126,3.126,0,0,0-.569-.553c-.757-.434-.743-.893-.114-1.424a1.1,1.1,0,0,0,.261-.3c.73-1.353,1.637-1.541,2.75-.432.462.06.88.174.924.748,1.223.72.937,1.838.773,2.925-.085.566-.163,1.133-.269,1.874l-2.933-2.147" transform="translate(-41.603 -215.974)" fill="#fd4d0a"/>
        <path id="Path_42875" data-name="Path 42875" d="M79.94,254.371l-.924-.748,1.649-1.815.82.622-1.545,1.94" transform="translate(-46.599 -214.403)" fill="#7b88d0"/>
      </g>
      <g id="Group_189874" data-name="Group 189874" transform="matrix(0.899, 0.438, -0.438, 0.899, 309.125, 0)" opacity="0.5">
        <path id="Path_42876" data-name="Path 42876" d="M1.457,0,1.243.49A1.9,1.9,0,0,1,0,1.645C1.025,1.78,1.107,2.733,1.607,3.3A1.557,1.557,0,0,1,2.4,2.025l.183-.149.4-.164c-.027-.087-.053-.174-.08-.26C2.011,1.425,1.913.544,1.457,0" transform="translate(13.258 32.638)" fill="#ccd7f3"/>
        <path id="Path_42877" data-name="Path 42877" d="M2.042.2h0a1.77,1.77,0,0,0-1.4,1.366A17.088,17.088,0,0,0,0,5.827,3.9,3.9,0,0,0,1.379,4.479a2.771,2.771,0,0,0,2.387.169Q4.15,2.464,4.534.28C3.706.174,2.888-.24,2.042.2" transform="translate(3.73 0)" fill="#33479d"/>
        <path id="Path_42878" data-name="Path 42878" d="M1.984.2h0A2.178,2.178,0,0,0,.681,1.33,15.474,15.474,0,0,0,0,5.554a2.763,2.763,0,0,1,1.545-1.33,7.134,7.134,0,0,1,2.227.157q.322-2.075.645-4.151A3.778,3.778,0,0,0,1.984.2" transform="translate(0.297 21.957)" fill="#33479d"/>
        <path id="Path_42879" data-name="Path 42879" d="M1.967.151h0A2.343,2.343,0,0,0,.614,1.337,13.145,13.145,0,0,0,0,5.057,2.6,2.6,0,0,1,1.733,3.64a6.554,6.554,0,0,1,2.044.21L4.354.207A4.458,4.458,0,0,0,1.967.151" transform="translate(2.927 5.766)" fill="#33479d"/>
        <path id="Path_42880" data-name="Path 42880" d="M4.418,0q9.065,1.427,18.131,2.849c.613.1.783.4.688.989q-2.04,12.709-4.06,25.42a1.827,1.827,0,0,1-.939-.009q-8.414-1.34-16.829-2.673a2.047,2.047,0,0,1-1.245-.446,1.126,1.126,0,0,1-.142-.838c.178-1.173.3-2.355.593-3.509.262-2.391.71-4.754,1.084-7.128.283-1.8.5-3.611.9-5.391a27.123,27.123,0,0,1,.576-3.606,5.224,5.224,0,0,1,.214-1.332C3.471,3.151,3.714,2,3.906.842A1.129,1.129,0,0,1,4.418,0" transform="translate(3.846 0.28)" fill="#656fcb"/>
        <path id="Path_42881" data-name="Path 42881" d="M5.8.532C2.81,17.969,5.387,11.308,0,13.973.757,9.616,1.07,5.428,2.244,1.046,2.9,0,5-.419,5.8.532" transform="translate(0.907 9.084)" fill="#ccd7f3"/>
        <path id="Path_42882" data-name="Path 42882" d="M4.07.48,21.992,3.333a1.709,1.709,0,0,1,1.031.346l-.082.589a.8.8,0,0,1-.95.269Q12.559,3.048,3.128,1.545c-.5-.08-1-.182-1.4.256a3.828,3.828,0,0,0-.41.67A1.338,1.338,0,0,0,2.377,4.329a2.659,2.659,0,0,1,.916.22c.314.358.694.134,1.051.114a5.866,5.866,0,0,1,1.186.2c.334.067.5.653.967.317,4.343.619,8.663,1.366,13,2.027.411,0,.808.124,1.216.155.27.02.568.127.785-.15a.484.484,0,0,1,.206-.1c.375.168.454.56.65.863-.013.537-.242.715-.8.624C15.012,7.543,8.473,6.524,1.94,5.468.261,5.2-.452,3.471.3,1.652.376.635,1.193.384,1.946.065A2.407,2.407,0,0,1,4.07.48" transform="translate(0 25.86)" fill="#877ef0"/>
        <path id="Path_42883" data-name="Path 42883" d="M.249,1.379C.826,0,2.341-.241,4.014.2c-.023.867-.248,1.179-.472,1.29-.4.2-.795-.236-1.444-.2a2.151,2.151,0,0,0-1.457.9c-.2.184-.454.371-.573.3-.167-.1,0-.678.18-1.1" transform="translate(3.481 4.447)" fill="#ccd7f3"/>
        <path id="Path_42884" data-name="Path 42884" d="M.852,6.175c.269-1.7.531-3.4.811-5.1C1.818.136,2.142-.106,3.068.039q4.159.646,8.314,1.32c1.148.187,1.372.51,1.188,1.687q-.733,4.708-1.494,9.412c-.05.312-.148.617-.225.924A.749.749,0,0,1,9.905,14Q5.316,13.271.729,12.539c-.7-.112-.793-.6-.7-1.187Q.445,8.764.852,6.175" transform="translate(8.942 10.382)" fill="#ccd7f3"/>
        <path id="Path_42885" data-name="Path 42885" d="M5.518,2.077C3.949,1.828,2.38,1.574.81,1.333.347,1.262-.071,1.1.01.562.087.047.5-.055.984.024Q5.69.781,10.4,1.517c.477.075.828.236.727.807-.105.595-.535.559-.98.488q-2.315-.369-4.629-.735" transform="translate(11.348 5.399)" fill="#ccd7f3"/>
        <path id="Path_42886" data-name="Path 42886" d="M.533.064A6.9,6.9,0,0,1,3.091.327c.337.045.234.36.207.583-.079.653-.172,1.3-.26,1.956-.47.575-.415-.291-.69-.252A1.166,1.166,0,0,0,.918,2.382C.672,2.272.3,3.235.151,2.29A.808.808,0,0,1,0,1.805a2.4,2.4,0,0,1,.063-.5A3.863,3.863,0,0,1,.147.808,1.73,1.73,0,0,1,.263.318.44.44,0,0,1,.533.064" transform="translate(3.221 28.336)" fill="#fd4d0a"/>
        <path id="Path_42887" data-name="Path 42887" d="M0,.436C.805-.179.805-.179,1.431.667L0,.436" transform="translate(4.138 30.282)" fill="#e4eae6"/>
        <path id="Path_42888" data-name="Path 42888" d="M21.242,3.124Q11.526,1.574,1.809.028A1.142,1.142,0,0,0,.467.61h0C-.464,1.912.038,3.15,1.6,3.4l.852.141.075-.506q.04-.234.079-.469t.07-.474c.026-.157.052-.315.079-.472l.04-.155c.481.1.971.117,1.453.2,1.036.18,1.029.185.92,1.21-.044.417-.285.884.172,1.241.314.045.629.087.943.136L18.751,6.21c.468.082.94.148,1.4.249.426.093.592-.081.583-.487l.07-.021.032-.487.067-.485.081-.459q.035-.242.071-.484c.013-.1.026-.209.04-.314l.143-.6" transform="translate(0.921 27.081)" fill="#f7f7e0"/>
      </g>
      <g id="Group_189875" data-name="Group 189875" transform="matrix(0.899, 0.438, -0.438, 0.899, 650.125, 0)" opacity="0.5">
        <path id="Path_42889" data-name="Path 42889" d="M1.457,0,1.243.49A1.9,1.9,0,0,1,0,1.645C1.025,1.78,1.107,2.733,1.607,3.3A1.557,1.557,0,0,1,2.4,2.025l.183-.149.4-.164c-.027-.087-.053-.174-.08-.26C2.011,1.425,1.913.544,1.457,0" transform="translate(13.258 32.638)" fill="#ccd7f3"/>
        <path id="Path_42890" data-name="Path 42890" d="M2.042.2h0a1.77,1.77,0,0,0-1.4,1.366A17.088,17.088,0,0,0,0,5.827,3.9,3.9,0,0,0,1.379,4.479a2.771,2.771,0,0,0,2.387.169Q4.15,2.464,4.534.28C3.706.174,2.888-.24,2.042.2" transform="translate(3.73 0)" fill="#33479d"/>
        <path id="Path_42891" data-name="Path 42891" d="M1.984.2h0A2.178,2.178,0,0,0,.681,1.33,15.474,15.474,0,0,0,0,5.554a2.763,2.763,0,0,1,1.545-1.33,7.134,7.134,0,0,1,2.227.157q.322-2.075.645-4.151A3.778,3.778,0,0,0,1.984.2" transform="translate(0.297 21.957)" fill="#33479d"/>
        <path id="Path_42892" data-name="Path 42892" d="M1.967.151h0A2.343,2.343,0,0,0,.614,1.337,13.145,13.145,0,0,0,0,5.057,2.6,2.6,0,0,1,1.733,3.64a6.554,6.554,0,0,1,2.044.21L4.354.207A4.458,4.458,0,0,0,1.967.151" transform="translate(2.927 5.766)" fill="#33479d"/>
        <path id="Path_42893" data-name="Path 42893" d="M4.418,0q9.065,1.427,18.131,2.849c.613.1.783.4.688.989q-2.04,12.709-4.06,25.42a1.827,1.827,0,0,1-.939-.009q-8.414-1.34-16.829-2.673a2.047,2.047,0,0,1-1.245-.446,1.126,1.126,0,0,1-.142-.838c.178-1.173.3-2.355.593-3.509.262-2.391.71-4.754,1.084-7.128.283-1.8.5-3.611.9-5.391a27.123,27.123,0,0,1,.576-3.606,5.224,5.224,0,0,1,.214-1.332C3.471,3.151,3.714,2,3.906.842A1.129,1.129,0,0,1,4.418,0" transform="translate(3.846 0.28)" fill="#656fcb"/>
        <path id="Path_42894" data-name="Path 42894" d="M5.8.532C2.81,17.969,5.387,11.308,0,13.973.757,9.616,1.07,5.428,2.244,1.046,2.9,0,5-.419,5.8.532" transform="translate(0.907 9.084)" fill="#ccd7f3"/>
        <path id="Path_42895" data-name="Path 42895" d="M4.07.48,21.992,3.333a1.709,1.709,0,0,1,1.031.346l-.082.589a.8.8,0,0,1-.95.269Q12.559,3.048,3.128,1.545c-.5-.08-1-.182-1.4.256a3.828,3.828,0,0,0-.41.67A1.338,1.338,0,0,0,2.377,4.329a2.659,2.659,0,0,1,.916.22c.314.358.694.134,1.051.114a5.866,5.866,0,0,1,1.186.2c.334.067.5.653.967.317,4.343.619,8.663,1.366,13,2.027.411,0,.808.124,1.216.155.27.02.568.127.785-.15a.484.484,0,0,1,.206-.1c.375.168.454.56.65.863-.013.537-.242.715-.8.624C15.012,7.543,8.473,6.524,1.94,5.468.261,5.2-.452,3.471.3,1.652.376.635,1.193.384,1.946.065A2.407,2.407,0,0,1,4.07.48" transform="translate(0 25.86)" fill="#877ef0"/>
        <path id="Path_42896" data-name="Path 42896" d="M.249,1.379C.826,0,2.341-.241,4.014.2c-.023.867-.248,1.179-.472,1.29-.4.2-.795-.236-1.444-.2a2.151,2.151,0,0,0-1.457.9c-.2.184-.454.371-.573.3-.167-.1,0-.678.18-1.1" transform="translate(3.481 4.447)" fill="#ccd7f3"/>
        <path id="Path_42897" data-name="Path 42897" d="M.852,6.175c.269-1.7.531-3.4.811-5.1C1.818.136,2.142-.106,3.068.039q4.159.646,8.314,1.32c1.148.187,1.372.51,1.188,1.687q-.733,4.708-1.494,9.412c-.05.312-.148.617-.225.924A.749.749,0,0,1,9.905,14Q5.316,13.271.729,12.539c-.7-.112-.793-.6-.7-1.187Q.445,8.764.852,6.175" transform="translate(8.942 10.382)" fill="#ccd7f3"/>
        <path id="Path_42898" data-name="Path 42898" d="M5.518,2.077C3.949,1.828,2.38,1.574.81,1.333.347,1.262-.071,1.1.01.562.087.047.5-.055.984.024Q5.69.781,10.4,1.517c.477.075.828.236.727.807-.105.595-.535.559-.98.488q-2.315-.369-4.629-.735" transform="translate(11.348 5.399)" fill="#ccd7f3"/>
        <path id="Path_42899" data-name="Path 42899" d="M.533.064A6.9,6.9,0,0,1,3.091.327c.337.045.234.36.207.583-.079.653-.172,1.3-.26,1.956-.47.575-.415-.291-.69-.252A1.166,1.166,0,0,0,.918,2.382C.672,2.272.3,3.235.151,2.29A.808.808,0,0,1,0,1.805a2.4,2.4,0,0,1,.063-.5A3.863,3.863,0,0,1,.147.808,1.73,1.73,0,0,1,.263.318.44.44,0,0,1,.533.064" transform="translate(3.221 28.336)" fill="#fd4d0a"/>
        <path id="Path_42900" data-name="Path 42900" d="M0,.436C.805-.179.805-.179,1.431.667L0,.436" transform="translate(4.138 30.282)" fill="#e4eae6"/>
        <path id="Path_42901" data-name="Path 42901" d="M21.242,3.124Q11.526,1.574,1.809.028A1.142,1.142,0,0,0,.467.61h0C-.464,1.912.038,3.15,1.6,3.4l.852.141.075-.506q.04-.234.079-.469t.07-.474c.026-.157.052-.315.079-.472l.04-.155c.481.1.971.117,1.453.2,1.036.18,1.029.185.92,1.21-.044.417-.285.884.172,1.241.314.045.629.087.943.136L18.751,6.21c.468.082.94.148,1.4.249.426.093.592-.081.583-.487l.07-.021.032-.487.067-.485.081-.459q.035-.242.071-.484c.013-.1.026-.209.04-.314l.143-.6" transform="translate(0.921 27.081)" fill="#f7f7e0"/>
      </g>
      <g id="Group_189876" data-name="Group 189876" transform="translate(402.376 82.798)">
        <path id="Path_42902" data-name="Path 42902" d="M332.445,70.468a2.064,2.064,0,0,1,.986-1.25q5.351-3,10.682-6.034c.368-.21.568-.179.746.179a2.749,2.749,0,0,1,.723.914q4.2,7.471,8.425,14.93A1.761,1.761,0,0,1,354.4,80.3c-.109.354-.429.481-.709.642-3.227,1.846-6.475,3.656-9.714,5.48-.748.421-1.442.837-1.566,1.785a.3.3,0,0,1-.164.195c-.417-.07-.505-.452-.671-.741-1.873-3.254-3.687-6.542-5.553-9.8q-1.547-2.7-3.058-5.419a4.7,4.7,0,0,1-.54-1.189.9.9,0,0,1,.021-.782" transform="translate(-318.875 -63.052)" fill="#f6f7e0"/>
        <path id="Path_42903" data-name="Path 42903" d="M298.167,90.214a3.294,3.294,0,0,1,.988-.55.573.573,0,0,1,.307.323c1.822,3.346,3.737,6.638,5.6,9.963,1.165,2.082,2.379,4.136,3.515,6.235a1.1,1.1,0,0,1,.178.994,1.415,1.415,0,0,1-.641.543c-3.2,1.815-6.411,3.61-9.618,5.41-.33.185-.656.48-1.092.258a6.573,6.573,0,0,1-1.081-1.709q-4.006-7.085-8-14.176a1.963,1.963,0,0,1-.372-1.034c-.048-.2-.3-.377.073-.581,2.86-1.579,5.708-3.181,8.559-4.776.22.039.321.213.417.381q.94,1.639,1.87,3.284a.984.984,0,0,1,.173.68c-.127.313-.424.428-.686.579-1.953,1.124-3.924,2.216-5.872,3.349,1.918-1.045,3.814-2.129,5.716-3.2a1.962,1.962,0,0,1,1.017-.418.942.942,0,0,1,.517.945,3.666,3.666,0,0,1-1.576,1.111c-1.666.91-3.29,1.894-4.954,2.807q2.614-1.42,5.2-2.892A4.967,4.967,0,0,1,299.918,97a.932.932,0,0,1,.534.936c-.165.4-.551.55-.887.741-1.787,1.02-3.577,2.035-5.379,3.03a.5.5,0,0,0-.226.193c1.906-1.065,3.761-2.142,5.641-3.173.339-.186.648-.467,1.082-.411a1.029,1.029,0,0,1,.5.951,2.538,2.538,0,0,1-1.1.793c-1.659.92-3.294,1.886-4.969,2.779a1.523,1.523,0,0,0-.5.362c2.014-1.125,3.907-2.242,5.843-3.282a1.735,1.735,0,0,1,.9-.355.909.909,0,0,1,.511.939c-.2.4-.607.549-.963.752-1.855,1.057-3.72,2.1-5.565,3.172,2-1.076,3.958-2.219,5.937-3.327a1.285,1.285,0,0,1,.782-.292.976.976,0,0,1,.539.934c-.1.294-.366.421-.611.562-1.984,1.146-4,2.228-5.974,3.4,1.823-.962,3.6-2,5.4-3.009a2.8,2.8,0,0,1,1.361-.59c.3.245.7.386.873.774a.971.971,0,0,1-.524.468c-2.1,1.17-4.192,2.342-6.268,3.549,2.523-1.388,5.015-2.831,7.555-4.187a1.123,1.123,0,0,1,.582-.016c-.858-1.4-1.636-2.842-2.44-4.27q-2.055-3.651-4.121-7.3c-.157-.278-.38-.549-.272-.911" transform="translate(-287.426 -81.849)" fill="#f6f7e0"/>
        <path id="Path_42904" data-name="Path 42904" d="M287,77.868q3.084,5.437,6.167,10.873,1.678,2.962,3.348,5.929c.3.427.649.224.978.049,1.12-.6,2.214-1.239,3.32-1.862q3.087-1.739,6.17-3.487a2.637,2.637,0,0,1,2.073-.324,1.355,1.355,0,0,0,1.576-.939,2.163,2.163,0,0,1,1.139-1.436c3.139-1.781,6.291-3.538,9.423-5.331.348-.2.8-.333.744-.88q-3.806-6.763-7.611-13.527c-.629-1.121-1.242-2.251-1.862-3.376.546-.4.877-.26,1.209.335q4.592,8.221,9.228,16.417c.4.707.375.792-.359,1.206q-4.857,2.737-9.724,5.457c-.487.27-.768.527-.658,1.156a1.324,1.324,0,0,1-.723,1.43c-.571.323-1.129.671-1.712.971a1.521,1.521,0,0,1-1.752-.324c-.249-.322-.424-.258-.7-.1q-2.935,1.674-5.88,3.331c-1.429.8-2.878,1.575-4.29,2.41-.579.342-.864.229-1.178-.34-1.17-2.127-2.384-4.23-3.579-6.344-1.873-3.312-3.728-6.634-5.627-9.931-.352-.61-.367-1.02.28-1.362" transform="translate(-286.475 -63.248)" fill="#656fcb"/>
        <path id="Path_42905" data-name="Path 42905" d="M335.9,106.682a1.007,1.007,0,0,0-.173-.74c-1.536-2.761-3.142-5.483-4.65-8.261-1.321-2.433-2.749-4.809-4.128-7.211a4.723,4.723,0,0,1-.529-1.267,1.485,1.485,0,0,1,1.277-.092c.355-.155.461.181.661.334.81,1.616,1.736,3.167,2.617,4.743.956,1.709,1.935,3.407,2.881,5.122,1.249,2.264,2.541,4.5,3.816,6.753.129.226.27.445.406.668.083.241-.127.192-.2.155a2.469,2.469,0,0,0-1.809-.132.211.211,0,0,1-.171-.074" transform="translate(-314.688 -81.39)" fill="#e0e3cd"/>
        <path id="Path_42906" data-name="Path 42906" d="M319.232,91.536l7.109,12.575a2.026,2.026,0,0,1-2.45-.505q-1.118-1.742-2.229-3.632c-1.521-2.594-2.851-5.12-4.018-7.54a9.057,9.057,0,0,1,1.588-.9" transform="translate(-308.491 -83.172)" fill="#fd4d0a"/>
      </g>
      <g id="Group_189877" data-name="Group 189877" transform="translate(743.376 48.279)">
        <path id="Path_42907" data-name="Path 42907" d="M332.445,70.468a2.064,2.064,0,0,1,.986-1.25q5.351-3,10.682-6.034c.368-.21.568-.179.746.179a2.749,2.749,0,0,1,.723.914q4.2,7.471,8.425,14.93A1.761,1.761,0,0,1,354.4,80.3c-.109.354-.429.481-.709.642-3.227,1.846-6.475,3.656-9.714,5.48-.748.421-1.442.837-1.566,1.785a.3.3,0,0,1-.164.195c-.417-.07-.505-.452-.671-.741-1.873-3.254-3.687-6.542-5.553-9.8q-1.547-2.7-3.058-5.419a4.7,4.7,0,0,1-.54-1.189.9.9,0,0,1,.021-.782" transform="translate(-318.875 -63.052)" fill="#f6f7e0"/>
        <path id="Path_42908" data-name="Path 42908" d="M298.167,90.214a3.294,3.294,0,0,1,.988-.55.573.573,0,0,1,.307.323c1.822,3.346,3.737,6.638,5.6,9.963,1.165,2.082,2.379,4.136,3.515,6.235a1.1,1.1,0,0,1,.178.994,1.415,1.415,0,0,1-.641.543c-3.2,1.815-6.411,3.61-9.618,5.41-.33.185-.656.48-1.092.258a6.573,6.573,0,0,1-1.081-1.709q-4.006-7.085-8-14.176a1.963,1.963,0,0,1-.372-1.034c-.048-.2-.3-.377.073-.581,2.86-1.579,5.708-3.181,8.559-4.776.22.039.321.213.417.381q.94,1.639,1.87,3.284a.984.984,0,0,1,.173.68c-.127.313-.424.428-.686.579-1.953,1.124-3.924,2.216-5.872,3.349,1.918-1.045,3.814-2.129,5.716-3.2a1.962,1.962,0,0,1,1.017-.418.942.942,0,0,1,.517.945,3.666,3.666,0,0,1-1.576,1.111c-1.666.91-3.29,1.894-4.954,2.807q2.614-1.42,5.2-2.892A4.967,4.967,0,0,1,299.918,97a.932.932,0,0,1,.534.936c-.165.4-.551.55-.887.741-1.787,1.02-3.577,2.035-5.379,3.03a.5.5,0,0,0-.226.193c1.906-1.065,3.761-2.142,5.641-3.173.339-.186.648-.467,1.082-.411a1.029,1.029,0,0,1,.5.951,2.538,2.538,0,0,1-1.1.793c-1.659.92-3.294,1.886-4.969,2.779a1.523,1.523,0,0,0-.5.362c2.014-1.125,3.907-2.242,5.843-3.282a1.735,1.735,0,0,1,.9-.355.909.909,0,0,1,.511.939c-.2.4-.607.549-.963.752-1.855,1.057-3.72,2.1-5.565,3.172,2-1.076,3.958-2.219,5.937-3.327a1.285,1.285,0,0,1,.782-.292.976.976,0,0,1,.539.934c-.1.294-.366.421-.611.562-1.984,1.146-4,2.228-5.974,3.4,1.823-.962,3.6-2,5.4-3.009a2.8,2.8,0,0,1,1.361-.59c.3.245.7.386.873.774a.971.971,0,0,1-.524.468c-2.1,1.17-4.192,2.342-6.268,3.549,2.523-1.388,5.015-2.831,7.555-4.187a1.123,1.123,0,0,1,.582-.016c-.858-1.4-1.636-2.842-2.44-4.27q-2.055-3.651-4.121-7.3c-.157-.278-.38-.549-.272-.911" transform="translate(-287.426 -81.849)" fill="#f6f7e0"/>
        <path id="Path_42909" data-name="Path 42909" d="M287,77.868q3.084,5.437,6.167,10.873,1.678,2.962,3.348,5.929c.3.427.649.224.978.049,1.12-.6,2.214-1.239,3.32-1.862q3.087-1.739,6.17-3.487a2.637,2.637,0,0,1,2.073-.324,1.355,1.355,0,0,0,1.576-.939,2.163,2.163,0,0,1,1.139-1.436c3.139-1.781,6.291-3.538,9.423-5.331.348-.2.8-.333.744-.88q-3.806-6.763-7.611-13.527c-.629-1.121-1.242-2.251-1.862-3.376.546-.4.877-.26,1.209.335q4.592,8.221,9.228,16.417c.4.707.375.792-.359,1.206q-4.857,2.737-9.724,5.457c-.487.27-.768.527-.658,1.156a1.324,1.324,0,0,1-.723,1.43c-.571.323-1.129.671-1.712.971a1.521,1.521,0,0,1-1.752-.324c-.249-.322-.424-.258-.7-.1q-2.935,1.674-5.88,3.331c-1.429.8-2.878,1.575-4.29,2.41-.579.342-.864.229-1.178-.34-1.17-2.127-2.384-4.23-3.579-6.344-1.873-3.312-3.728-6.634-5.627-9.931-.352-.61-.367-1.02.28-1.362" transform="translate(-286.475 -63.248)" fill="#656fcb"/>
        <path id="Path_42910" data-name="Path 42910" d="M335.9,106.682a1.007,1.007,0,0,0-.173-.74c-1.536-2.761-3.142-5.483-4.65-8.261-1.321-2.433-2.749-4.809-4.128-7.211a4.723,4.723,0,0,1-.529-1.267,1.485,1.485,0,0,1,1.277-.092c.355-.155.461.181.661.334.81,1.616,1.736,3.167,2.617,4.743.956,1.709,1.935,3.407,2.881,5.122,1.249,2.264,2.541,4.5,3.816,6.753.129.226.27.445.406.668.083.241-.127.192-.2.155a2.469,2.469,0,0,0-1.809-.132.211.211,0,0,1-.171-.074" transform="translate(-314.688 -81.39)" fill="#e0e3cd"/>
        <path id="Path_42911" data-name="Path 42911" d="M319.232,91.536l7.109,12.575a2.026,2.026,0,0,1-2.45-.505q-1.118-1.742-2.229-3.632c-1.521-2.594-2.851-5.12-4.018-7.54a9.057,9.057,0,0,1,1.588-.9" transform="translate(-308.491 -83.172)" fill="#fd4d0a"/>
      </g>
      <g id="Group_189878" data-name="Group 189878" transform="translate(0 -11.562)">
        <path id="Path_42912" data-name="Path 42912" d="M385.4,162.862q-2.718-2.222-5.429-4.452c-.9-.782-1.82-1.546-2.784-2.252-.3-.138-.383.147-.5.3q-1.859,2.321-3.7,4.658c-1.776,2.244-3.523,4.511-5.329,6.731a1.029,1.029,0,0,0-.35.74.479.479,0,0,0,.133.242q1.132.995,2.334,1.9a.4.4,0,0,0,.349.094,1.045,1.045,0,0,0,.44.583q2.613,2.123,5.241,4.228c.144.115.277.261.492.216q4.6-6.138,9.2-12.274a.442.442,0,0,0-.1-.712m-6.3,6.645c-.528.657-1.006,1.353-1.5,2.038-.431.6-.486.609-1.049.162-1.158-.922-2.3-1.86-3.458-2.786a2.48,2.48,0,0,0-.871-.563c-.01-.2-.2-.291-.328-.411-.382-.357-.809-.663-1.212-1-.308-.254-.351-.484-.078-.8.456-.52.849-1.091,1.289-1.624.866-1.051.86-1.044,1.935-.179.268.215.483.555.894.523.026.317.287.467.5.641,1.251,1.016,2.489,2.048,3.743,3.059.361.291.443.542.13.931" transform="translate(-363.852 -154.87)" fill="#656fcb"/>
        <path id="Path_42913" data-name="Path 42913" d="M367.807,151.036c-.079-.079-.153-.164-.239-.235-1.026-.845-1.5-.795-2.318.244q-1.669,2.113-3.335,4.227-2.9,3.681-5.79,7.364a.165.165,0,0,0,.159.186,3.626,3.626,0,0,1,1.478.519.7.7,0,0,0,.107,0c.209.216.492.347.7.569q1.744-2.224,3.487-4.448,1.347-1.714,2.7-3.423,1.808-2.272,3.626-4.536a1.717,1.717,0,0,0-.57-.465" transform="translate(-355.038 -150.213)" fill="#33479d"/>
        <path id="Path_42914" data-name="Path 42914" d="M354.476,211.783a.513.513,0,0,0-.776.034,1.075,1.075,0,0,0-.145.029c-.791.522-.844,1.106-.152,1.714.549.483,1.137.916,1.7,1.378q3.635,2.964,7.28,5.914c.237.191.455.467.827.384l.8-1.054.321-.377q-4.926-4.014-9.857-8.023" transform="translate(-352.513 -198.613)" fill="#f6f7e0"/>
        <path id="Path_42915" data-name="Path 42915" d="M382.7,195.425c-.613-.511-1.218-1.031-1.842-1.528-.271-.216-.335-.405-.1-.693.705-.866,1.408-1.735,2.086-2.622.273-.358.487-.357.813-.068.516.456,1.069.869,1.606,1.3,1.525,1.261,3.039,2.535,4.584,3.771.326.261.3.429.089.714-.675.9-1.352,1.79-1.992,2.711-.249.358-.408.286-.692.055-1.509-1.224-3.033-2.429-4.552-3.641" transform="translate(-374.337 -181.811)" fill="#fd4d0a"/>
        <path id="Path_42916" data-name="Path 42916" d="M354.6,214.208c-.9-.886-3.679-2.564-3.6-3.537.2-.984,1.1-2.182,2.225-1.5,1.627,1.041,2.858,2.379,4.477,3.6,1.817,1.771,4.32,3.058,5.652,4.867-.856.668-2.8-1.833-3.47-2.12-2.156-1.734-4.2-3.4-6.354-5.146-.39-.278-.723-.79-1.281-.6-1.715,1.024.293,1.841,1.115,2.642,2.832,2.461,5.919,4.487,8.482,7.051.119,1.309-7.375-5.118-7.246-5.265" transform="translate(-350.997 -196.525)" fill="#656fcb"/>
      </g>
      <g id="Group_189879" data-name="Group 189879" transform="translate(332.999 113.551) rotate(-173)">
        <path id="Path_42917" data-name="Path 42917" d="M18.1,6.741q-2.718-2.222-5.429-4.452c-.9-.782-1.82-1.546-2.784-2.252-.3-.138-.383.147-.5.3Q7.522,2.654,5.681,4.99C3.905,7.234,2.158,9.5.352,11.721a1.029,1.029,0,0,0-.35.74.479.479,0,0,0,.133.242q1.132.995,2.334,1.9a.4.4,0,0,0,.349.094,1.045,1.045,0,0,0,.44.583Q5.872,17.405,8.5,19.51c.144.115.277.261.492.217q4.6-6.138,9.2-12.274a.442.442,0,0,0-.1-.712m-6.3,6.645c-.528.657-1.006,1.353-1.5,2.038-.431.6-.486.609-1.049.162-1.158-.922-2.3-1.86-3.458-2.786a2.48,2.48,0,0,0-.871-.563c-.01-.2-.2-.291-.328-.411-.382-.357-.809-.663-1.212-1-.308-.254-.351-.484-.078-.8.456-.52.849-1.091,1.289-1.624.866-1.051.861-1.044,1.935-.179.268.215.483.555.894.523.026.317.287.467.5.641,1.251,1.016,2.489,2.048,3.743,3.059.361.291.443.542.13.931" transform="translate(3.455 1.252)" fill="#656fcb"/>
        <path id="Path_42918" data-name="Path 42918" d="M11.683.824C11.6.745,11.53.659,11.444.589c-1.026-.845-1.5-.795-2.318.244Q7.457,2.946,5.79,5.06,2.894,8.741,0,12.424a.165.165,0,0,0,.159.186,3.625,3.625,0,0,1,1.478.519.7.7,0,0,0,.107,0c.209.217.492.347.7.569q1.744-2.224,3.487-4.448,1.347-1.714,2.7-3.423,1.808-2.272,3.626-4.536a1.717,1.717,0,0,0-.57-.465" transform="translate(1.086 0)" fill="#33479d"/>
        <path id="Path_42919" data-name="Path 42919" d="M1.556.16A.513.513,0,0,0,.779.195,1.076,1.076,0,0,0,.635.224C-.156.746-.209,1.33.483,1.938c.549.483,1.137.916,1.7,1.378Q5.82,6.28,9.466,9.23c.237.191.455.467.827.384l.8-1.054.321-.377Q6.487,4.169,1.556.16" transform="translate(0.408 13.009)" fill="#f6f7e0"/>
        <path id="Path_42920" data-name="Path 42920" d="M2.086,5.12C1.473,4.609.868,4.089.244,3.591c-.271-.216-.335-.405-.1-.693C.849,2.033,1.552,1.164,2.231.277c.273-.358.487-.357.813-.068.516.456,1.069.869,1.606,1.3C6.175,2.77,7.689,4.044,9.233,5.28c.326.261.3.429.089.714C8.648,6.89,7.97,7.784,7.33,8.7c-.249.358-.408.286-.692.056C5.13,7.536,3.605,6.331,2.086,5.12" transform="translate(6.273 8.493)" fill="#fd4d0a"/>
        <path id="Path_42921" data-name="Path 42921" d="M3.6,5.235C2.706,4.349-.076,2.671,0,1.7.2.714,1.105-.484,2.227.2,3.853,1.244,5.084,2.582,6.7,3.8c1.817,1.771,4.32,3.058,5.652,4.867-.856.668-2.8-1.833-3.47-2.12-2.156-1.734-4.2-3.4-6.354-5.146-.39-.278-.723-.79-1.281-.6-1.715,1.024.293,1.841,1.115,2.642C5.2,5.91,8.286,7.936,10.848,10.5c.119,1.309-7.375-5.118-7.246-5.265" transform="translate(0 12.448)" fill="#656fcb"/>
      </g>
      <g id="Group_189880" data-name="Group 189880" transform="translate(673.999 113.551) rotate(-173)">
        <path id="Path_42922" data-name="Path 42922" d="M18.1,6.741q-2.718-2.222-5.429-4.452c-.9-.782-1.82-1.546-2.784-2.252-.3-.138-.383.147-.5.3Q7.522,2.654,5.681,4.99C3.905,7.234,2.158,9.5.352,11.721a1.029,1.029,0,0,0-.35.74.479.479,0,0,0,.133.242q1.132.995,2.334,1.9a.4.4,0,0,0,.349.094,1.045,1.045,0,0,0,.44.583Q5.872,17.405,8.5,19.51c.144.115.277.261.492.217q4.6-6.138,9.2-12.274a.442.442,0,0,0-.1-.712m-6.3,6.645c-.528.657-1.006,1.353-1.5,2.038-.431.6-.486.609-1.049.162-1.158-.922-2.3-1.86-3.458-2.786a2.48,2.48,0,0,0-.871-.563c-.01-.2-.2-.291-.328-.411-.382-.357-.809-.663-1.212-1-.308-.254-.351-.484-.078-.8.456-.52.849-1.091,1.289-1.624.866-1.051.861-1.044,1.935-.179.268.215.483.555.894.523.026.317.287.467.5.641,1.251,1.016,2.489,2.048,3.743,3.059.361.291.443.542.13.931" transform="translate(3.455 1.252)" fill="#656fcb"/>
        <path id="Path_42923" data-name="Path 42923" d="M11.683.824C11.6.745,11.53.659,11.444.589c-1.026-.845-1.5-.795-2.318.244Q7.457,2.946,5.79,5.06,2.894,8.741,0,12.424a.165.165,0,0,0,.159.186,3.625,3.625,0,0,1,1.478.519.7.7,0,0,0,.107,0c.209.217.492.347.7.569q1.744-2.224,3.487-4.448,1.347-1.714,2.7-3.423,1.808-2.272,3.626-4.536a1.717,1.717,0,0,0-.57-.465" transform="translate(1.086 0)" fill="#33479d"/>
        <path id="Path_42924" data-name="Path 42924" d="M1.556.16A.513.513,0,0,0,.779.195,1.076,1.076,0,0,0,.635.224C-.156.746-.209,1.33.483,1.938c.549.483,1.137.916,1.7,1.378Q5.82,6.28,9.466,9.23c.237.191.455.467.827.384l.8-1.054.321-.377Q6.487,4.169,1.556.16" transform="translate(0.408 13.009)" fill="#f6f7e0"/>
        <path id="Path_42925" data-name="Path 42925" d="M2.086,5.12C1.473,4.609.868,4.089.244,3.591c-.271-.216-.335-.405-.1-.693C.849,2.033,1.552,1.164,2.231.277c.273-.358.487-.357.813-.068.516.456,1.069.869,1.606,1.3C6.175,2.77,7.689,4.044,9.233,5.28c.326.261.3.429.089.714C8.648,6.89,7.97,7.784,7.33,8.7c-.249.358-.408.286-.692.056C5.13,7.536,3.605,6.331,2.086,5.12" transform="translate(6.273 8.493)" fill="#fd4d0a"/>
        <path id="Path_42926" data-name="Path 42926" d="M3.6,5.235C2.706,4.349-.076,2.671,0,1.7.2.714,1.105-.484,2.227.2,3.853,1.244,5.084,2.582,6.7,3.8c1.817,1.771,4.32,3.058,5.652,4.867-.856.668-2.8-1.833-3.47-2.12-2.156-1.734-4.2-3.4-6.354-5.146-.39-.278-.723-.79-1.281-.6-1.715,1.024.293,1.841,1.115,2.642C5.2,5.91,8.286,7.936,10.848,10.5c.119,1.309-7.375-5.118-7.246-5.265" transform="translate(0 12.448)" fill="#656fcb"/>
      </g>
      <g id="Group_189881" data-name="Group 189881" transform="translate(0 87.944)">
        <path id="Path_42927" data-name="Path 42927" d="M222.748,20.906c-.729.239-.961.786-1.223,1.372a1.613,1.613,0,0,0-1.032-1.354,1.763,1.763,0,0,0,1.032-1.47,2,2,0,0,0,1.223,1.452" transform="translate(-191.706 -13.356)" fill="#ececf0"/>
        <path id="Path_42928" data-name="Path 42928" d="M203.279,38.581a2.391,2.391,0,0,1,1.469-1.591,1.962,1.962,0,0,1-1.454-1.573c-.2.795-.474,1.382-1.3,1.6.819.193,1.05.821,1.284,1.565" transform="translate(-179.007 -24.315)" fill="#ccd7f3"/>
        <path id="Path_42930" data-name="Path 42930" d="M141.586,21.633l1.61,2.883a.85.85,0,0,1,.122.634,2.043,2.043,0,0,0,.978,2.077,2.214,2.214,0,0,0,2.922.232,17.724,17.724,0,0,1,4.505.634q6.655,1.2,13.309,2.411,3.7.679,7.4,1.342a2.186,2.186,0,0,1,.982.329c.4.088.8.195,1.211.259s.715.221.616.665c-.088.4-.45.383-.784.323l-6.117-1.091q-9.831-1.757-19.662-3.521a2.1,2.1,0,0,0-1.55.177c-1.986,1.151-5.6-1.422-5.162-3.685a1.565,1.565,0,0,0-.379-1.5,3.566,3.566,0,0,1-1.426-2.674L128.877,1.022c-.175-.311-.392-.678.007-.924.449-.277.676.086.872.444.213.389.451.764.678,1.144a1.785,1.785,0,0,1,.762.816c2.949,5.3,5.961,10.567,8.871,15.89a23.443,23.443,0,0,0,1.156,2.079,2.033,2.033,0,0,1,.363,1.161" transform="translate(-128.659 0)" fill="#fd4d0a"/>
        <path id="Path_42931" data-name="Path 42931" d="M192.451,31.732h0A4.081,4.081,0,0,0,189.113,29c-1.63-.233-3.211-.8-4.822-1.181a98.588,98.588,0,0,0-15.5-2.845c-.208-.015-.466.095-.729-.2a30.144,30.144,0,0,1,7.055.408,113.057,113.057,0,0,1,15.161,3.553c.261.079.652.379.8-.1.114-.361-.278-.348-.5-.414a96.509,96.509,0,0,0-19.226-4.085c-.173-.014-.448.12-.529-.249.3-.037.581-.08.863-.1a57.9,57.9,0,0,1,13.057.667c1.924.271,3.834.645,5.751.962.223.037.546.208.607-.2.048-.322-.257-.3-.454-.371a2.146,2.146,0,0,0-.282-.053,80.534,80.534,0,0,0-15.655-1.738c-1.155.006-2.309.069-3.463.105a1.454,1.454,0,0,1,.691-.3,54.721,54.721,0,0,1,11.142-.817c2.326.033,4.65.185,6.975.268.213.008.555.2.619-.206.081-.509-.345-.344-.583-.372-.538-.063-1.079-.1-1.62-.126-5.741-.3-11.477-.394-17.152.764-1.065.217-2.105.557-3.369.9a47.112,47.112,0,0,1,5.407-3.79A105.411,105.411,0,0,1,186.5,12.86c.259-.111.753-.145.555-.595-.171-.388-.5-.066-.736.029-2.57,1.047-5.083,2.22-7.555,3.477a56.806,56.806,0,0,0-12.143,7.839c.389-1.25.789-2.324,1.056-3.429a62.085,62.085,0,0,0,1.15-18.351c-.022-.382-.055-.763-.088-1.144-.013-.157-.022-.342-.239-.339s-.368.106-.358.35c.008.191.03.381.042.572a73.735,73.735,0,0,1-.387,15.079c-.081.567-.184,1.132-.287,1.7-.1.525-.205,1.047-.309,1.57a91.963,91.963,0,0,0-1.383-18.593c-.05-.312.125-.945-.447-.858-.5.076-.158.589-.122.883.257,2.12.6,4.231.817,6.355a54.424,54.424,0,0,1,.077,14.208,4.738,4.738,0,0,1-.6,1.994c-.312-1.372-.553-2.655-.9-3.909a120.525,120.525,0,0,0-6.952-18c-.121-.266-.127-.873-.6-.655-.458.208-.013.608.081.9a8.936,8.936,0,0,0,.428.96,135.38,135.38,0,0,1,5.914,15.033,15.96,15.96,0,0,1,.884,4.143l-.8-1.894a3.373,3.373,0,0,0-2.71,1.592,6.5,6.5,0,0,0,1.624,3.06,13.649,13.649,0,0,1,3.658,2.386,1.305,1.305,0,0,0,.153.072c0,.213.227.311.419.424q7.242,1.278,14.485,2.553,5.783,1.014,11.569,2.01l-.345-.549" transform="translate(-148.038 -0.107)" fill="#f7f7e0"/>
        <path id="Path_42933" data-name="Path 42933" d="M162.363,72.161c.19-.7.444-1.154.991-1.357.064-.134.224-.272-.017-.392-.651-.2-.774-.818-1.06-1.4a1.888,1.888,0,0,1-1.21,1.607c.758.233.958.861,1.3,1.541" transform="translate(-150.908 -47.38)" fill="#ccd7f3"/>
        <path id="Path_42934" data-name="Path 42934" d="M156.7,67.408l1.426,2.673L155.051,74.4c-.4-.562-.024-1.348-.5-1.55-.43-.183-1.036.05-1.812.124l3.959-5.562" transform="translate(-145.19 -46.278)" fill="#656fcb"/>
        <path id="Path_42935" data-name="Path 42935" d="M137.882,6.506a1,1,0,0,0-.588-.449c-.992-.214-1.98-.448-2.97-.674l9.485,16.974a3.657,3.657,0,0,0,3.017-1.438,78.281,78.281,0,0,0-8.944-14.412" transform="translate(-132.548 -3.696)" fill="#f7f7e0"/>
        <path id="Path_42936" data-name="Path 42936" d="M164.582,56.381a26.685,26.685,0,0,0,3.017-1.438,9.878,9.878,0,0,1,1.285,2.853,19.555,19.555,0,0,0-2.635,1.558,28.2,28.2,0,0,1-1.666-2.972" transform="translate(-153.321 -37.72)" fill="#656fcb"/>
        <path id="Path_42937" data-name="Path 42937" d="M178.335,80.639l.352.662a2,2,0,0,1-2.735.224c-1.706-1.149-1.934-1.679-1.433-3.319a8.7,8.7,0,0,1,3.815,2.433" transform="translate(-159.983 -53.691)" fill="#656fcb"/>
      </g>
    </g>
  </g>
</svg>
