<?xml version="1.0" encoding="utf-8"?>
<!-- Generator: Adobe Illustrator 25.2.1, SVG Export Plug-In . SVG Version: 6.00 Build 0)  -->
<svg version="1.1" id="Layer_1" xmlns="http://www.w3.org/2000/svg" xmlns:xlink="http://www.w3.org/1999/xlink" x="0px" y="0px"
	 viewBox="0 0 100 49" style="enable-background:new 0 0 100 49;" xml:space="preserve">
<style type="text/css">
	.st0{fill:#FFFFFF;stroke:#FFFFFF;stroke-width:0.5817;stroke-miterlimit:18.5482;stroke-opacity:0;}
</style>
<path class="st0" d="M14.2,42.5l-2.4,1.9c-0.1,0-0.1,0-0.1-0.2l0,0V27.8V11.3L9,9.9c-0.1,0-0.1-0.2-0.1-0.4l0,0l0-7.2
	c0-0.2,0-0.2,0.1-0.2l0,0l8,6.1c0.1,0,0.1,0.1,0.1,0.2l0,0v5.2c0,0.2,0,0.2-0.1,0.2l0,0l-2.8-1.3v14.8l0,14.8
	C14.3,42.4,14.2,42.5,14.2,42.5L14.2,42.5z M25,35.3l-6.8,4.2c-0.1,0-0.1,0-0.1-0.2l0,0V24.3l0-15.1c0-0.1,0-0.2,0.1-0.1l0,0l6.7,4
	c0.1,0,0.1,0.1,0.1,0.2l0,0v3.6c0,0.1,0,0.1-0.1,0.1l0,0l-4.3-1.6v6.1l4.3,0.4c0.1,0,0.1,0,0.1,0.1l0,0l0,3.6c0,0.1,0,0.1-0.1,0.1
	l0,0l-4.3,0.4v6.9l4.3-1.7c0.1,0,0.1,0,0.1,0.1l0,0v3.6C25.1,35.2,25,35.3,25,35.3L25,35.3z M28.2,33.7l-2.4,1.2
	c-0.1,0-0.1,0-0.1-0.1l0,0l2.4-11l-2.4-10.2c0-0.1,0-0.1,0.1-0.1l0,0l2.4,1.1c0.1,0,0.1,0.1,0.1,0.2l0,0l1.4,6.7l1.4-5.5
	c0-0.1,0.1-0.1,0.1-0.1l0,0l2.3,0.9c0.1,0,0.1,0.1,0.1,0.1l0,0l-2.4,6.9l2.4,7.5c0,0.1,0,0.1-0.1,0.1l0,0l-2.4,0.9
	c-0.1,0-0.1,0-0.1-0.1l0,0l-1.4-6l-1.4,7.2C28.3,33.6,28.3,33.7,28.2,33.7L28.2,33.7z M39.4,29.7l-2.4,0.6c-0.1,0-0.1,0-0.1-0.1l0,0
	v-5.2v-5.2l-2.7-0.5c-0.1,0-0.1-0.1-0.1-0.1l0,0l0-2.3c0-0.1,0-0.1,0.1-0.1l0,0l8,1.9c0.1,0,0.1,0,0.1,0.1l0,0v1.6
	c0,0.1,0,0.1-0.1,0.1l0,0l-2.8-0.3V25l0,4.6C39.5,29.6,39.5,29.7,39.4,29.7L39.4,29.7z M50,28.6L50,28.6c-0.8,0-1.4-0.1-2.1-0.3
	c-0.6-0.2-1.1-0.5-1.5-0.9c-0.4-0.4-0.5-0.8-0.5-1.3l0,0v-0.6c0,0,0-0.1,0.1-0.1l0,0l2.4,0c0.1,0,0.1,0,0.1,0.1l0,0V26
	c0,0.3,0.2,0.5,0.5,0.7S49.6,27,50,27l0,0c0.4,0,0.8-0.1,1.1-0.3c0.3-0.2,0.5-0.4,0.5-0.7l0,0c0-0.3-0.3-0.6-1-0.8l0,0
	c-0.2-0.1-0.6-0.2-1-0.4c-0.5-0.2-0.9-0.3-1.3-0.5l0,0c-0.8-0.3-1.3-0.6-1.7-1.1c-0.4-0.4-0.5-0.9-0.5-1.5l0,0
	c0-0.5,0.2-0.9,0.6-1.3c0.4-0.4,0.9-0.7,1.5-0.9c0.6-0.2,1.3-0.3,2-0.3l0,0c0.7,0,1.4,0.1,2.1,0.3c0.6,0.2,1.1,0.5,1.5,0.9
	c0.4,0.4,0.6,0.8,0.6,1.3l0,0v1.1c0,0,0,0.1-0.1,0.1l0,0l-2.4,0c-0.1,0-0.1,0-0.1-0.1l0,0l0-1.1c0-0.3-0.2-0.5-0.5-0.7
	c-0.3-0.2-0.7-0.3-1.1-0.3l0,0c-0.4,0-0.8,0.1-1.1,0.3s-0.5,0.4-0.5,0.7l0,0c0,0.3,0.1,0.5,0.3,0.7c0.2,0.2,0.6,0.4,1.1,0.5l0,0
	c0.1,0,0.2,0.1,0.4,0.1c0.2,0.1,0.4,0.1,0.7,0.2c0.2,0.1,0.5,0.2,0.7,0.2c0.2,0.1,0.3,0.1,0.3,0.1l0,0c0.7,0.3,1.3,0.6,1.7,0.9
	s0.6,0.8,0.6,1.3l0,0c0,0.5-0.2,1-0.5,1.3c-0.4,0.4-0.9,0.7-1.5,0.9C51.5,28.5,50.8,28.6,50,28.6z M58.1,29.2l-2.4-0.4
	c-0.1,0-0.1,0-0.1-0.1l0,0l0-4.8v-4.8c0,0,0-0.1,0.1-0.1l0,0l2.3-0.3c0.1,0,0.1,0,0.1,0.1l0,0l0,4.1l3.1-0.1v-4.6c0,0,0-0.1,0.1-0.1
	l0,0l2.3-0.6c0.1,0,0.1,0,0.1,0l0,0l0,6.5l0,6.5c0,0.1,0,0.1-0.1,0.1l0,0l-2.4-0.6c-0.1,0-0.1-0.1-0.1-0.1l0,0v-5l-3.1-0.1
	L58.1,29.2C58.2,29.2,58.1,29.2,58.1,29.2L58.1,29.2z M64.9,30.8L64.9,30.8l1.3-6.8l1.3-7.7c0-0.1,0-0.1,0.1-0.1l0,0l3-1.2
	c0.1,0,0.1,0,0.1,0.1l0,0l1.3,9l1.2,10.2c0,0.1,0,0.1-0.1,0.1l0,0l-2.3-1.1c-0.1,0-0.1-0.1-0.1-0.2l0,0l-0.2-2l-2.9-0.9l-0.2,1.6
	c0,0.1,0,0.1-0.1,0.1l0,0L65,30.9C64.9,30.9,64.9,30.9,64.9,30.8z M69,21.3l-0.9,6.6l2,0.4l-0.9-7l-0.1-0.9L69,21.3z M77,36.5
	l-2.4-1.3c-0.1,0-0.1-0.1-0.1-0.2l0,0l0-10.8l0-10.8c0-0.1,0-0.1,0.1-0.2l0,0l4-2.2c1.3-0.8,2.3-0.6,3.1,0.5
	c0.7,1.3,1.1,3.4,1.1,6.4l0,0c0,2.2-0.2,4.1-0.6,5.7c-0.4,1.5-0.9,2.6-1.5,3.4c-0.6,0.7-1.3,0.9-2.1,0.8l0,0l-1.6-0.3v9
	C77.1,36.5,77.1,36.5,77,36.5L77,36.5z M77.1,16.1v7l1.6-0.1c0.4,0,0.8-0.4,1.2-1.3c0.3-0.9,0.5-2,0.5-3.3l0,0
	c0-1.1-0.1-1.9-0.4-2.5c-0.3-0.6-0.7-0.7-1.2-0.5l0,0L77.1,16.1z M91,47l-6.8-5.6c-0.1,0-0.1-0.1-0.1-0.3l0,0l0-16.7V7.5
	c0-0.1,0-0.2,0.1-0.2l0,0L91,2c0.1-0.1,0.1,0,0.1,0.2l0,0v7.3c0,0.2,0,0.3-0.1,0.3l0,0l-4.3,2.2v8.5l4.3-0.6c0.1,0,0.1,0.1,0.1,0.2
	l0,0l0,7.3c0,0.2,0,0.3-0.1,0.2l0,0l-4.3-0.6v9.5L91,39c0.1,0,0.1,0.2,0.1,0.4l0,0v7.4C91.1,46.9,91.1,47,91,47L91,47z"/>
</svg>
