<?xml version="1.0" encoding="utf-8"?>
<!-- Generator: Adobe Illustrator 25.2.1, SVG Export Plug-In . SVG Version: 6.00 Build 0)  -->
<svg version="1.1" id="Layer_1" xmlns="http://www.w3.org/2000/svg" xmlns:xlink="http://www.w3.org/1999/xlink" x="0px" y="0px"
	 viewBox="0 0 100 49" style="enable-background:new 0 0 100 49;" xml:space="preserve">
<style type="text/css">
	.st0{fill:#FFFFFF;stroke:#FFFFFF;stroke-width:0.629;stroke-miterlimit:22.6907;stroke-opacity:0;}
</style>
<path class="st0" d="M19.5,36.5h-2c0,0-0.1-0.1-0.1-0.2l0,0v-8.8v-8.8l-2.3-1.3c-0.1,0-0.1-0.1-0.1-0.2l0,0l0-3.7
	c0-0.1,0-0.1,0.1-0.1l0,0l6.8,4.3c0.1,0,0.1,0.1,0.1,0.2l0,0v3c0,0.1,0,0.1-0.1,0.1l0,0l-2.3-1.2v8.3l0,8.3
	C19.6,36.5,19.6,36.5,19.5,36.5L19.5,36.5z M28.7,36.5h-5.8c0,0-0.1,0-0.1-0.1l0,0v-9l0-9c0-0.1,0-0.1,0.1-0.1l0,0l5.7,2.8
	c0,0,0.1,0.1,0.1,0.1l0,0v2.5c0,0.1,0,0.1-0.1,0.1l0,0L25,22.3v3.9l3.7,1c0,0,0.1,0,0.1,0.1l0,0l0,2.5c0,0.1,0,0.1-0.1,0.1l0,0
	L25,29.2v4.3l3.7,0.3c0,0,0.1,0,0.1,0.1l0,0L28.7,36.5C28.8,36.5,28.7,36.5,28.7,36.5L28.7,36.5z M31.4,36.5h-2c0,0-0.1,0-0.1-0.1
	l0,0l2-7.4l-2-7.6c0-0.1,0-0.1,0.1-0.1l0,0l2,0.8c0.1,0,0.1,0.1,0.1,0.1l0,0l1.2,5.2l1.2-4.3c0,0,0-0.1,0.1,0l0,0l2,0.6
	c0,0,0.1,0,0.1,0.1l0,0l-2,5.7l2,6.9c0,0.1,0,0.1-0.1,0.1l0,0h-2c0,0-0.1,0-0.1-0.1l0,0l-1.2-5.2l-1.2,5.1
	C31.5,36.5,31.5,36.5,31.4,36.5L31.4,36.5z M41,36.5h-2c0,0-0.1,0-0.1-0.1l0,0v-5v-5l-2.3-0.5c-0.1,0-0.1-0.1-0.1-0.1l0,0l0-2
	c0,0,0-0.1,0.1-0.1l0,0l6.8,1.4c0.1,0,0.1,0,0.1,0.1l0,0v1.8c0,0.1,0,0.1-0.1,0.1l0,0L41,26.9v4.8L41,36.5C41,36.5,41,36.5,41,36.5
	L41,36.5z M50,36.7L50,36.7c-0.6,0-1.2-0.1-1.7-0.4c-0.5-0.3-1-0.7-1.3-1.2c-0.3-0.5-0.5-1-0.5-1.6l0,0v-0.7c0,0,0-0.1,0.1-0.1l0,0
	l2,0c0,0,0.1,0,0.1,0.1l0,0v0.7c0,0.3,0.1,0.6,0.4,0.9c0.3,0.2,0.6,0.4,0.9,0.4l0,0c0.4,0,0.7-0.1,0.9-0.4c0.3-0.2,0.4-0.5,0.4-0.9
	l0,0c0-0.4-0.3-0.7-0.9-1l0,0c-0.2-0.1-0.5-0.2-0.9-0.4c-0.4-0.2-0.8-0.4-1.1-0.6l0,0c-0.7-0.3-1.1-0.8-1.5-1.3
	c-0.3-0.5-0.5-1.1-0.5-1.7l0,0c0-0.6,0.2-1.1,0.5-1.6c0.3-0.4,0.7-0.8,1.3-1.1c0.5-0.2,1.1-0.4,1.7-0.4l0,0c0.6,0,1.2,0.1,1.7,0.4
	c0.5,0.2,0.9,0.6,1.2,1.1c0.3,0.5,0.5,1,0.5,1.5l0,0v1.3c0,0,0,0.1-0.1,0.1l0,0l-2,0.1c0,0-0.1,0-0.1-0.1l0,0l0-1.3
	c0-0.4-0.1-0.7-0.4-0.9s-0.6-0.3-0.9-0.3l0,0c-0.4,0-0.7,0.1-0.9,0.4c-0.3,0.2-0.4,0.5-0.4,0.9l0,0c0,0.3,0.1,0.6,0.2,0.9
	c0.2,0.2,0.5,0.5,0.9,0.7l0,0c0.1,0,0.2,0.1,0.4,0.2c0.2,0.1,0.4,0.2,0.6,0.2c0.2,0.1,0.4,0.2,0.6,0.2c0.2,0.1,0.2,0.1,0.3,0.1l0,0
	c0.6,0.3,1.1,0.6,1.4,1.1s0.5,0.9,0.5,1.6l0,0c0,0.6-0.2,1.1-0.5,1.6c-0.3,0.5-0.7,0.9-1.3,1.1C51.2,36.6,50.6,36.7,50,36.7z
	 M56.8,36.5h-2c0,0-0.1,0-0.1-0.1l0,0l0-5.5v-5.5c0,0,0-0.1,0.1-0.1l0,0l2-0.2c0.1,0,0.1,0,0.1,0.1l0,0l0,4.4l2.7-0.3v-4.6
	c0,0,0-0.1,0.1-0.1l0,0l2-0.4c0.1,0,0.1,0,0.1,0.1l0,0l0,6l0,6.1c0,0.1,0,0.1-0.1,0.1l0,0h-2c-0.1,0-0.1,0-0.1-0.1l0,0v-5l-2.7,0.2
	L56.8,36.5C56.9,36.5,56.8,36.5,56.8,36.5L56.8,36.5z M62.6,36.4L62.6,36.4l1.1-6.3l1.1-6.6c0-0.1,0-0.1,0.1-0.1l0,0l2.6-0.9
	c0,0,0.1,0,0.1,0.1l0,0l1.1,6.7l1.1,7.1c0,0.1,0,0.1-0.1,0.1l0,0h-2c0,0-0.1,0-0.1-0.1l0,0L67.3,35l-2.4,0.1l-0.2,1.4
	c0,0.1,0,0.1-0.1,0.1l0,0L62.6,36.4C62.6,36.5,62.6,36.5,62.6,36.4z M66.1,27.5L65.3,33l1.7-0.1l-0.7-5.4l-0.1-0.7L66.1,27.5z
	 M72.9,36.5h-2c-0.1,0-0.1,0-0.1-0.1l0,0l0-7.6l0-7.6c0-0.1,0-0.1,0.1-0.1l0,0l3.4-1.6c1.1-0.6,2-0.5,2.6,0.1
	c0.6,0.7,0.9,1.9,0.9,3.6l0,0c0,1.3-0.2,2.4-0.5,3.5c-0.3,1-0.8,1.8-1.3,2.4c-0.5,0.6-1.1,0.9-1.7,1l0,0L73,30.5v5.9
	C73,36.5,72.9,36.5,72.9,36.5L72.9,36.5z M73,23.1v4.6l1.4-0.4c0.4-0.1,0.7-0.4,1-1c0.3-0.6,0.4-1.3,0.4-2.1l0,0
	c0-0.7-0.1-1.1-0.4-1.5c-0.2-0.3-0.6-0.4-1-0.2l0,0L73,23.1z M84.8,36.5H79c0,0-0.1,0-0.1-0.1l0,0l0-9.6v-9.6c0-0.1,0-0.1,0.1-0.2
	l0,0l5.7-3.7c0,0,0.1,0,0.1,0.1l0,0v3.7c0,0.1,0,0.2-0.1,0.2l0,0l-3.7,2V24l3.7-1.5c0,0,0.1,0,0.1,0.1l0,0l0,3.8
	c0,0.1,0,0.1-0.1,0.2l0,0l-3.7,1.1v5.2l3.7-0.4c0,0,0.1,0,0.1,0.2l0,0v3.8C84.8,36.5,84.8,36.5,84.8,36.5L84.8,36.5z"/>
</svg>
