<?xml version="1.0" encoding="utf-8"?>
<!-- Generator: Adobe Illustrator 25.2.1, SVG Export Plug-In . SVG Version: 6.00 Build 0)  -->
<svg version="1.1" id="Layer_1" xmlns="http://www.w3.org/2000/svg" xmlns:xlink="http://www.w3.org/1999/xlink" x="0px" y="0px"
	 viewBox="0 0 100 49" style="enable-background:new 0 0 100 49;" xml:space="preserve">
<style type="text/css">
	.st0{fill:#FFFFFF;stroke:#FFFFFF;stroke-width:0.8752;stroke-miterlimit:22.6907;stroke-opacity:0;}
</style>
<path class="st0" d="M37.5,34.3h-0.8c0,0-0.1,0-0.2-0.1l0,0l-10.6-8l-10.6-8h-2.5c-0.1,0-0.2,0-0.3-0.1l0,0l-4.4-3.1
	C8,14.8,7.9,14.7,8,14.7l0,0h8.2c0.1,0,0.2,0,0.2,0.1l0,0L20,18c0.1,0.1,0.1,0.1,0.1,0.1l0,0h-2.5l9.9,8l9.9,8
	C37.5,34.2,37.5,34.3,37.5,34.3L37.5,34.3z M41.3,34.3h-2.4c0,0-0.1,0-0.2-0.1l0,0l-10.6-9.7l-10.6-9.6c-0.1-0.1-0.1-0.1,0-0.1l0,0
	h6.9c0.1,0,0.1,0,0.2,0.1l0,0l2.7,3.1c0.1,0.1,0.1,0.1,0,0.1l0,0h-3.9l4.4,4.4h3.3c0,0,0.1,0,0.2,0.1l0,0l2.8,3.2
	c0.1,0.1,0.1,0.1,0,0.1l0,0h-2.8l5,4.9h2c0,0,0.1,0,0.2,0.1l0,0l2.8,3.2C41.3,34.2,41.3,34.3,41.3,34.3L41.3,34.3z M42.4,34.3h-0.8
	c0,0-0.1,0-0.2-0.1l0,0l-6.7-10l-9.4-9.3c-0.1-0.1-0.1-0.1,0-0.1l0,0h2.4c0.1,0,0.1,0,0.2,0.1l0,0l6.1,6.7l-3.2-6.7
	c0-0.1,0-0.1,0.1-0.1l0,0h2.4c0.1,0,0.1,0,0.1,0.1l0,0l3.6,9.2l7.3,10.1c0.1,0.1,0.1,0.1,0.1,0.1l0,0h-0.8c0,0-0.1,0-0.2-0.1l0,0
	l-5.6-7.2l4.6,7.2C42.4,34.2,42.4,34.3,42.4,34.3L42.4,34.3z M46.3,34.3h-0.8c0,0,0,0-0.1-0.1l0,0l-3.6-8l-3.6-8h-2.5
	c-0.1,0-0.1,0-0.2-0.1l0,0l-1.7-3.1c0-0.1,0-0.1,0-0.1l0,0H42c0.1,0,0.1,0,0.1,0.1l0,0L43,18c0,0.1,0,0.1,0,0.1l0,0h-2.5l2.9,8
	l2.9,8C46.3,34.2,46.3,34.3,46.3,34.3L46.3,34.3z M50,34.6L50,34.6c-0.3,0-0.5-0.3-0.7-0.8c-0.3-0.5-0.6-1.2-0.8-2
	c-0.3-0.8-0.5-1.8-0.6-2.8l0,0l-0.2-1.3c0-0.1,0-0.1,0-0.1l0,0h1.4c0,0,0,0,0,0.1l0,0l0.1,1.3c0,0.6,0.1,1.1,0.3,1.6
	c0.2,0.4,0.3,0.7,0.5,0.7l0,0c0.2,0,0.4-0.2,0.5-0.7c0.2-0.4,0.3-1,0.3-1.6l0,0c0-0.7-0.1-1.3-0.5-1.8l0,0c-0.1-0.2-0.3-0.4-0.6-0.8
	c-0.3-0.4-0.6-0.7-0.9-1l0,0c-0.6-0.6-1-1.4-1.4-2.3c-0.4-0.9-0.7-1.9-0.8-3.1l0,0c-0.1-1-0.1-2,0.1-2.8c0.3-0.8,0.7-1.5,1.3-2
	c0.6-0.5,1.3-0.7,2-0.7l0,0c0.8,0,1.4,0.2,2.1,0.7c0.6,0.5,1,1.2,1.2,2c0.2,0.8,0.3,1.8,0.1,2.8l0,0l-0.3,2.3c0,0.1,0,0.1-0.1,0.1
	l0,0h-1.8c0,0-0.1,0-0.1-0.1l0,0l0.1-2.3c0-0.7-0.1-1.2-0.3-1.6c-0.3-0.4-0.6-0.6-1-0.6l0,0c-0.4,0-0.7,0.2-1,0.6
	c-0.2,0.4-0.4,1-0.3,1.6l0,0c0,0.6,0.1,1.1,0.3,1.5c0.2,0.4,0.5,0.8,0.9,1.2l0,0c0.1,0.1,0.2,0.1,0.3,0.3c0.1,0.1,0.3,0.3,0.5,0.5
	c0.2,0.2,0.3,0.3,0.4,0.5c0.1,0.1,0.2,0.2,0.2,0.3l0,0c0.4,0.5,0.7,1.2,0.9,1.9c0.1,0.8,0.1,1.7,0,2.8l0,0c-0.2,1.1-0.4,2-0.7,2.9
	c-0.2,0.9-0.5,1.5-0.8,2C50.5,34.3,50.3,34.6,50,34.6z M52.8,34.3H52c0,0,0,0,0-0.1l0,0l1.9-9.7l1.9-9.6c0-0.1,0.1-0.1,0.1-0.1l0,0
	h2.4c0.1,0,0.1,0,0.1,0.1l0,0l-2.2,7.6h2.4l3-7.6c0-0.1,0.1-0.1,0.1-0.1l0,0h2.4c0.1,0,0.1,0,0,0.1l0,0l-4.6,9.6l-4.6,9.7
	c0,0.1-0.1,0.1-0.1,0.1l0,0H54c0,0,0,0,0-0.1l0,0l3.2-8.3h-2l-2.3,8.3C52.8,34.2,52.8,34.3,52.8,34.3L52.8,34.3z M55.2,34.1
	L55.2,34.1l5.9-9.7l6.7-9.6c0.1-0.1,0.1-0.1,0.2-0.1l0,0h3.1c0.1,0,0.1,0,0,0.1l0,0l-6.1,9.6l-6.9,9.7c-0.1,0.1-0.1,0.1-0.1,0.1l0,0
	h-0.8c0,0,0,0,0.1-0.1l0,0l1.4-2h-1.2l-1.3,2c-0.1,0.1-0.1,0.1-0.1,0.1l0,0h-0.8C55.2,34.3,55.2,34.2,55.2,34.1z M65.2,21.2
	l-5.7,7.9h1.1l4.8-7.9l0.6-1L65.2,21.2z M59.4,34.3h-0.8c0,0,0,0,0.1-0.1l0,0l8.2-9.7l8.2-9.6c0.1-0.1,0.1-0.1,0.2-0.1l0,0h4.1
	c1.3,0,1.8,0.5,1.4,1.6c-0.5,1-1.7,2.5-3.8,4.3l0,0c-1.5,1.3-3,2.5-4.3,3.5c-1.3,1-2.5,1.7-3.5,2.2c-0.9,0.5-1.6,0.8-2.1,0.8l0,0h-1
	l-6.6,7.1C59.5,34.2,59.4,34.3,59.4,34.3L59.4,34.3z M74.6,18.1l-5.2,5.6h1.1c0.3,0,0.9-0.3,1.7-0.9c0.8-0.6,1.8-1.3,2.7-2.2l0,0
	c0.8-0.7,1.3-1.3,1.5-1.8c0.2-0.5,0.1-0.7-0.4-0.7l0,0L74.6,18.1z M64.3,34.3h-2.4c0,0,0,0,0.1-0.1l0,0l11.4-9.7l11.4-9.6
	c0.1-0.1,0.2-0.1,0.2-0.1l0,0H92c0.1,0,0,0-0.1,0.1l0,0L87.4,18c-0.1,0.1-0.2,0.1-0.2,0.1l0,0h-3.9l-5.6,4.4H81c0,0,0,0-0.1,0.1l0,0
	l-4.5,3.2c-0.1,0.1-0.2,0.1-0.2,0.1l0,0h-2.8l-6.2,4.9h2c0,0,0,0-0.2,0.1l0,0l-4.6,3.2C64.3,34.2,64.3,34.3,64.3,34.3L64.3,34.3z"/>
</svg>
