<?xml version="1.0" encoding="utf-8"?>
<!-- Generator: Adobe Illustrator 25.2.1, SVG Export Plug-In . SVG Version: 6.00 Build 0)  -->
<svg version="1.1" id="Layer_1" xmlns="http://www.w3.org/2000/svg" xmlns:xlink="http://www.w3.org/1999/xlink" x="0px" y="0px"
	 viewBox="0 0 100 49" style="enable-background:new 0 0 100 49;" xml:space="preserve">
<style type="text/css">
	.st0{fill:#FFFFFF;stroke:#FFFFFF;stroke-width:0.5708;stroke-miterlimit:22.6907;stroke-opacity:0;}
</style>
<path class="st0" d="M15.2,32.8h-2.3c-0.1,0-0.1,0-0.1-0.1l0,0v-6.7v-6.7L10.2,19c-0.1,0-0.1-0.1-0.1-0.1l0,0l0-2.7
	c0-0.1,0-0.1,0.1-0.1l0,0l7.7,0.9c0.1,0,0.1,0,0.1,0.1l0,0v2.5c0,0.1,0,0.1-0.1,0.1l0,0l-2.7-0.3V26l0,6.6
	C15.3,32.7,15.3,32.8,15.2,32.8L15.2,32.8z M25.7,32.8h-6.6c-0.1,0-0.1,0-0.1-0.1l0,0v-7.8l0-7.8c0-0.1,0-0.1,0.1-0.1l0,0l6.5,0.7
	c0.1,0,0.1,0,0.1,0.1l0,0v2.4c0,0.1,0,0.1-0.1,0.1l0,0L21.5,20v3.5l4.2,0.3c0.1,0,0.1,0,0.1,0.1l0,0l0,2.4c0,0.1,0,0.1-0.1,0.1l0,0
	l-4.2-0.2V30l4.2,0.1c0.1,0,0.1,0,0.1,0.1l0,0L25.7,32.8C25.8,32.8,25.7,32.8,25.7,32.8L25.7,32.8z M28.8,32.8h-2.3
	c-0.1,0-0.1,0-0.1-0.1l0,0l2.3-7.5L26.5,18c0-0.1,0-0.1,0.1-0.1l0,0l2.3,0.3c0.1,0,0.1,0,0.1,0.1l0,0l1.4,5.1l1.4-4.8
	c0-0.1,0.1-0.1,0.1-0.1l0,0l2.3,0.3c0.1,0,0.1,0,0.1,0.1l0,0l-2.3,6.5l2.3,7.4c0,0.1,0,0.1-0.1,0.1l0,0h-2.3c-0.1,0-0.1,0-0.1-0.1
	l0,0l-1.4-5.4l-1.4,5.4C28.9,32.7,28.9,32.8,28.8,32.8L28.8,32.8z M39.7,32.8h-2.3c-0.1,0-0.1,0-0.1-0.1l0,0v-5.6v-5.6l-2.7-0.2
	c-0.1,0-0.1,0-0.1-0.1l0,0l0-2.3c0-0.1,0-0.1,0.1-0.1l0,0l7.7,0.9c0.1,0,0.1,0,0.1,0.1l0,0v2.1c0,0.1,0,0.1-0.1,0.1l0,0l-2.7-0.2
	v5.5l0,5.5C39.8,32.7,39.8,32.8,39.7,32.8L39.7,32.8z M50,33L50,33c-0.7,0-1.4-0.2-2-0.5c-0.6-0.3-1.1-0.8-1.5-1.3
	C46.2,30.6,46,30,46,29.3l0,0v-0.8c0-0.1,0-0.1,0.1-0.1l0,0l2.3,0.1c0.1,0,0.1,0,0.1,0.1l0,0v0.8c0,0.4,0.1,0.7,0.4,1
	c0.3,0.3,0.7,0.4,1.1,0.4l0,0c0.4,0,0.8-0.1,1.1-0.4c0.3-0.3,0.4-0.6,0.4-1l0,0c0-0.4-0.3-0.8-1-1.2l0,0c-0.2-0.1-0.6-0.3-1-0.5
	c-0.5-0.2-0.9-0.5-1.3-0.7l0,0c-0.7-0.4-1.3-0.9-1.7-1.6c-0.4-0.6-0.5-1.3-0.5-2l0,0c0-0.7,0.2-1.3,0.6-1.8c0.4-0.5,0.8-0.9,1.4-1.1
	c0.6-0.2,1.3-0.3,2-0.2l0,0c0.7,0.1,1.4,0.3,2,0.7c0.6,0.4,1.1,0.8,1.4,1.4c0.4,0.5,0.6,1.1,0.6,1.7l0,0v1.4c0,0.1,0,0.1-0.1,0.1
	l0,0l-2.3-0.2c-0.1,0-0.1,0-0.1-0.1l0,0l0-1.4c0-0.4-0.1-0.7-0.4-1c-0.3-0.3-0.7-0.5-1.1-0.5l0,0c-0.4,0-0.8,0.1-1.1,0.3
	c-0.3,0.2-0.4,0.6-0.4,1l0,0c0,0.4,0.1,0.7,0.3,1s0.5,0.5,1,0.8l0,0c0.1,0,0.2,0.1,0.4,0.2c0.2,0.1,0.4,0.2,0.6,0.3
	c0.2,0.1,0.4,0.2,0.6,0.3c0.2,0.1,0.3,0.2,0.3,0.2l0,0c0.7,0.4,1.2,0.8,1.6,1.3c0.4,0.5,0.6,1.1,0.6,1.7l0,0c0,0.7-0.2,1.2-0.5,1.7
	c-0.4,0.5-0.9,0.9-1.5,1.2C51.4,32.8,50.8,33,50,33z M57.9,32.8h-2.3c-0.1,0-0.1,0-0.1-0.1l0,0l0-5.8v-5.8c0,0,0-0.1,0.1-0.1l0,0
	l2.3,0.3c0.1,0,0.1,0,0.1,0.1l0,0l0,4.4l3.1,0.2v-4.3c0,0,0-0.1,0.1-0.1l0,0l2.3,0.2c0.1,0,0.1,0,0.1,0.1l0,0l0,5.3l0,5.3
	c0,0.1,0,0.1-0.1,0.1l0,0h-2.3c-0.1,0-0.1,0-0.1-0.1l0,0V28l-3.1-0.1L57.9,32.8C57.9,32.8,57.9,32.8,57.9,32.8L57.9,32.8z
	 M64.5,32.7L64.5,32.7l1.3-5.2l1.3-5.1c0,0,0-0.1,0.1-0.1l0,0l3,0.3c0.1,0,0.1,0,0.1,0.1l0,0l1.2,5l1.2,4.9c0,0,0,0.1-0.1,0.1l0,0
	h-2.3c-0.1,0-0.1,0-0.1-0.1l0,0l-0.2-1.1l-2.8,0l-0.2,1.1c0,0.1,0,0.1-0.1,0.1l0,0L64.5,32.7C64.5,32.8,64.5,32.8,64.5,32.7z
	 M68.5,25.9L67.5,30l2,0.1L68.7,26l-0.1-0.6L68.5,25.9z M76.2,32.8H74c-0.1,0-0.1,0-0.1-0.1l0,0l0-4.8l0-4.7c0,0,0-0.1,0.1-0.1l0,0
	l3.9,0.4c1.3,0.1,2.2,0.5,3,1.1c0.7,0.5,1.1,1.2,1.1,2l0,0c0,0.6-0.2,1.1-0.6,1.5c-0.4,0.4-0.9,0.7-1.5,0.9c-0.6,0.2-1.3,0.3-2,0.3
	l0,0l-1.5-0.1v3.4C76.3,32.8,76.3,32.8,76.2,32.8L76.2,32.8z M76.3,25.1v2.7l1.5,0.1c0.4,0,0.8-0.1,1.1-0.3c0.3-0.2,0.5-0.6,0.5-1
	l0,0c0-0.3-0.1-0.6-0.4-0.9c-0.3-0.2-0.7-0.4-1.2-0.4l0,0L76.3,25.1z M89.8,32.8h-6.6c-0.1,0-0.1,0-0.1-0.1l0,0l0-4.2v-4.2
	c0,0,0,0,0.1,0l0,0l6.5,0.7c0.1,0,0.1,0,0.1,0.1l0,0v1.3c0,0,0,0-0.1,0l0,0l-4.2-0.4v1.9l4.2,0.3c0.1,0,0.1,0,0.1,0.1l0,0l0,1.3
	c0,0,0,0-0.1,0l0,0l-4.2-0.2v2.1l4.2,0.1c0.1,0,0.1,0,0.1,0.1l0,0L89.8,32.8C89.9,32.8,89.9,32.8,89.8,32.8L89.8,32.8z"/>
</svg>
