<?xml version="1.0" encoding="utf-8"?>
<!-- Generator: Adobe Illustrator 25.2.1, SVG Export Plug-In . SVG Version: 6.00 Build 0)  -->
<svg version="1.1" id="Layer_1" xmlns="http://www.w3.org/2000/svg" xmlns:xlink="http://www.w3.org/1999/xlink" x="0px" y="0px"
	 viewBox="0 0 100 49" style="enable-background:new 0 0 100 49;" xml:space="preserve">
<style type="text/css">
	.st0{fill:#FFFFFF;stroke:#FFFFFF;stroke-width:0.9618;stroke-miterlimit:22.6907;stroke-opacity:0;}
</style>
<path class="st0" d="M11.4,36.4H8.9c-0.1,0,0-0.1,0.1-0.2l0,0l10.5-9.7l10.5-9.7h-1.3c0,0,0-0.1,0.2-0.2l0,0l4.4-3.8
	c0.1-0.1,0.2-0.1,0.2-0.1l0,0h2.9c0,0,0,0-0.1,0.1l0,0l-3.6,3.8c-0.1,0.1-0.2,0.2-0.2,0.2l0,0h-1.3l-9.8,9.7l-9.8,9.7
	C11.6,36.3,11.5,36.4,11.4,36.4L11.4,36.4z M22.6,36.4h-7c-0.1,0,0-0.1,0.1-0.2l0,0l10.6-11.8l10.6-11.7c0.1-0.1,0.1-0.1,0.2-0.1
	l0,0h2.5c0,0,0,0.1-0.1,0.2l0,0l-2.7,3.8c-0.1,0.1-0.1,0.1-0.1,0.1l0,0h-2.1L30,22.1h2.7c0,0,0,0,0,0.1l0,0l-2.7,3.9
	c-0.1,0.1-0.1,0.1-0.2,0.1l0,0h-3.2l-5,6h4c0.1,0,0,0.1,0,0.2l0,0l-2.7,3.9C22.7,36.3,22.6,36.4,22.6,36.4L22.6,36.4z M25.9,36.4
	h-2.4c-0.1,0,0-0.1,0-0.2l0,0l10-12.2l6.1-11.3c0.1-0.1,0.1-0.1,0.1-0.1l0,0h0.8c0,0,0,0,0,0.1l0,0l-4.1,8.1l5.2-8.1
	c0-0.1,0.1-0.1,0.1-0.1l0,0h0.8c0,0,0,0,0,0.1l0,0L35.7,24l-4,12.2c0,0.1-0.1,0.2-0.2,0.2l0,0h-2.4c-0.1,0-0.1-0.1,0-0.2l0,0
	l3.6-8.8l-6.5,8.8C26.1,36.3,26,36.4,25.9,36.4L25.9,36.4z M37.6,36.4h-2.5c-0.1,0-0.1-0.1,0-0.2l0,0l3.6-9.7l3.6-9.7h-1.3
	c0,0,0-0.1,0-0.2l0,0l1.7-3.8c0-0.1,0.1-0.1,0.1-0.1l0,0h2.9c0,0,0,0,0,0.1l0,0l-0.8,3.8c0,0.1-0.1,0.2-0.1,0.2l0,0h-1.3l-2.9,9.7
	l-2.9,9.7C37.7,36.3,37.6,36.4,37.6,36.4L37.6,36.4z M48.6,36.7L48.6,36.7c-0.8,0-1.5-0.3-2.1-1c-0.6-0.6-1-1.4-1.3-2.5
	c-0.2-1-0.3-2.2-0.2-3.4l0,0l0.2-1.6c0-0.1,0-0.2,0.1-0.2l0,0h1.9c0,0,0.1,0.1,0.1,0.2l0,0l-0.1,1.6c0,0.8,0.1,1.4,0.3,1.9
	c0.3,0.5,0.6,0.8,1,0.8l0,0c0.4,0,0.7-0.3,1-0.8c0.2-0.5,0.4-1.2,0.3-1.9l0,0c0-0.8-0.3-1.6-0.9-2.2l0,0c-0.2-0.2-0.4-0.5-0.8-1
	c-0.3-0.4-0.7-0.8-1-1.2l0,0c-0.5-0.7-0.8-1.7-1-2.8c-0.1-1.1-0.1-2.3,0.1-3.7l0,0c0.1-1.3,0.4-2.4,0.7-3.4c0.2-1,0.5-1.8,0.8-2.4
	c0.2-0.6,0.5-0.9,0.8-0.9l0,0c0.3,0,0.5,0.3,0.8,0.9c0.3,0.6,0.6,1.4,0.8,2.4c0.3,1,0.5,2.2,0.7,3.4l0,0l0.3,2.8c0,0.1,0,0.1,0,0.1
	l0,0h-1.5c0,0-0.1,0-0.1-0.1l0,0L49.4,19c0-0.8-0.2-1.4-0.3-1.9c-0.2-0.5-0.3-0.8-0.5-0.8l0,0c-0.2,0-0.4,0.3-0.5,0.8
	c-0.2,0.5-0.3,1.2-0.3,1.9l0,0c0,0.8,0,1.4,0.1,1.9c0.1,0.5,0.3,1,0.6,1.4l0,0c0,0.1,0.1,0.2,0.3,0.3c0.1,0.2,0.3,0.4,0.4,0.6
	c0.2,0.2,0.3,0.4,0.5,0.6c0.1,0.2,0.2,0.3,0.3,0.3l0,0c0.5,0.6,1,1.4,1.4,2.3c0.4,0.9,0.7,2.1,0.9,3.4l0,0c0.1,1.3,0.1,2.5-0.1,3.5
	c-0.3,1-0.7,1.9-1.3,2.5C50.1,36.4,49.4,36.7,48.6,36.7z M56.9,36.4h-2.5c-0.1,0-0.1-0.1-0.1-0.2l0,0l-1.9-11.8l-1.9-11.7
	c0-0.1,0-0.1,0-0.1l0,0h0.8c0,0,0.1,0,0.1,0.1l0,0l2.1,9.3h2l-3-9.3c0-0.1,0-0.1,0-0.1l0,0h0.9c0,0,0,0,0.1,0.1l0,0l4.6,11.7
	l4.6,11.8c0,0.1,0,0.2,0,0.2l0,0h-2.4c-0.1,0-0.1-0.1-0.2-0.2l0,0l-3.2-10h-2.4l2.3,10C57,36.3,57,36.4,56.9,36.4L56.9,36.4z
	 M63.9,36.2L63.9,36.2l-4-11.8L55,12.7c0-0.1-0.1-0.1,0-0.1l0,0H56c0,0,0.1,0,0.1,0.1l0,0l7.7,11.7l8.6,11.8c0.1,0.1,0.1,0.2,0,0.2
	l0,0h-2.4c-0.1,0-0.1-0.1-0.2-0.2l0,0l-1.7-2.5h-2.7l1,2.5c0,0.1,0,0.2,0,0.2l0,0H64C64,36.4,63.9,36.3,63.9,36.2z M59.7,20.5
	l4.4,9.6h1.7l-5.9-9.6L59,19.2L59.7,20.5z M76.5,36.4h-2.4c-0.1,0-0.1-0.1-0.2-0.2l0,0l-8.1-11.8l-8.2-11.7
	c-0.1-0.1-0.1-0.1-0.1-0.1l0,0H59c0.5,0,1.4,0.6,2.8,1.9c1.5,1.3,3.3,3,5.3,5.2l0,0c1.5,1.6,2.7,3,3.5,4.2c0.8,1.2,1.2,2.1,1.3,2.7
	c0.1,0.6-0.2,1-0.8,1l0,0h-1.2l6.6,8.6C76.6,36.3,76.6,36.4,76.5,36.4L76.5,36.4z M61.6,16.7l5.2,6.8h1.1c0.3,0,0.3-0.4-0.1-1.1
	c-0.4-0.7-1.1-1.6-2-2.7l0,0c-0.8-0.9-1.5-1.6-2.1-2.2c-0.6-0.6-1.1-0.9-1.3-0.9l0,0L61.6,16.7z M91,36.4h-7c-0.1,0-0.1-0.1-0.3-0.2
	l0,0L72.4,24.5L61.1,12.7C61,12.7,61,12.6,61,12.6l0,0h2.5c0,0,0.1,0.1,0.2,0.2l0,0l4.4,3.8c0.1,0.1,0.2,0.1,0.1,0.1l0,0h-2.1
	l5.5,5.3h2.7c0,0,0.1,0,0.2,0.1l0,0l4.5,3.9c0.1,0.1,0.1,0.1,0.1,0.1l0,0H76l6.2,6h4c0.1,0,0.2,0.1,0.3,0.2l0,0l4.5,3.9
	C91.1,36.3,91.1,36.4,91,36.4L91,36.4z"/>
</svg>
