<?xml version="1.0" encoding="utf-8"?>
<!-- Generator: Adobe Illustrator 25.2.1, SVG Export Plug-In . SVG Version: 6.00 Build 0)  -->
<svg version="1.1" id="Layer_1" xmlns="http://www.w3.org/2000/svg" xmlns:xlink="http://www.w3.org/1999/xlink" x="0px" y="0px"
	 viewBox="0 0 100 49" style="enable-background:new 0 0 100 49;" xml:space="preserve">
<style type="text/css">
	.st0{fill:#FFFFFF;stroke:#FFFFFF;stroke-width:0.6524;stroke-miterlimit:22.6907;stroke-opacity:0;}
</style>
<path class="st0" d="M16.4,25.9l-2.2-0.7c-0.1,0-0.1,0-0.1-0.1l0,0v-4.9v-4.9l-2.6-0.8c-0.1,0-0.1-0.1-0.1-0.1l0,0l0-1.9
	c0,0,0-0.1,0.1-0.1l0,0l7.5,2.3c0.1,0,0.1,0.1,0.1,0.1l0,0v1.9c0,0.1,0,0.1-0.1,0.1l0,0l-2.6-0.8v4.9L16.4,25.9
	C16.5,25.9,16.4,25.9,16.4,25.9L16.4,25.9z M26.5,28.7L20.1,27c-0.1,0-0.1,0-0.1-0.1l0,0v-6l0-6c0,0,0-0.1,0.1-0.1l0,0l6.3,1.7
	c0.1,0,0.1,0,0.1,0.1l0,0v1.9c0,0,0,0.1-0.1,0.1l0,0l-4-1.1v2.7l4,1.1c0.1,0,0.1,0,0.1,0.1l0,0l0,2c0,0,0,0.1-0.1,0.1l0,0l-4.1-1.1
	v3l4.1,1.1c0.1,0,0.1,0,0.1,0.1l0,0L26.5,28.7C26.6,28.7,26.6,28.7,26.5,28.7L26.5,28.7z M29.5,29.5l-2.2-0.6c-0.1,0-0.1,0-0.1-0.1
	l0,0l2.2-5.6l-2.2-6.3c0-0.1,0-0.1,0.1-0.1l0,0l2.2,0.5c0.1,0,0.1,0.1,0.1,0.1l0,0L31,22l1.3-3.8c0,0,0.1-0.1,0.1,0l0,0l2.2,0.5
	c0.1,0,0.1,0.1,0.1,0.1l0,0l-2.2,5.2l2.2,6.7c0,0.1,0,0.1-0.1,0.1l0,0l-2.2-0.5c-0.1,0-0.1-0.1-0.1-0.1l0,0L31,25.3l-1.4,4.1
	C29.6,29.5,29.6,29.5,29.5,29.5L29.5,29.5z M40.1,31.8l-2.2-0.5c-0.1,0-0.1,0-0.1-0.1l0,0v-4.9v-4.9l-2.6-0.6c-0.1,0-0.1,0-0.1-0.1
	l0,0l0-1.9c0,0,0-0.1,0.1-0.1l0,0l7.5,1.5c0.1,0,0.1,0,0.1,0.1l0,0v1.9c0,0.1,0,0.1-0.1,0.1l0,0l-2.6-0.5v4.9L40.1,31.8
	C40.2,31.8,40.1,31.8,40.1,31.8L40.1,31.8z M50,33.8L50,33.8c-0.7-0.1-1.4-0.4-1.9-0.8c-0.6-0.4-1.1-0.9-1.4-1.5
	c-0.3-0.6-0.5-1.2-0.5-1.8l0,0v-0.8c0-0.1,0-0.1,0.1-0.1l0,0l2.2,0.4c0.1,0,0.1,0,0.1,0.1l0,0v0.8c0,0.4,0.1,0.7,0.4,1
	c0.3,0.3,0.6,0.5,1,0.6l0,0c0.4,0.1,0.8,0,1-0.3c0.3-0.2,0.4-0.5,0.4-0.9l0,0c0-0.4-0.3-0.9-0.9-1.3l0,0c-0.2-0.1-0.5-0.3-1-0.6
	c-0.4-0.3-0.9-0.6-1.3-0.8l0,0c-0.7-0.5-1.3-1-1.6-1.7c-0.3-0.6-0.5-1.3-0.5-2l0,0c0-0.6,0.2-1.2,0.5-1.6c0.4-0.5,0.8-0.8,1.4-1
	c0.6-0.2,1.2-0.2,1.9-0.1l0,0c0.7,0.1,1.3,0.4,1.9,0.7c0.6,0.4,1,0.9,1.4,1.4c0.4,0.6,0.5,1.2,0.5,1.8l0,0v1.4c0,0,0,0.1-0.1,0.1
	l0,0l-2.2-0.3c-0.1,0-0.1,0-0.1-0.1l0,0l0-1.4c0-0.4-0.1-0.8-0.4-1.1c-0.3-0.3-0.6-0.5-1-0.5l0,0c-0.4-0.1-0.8,0-1,0.2
	c-0.3,0.2-0.4,0.5-0.4,0.9l0,0c0,0.4,0.1,0.7,0.3,1c0.2,0.3,0.5,0.6,1,0.9l0,0c0.1,0,0.2,0.1,0.4,0.2c0.2,0.1,0.4,0.2,0.6,0.4
	c0.2,0.2,0.4,0.3,0.6,0.4c0.2,0.1,0.3,0.2,0.3,0.2l0,0c0.7,0.4,1.2,0.9,1.6,1.4c0.4,0.5,0.6,1.1,0.6,1.8l0,0c0,0.7-0.2,1.2-0.5,1.7
	c-0.4,0.5-0.8,0.8-1.4,1C51.4,33.9,50.7,33.9,50,33.8z M57.6,34.7l-2.2-0.3c-0.1,0-0.1,0-0.1-0.1l0,0l0-6v-6c0,0,0-0.1,0.1-0.1l0,0
	l2.2,0.3c0.1,0,0.1,0,0.1,0.1l0,0l0,4.7l3,0.4v-4.7c0,0,0-0.1,0.1-0.1l0,0l2.2,0.2c0.1,0,0.1,0,0.1,0.1l0,0l0,6l0,6
	c0,0.1,0,0.1-0.1,0.1l0,0l-2.2-0.2c-0.1,0-0.1,0-0.1-0.1l0,0v-5.1l-3-0.4L57.6,34.7C57.7,34.7,57.6,34.7,57.6,34.7L57.6,34.7z
	 M64,35.4L64,35.4l1.2-5.8l1.2-5.8c0,0,0-0.1,0.1-0.1l0,0l2.9,0.2c0.1,0,0.1,0,0.1,0.1l0,0l1.2,6.1l1.2,6c0,0.1,0,0.1-0.1,0.1l0,0
	L69.6,36c-0.1,0-0.1,0-0.1-0.1l0,0l-0.2-1.3l-2.7-0.2l-0.2,1.2c0,0,0,0.1-0.1,0.1l0,0l-2.2-0.2C64,35.5,64,35.4,64,35.4z M67.8,27.7
	L67,32.6l1.9,0.2L68,27.8l-0.1-0.6L67.8,27.7z M75.4,36.4l-2.2-0.1c-0.1,0-0.1,0-0.1-0.1l0,0l0-6l0-6c0,0,0-0.1,0.1-0.1l0,0l3.8,0.2
	c1.2,0,2.2,0.4,2.9,1.1c0.7,0.7,1,1.6,1,2.7l0,0c0,0.8-0.2,1.5-0.6,2.1c-0.4,0.6-0.8,1-1.4,1.3C78.3,31.9,77.7,32,77,32l0,0
	l-1.5-0.1L75.4,36.4C75.5,36.3,75.4,36.4,75.4,36.4L75.4,36.4z M75.5,26.4v3.4l1.5,0.1c0.4,0,0.8-0.1,1.1-0.5
	c0.3-0.3,0.5-0.8,0.5-1.4l0,0c0-0.5-0.1-0.8-0.4-1.1s-0.7-0.5-1.1-0.5l0,0L75.5,26.4z M88.5,36.7l-6.4-0.1c-0.1,0-0.1,0-0.1-0.1l0,0
	l0-6v-6c0,0,0-0.1,0.1-0.1l0,0l6.3,0.1c0.1,0,0.1,0,0.1,0.1l0,0v1.9c0,0,0,0.1-0.1,0.1l0,0l-4,0v2.7l4,0c0.1,0,0.1,0,0.1,0.1l0,0
	l0,2c0,0,0,0.1-0.1,0.1l0,0l-4.1,0v3l4.1,0c0.1,0,0.1,0,0.1,0.1l0,0L88.5,36.7C88.6,36.7,88.6,36.7,88.5,36.7L88.5,36.7z"/>
</svg>
