<?xml version="1.0" encoding="utf-8"?>
<!-- Generator: Adobe Illustrator 25.2.1, SVG Export Plug-In . SVG Version: 6.00 Build 0)  -->
<svg version="1.1" id="Layer_1" xmlns="http://www.w3.org/2000/svg" xmlns:xlink="http://www.w3.org/1999/xlink" x="0px" y="0px"
	 viewBox="0 0 100 49" style="enable-background:new 0 0 100 49;" xml:space="preserve">
<style type="text/css">
	.st0{fill:#FFFFFF;stroke:#FFFFFF;stroke-width:0.9352;stroke-miterlimit:22.6907;stroke-opacity:0;}
</style>
<path class="st0" d="M10.6,23.1L8,23C8,23,7.9,23,7.9,22.9l0,0v-7.6V7.7h-3c-0.1,0-0.1,0-0.1-0.1l0,0l0-3c0-0.1,0-0.1,0.1-0.1l0,0
	h8.8c0.1,0,0.1,0,0.1,0.1l0,0v3c0,0.1,0,0.1-0.1,0.1l0,0l-3,0v7.6l0,7.6C10.7,23,10.7,23.1,10.6,23.1L10.6,23.1z M22.5,23.8L15,23.2
	c-0.1,0-0.1,0-0.1-0.1l0,0v-9.3l0-9.3c0-0.1,0-0.1,0.1-0.1l0,0l7.4,0c0.1,0,0.1,0,0.1,0.1l0,0v3.1c0,0.1,0,0.1-0.1,0.1l0,0l-4.7-0.1
	V12l4.7,0.2c0.1,0,0.1,0,0.1,0.1l0,0l0,3.1c0,0.1,0,0.1-0.1,0.1l0,0l-4.8-0.2v4.8l4.8,0.3c0.1,0,0.1,0.1,0.1,0.2l0,0L22.5,23.8
	C22.6,23.8,22.6,23.8,22.5,23.8L22.5,23.8z M26,24.2l-2.6-0.3c-0.1,0-0.1,0-0.1-0.1l0,0l2.6-9.8l-2.6-9.4c0-0.1,0-0.1,0.1-0.1l0,0
	h2.6c0.1,0,0.1,0,0.1,0.1l0,0l1.5,6.8l1.6-6.8c0-0.1,0.1-0.1,0.1-0.1l0,0l2.6,0c0.1,0,0.1,0,0.1,0.1l0,0l-2.6,9.5l2.6,10.7
	c0,0.1,0,0.1-0.1,0.1l0,0l-2.6-0.4c-0.1,0-0.1-0.1-0.1-0.2l0,0l-1.6-7.6L26.2,24C26.1,24.1,26.1,24.2,26,24.2L26,24.2z M38.4,26
	l-2.6-0.5c-0.1,0-0.1-0.1-0.1-0.2l0,0v-8.6V8.1l-3-0.1c-0.1,0-0.1-0.1-0.1-0.2l0,0l0-3.3c0-0.1,0-0.1,0.1-0.1l0,0l8.8,0
	c0.1,0,0.1,0,0.1,0.1l0,0v3.6c0,0.1,0,0.2-0.1,0.2l0,0l-3-0.1V17l0,8.8C38.5,26,38.5,26,38.4,26L38.4,26z M50,28.8L50,28.8
	c-0.8-0.2-1.6-0.7-2.3-1.5c-0.7-0.8-1.2-1.7-1.7-2.8c-0.4-1.1-0.6-2.2-0.6-3.4l0,0v-1.5c0-0.1,0-0.2,0.1-0.2l0,0l2.6,0.4
	c0.1,0,0.1,0.1,0.1,0.2l0,0v1.6c0,0.7,0.2,1.4,0.5,2c0.3,0.6,0.7,1,1.2,1.1l0,0c0.5,0.1,0.9-0.1,1.2-0.6c0.3-0.5,0.5-1.1,0.5-1.9
	l0,0c0-0.9-0.4-1.7-1.1-2.4l0,0c-0.2-0.2-0.6-0.6-1.2-1.2c-0.5-0.5-1-1-1.5-1.4l0,0c-0.8-0.8-1.5-1.8-1.9-2.9
	c-0.4-1.1-0.6-2.3-0.6-3.7l0,0c0-1.2,0.2-2.3,0.6-3.3c0.4-1,1-1.7,1.6-2.3c0.7-0.6,1.4-0.9,2.2-0.9l0,0c0.8,0,1.6,0.3,2.3,0.9
	c0.7,0.6,1.2,1.5,1.6,2.5c0.4,1.1,0.6,2.3,0.6,3.6l0,0v3c0,0.1,0,0.1-0.1,0.1l0,0l-2.6-0.3c-0.1,0-0.1-0.1-0.1-0.2l0,0l0-2.8
	c0-0.8-0.2-1.5-0.5-2c-0.3-0.5-0.7-0.8-1.2-0.8l0,0c-0.5,0-0.9,0.2-1.2,0.7c-0.3,0.5-0.5,1.1-0.5,1.9l0,0c0,0.7,0.1,1.4,0.3,1.9
	c0.2,0.5,0.6,1,1.2,1.6l0,0c0.1,0.1,0.2,0.2,0.5,0.4c0.2,0.2,0.5,0.4,0.7,0.7c0.3,0.3,0.5,0.5,0.7,0.7c0.2,0.2,0.3,0.3,0.4,0.4l0,0
	c0.8,0.8,1.4,1.6,1.8,2.6c0.4,1.1,0.7,2.3,0.7,3.7l0,0c0,1.4-0.2,2.5-0.6,3.5c-0.4,1-1,1.7-1.7,2.2C51.6,28.9,50.9,29,50,28.8z
	 M58.9,30.8L56.3,30c-0.1,0-0.1-0.1-0.1-0.2l0,0l0-12.5V4.8c0-0.1,0-0.1,0.1-0.1l0,0h2.6C59,4.6,59,4.7,59,4.8l0,0L59,15l3.5,0.4
	V4.8c0-0.1,0-0.2,0.1-0.2l0,0l2.6,0c0.1,0,0.1,0.1,0.1,0.2l0,0l0,13.8l0,13.9c0,0.1,0,0.2-0.1,0.2l0,0l-2.6-0.8
	c-0.1,0-0.1-0.1-0.1-0.2l0,0V20.2L59,19.6v11.1C59,30.7,58.9,30.8,58.9,30.8L58.9,30.8z M66.4,32.9L66.4,32.9l1.4-13.8l1.4-14.2
	c0-0.1,0.1-0.2,0.1-0.2l0,0l3.3,0c0.1,0,0.1,0.1,0.1,0.2l0,0l1.4,15.4l1.4,15.8c0,0.2,0,0.2-0.1,0.2l0,0l-2.6-0.9
	c-0.1,0-0.1-0.1-0.1-0.3l0,0l-0.3-3.3l-3.1-1l-0.3,3c0,0.1-0.1,0.2-0.1,0.2l0,0l-2.6-0.9C66.4,33.1,66.4,33,66.4,32.9z M70.9,14.6
	l-1,11.8l2.2,0.6l-0.9-12.3L71,13L70.9,14.6z M79.7,38l-2.6-1c-0.1,0-0.1-0.1-0.1-0.3l0,0l0-15.8L77,5c0-0.1,0-0.2,0.1-0.2l0,0
	l4.4,0c1.4,0,2.5,1,3.4,2.9c0.8,1.9,1.2,4.6,1.2,7.9l0,0c0,2.4-0.2,4.5-0.6,6.2c-0.4,1.7-1,2.9-1.7,3.6c-0.7,0.8-1.4,1-2.3,0.8l0,0
	l-1.8-0.5v12C79.8,37.9,79.8,38,79.7,38L79.7,38z M79.8,10.5V20l1.8,0.3c0.5,0.1,0.9-0.3,1.3-1.2c0.4-1,0.5-2.2,0.5-3.9l0,0
	c0-1.3-0.2-2.3-0.5-3.2c-0.3-0.9-0.8-1.3-1.3-1.4l0,0L79.8,10.5z M95.1,44.8l-7.5-3.4c-0.1,0-0.1-0.1-0.1-0.3l0,0l0-17.9V5.2
	c0-0.1,0-0.2,0.1-0.2l0,0L95.1,5c0.1,0,0.1,0.1,0.1,0.3l0,0v6.4c0,0.2,0,0.2-0.1,0.2l0,0l-4.7-0.5v8.4l4.7,0.9
	c0.1,0,0.1,0.1,0.1,0.2l0,0l0,6.5c0,0.1,0,0.2-0.1,0.2l0,0l-4.8-1.3v9.4l4.8,1.8c0.1,0,0.1,0.2,0.1,0.3l0,0v6.5
	C95.2,44.7,95.2,44.8,95.1,44.8L95.1,44.8z"/>
</svg>
