<?xml version="1.0" encoding="utf-8"?>
<!-- Generator: Adobe Illustrator 25.2.1, SVG Export Plug-In . SVG Version: 6.00 Build 0)  -->
<svg version="1.1" id="Layer_1" xmlns="http://www.w3.org/2000/svg" xmlns:xlink="http://www.w3.org/1999/xlink" x="0px" y="0px"
	 viewBox="0 0 100 49" style="enable-background:new 0 0 100 49;" xml:space="preserve">
<style type="text/css">
	.st0{fill:#FFFFFF;stroke:#FFFFFF;stroke-width:0.8382;stroke-miterlimit:22.6907;stroke-opacity:0;}
</style>
<path class="st0" d="M12.4,26.5l-2.5-1.1c-0.1,0-0.1-0.1-0.1-0.2l0,0V18v-7.3L6.9,9.5c-0.1,0-0.1-0.1-0.1-0.2l0,0l0-2.8
	c0-0.1,0-0.1,0.1-0.1l0,0l8.4,3.6c0.1,0,0.1,0.1,0.1,0.2l0,0v2.9c0,0.1,0,0.1-0.1,0.1l0,0l-2.9-1.2v7.3l0,7.3
	C12.5,26.5,12.4,26.5,12.4,26.5L12.4,26.5z M23.7,31.3l-7.1-3c-0.1,0-0.1-0.1-0.1-0.2l0,0v-8.8l0-8.8c0-0.1,0-0.1,0.1-0.1l0,0l7.1,3
	c0.1,0,0.1,0.1,0.1,0.2l0,0v2.9c0,0.1,0,0.1-0.1,0.1l0,0l-4.5-1.9v4l4.5,1.9c0.1,0,0.1,0.1,0.1,0.2l0,0l0,2.9c0,0.1,0,0.1-0.1,0.1
	l0,0l-4.5-1.9v4.5l4.5,1.9c0.1,0,0.1,0.1,0.1,0.2l0,0L23.7,31.3C23.8,31.3,23.8,31.3,23.7,31.3L23.7,31.3z M27.1,32.7l-2.5-1
	c-0.1,0-0.1-0.1-0.1-0.2l0,0l2.5-8.1L24.6,14c0-0.1,0-0.1,0.1-0.1l0,0l2.5,1c0.1,0,0.1,0.1,0.1,0.2l0,0l1.5,6.7l1.5-5.5
	c0-0.1,0.1-0.1,0.1-0.1l0,0l2.4,1c0.1,0,0.1,0.1,0.1,0.1l0,0l-2.5,7.4l2.5,10.2c0,0.1,0,0.1-0.1,0.1l0,0l-2.5-1
	c-0.1,0-0.1-0.1-0.1-0.2l0,0l-1.5-7.2l-1.5,6C27.2,32.7,27.2,32.8,27.1,32.7L27.1,32.7z M38.9,37.7l-2.5-1c-0.1,0-0.1-0.1-0.1-0.2
	l0,0v-7.3v-7.3l-2.9-1.2c-0.1,0-0.1-0.1-0.1-0.2l0,0l0-2.8c0-0.1,0-0.1,0.1-0.1l0,0l8.4,3.6c0.1,0,0.1,0.1,0.1,0.2l0,0v2.9
	c0,0.1,0,0.1-0.1,0.1l0,0L39,23.1v7.3L38.9,37.7C39,37.7,39,37.8,38.9,37.7L38.9,37.7z M50,42.7L50,42.7c-0.8-0.3-1.5-0.8-2.2-1.6
	c-0.7-0.8-1.2-1.6-1.6-2.5c-0.4-1-0.6-1.9-0.6-2.8l0,0v-1.2c0-0.1,0-0.1,0.1-0.1l0,0l2.5,1c0.1,0,0.1,0.1,0.1,0.2l0,0v1.2
	c0,0.6,0.2,1.1,0.5,1.6c0.3,0.5,0.7,0.9,1.2,1l0,0c0.5-0.2,0.8-0.6,1.2-1.1c0.3-0.6,0.5-1.1,0.5-1.7l0,0c0-0.6-0.4-1-1.1-1.2l0,0
	c-0.2-0.1-0.6-0.3-1.1-0.6c-0.5-0.5-1-1.1-1.4-1.5l0,0c-0.8-0.9-1.4-1.8-1.8-2.8c-0.4-1-0.6-2-0.6-3l0,0c0-1,0.2-1.7,0.6-2.3
	c0.4-0.6,0.9-1,1.6-1.1c0.7-0.2,1.4-0.1,2.1,0.2l0,0c0.8-0.3,1.5-0.4,2.2-0.2c0.6,0.2,1.2,0.6,1.5,1.2c0.4,0.6,0.6,1.4,0.6,2.3l0,0
	v2.1c0,0.1,0,0.1-0.1,0.1l0,0l-2.5,1c-0.1,0-0.1,0-0.1-0.1l0,0l0-2.1c0-0.6-0.2-1-0.5-1.3c-0.3-0.2-0.7-0.3-1.1-0.1l0,0
	c-0.5-0.2-0.8-0.1-1.2,0.2c-0.3,0.3-0.5,0.7-0.5,1.2l0,0c0,0.6,0.1,1.1,0.3,1.5s0.6,1,1.1,1.5l0,0c0.1,0.1,0.2,0.2,0.4,0.2
	c0.2,0,0.4,0.1,0.7,0.1c0.2,0.1,0.5,0.1,0.7,0.2c0.2,0,0.3,0.1,0.4,0.1l0,0c0.7,0.2,1.3,0.5,1.7,1s0.6,1.3,0.6,2.3l0,0
	c0,1-0.2,1.9-0.6,2.9c-0.4,1-0.9,1.8-1.6,2.5C51.6,41.8,50.8,42.3,50,42.7z M58.5,38.8l-2.5,1c-0.1,0-0.1,0-0.1-0.1l0,0l0-8.8v-8.8
	c0-0.1,0-0.1,0.1-0.2l0,0l2.4-1c0.1,0,0.1,0,0.1,0.1l0,0l0,7l3.3-1.4v-7c0-0.1,0-0.1,0.1-0.2l0,0l2.4-1c0.1,0,0.1,0,0.1,0.1l0,0
	l0,8.8l0,8.8c0,0.1,0,0.1-0.1,0.2l0,0l-2.5,1c-0.1,0-0.1,0-0.1-0.1l0,0v-7.5l-3.3,1.4v7.5C58.6,38.7,58.6,38.8,58.5,38.8L58.5,38.8z
	 M65.6,35.7L65.6,35.7l1.4-9.4l1.4-9.4c0-0.1,0.1-0.1,0.1-0.2l0,0l3.2-1.4c0.1,0,0.1,0,0.1,0.1l0,0l1.3,8.2l1.3,8.2
	c0,0.1,0,0.1-0.1,0.2l0,0l-2.4,1c-0.1,0-0.1,0-0.1-0.1l0,0l-0.2-1.8l-3,1.3l-0.2,2c0,0.1-0.1,0.2-0.1,0.2l0,0l-2.4,1
	C65.7,35.8,65.6,35.7,65.6,35.7z M70,22l-1,7.6l2.1-0.9l-0.9-6.8L70.1,21L70,22z M78.4,30.4l-2.5,1c-0.1,0-0.1,0-0.1-0.1l0,0l0-8.8
	l0-8.8c0-0.1,0-0.1,0.1-0.1l0,0l4.2-1.8c1.4-0.6,2.4-0.5,3.2,0.1c0.8,0.6,1.2,1.8,1.2,3.4l0,0c0,1.2-0.2,2.3-0.6,3.4
	c-0.4,1.1-0.9,2-1.6,2.7c-0.7,0.8-1.4,1.3-2.2,1.6l0,0l-1.7,0.7v6.4C78.5,30.3,78.5,30.4,78.4,30.4L78.4,30.4z M78.5,15.6v5.1
	l1.7-0.7c0.5-0.2,0.9-0.6,1.2-1.3c0.3-0.7,0.5-1.4,0.5-2.3l0,0c0-0.7-0.2-1.1-0.5-1.4c-0.3-0.3-0.7-0.3-1.3-0.1l0,0L78.5,15.6z
	 M93.1,24.1l-7.1,3c-0.1,0-0.1,0-0.1-0.1l0,0l0-8.8V9.5c0-0.1,0-0.1,0.1-0.1l0,0l7.1-3c0.1,0,0.1,0,0.1,0.1l0,0v2.9
	c0,0.1,0,0.1-0.1,0.1l0,0l-4.5,1.9v4l4.5-1.9c0.1,0,0.1,0,0.1,0.1l0,0l0,2.9c0,0.1,0,0.1-0.1,0.1l0,0l-4.5,1.9v4.5l4.5-1.9
	c0.1,0,0.1,0,0.1,0.1l0,0V24C93.2,24.1,93.2,24.1,93.1,24.1L93.1,24.1z"/>
</svg>
