<?xml version="1.0" encoding="utf-8"?>
<!-- Generator: Adobe Illustrator 25.2.1, SVG Export Plug-In . SVG Version: 6.00 Build 0)  -->
<svg version="1.1" id="Layer_1" xmlns="http://www.w3.org/2000/svg" xmlns:xlink="http://www.w3.org/1999/xlink" x="0px" y="0px"
	 viewBox="0 0 100 49" style="enable-background:new 0 0 100 49;" xml:space="preserve">
<style type="text/css">
	.st0{fill:#FFFFFF;stroke:#FFFFFF;stroke-width:0.6331;stroke-miterlimit:22.6907;stroke-opacity:0;}
</style>
<path class="st0" d="M19.8,34.5l-2,1.4c0,0-0.1,0-0.1-0.1l0,0v-9.1v-9.1L15.5,18c-0.1,0-0.1-0.1-0.1-0.2l0,0l0-3.8
	c0-0.1,0-0.1,0.1-0.1l0,0l6.7-0.1c0.1,0,0.1,0,0.1,0.1l0,0v3.1c0,0.1,0,0.1-0.1,0.1l0,0l-2.3,0.3v8.5l0,8.5
	C19.9,34.4,19.9,34.5,19.8,34.5L19.8,34.5z M28.9,29.4l-5.7,3c0,0-0.1,0-0.1-0.1l0,0V23l0-9.3c0-0.1,0-0.1,0.1-0.1l0,0l5.7-0.1
	c0,0,0.1,0,0.1,0.1l0,0v2.5c0,0.1,0,0.1-0.1,0.1l0,0l-3.6,0.3v3.9l3.6-0.7c0,0,0.1,0,0.1,0.1l0,0l0,2.6c0,0.1,0,0.1-0.1,0.1l0,0
	l-3.6,1.1v4.4l3.6-1.5c0,0,0.1,0,0.1,0.1l0,0v2.6C29,29.4,28.9,29.4,28.9,29.4L28.9,29.4z M31.6,28.3l-2,0.8c0,0-0.1,0-0.1-0.1l0,0
	l2-8.4l-2-6.9c0-0.1,0-0.1,0.1-0.1l0,0l2,0c0.1,0,0.1,0,0.1,0.1l0,0l1.2,4.8l1.2-4.9c0,0,0-0.1,0.1-0.1l0,0l2,0c0,0,0.1,0,0.1,0.1
	l0,0l-2,6.5l2,6.4c0,0.1,0,0.1-0.1,0.1l0,0l-2,0.6c0,0-0.1,0-0.1-0.1l0,0l-1.2-4.8l-1.2,5.7C31.7,28.2,31.7,28.2,31.6,28.3
	L31.6,28.3z M41.1,25.5l-2,0.4c0,0-0.1,0-0.1-0.1l0,0v-5.1v-5.1l-2.3,0.1c-0.1,0-0.1,0-0.1-0.1l0,0l0-2.1c0-0.1,0-0.1,0.1-0.1l0,0
	l6.7,0c0.1,0,0.1,0,0.1,0.1l0,0v1.9c0,0,0,0.1-0.1,0.1l0,0l-2.3,0.1v4.9l0,4.9C41.1,25.4,41.1,25.4,41.1,25.5L41.1,25.5z M50,24.7
	L50,24.7c-0.6,0-1.2-0.1-1.7-0.4c-0.5-0.3-1-0.6-1.3-1.1c-0.3-0.5-0.5-1-0.5-1.6l0,0v-0.7c0-0.1,0-0.1,0.1-0.1l0,0l2-0.1
	c0,0,0.1,0,0.1,0.1l0,0v0.7c0,0.4,0.1,0.7,0.4,0.9c0.3,0.2,0.6,0.4,0.9,0.4l0,0c0.4,0,0.7-0.1,0.9-0.4c0.3-0.3,0.4-0.6,0.4-0.9l0,0
	c0-0.4-0.3-0.7-0.8-1l0,0c-0.2-0.1-0.5-0.2-0.9-0.4c-0.4-0.2-0.8-0.4-1.1-0.6l0,0c-0.6-0.3-1.1-0.7-1.4-1.3
	c-0.3-0.5-0.5-1.1-0.5-1.8l0,0c0-0.6,0.2-1.1,0.5-1.6c0.3-0.5,0.7-0.9,1.3-1.1c0.5-0.3,1.1-0.4,1.7-0.4l0,0c0.6,0,1.2,0.1,1.7,0.4
	c0.5,0.3,0.9,0.7,1.2,1.1c0.3,0.5,0.5,1,0.5,1.6l0,0v1.3c0,0,0,0.1-0.1,0.1l0,0l-2,0c0,0-0.1,0-0.1-0.1l0,0l0-1.3
	c0-0.4-0.1-0.7-0.4-0.9c-0.3-0.2-0.6-0.3-0.9-0.3l0,0c-0.4,0-0.7,0.1-0.9,0.4c-0.3,0.2-0.4,0.5-0.4,0.9l0,0c0,0.4,0.1,0.6,0.2,0.9
	c0.2,0.2,0.5,0.5,0.9,0.7l0,0c0.1,0,0.2,0.1,0.4,0.2c0.2,0.1,0.3,0.2,0.5,0.3c0.2,0.1,0.4,0.2,0.5,0.3c0.2,0.1,0.2,0.1,0.3,0.1l0,0
	c0.6,0.3,1.1,0.7,1.4,1.1c0.3,0.5,0.5,1,0.5,1.6l0,0c0,0.6-0.2,1.1-0.5,1.6c-0.3,0.5-0.7,0.8-1.3,1.1C51.2,24.6,50.6,24.8,50,24.7z
	 M56.7,25.1l-2-0.3c0,0-0.1,0-0.1-0.1l0,0l0-5.6v-5.6c0,0,0-0.1,0.1-0.1l0,0h2c0.1,0,0.1,0,0.1,0.1l0,0l0,4.5l2.6,0.2v-4.7
	c0,0,0-0.1,0.1-0.1l0,0l2,0c0.1,0,0.1,0,0.1,0.1l0,0l0,6.2l0,6.2c0,0.1,0,0.1-0.1,0.1l0,0l-2-0.5c-0.1,0-0.1,0-0.1-0.1l0,0v-5.1
	l-2.6-0.3L56.7,25.1C56.8,25.1,56.8,25.1,56.7,25.1L56.7,25.1z M62.4,26.2L62.4,26.2l1.1-6.2l1.1-6.5c0,0,0-0.1,0.1-0.1l0,0l2.6,0
	c0,0,0.1,0,0.1,0.1l0,0l1.1,7.3l1,7.7c0,0.1,0,0.1-0.1,0.1l0,0l-2-0.8c0,0-0.1-0.1-0.1-0.1l0,0l-0.2-1.6l-2.4-0.7l-0.2,1.4
	c0,0.1,0,0.1-0.1,0.1l0,0l-2-0.6C62.5,26.3,62.4,26.3,62.4,26.2z M65.9,18.1l-0.8,5.4l1.7,0.4l-0.7-5.8L66,17.4L65.9,18.1z
	 M72.6,30.2l-2-0.9c-0.1,0-0.1-0.1-0.1-0.2l0,0l0-7.7l0-7.7c0-0.1,0-0.1,0.1-0.1l0,0l3.4,0c1.1,0,1.9,0.5,2.6,1.6
	c0.6,1.1,0.9,2.5,0.9,4.3l0,0c0,1.3-0.2,2.4-0.5,3.2c-0.3,0.8-0.8,1.4-1.3,1.7c-0.5,0.3-1.1,0.3-1.7,0.1l0,0l-1.3-0.4L72.6,30.2
	C72.7,30.2,72.7,30.3,72.6,30.2L72.6,30.2z M72.7,16.5v4.7l1.3,0.3c0.4,0.1,0.7-0.1,1-0.5c0.3-0.5,0.4-1.1,0.4-2l0,0
	c0-0.7-0.1-1.2-0.4-1.7s-0.6-0.7-1-0.7l0,0L72.7,16.5z M84.4,37.6l-5.7-3.9c0,0-0.1-0.1-0.1-0.2l0,0l0-9.8v-9.8c0-0.1,0-0.1,0.1-0.1
	l0,0l5.7,0.1c0,0,0.1,0.1,0.1,0.2l0,0v3.8c0,0.1,0,0.1-0.1,0.1l0,0l-3.6-0.5v4.8l3.6,1.1c0,0,0.1,0.1,0.1,0.1l0,0l0,3.9
	c0,0.1,0,0.1-0.1,0.1l0,0l-3.6-1.5v5.3l3.6,2.2c0,0,0.1,0.1,0.1,0.2l0,0L84.4,37.6C84.5,37.6,84.5,37.6,84.4,37.6L84.4,37.6z"/>
</svg>
