<?xml version="1.0" encoding="utf-8"?>
<!-- Generator: Adobe Illustrator 25.2.1, SVG Export Plug-In . SVG Version: 6.00 Build 0)  -->
<svg version="1.1" id="Layer_1" xmlns="http://www.w3.org/2000/svg" xmlns:xlink="http://www.w3.org/1999/xlink" x="0px" y="0px"
	 viewBox="0 0 100 49" style="enable-background:new 0 0 100 49;" xml:space="preserve">
<style type="text/css">
	.st0{fill:#FFFFFF;stroke:#FFFFFF;stroke-width:0.8091;stroke-miterlimit:22.6907;stroke-opacity:0;}
</style>
<path class="st0" d="M14,41.9l-2.4,0.1c-0.1,0-0.1,0-0.1-0.1l0,0v-7.1v-7.1l-2.7,0c-0.1,0-0.1,0-0.1-0.1l0,0l0-2.8
	c0-0.1,0-0.1,0.1-0.1l0,0l8-0.4c0.1,0,0.1,0,0.1,0.1l0,0v2.8c0,0.1,0,0.1-0.1,0.1l0,0L14,27.6v7.1l0,7.1C14.1,41.9,14,41.9,14,41.9
	L14,41.9z M24.8,40.5L18,41.6c-0.1,0-0.1,0-0.1-0.1l0,0v-8.6l0-8.5c0-0.1,0-0.1,0.1-0.1l0,0l6.8-1c0.1,0,0.1,0,0.1,0.1l0,0V26
	c0,0.1,0,0.1-0.1,0.1l0,0l-4.3,0.7v3.9l4.3-0.7c0.1,0,0.1,0,0.1,0.1l0,0l0,2.8c0,0.1,0,0.1-0.1,0.1l0,0l-4.4,0.7v4.4l4.4-0.7
	c0.1,0,0.1,0,0.1,0.1l0,0L24.8,40.5C24.9,40.4,24.9,40.5,24.8,40.5L24.8,40.5z M28.1,39.8l-2.4,0.5c-0.1,0-0.1,0-0.1-0.1l0,0
	l2.4-9.4l-2.4-7.7c0-0.1,0-0.1,0.1-0.1l0,0l2.4-0.5c0.1,0,0.1,0,0.1,0.1l0,0l1.4,5.6l1.4-6.3c0-0.1,0.1-0.1,0.1-0.1l0,0l2.3-0.6
	c0.1,0,0.1,0,0.1,0.1l0,0L31.2,30l2.4,8.3c0,0.1,0,0.1-0.1,0.1l0,0L31.2,39c-0.1,0-0.1,0-0.1-0.1l0,0l-1.4-6.1l-1.5,6.8
	C28.2,39.7,28.1,39.8,28.1,39.8L28.1,39.8z M39.4,36.7L37,37.4c-0.1,0-0.1,0-0.1-0.1l0,0v-7.1v-7.1l-2.7,0.8c-0.1,0-0.1,0-0.1-0.1
	l0,0l0-2.8c0-0.1,0-0.1,0.1-0.1l0,0l8-2.4c0.1,0,0.1,0,0.1,0.1l0,0v2.8c0,0.1,0,0.1-0.1,0.1l0,0l-2.8,0.9v7.1l0,7.1
	C39.5,36.6,39.4,36.7,39.4,36.7L39.4,36.7z M50,33.4L50,33.4c-0.8,0.3-1.5,0.3-2.1,0c-0.6-0.2-1.1-0.7-1.5-1.3
	c-0.4-0.6-0.5-1.4-0.5-2.3l0,0v-1.1c0-0.1,0-0.1,0.1-0.1l0,0l2.4-0.8c0.1,0,0.1,0,0.1,0.1l0,0V29c0,0.5,0.2,1,0.5,1.2
	c0.3,0.3,0.7,0.3,1.1,0.2l0,0c0.4-0.1,0.8-0.5,1.1-1s0.5-1,0.5-1.5l0,0c0-0.6-0.3-1-1-1.3l0,0c-0.2-0.1-0.6-0.2-1.1-0.3
	c-0.5-0.1-0.9-0.3-1.4-0.4l0,0c-0.8-0.3-1.4-0.7-1.7-1.4c-0.4-0.7-0.5-1.5-0.5-2.5l0,0c0-0.9,0.2-1.8,0.6-2.7
	c0.4-0.9,0.9-1.6,1.5-2.3c0.6-0.6,1.3-1.1,2-1.3l0,0c0.7-0.2,1.4-0.3,2.1,0c0.6,0.2,1.1,0.6,1.5,1.2c0.4,0.6,0.6,1.4,0.6,2.3l0,0v2
	c0,0.1,0,0.1-0.1,0.1l0,0l-2.4,0.8c-0.1,0-0.1,0-0.1,0l0,0l0-2c0-0.6-0.2-1-0.5-1.3c-0.3-0.2-0.7-0.3-1.1-0.2l0,0
	c-0.4,0.1-0.8,0.5-1.1,1c-0.3,0.5-0.5,1-0.5,1.5l0,0c0,0.5,0.1,1,0.3,1.3c0.2,0.3,0.6,0.5,1.1,0.7l0,0c0.1,0,0.2,0.1,0.4,0.1
	c0.2,0,0.4,0.1,0.7,0.2c0.2,0.1,0.5,0.1,0.7,0.2c0.2,0,0.3,0.1,0.3,0.1l0,0c0.7,0.2,1.3,0.6,1.7,1.1c0.4,0.5,0.6,1.3,0.6,2.3l0,0
	c0,0.9-0.2,1.9-0.5,2.7c-0.4,0.9-0.9,1.6-1.5,2.3C51.5,32.7,50.8,33.2,50,33.4z M58.1,30.5l-2.4,0.8c-0.1,0-0.1,0-0.1-0.1l0,0l0-8.5
	V14c0-0.1,0-0.1,0.1-0.1l0,0l2.3-0.8c0.1,0,0.1,0,0.1,0.1l0,0l0,6.8l3.2-1v-6.8c0-0.1,0-0.1,0.1-0.1l0,0l2.3-0.7
	c0.1,0,0.1,0,0.1,0.1l0,0l0,8.5l0,8.6c0,0.1,0,0.1-0.1,0.1l0,0l-2.4,0.7c-0.1,0-0.1,0-0.1-0.1l0,0V22l-3.2,1v7.3
	C58.2,30.4,58.2,30.5,58.1,30.5L58.1,30.5z M65,28.3L65,28.3l1.3-8.9l1.3-8.9c0-0.1,0-0.1,0.1-0.1l0,0l3.1-0.8c0.1,0,0.1,0,0.1,0.1
	l0,0l1.3,8.3l1.2,8.3c0,0.1,0,0.1-0.1,0.1l0,0L71,26.8c-0.1,0-0.1,0-0.1-0.1l0,0l-0.2-1.8l-2.9,0.7l-0.2,1.9c0,0.1,0,0.1-0.1,0.1
	l0,0L65,28.3C65,28.4,65,28.3,65,28.3z M69.1,15.7l-1,7.2l2-0.5l-0.9-6.8l-0.1-0.9L69.1,15.7z M77.2,25.5L74.8,26
	c-0.1,0-0.1,0-0.1-0.1l0,0l0-8.6l0-8.5c0-0.1,0-0.1,0.1-0.1l0,0l4.1-0.7c1.3-0.2,2.3,0.1,3.1,1c0.7,0.8,1.1,2.1,1.1,3.7l0,0
	c0,1.2-0.2,2.2-0.6,3.1c-0.4,0.9-0.9,1.6-1.5,2.2c-0.6,0.6-1.3,0.9-2.1,1l0,0l-1.6,0.3v6.3C77.3,25.5,77.3,25.5,77.2,25.5L77.2,25.5
	z M77.3,11.2v4.9l1.6-0.3c0.5-0.1,0.8-0.4,1.2-0.9c0.3-0.5,0.5-1.2,0.5-2l0,0c0-0.6-0.1-1.2-0.4-1.5c-0.3-0.4-0.7-0.5-1.2-0.4l0,0
	L77.3,11.2z M91.3,24.3l-6.8,0.3c-0.1,0-0.1,0-0.1-0.1l0,0l0-8.5V7.3c0-0.1,0-0.1,0.1-0.1l0,0l6.8-0.3c0.1,0,0.1,0,0.1,0.1l0,0v2.8
	c0,0.1,0,0.1-0.1,0.1l0,0l-4.3,0.1V14l4.3-0.1c0.1,0,0.1,0,0.1,0.1l0,0l0,2.8c0,0.1,0,0.1-0.1,0.1l0,0L86.9,17v4.4l4.4-0.1
	c0.1,0,0.1,0,0.1,0.1l0,0L91.3,24.3C91.4,24.2,91.3,24.3,91.3,24.3L91.3,24.3z"/>
</svg>
