<?xml version="1.0" encoding="utf-8"?>
<!-- Generator: Adobe Illustrator 25.2.1, SVG Export Plug-In . SVG Version: 6.00 Build 0)  -->
<svg version="1.1" id="Layer_1" xmlns="http://www.w3.org/2000/svg" xmlns:xlink="http://www.w3.org/1999/xlink" x="0px" y="0px"
	 viewBox="0 0 100 49" style="enable-background:new 0 0 100 49;" xml:space="preserve">
<style type="text/css">
	.st0{fill:#FFFFFF;stroke:#FFFFFF;stroke-width:0.7581;stroke-miterlimit:22.6907;stroke-opacity:0;}
</style>
<path class="st0" d="M16.9,24.4l-2.2-0.1c-0.1,0-0.1,0-0.1-0.1l0,0v-6.8v-6.8l-2.5,0c-0.1,0-0.1,0-0.1-0.1l0,0l0-2.7
	c0-0.1,0-0.1,0.1-0.1l0,0l7.4,0.4c0.1,0,0.1,0,0.1,0.1l0,0v2.7c0,0.1,0,0.1-0.1,0.1l0,0L17,10.8v6.8L16.9,24.4
	C17,24.4,17,24.4,16.9,24.4L16.9,24.4z M26.9,25.8l-6.3-1c-0.1,0-0.1,0-0.1-0.1l0,0v-8.2l0-8.2c0-0.1,0-0.1,0.1-0.1l0,0l6.2,1
	c0.1,0,0.1,0.1,0.1,0.1l0,0V12c0,0.1,0,0.1-0.1,0.1l0,0l-4-0.7v3.7l4,0.7c0.1,0,0.1,0.1,0.1,0.1l0,0l0,2.7c0,0.1,0,0.1-0.1,0.1l0,0
	l-4-0.7v4.2l4,0.7c0.1,0,0.1,0,0.1,0.1l0,0L26.9,25.8C27,25.8,26.9,25.8,26.9,25.8L26.9,25.8z M29.9,26.5L27.7,26
	c-0.1,0-0.1-0.1-0.1-0.1l0,0l2.2-8l-2.2-8.4c0-0.1,0-0.1,0.1-0.1l0,0l2.2,0.5C30,9.9,30,10,30,10l0,0l1.3,6l1.3-5.3
	c0,0,0.1-0.1,0.1,0l0,0l2.2,0.6c0.1,0,0.1,0,0.1,0.1l0,0l-2.2,7.2l2.2,9.1c0,0.1,0,0.1-0.1,0.1l0,0l-2.2-0.6c-0.1,0-0.1-0.1-0.1-0.2
	l0,0l-1.3-6.5L30,26.4C30,26.5,29.9,26.5,29.9,26.5L29.9,26.5z M40.3,29.5l-2.2-0.7c-0.1,0-0.1-0.1-0.1-0.1l0,0v-6.8V15l-2.5-0.7
	c-0.1,0-0.1-0.1-0.1-0.2l0,0l0-2.6c0-0.1,0-0.1,0.1-0.1l0,0l7.4,2.3c0.1,0,0.1,0.1,0.1,0.1l0,0v2.7c0,0.1,0,0.1-0.1,0.1l0,0
	l-2.5-0.9v6.8L40.3,29.5C40.3,29.4,40.3,29.5,40.3,29.5L40.3,29.5z M50,33.1L50,33.1c-0.7-0.3-1.3-0.7-1.9-1.3
	c-0.6-0.6-1-1.4-1.4-2.2c-0.3-0.8-0.5-1.7-0.5-2.6l0,0v-1.1c0-0.1,0-0.1,0.1-0.1l0,0l2.2,0.8c0.1,0,0.1,0.1,0.1,0.1l0,0v1.1
	c0,0.5,0.1,1,0.4,1.5c0.3,0.5,0.6,0.8,1,0.9l0,0c0.4,0.1,0.7,0.1,1-0.2c0.3-0.3,0.4-0.7,0.4-1.2l0,0c0-0.6-0.3-1.2-0.9-1.8l0,0
	c-0.2-0.2-0.5-0.6-1-1c-0.4-0.5-0.9-0.9-1.2-1.3l0,0c-0.7-0.8-1.2-1.6-1.6-2.5c-0.3-0.9-0.5-1.8-0.5-2.8l0,0c0-0.9,0.2-1.6,0.5-2.2
	c0.3-0.6,0.8-1,1.4-1.2c0.6-0.2,1.2-0.2,1.9,0l0,0c0.7,0.2,1.3,0.7,1.9,1.3c0.6,0.6,1,1.4,1.4,2.2c0.3,0.8,0.5,1.7,0.5,2.5l0,0v2
	c0,0.1,0,0.1-0.1,0l0,0l-2.2-0.7c-0.1,0-0.1-0.1-0.1-0.1l0,0l0-2c0-0.6-0.1-1.1-0.4-1.5c-0.3-0.5-0.6-0.8-1-0.9l0,0
	c-0.4-0.1-0.7-0.1-1,0.2c-0.3,0.3-0.4,0.7-0.4,1.2l0,0c0,0.5,0.1,1,0.3,1.4s0.5,0.9,1,1.4l0,0c0.1,0.1,0.2,0.2,0.4,0.4
	c0.2,0.2,0.4,0.4,0.6,0.6c0.2,0.2,0.4,0.4,0.6,0.6c0.2,0.2,0.3,0.3,0.3,0.3l0,0c0.6,0.7,1.2,1.4,1.5,2.2c0.4,0.8,0.6,1.6,0.6,2.6
	l0,0c0,0.9-0.2,1.7-0.5,2.3c-0.3,0.6-0.8,1-1.4,1.2C51.4,33.3,50.7,33.3,50,33.1z M57.5,35.4l-2.2-0.7c-0.1,0-0.1-0.1-0.1-0.1l0,0
	l0-8.2v-8.2c0-0.1,0-0.1,0.1-0.1l0,0l2.2,0.7c0.1,0,0.1,0.1,0.1,0.1l0,0l0,6.5l2.9,1v-6.5c0-0.1,0-0.1,0.1-0.1l0,0l2.2,0.7
	c0.1,0,0.1,0.1,0.1,0.1l0,0l0,8.2l0,8.2c0,0.1,0,0.1-0.1,0.1l0,0l-2.2-0.7c-0.1,0-0.1-0.1-0.1-0.2l0,0v-7l-2.9-1L57.5,35.4
	C57.5,35.4,57.5,35.4,57.5,35.4L57.5,35.4z M63.7,37.3L63.7,37.3l1.2-7.8l1.2-7.8c0-0.1,0-0.1,0.1-0.1l0,0l2.8,0.7
	c0.1,0,0.1,0.1,0.1,0.1l0,0l1.2,8.5l1.1,8.5c0,0.1,0,0.1-0.1,0.1l0,0l-2.2-0.5c-0.1,0-0.1-0.1-0.1-0.1l0,0L68.9,37l-2.6-0.7
	l-0.2,1.7c0,0.1,0,0.1-0.1,0.1l0,0l-2.2-0.6C63.8,37.4,63.7,37.3,63.7,37.3z M67.5,27.4l-0.9,6.5l1.9,0.5l-0.8-6.9l-0.1-0.9
	L67.5,27.4z M74.9,40.1l-2.2-0.4c-0.1,0-0.1-0.1-0.1-0.1l0,0l0-8.2l0-8.2c0-0.1,0-0.1,0.1-0.1l0,0l3.7,0.7c1.2,0.2,2.1,0.8,2.8,1.7
	c0.7,1,1,2.2,1,3.7l0,0c0,1.1-0.2,2.1-0.5,2.9c-0.4,0.8-0.8,1.4-1.4,1.7c-0.6,0.3-1.2,0.5-1.9,0.4l0,0L75,34v6
	C75,40.1,75,40.1,74.9,40.1L74.9,40.1z M75,26.4v4.7l1.5,0.3c0.4,0.1,0.8-0.1,1.1-0.6c0.3-0.4,0.4-1.1,0.4-1.8l0,0
	c0-0.6-0.1-1.1-0.4-1.6c-0.3-0.4-0.6-0.7-1.1-0.8l0,0L75,26.4z M87.9,41.3L81.6,41c-0.1,0-0.1,0-0.1-0.1l0,0l0-8.2v-8.2
	c0-0.1,0-0.1,0.1-0.1l0,0l6.2,0.3c0.1,0,0.1,0,0.1,0.1l0,0v2.7c0,0.1,0,0.1-0.1,0.1l0,0l-4-0.1v3.7l4,0.1c0.1,0,0.1,0,0.1,0.1l0,0
	l0,2.7c0,0.1,0,0.1-0.1,0.1l0,0l-4-0.1v4.2l4,0.1c0.1,0,0.1,0,0.1,0.1l0,0L87.9,41.3C88,41.3,87.9,41.3,87.9,41.3L87.9,41.3z"/>
</svg>
