<?xml version="1.0" encoding="utf-8"?>
<!-- Generator: Adobe Illustrator 25.2.1, SVG Export Plug-In . SVG Version: 6.00 Build 0)  -->
<svg version="1.1" id="Layer_1" xmlns="http://www.w3.org/2000/svg" xmlns:xlink="http://www.w3.org/1999/xlink" x="0px" y="0px"
	 viewBox="0 0 100 49" style="enable-background:new 0 0 100 49;" xml:space="preserve">
<style type="text/css">
	.st0{fill:#FFFFFF;stroke:#FFFFFF;stroke-width:0.7278;stroke-miterlimit:22.6907;stroke-opacity:0;}
</style>
<path class="st0" d="M15.8,38.2h-2.3c-0.1,0-0.1-0.1-0.1-0.2l0,0V27.1V16.2l-2.6-0.8c-0.1,0-0.1-0.1-0.1-0.2l0,0l0-4.5
	c0-0.1,0-0.1,0.1-0.1l0,0l7.6,2.7c0.1,0,0.1,0.1,0.1,0.2l0,0v4c0,0.1,0,0.2-0.1,0.1l0,0l-2.6-0.7v10.6l0,10.6
	C15.8,38.1,15.8,38.2,15.8,38.2L15.8,38.2z M26.1,38.2h-6.5c-0.1,0-0.1-0.1-0.1-0.2l0,0V25.9l0-12.1c0-0.1,0-0.1,0.1-0.1l0,0
	l6.4,2.1c0.1,0,0.1,0.1,0.1,0.2l0,0v3.6c0,0.1,0,0.1-0.1,0.1l0,0l-4.1-1.1v5.3l4.1,0.8c0.1,0,0.1,0.1,0.1,0.1l0,0l0,3.6
	c0,0.1,0,0.1-0.1,0.1l0,0L21.9,28v6l4.1,0.2c0.1,0,0.1,0.1,0.1,0.2l0,0v3.7C26.2,38.2,26.1,38.2,26.1,38.2L26.1,38.2z M29.1,38.2
	h-2.2c-0.1,0-0.1-0.1-0.1-0.2l0,0l2.3-11l-2.2-10.9c0-0.1,0-0.1,0.1-0.1l0,0l2.2,0.7c0.1,0,0.1,0.1,0.1,0.2l0,0l1.3,7.6l1.4-6.8
	c0-0.1,0.1-0.1,0.1-0.1l0,0l2.2,0.6c0.1,0,0.1,0.1,0.1,0.1l0,0l-2.2,9.2l2.3,10.6c0,0.1,0,0.1-0.1,0.1l0,0h-2.2
	c-0.1,0-0.1,0-0.1-0.1l0,0l-1.4-7.8l-1.4,7.8C29.3,38.1,29.2,38.2,29.1,38.2L29.1,38.2z M39.9,38.2h-2.3c-0.1,0-0.1,0-0.1-0.1l0,0
	v-7.9v-7.9l-2.6-0.6c-0.1,0-0.1-0.1-0.1-0.2l0,0l0-3.2c0-0.1,0-0.1,0.1-0.1l0,0l7.6,1.8c0.1,0,0.1,0.1,0.1,0.1l0,0v2.9
	c0,0.1,0,0.1-0.1,0.1l0,0L40,22.7v7.7l0,7.7C40,38.2,40,38.2,39.9,38.2L39.9,38.2z M50,38.4L50,38.4c-0.7,0-1.4-0.2-2-0.7
	c-0.6-0.5-1.1-1.1-1.4-1.8c-0.3-0.8-0.5-1.6-0.5-2.5l0,0v-1.1c0-0.1,0-0.1,0.1-0.1l0,0l2.2,0.1c0.1,0,0.1,0,0.1,0.1l0,0v1.1
	c0,0.5,0.1,1,0.4,1.4c0.3,0.4,0.6,0.6,1.1,0.6l0,0c0.4,0,0.8-0.2,1.1-0.5s0.4-0.8,0.4-1.3l0,0c0-0.6-0.3-1.1-1-1.6l0,0
	c-0.2-0.2-0.5-0.4-1-0.7c-0.5-0.3-0.9-0.7-1.3-1l0,0c-0.7-0.6-1.3-1.3-1.6-2.1c-0.3-0.8-0.5-1.8-0.5-2.8l0,0c0-0.9,0.2-1.7,0.5-2.4
	c0.4-0.7,0.8-1.2,1.4-1.5c0.6-0.3,1.3-0.4,1.9-0.3l0,0c0.7,0.1,1.4,0.5,2,1c0.6,0.5,1.1,1.1,1.4,1.9c0.4,0.7,0.5,1.5,0.5,2.4l0,0
	v1.9c0,0.1,0,0.1-0.1,0.1l0,0l-2.2-0.2c-0.1,0-0.1,0-0.1-0.1l0,0l0-1.9c0-0.6-0.1-1-0.4-1.4c-0.3-0.4-0.6-0.6-1-0.7l0,0
	c-0.4-0.1-0.8,0.1-1.1,0.4c-0.3,0.3-0.4,0.7-0.4,1.3l0,0c0,0.5,0.1,1,0.3,1.4c0.2,0.4,0.5,0.8,1,1.1l0,0c0.1,0.1,0.2,0.2,0.4,0.3
	c0.2,0.1,0.4,0.3,0.6,0.5c0.2,0.2,0.4,0.3,0.6,0.4c0.2,0.1,0.3,0.2,0.3,0.2l0,0c0.7,0.5,1.2,1.1,1.6,1.7s0.6,1.4,0.6,2.3l0,0
	c0,0.9-0.2,1.7-0.5,2.3c-0.4,0.7-0.8,1.2-1.4,1.7C51.4,38.2,50.8,38.4,50,38.4z M57.7,38.2h-2.3c-0.1,0-0.1,0-0.1-0.1l0,0l0-7.7
	v-7.7c0-0.1,0-0.1,0.1-0.1l0,0l2.2,0.4c0.1,0,0.1,0,0.1,0.1l0,0l0,6l3,0.3v-5.8c0-0.1,0-0.1,0.1-0.1l0,0l2.2,0.3
	c0.1,0,0.1,0,0.1,0.1l0,0l0,7.2l0,7.2c0,0.1,0,0.1-0.1,0.1l0,0h-2.2c-0.1,0-0.1,0-0.1-0.1l0,0v-6.3l-3-0.2v6.5
	C57.8,38.2,57.8,38.2,57.7,38.2L57.7,38.2z M64.2,38.1L64.2,38.1l1.2-7l1.2-6.9c0,0,0-0.1,0.1-0.1l0,0l2.9,0.3c0.1,0,0.1,0,0.1,0.1
	l0,0l1.2,6.9l1.2,6.8c0,0.1,0,0.1-0.1,0.1l0,0h-2.2c-0.1,0-0.1,0-0.1-0.1l0,0l-0.2-1.4l-2.7,0l-0.2,1.5c0,0.1,0,0.1-0.1,0.1l0,0
	h-2.2C64.3,38.2,64.2,38.2,64.2,38.1z M68.2,28.8l-0.9,5.6l1.9,0l-0.8-5.7l-0.1-0.7L68.2,28.8z M75.8,38.2h-2.2
	c-0.1,0-0.1,0-0.1-0.1l0,0l0-6.7l0-6.7c0-0.1,0-0.1,0.1-0.1l0,0l3.9,0.3c1.2,0.1,2.2,0.5,2.9,1.2c0.7,0.7,1.1,1.7,1.1,2.9l0,0
	c0,0.9-0.2,1.7-0.6,2.3c-0.4,0.7-0.9,1.1-1.5,1.5c-0.6,0.3-1.3,0.5-2,0.5l0,0l-1.5,0v4.8C75.9,38.2,75.9,38.2,75.8,38.2L75.8,38.2z
	 M75.9,27.2v3.8l1.5,0.1c0.4,0,0.8-0.2,1.1-0.6c0.3-0.4,0.5-0.9,0.5-1.5l0,0c0-0.5-0.1-0.9-0.4-1.2c-0.3-0.3-0.7-0.5-1.2-0.5l0,0
	L75.9,27.2z M89.2,38.2h-6.5c-0.1,0-0.1,0-0.1-0.1l0,0l0-6.4v-6.4c0-0.1,0-0.1,0.1-0.1l0,0l6.4,0.1c0.1,0,0.1,0,0.1,0.1l0,0v2.1
	c0,0.1,0,0.1-0.1,0.1l0,0l-4.1,0v2.9l4.1,0c0.1,0,0.1,0,0.1,0.1l0,0l0,2.1c0,0,0,0.1-0.1,0.1l0,0l-4.1,0v3.3h4.1
	c0.1,0,0.1,0,0.1,0.1l0,0L89.2,38.2C89.3,38.2,89.3,38.2,89.2,38.2L89.2,38.2z"/>
</svg>
