<?xml version="1.0" encoding="utf-8"?>
<!-- Generator: Adobe Illustrator 25.2.1, SVG Export Plug-In . SVG Version: 6.00 Build 0)  -->
<svg version="1.1" id="Layer_1" xmlns="http://www.w3.org/2000/svg" xmlns:xlink="http://www.w3.org/1999/xlink" x="0px" y="0px"
	 viewBox="0 0 100 49" style="enable-background:new 0 0 100 49;" xml:space="preserve">
<style type="text/css">
	.st0{fill:#FFFFFF;stroke:#FFFFFF;stroke-width:0.8872;stroke-miterlimit:22.6907;stroke-opacity:0;}
</style>
<path class="st0" d="M10.1,28.6l-2.6-2c-0.1-0.1-0.1-0.1-0.1-0.2l0,0v-8.7V8.9l-3-0.5c-0.1,0-0.1-0.1-0.1-0.2l0,0l0-3
	c0-0.1,0-0.1,0.1-0.1l0,0l8.9,0.2c0.1,0,0.1,0.1,0.1,0.2l0,0v4.1c0,0.1,0,0.2-0.1,0.2l0,0l-3.1-0.4v9.6l0,9.6
	C10.2,28.7,10.2,28.7,10.1,28.6L10.1,28.6z M22.1,36.2l-7.6-4.4c-0.1,0-0.1-0.1-0.1-0.2l0,0v-13l0-13c0-0.1,0-0.2,0.1-0.2l0,0
	l7.5,0.1c0.1,0,0.1,0.1,0.1,0.2l0,0v4.9c0,0.1,0,0.2-0.1,0.2l0,0l-4.8-0.5v6.3l4.8,1.1c0.1,0,0.1,0.1,0.1,0.2l0,0l0,5
	c0,0.1,0,0.2-0.1,0.1l0,0l-4.8-1.6v7.1l4.8,2.2c0.1,0,0.1,0.1,0.1,0.2l0,0v5C22.2,36.1,22.2,36.2,22.1,36.2L22.1,36.2z M25.7,37.9
	l-2.6-1.2c-0.1,0-0.1-0.1-0.1-0.3l0,0L25.7,21L23.1,5.7c0-0.1,0-0.2,0.1-0.2l0,0l2.6,0c0.1,0,0.1,0.1,0.1,0.2l0,0l1.6,11.4L29,5.8
	c0-0.1,0.1-0.2,0.1-0.2l0,0l2.6,0c0.1,0,0.1,0.1,0.1,0.2l0,0l-2.6,16L31.9,40c0,0.2,0,0.3-0.1,0.2l0,0l-2.6-0.9
	c-0.1,0-0.1-0.1-0.1-0.3l0,0l-1.6-12.9l-1.6,11.6C25.8,37.9,25.8,37.9,25.7,37.9L25.7,37.9z M38.2,42l-2.6-0.6
	c-0.1,0-0.1-0.1-0.1-0.3l0,0V26.5V11.8l-3-0.2c-0.1,0-0.1-0.1-0.1-0.2l0,0l0-5.6c0-0.1,0-0.2,0.1-0.2l0,0l8.9,0.1
	c0.1,0,0.1,0.1,0.1,0.2l0,0v5.9c0,0.2,0,0.3-0.1,0.3l0,0L38.3,12v14.9l0,14.9C38.3,42,38.3,42.1,38.2,42L38.2,42z M50,43.9L50,43.9
	c-0.8,0-1.6-0.5-2.3-1.5c-0.7-1-1.3-2.4-1.7-4c-0.4-1.7-0.6-3.5-0.6-5.4l0,0v-2.5c0-0.2,0-0.3,0.1-0.2l0,0l2.6,0.1
	c0.1,0,0.1,0.1,0.1,0.3l0,0V33c0,1.2,0.2,2.2,0.5,3.1c0.3,0.8,0.8,1.3,1.2,1.3l0,0c0.5,0,0.9-0.4,1.2-1.3c0.3-0.9,0.5-1.9,0.5-3.1
	l0,0c0-1.3-0.4-2.5-1.1-3.4l0,0c-0.2-0.3-0.6-0.8-1.2-1.5c-0.5-0.7-1-1.3-1.5-2l0,0c-0.9-1.2-1.5-2.6-1.9-4.4
	c-0.4-1.8-0.6-3.7-0.6-5.9l0,0c0-2,0.2-3.8,0.6-5.4c0.4-1.6,1-2.8,1.7-3.8c0.7-0.9,1.5-1.4,2.3-1.4l0,0c0.8,0,1.6,0.5,2.3,1.4
	c0.7,1,1.2,2.2,1.6,3.8c0.4,1.6,0.6,3.4,0.6,5.4l0,0v4.4c0,0.1,0,0.2-0.1,0.2l0,0l-2.6,0.1c-0.1,0-0.1,0-0.1-0.2l0,0l0-4.4
	c0-1.3-0.2-2.3-0.5-3.1c-0.3-0.8-0.7-1.2-1.2-1.2l0,0c-0.5,0-0.9,0.4-1.2,1.3c-0.3,0.8-0.5,1.8-0.5,3l0,0c0,1.2,0.1,2.2,0.3,3
	s0.6,1.6,1.2,2.3l0,0c0.1,0.1,0.2,0.3,0.5,0.6c0.2,0.3,0.5,0.6,0.7,0.9c0.3,0.3,0.5,0.6,0.7,0.9c0.2,0.3,0.3,0.4,0.4,0.5l0,0
	c0.8,1,1.4,2.2,1.8,3.7c0.5,1.4,0.7,3.2,0.7,5.3l0,0c0,2-0.2,3.9-0.6,5.5c-0.4,1.7-1,3-1.7,4C51.7,43.3,50.9,43.8,50,43.9z M59,42.6
	l-2.6,0.4c-0.1,0-0.1-0.1-0.1-0.2l0,0l0-18.4V5.9c0-0.1,0-0.2,0.1-0.2l0,0l2.6,0c0.1,0,0.1,0.1,0.1,0.2l0,0l0,14.4l3.5-0.3V5.8
	c0-0.1,0-0.2,0.1-0.2l0,0h2.6c0.1,0,0.1,0.1,0.1,0.2l0,0l0,17.5l0,17.5c0,0.2,0,0.3-0.1,0.3l0,0l-2.6,0.7c-0.1,0-0.1-0.1-0.1-0.2
	l0,0V26.3l-3.5,0.4v15.6C59.1,42.5,59.1,42.6,59,42.6L59,42.6z M66.6,40.5L66.6,40.5L68,22.9l1.5-17.1c0-0.1,0.1-0.2,0.1-0.2l0,0
	l3.4,0c0.1,0,0.1,0.1,0.1,0.2l0,0l1.4,15.9l1.4,15.2c0,0.1,0,0.2-0.1,0.3l0,0l-2.6,1.2c-0.1,0-0.1,0-0.1-0.2l0,0l-0.3-3.4l-3.2,1.1
	l-0.3,3.7c0,0.2-0.1,0.3-0.1,0.3l0,0l-2.6,0.9C66.6,40.8,66.6,40.7,66.6,40.5z M71.2,16.7l-1.1,13.9l2.2-0.6l-1-13.2l-0.1-1.8
	L71.2,16.7z M80.1,34.9l-2.6,1.4c-0.1,0-0.1,0-0.1-0.2l0,0l0-15.3l0-15.2c0-0.1,0-0.2,0.1-0.2l0,0L82,5.4c1.4,0,2.6,0.7,3.4,2.1
	c0.8,1.3,1.2,3.1,1.2,5.5l0,0c0,1.7-0.2,3.3-0.7,4.7c-0.4,1.5-1,2.7-1.7,3.7c-0.7,1-1.5,1.7-2.3,2l0,0L80.2,24v10.7
	C80.2,34.8,80.2,34.9,80.1,34.9L80.1,34.9z M80.2,10.5v8.4l1.8-0.5c0.5-0.1,0.9-0.7,1.3-1.6c0.4-0.9,0.5-2,0.5-3.3l0,0
	c0-1-0.2-1.8-0.5-2.4c-0.3-0.6-0.8-0.9-1.4-0.8l0,0L80.2,10.5z M95.7,24l-7.6,5.9c-0.1,0-0.1,0-0.1-0.1l0,0l0-12.1V5.4
	c0-0.1,0-0.1,0.1-0.1l0,0l7.5-0.2c0.1,0,0.1,0,0.1,0.1l0,0v3c0,0.1,0,0.1-0.1,0.1l0,0l-4.8,0.7v5.1l4.8-1.6c0.1,0,0.1,0,0.1,0.1l0,0
	l0,3.1c0,0.1,0,0.1-0.1,0.1l0,0l-4.8,2.2v5.7l4.8-3.2c0.1-0.1,0.1,0,0.1,0.1l0,0v3.1C95.8,23.9,95.8,24,95.7,24L95.7,24z"/>
</svg>
