<?xml version="1.0" encoding="utf-8"?>
<!-- Generator: Adobe Illustrator 25.2.1, SVG Export Plug-In . SVG Version: 6.00 Build 0)  -->
<svg version="1.1" id="Layer_1" xmlns="http://www.w3.org/2000/svg" xmlns:xlink="http://www.w3.org/1999/xlink" x="0px" y="0px"
	 viewBox="0 0 100 49" style="enable-background:new 0 0 100 49;" xml:space="preserve">
<style type="text/css">
	.st0{fill:#FFFFFF;stroke:#FFFFFF;stroke-width:0.8951;stroke-miterlimit:22.6907;stroke-opacity:0;}
</style>
<path class="st0" d="M10.6,40.2L8,41.5c-0.1,0-0.1,0-0.1-0.1l0,0v-8v-8l-3,1.2c-0.1,0-0.1,0-0.1-0.1l0,0l0-3.2c0-0.1,0-0.1,0.1-0.1
	l0,0l8.8-4.4c0.1-0.1,0.1,0,0.1,0l0,0v3.1c0,0.1,0,0.2-0.1,0.2l0,0l-3,1.8v8l0,7.9C10.7,40.1,10.7,40.1,10.6,40.2L10.6,40.2z
	 M22.5,32.4L15,37.5c-0.1,0-0.1,0-0.1-0.1l0,0v-9.6l0-9.6c0-0.1,0-0.1,0.1-0.2l0,0l7.4-5.1c0.1,0,0.1,0,0.1,0.1l0,0v3.1
	c0,0.1,0,0.1-0.1,0.2l0,0l-4.7,3.3V24l4.7-3.3c0.1,0,0.1,0,0.1,0.1l0,0l0,3.1c0,0.1,0,0.1-0.1,0.2l0,0l-4.8,3.3v4.9l4.8-3.3
	c0.1-0.1,0.1,0,0.1,0.1l0,0v3.2C22.6,32.3,22.6,32.3,22.5,32.4L22.5,32.4z M26,30l-2.6,1.7c-0.1,0-0.1,0-0.1-0.1l0,0L26,20l-2.6-7.5
	c0-0.1,0-0.1,0.1-0.1l0,0l2.6-1.7c0.1-0.1,0.1,0,0.1,0l0,0l1.5,5.7l1.6-7.5c0-0.1,0.1-0.1,0.1-0.2l0,0L32,7.3c0.1,0,0.1,0,0.1,0.1
	l0,0l-2.6,10.5l2.6,8.7c0,0.1,0,0.2-0.1,0.2l0,0L29.5,28c-0.1,0-0.1,0-0.1-0.1l0,0l-1.6-6.3l-1.6,8.2C26.1,29.9,26.1,30,26,30L26,30
	z M38.4,24.6l-2.6,0.7c-0.1,0-0.1,0-0.1-0.1l0,0v-8v-8l-3,1.1c-0.1,0-0.1,0-0.1-0.1l0,0l0-3.1c0-0.1,0-0.1,0.1-0.2l0,0l8.8-2.2
	c0.1,0,0.1,0,0.1,0.1l0,0v3.1c0,0.1,0,0.1-0.1,0.1l0,0l-3,0.4v8l0,7.9C38.5,24.5,38.5,24.6,38.4,24.6L38.4,24.6z M50,25.9L50,25.9
	c-0.8-0.3-1.6-0.8-2.3-1.5c-0.7-0.7-1.2-1.5-1.7-2.4c-0.4-0.9-0.6-1.9-0.6-2.9l0,0v-1.3c0-0.1,0-0.1,0.1-0.1l0,0l2.6,0.5
	c0.1,0,0.1,0.1,0.1,0.2l0,0v1.3c0,0.6,0.2,1.2,0.5,1.7c0.3,0.5,0.7,0.9,1.2,1.1l0,0c0.5,0.2,0.9,0.1,1.2-0.2
	c0.3-0.3,0.5-0.7,0.5-1.3l0,0c0-0.7-0.4-1.4-1.1-2.2l0,0c-0.2-0.3-0.6-0.7-1.2-1.2c-0.5-0.5-1-1-1.5-1.4l0,0
	c-0.8-0.8-1.5-1.7-1.9-2.7c-0.4-1-0.6-2-0.6-3.2l0,0c0-1,0.2-1.9,0.6-2.7c0.4-0.7,1-1.3,1.6-1.6c0.7-0.3,1.4-0.3,2.2-0.1l0,0
	c0.8,0.3,1.6,0.8,2.3,1.6c0.7,0.8,1.2,1.7,1.6,2.8c0.4,1,0.6,2,0.6,3.1l0,0v2.3c0,0.1,0,0.1-0.1,0.1l0,0l-2.6-1.2
	c-0.1,0-0.1-0.1-0.1-0.1l0,0l0-2.3c0-0.7-0.2-1.2-0.5-1.8c-0.3-0.5-0.7-0.9-1.2-1.1l0,0c-0.5-0.2-0.9-0.1-1.2,0.3
	c-0.3,0.3-0.5,0.8-0.5,1.4l0,0c0,0.6,0.1,1.2,0.3,1.6c0.2,0.5,0.6,1,1.2,1.5l0,0c0.1,0.1,0.2,0.2,0.5,0.4c0.2,0.2,0.5,0.5,0.7,0.8
	c0.3,0.3,0.5,0.5,0.7,0.8c0.2,0.2,0.3,0.3,0.4,0.4l0,0c0.8,0.9,1.4,1.8,1.8,2.8c0.4,1,0.7,2,0.7,3.1l0,0c0,1.1-0.2,1.9-0.6,2.5
	c-0.4,0.7-1,1.1-1.7,1.3C51.6,26.2,50.9,26.2,50,25.9z M58.9,30l-2.6-1.6c-0.1,0-0.1-0.1-0.1-0.2l0,0l0-9.6V9.1c0-0.1,0-0.1,0.1-0.1
	l0,0l2.6,1.5c0.1,0.1,0.1,0.1,0.1,0.2l0,0l0,7.6l3.5,2.3v-7.6c0-0.1,0-0.1,0.1-0.1l0,0l2.6,1.8c0.1,0.1,0.1,0.1,0.1,0.2l0,0l0,9.6
	l0,9.6c0,0.1,0,0.1-0.1,0.1l0,0l-2.6-1.8c-0.1,0-0.1-0.1-0.1-0.2l0,0v-8.2L59,21.8L58.9,30C59,30.1,58.9,30.1,58.9,30L58.9,30z
	 M66.4,35L66.4,35l1.4-8.6l1.4-8.6c0-0.1,0.1-0.1,0.1-0.1l0,0l3.3,2.1c0.1,0,0.1,0.1,0.1,0.2l0,0l1.4,10.4l1.4,10.3
	c0,0.1,0,0.1-0.1,0.1l0,0l-2.6-1.4c-0.1,0-0.1-0.1-0.1-0.2l0,0L72.5,37l-3.1-2l-0.3,1.8c0,0.1-0.1,0.1-0.1,0.1l0,0l-2.6-1.8
	C66.4,35.1,66.4,35.1,66.4,35z M70.9,25.2l-1,7.1l2.2,1.4l-0.9-8.4L71,24.2L70.9,25.2z M79.7,42.7l-2.6-1.1c-0.1,0-0.1-0.1-0.1-0.2
	l0,0l0-9.6l0-9.6c0-0.1,0-0.1,0.1-0.1l0,0l4.4,1.7c1.4,0.3,2.5,1.1,3.4,2.3c0.8,1.1,1.2,2.6,1.2,4.4l0,0c0,1.3-0.2,2.4-0.6,3.4
	c-0.4,0.9-1,1.6-1.7,2c-0.7,0.4-1.4,0.5-2.3,0.3l0,0l-1.8-0.6v7C79.8,42.7,79.8,42.7,79.7,42.7L79.7,42.7z M79.8,26.7v5.5l1.8,0.6
	c0.5,0.1,0.9,0,1.3-0.5c0.4-0.5,0.5-1.2,0.5-2.1l0,0c0-0.7-0.2-1.4-0.5-1.9c-0.3-0.5-0.8-0.9-1.3-1l0,0L79.8,26.7z M95.1,42.9
	l-7.5,1.3c-0.1,0-0.1,0-0.1-0.1l0,0l0-9.6v-9.6c0-0.1,0-0.1,0.1-0.1l0,0l7.4-1.3c0.1,0,0.1,0,0.1,0.1l0,0v3.1c0,0.1,0,0.1-0.1,0.1
	l0,0L90.3,28v4.4l4.7-1.1c0.1,0,0.1,0,0.1,0.1l0,0l0,3.2c0,0.1,0,0.1-0.1,0.1l0,0l-4.8,1.1v4.9l4.8-1.1c0.1,0,0.1,0,0.1,0.1l0,0v3.2
	C95.2,42.8,95.2,42.9,95.1,42.9L95.1,42.9z"/>
</svg>
