<?xml version="1.0" encoding="utf-8"?>
<!-- Generator: Adobe Illustrator 25.2.1, SVG Export Plug-In . SVG Version: 6.00 Build 0)  -->
<svg version="1.1" id="Layer_1" xmlns="http://www.w3.org/2000/svg" xmlns:xlink="http://www.w3.org/1999/xlink" x="0px" y="0px"
	 viewBox="0 0 100 49" style="enable-background:new 0 0 100 49;" xml:space="preserve">
<style type="text/css">
	.st0{fill:#FFFFFF;stroke:#FFFFFF;stroke-width:0.7917;stroke-miterlimit:22.6907;stroke-opacity:0;}
</style>
<path class="st0" d="M14,39.2l-2.4,1c-0.1,0-0.1,0-0.1-0.1l0,0v-6.8v-6.8l-2.7,1.1c-0.1,0-0.1,0-0.1-0.1l0,0l0-2.7
	c0-0.1,0-0.1,0.1-0.1l0,0l8-3.3c0.1,0,0.1,0,0.1,0l0,0v2.7c0,0.1,0,0.1-0.1,0.1l0,0L14,25.5v6.8l0,6.8C14.1,39.2,14,39.2,14,39.2
	L14,39.2z M24.8,34.8L18,37.6c-0.1,0-0.1,0-0.1-0.1l0,0v-8.2l0-8.2c0-0.1,0-0.1,0.1-0.1l0,0l6.8-2.8c0.1,0,0.1,0,0.1,0.1l0,0v2.7
	c0,0.1,0,0.1-0.1,0.1l0,0l-4.3,1.8v3.7l4.3-1.8c0.1,0,0.1,0,0.1,0l0,0l0,2.7c0,0.1,0,0.1-0.1,0.1l0,0l-4.4,1.8v4.2l4.4-1.8
	c0.1,0,0.1,0,0.1,0.1l0,0v2.7C24.9,34.7,24.9,34.7,24.8,34.8L24.8,34.8z M28.1,33.4l-2.4,1c-0.1,0-0.1,0-0.1-0.1l0,0l2.4-9.5
	l-2.4-6.9c0-0.1,0-0.1,0.1-0.1l0,0l2.4-1c0.1,0,0.1,0,0.1,0l0,0l1.4,5.1l1.4-6.3c0-0.1,0.1-0.1,0.1-0.1l0,0l2.3-1
	c0.1,0,0.1,0,0.1,0.1l0,0l-2.4,8.8l2.4,7.6c0,0.1,0,0.1-0.1,0.1l0,0l-2.4,1c-0.1,0-0.1,0-0.1-0.1l0,0l-1.4-5.6l-1.5,6.7
	C28.2,33.3,28.1,33.4,28.1,33.4L28.1,33.4z M39.4,28.8l-2.4,1c-0.1,0-0.1,0-0.1-0.1l0,0v-6.8v-6.8l-2.7,1.1c-0.1,0-0.1,0-0.1-0.1
	l0,0l0-2.7c0-0.1,0-0.1,0.1-0.1l0,0l8-3.3c0.1,0,0.1,0,0.1,0l0,0v2.7c0,0.1,0,0.1-0.1,0.2l0,0L39.4,15v6.8l0,6.8
	C39.5,28.7,39.4,28.7,39.4,28.8L39.4,28.8z M50,24.6L50,24.6c-0.8,0.3-1.5,0.3-2.1,0.1c-0.6-0.2-1.1-0.5-1.5-1.1
	c-0.4-0.6-0.5-1.3-0.5-2.1l0,0v-1.1c0-0.1,0-0.1,0.1-0.2l0,0l2.4-1c0.1,0,0.1,0,0.1,0.1l0,0v1.1c0,0.5,0.2,0.9,0.5,1.2
	c0.3,0.2,0.7,0.3,1.1,0.1l0,0c0.4,0.2,0.8,0.1,1.1-0.1c0.3-0.2,0.5-0.6,0.5-1.1l0,0c0-0.6-0.3-1.2-1-2l0,0c-0.2-0.2-0.6-0.5-1.1-0.8
	c-0.5-0.1-0.9-0.2-1.4-0.3l0,0c-0.8-0.2-1.4-0.6-1.7-1.2c-0.4-0.6-0.5-1.4-0.5-2.4l0,0c0-0.9,0.2-1.8,0.6-2.6
	c0.4-0.9,0.9-1.6,1.5-2.3c0.6-0.7,1.3-1.1,2-1.4l0,0c0.7,0.3,1.4,0.8,2.1,1.5c0.6,0.7,1.1,1.5,1.5,2.3c0.4,0.9,0.6,1.7,0.6,2.6l0,0
	v2c0,0.1,0,0.1-0.1,0.1l0,0l-2.4-1c-0.1,0-0.1-0.1-0.1-0.1l0,0l0-2c0-0.6-0.2-1.1-0.5-1.5c-0.3-0.5-0.7-0.8-1.1-1l0,0
	c-0.4,0.1-0.8,0.5-1.1,1c-0.3,0.5-0.5,1-0.5,1.5l0,0c0,0.5,0.1,0.9,0.3,1.2c0.2,0.3,0.6,0.5,1.1,0.6l0,0c0.1,0,0.2,0.1,0.4,0.3
	c0.2,0.2,0.4,0.4,0.7,0.7c0.2,0.2,0.5,0.5,0.7,0.6c0.2,0.2,0.3,0.3,0.3,0.4l0,0c0.7,0.7,1.3,1.5,1.7,2.3c0.4,0.8,0.6,1.7,0.6,2.6
	l0,0c0,0.9-0.2,1.6-0.5,2.2c-0.4,0.6-0.9,0.9-1.5,1.1C51.5,25,50.8,25,50,24.6z M58.1,27.7l-2.4-1c-0.1,0-0.1-0.1-0.1-0.2l0,0l0-8.2
	v-8.2c0-0.1,0-0.1,0.1,0l0,0l2.3,1c0.1,0,0.1,0.1,0.1,0.1l0,0l0,6.5l3.2,1.3v-6.5c0-0.1,0-0.1,0.1,0l0,0l2.3,1
	c0.1,0,0.1,0.1,0.1,0.1l0,0l0,8.2l0,8.2c0,0.1,0,0.1-0.1,0.1l0,0l-2.4-1c-0.1,0-0.1-0.1-0.1-0.2l0,0v-7l-3.2-1.3L58.1,27.7
	C58.2,27.7,58.2,27.8,58.1,27.7L58.1,27.7z M65,30.5L65,30.5l1.3-7.7l1.3-7.7c0-0.1,0-0.1,0.1,0l0,0l3.1,1.3c0.1,0,0.1,0.1,0.1,0.1
	l0,0l1.3,8.7l1.2,8.7c0,0.1,0,0.1-0.1,0.1l0,0L71,33c-0.1,0-0.1-0.1-0.1-0.2l0,0L70.6,31l-2.9-1.2l-0.2,1.6c0,0.1,0,0.1-0.1,0.1l0,0
	l-2.3-1C65,30.6,65,30.5,65,30.5z M69.1,21.2l-1,6.3l2,0.8l-0.9-7.1l-0.1-0.9L69.1,21.2z M77.2,35.6l-2.4-1c-0.1,0-0.1-0.1-0.1-0.2
	l0,0l0-8.2l0-8.2c0-0.1,0-0.1,0.1-0.1l0,0l4.1,1.7c1.3,0.5,2.3,1.4,3.1,2.6c0.7,1.2,1.1,2.6,1.1,4.1l0,0c0,1.1-0.2,2-0.6,2.7
	c-0.4,0.7-0.9,1.1-1.5,1.3c-0.6,0.2-1.3,0.1-2.1-0.2l0,0l-1.6-0.7v6C77.3,35.6,77.3,35.6,77.2,35.6L77.2,35.6z M77.3,21.9v4.7
	l1.6,0.7c0.5,0.2,0.8,0.1,1.2-0.3c0.3-0.3,0.5-0.9,0.5-1.7l0,0c0-0.6-0.1-1.2-0.4-1.7c-0.3-0.5-0.7-0.9-1.2-1.1l0,0L77.3,21.9z
	 M91.3,41.4l-6.8-2.8c-0.1,0-0.1-0.1-0.1-0.2l0,0l0-8.2v-8.2c0-0.1,0-0.1,0.1-0.1l0,0l6.8,2.8c0.1,0,0.1,0.1,0.1,0.1l0,0v2.7
	c0,0.1,0,0.1-0.1,0.1l0,0l-4.3-1.8v3.7l4.3,1.8c0.1,0,0.1,0.1,0.1,0.1l0,0l0,2.7c0,0.1,0,0.1-0.1,0.1l0,0l-4.4-1.8v4.2l4.4,1.8
	c0.1,0,0.1,0.1,0.1,0.1l0,0L91.3,41.4C91.4,41.4,91.3,41.4,91.3,41.4L91.3,41.4z"/>
</svg>
