<?xml version="1.0" encoding="utf-8"?>
<!-- Generator: Adobe Illustrator 25.2.1, SVG Export Plug-In . SVG Version: 6.00 Build 0)  -->
<svg version="1.1" id="Layer_1" xmlns="http://www.w3.org/2000/svg" xmlns:xlink="http://www.w3.org/1999/xlink" x="0px" y="0px"
	 viewBox="0 0 100 49" style="enable-background:new 0 0 100 49;" xml:space="preserve">
<style type="text/css">
	.st0{fill:#FFFFFF;stroke:#FFFFFF;stroke-width:0.8135;stroke-miterlimit:22.6907;stroke-opacity:0;}
</style>
<path class="st0" d="M16.8,34.4l-2.2-0.3c-0.1,0-0.1-0.1-0.1-0.2l0,0v-8.1v-8.1L12,18c-0.1,0-0.1,0-0.1-0.1l0,0l0-3.1
	c0-0.1,0-0.1,0.1-0.1l0,0l7.4-0.9c0.1,0,0.1,0,0.1,0.1l0,0v3.4c0,0.1,0,0.1-0.1,0.2l0,0l-2.5,0.2v8.3l0,8.3
	C16.9,34.3,16.9,34.4,16.8,34.4L16.8,34.4z M26.8,35.7l-6.3-0.8c-0.1,0-0.1-0.1-0.1-0.2l0,0V24.3l0-10.5c0-0.1,0-0.1,0.1-0.1l0,0
	l6.2-0.8c0.1,0,0.1,0.1,0.1,0.2l0,0v3.7c0,0.1,0,0.1-0.1,0.1l0,0l-4,0.3V22l4-0.1c0.1,0,0.1,0,0.1,0.1l0,0l0,3.7
	c0,0.1,0,0.1-0.1,0.1l0,0l-4-0.1v5.5l4,0.3c0.1,0,0.1,0.1,0.1,0.2l0,0v3.7C26.9,35.6,26.9,35.7,26.8,35.7L26.8,35.7z M29.8,36
	l-2.2-0.3c-0.1,0-0.1-0.1-0.1-0.2l0,0l2.2-11.8l-2.2-10.9c0-0.1,0-0.1,0.1-0.1l0,0l2.2-0.3c0.1,0,0.1,0,0.1,0.1l0,0l1.3,8l1.3-8.3
	c0-0.1,0.1-0.1,0.1-0.1l0,0l2.2-0.3c0.1,0,0.1,0,0.1,0.1l0,0l-2.2,11.7l2.2,12.7c0,0.1,0,0.2-0.1,0.2l0,0l-2.2-0.3
	c-0.1,0-0.1-0.1-0.1-0.2l0,0l-1.3-9l-1.3,8.7C29.9,36,29.9,36.1,29.8,36L29.8,36z M40.2,37.4L38,37.1c-0.1,0-0.1-0.1-0.1-0.2l0,0
	V26.4V16l-2.5,0.2c-0.1,0-0.1-0.1-0.1-0.2l0,0l0-4c0-0.1,0-0.1,0.1-0.1l0,0l7.4-0.9c0.1,0,0.1,0,0.1,0.1l0,0v4.3
	c0,0.1,0,0.2-0.1,0.2l0,0l-2.5,0.2v10.7l0,10.7C40.3,37.3,40.3,37.4,40.2,37.4L40.2,37.4z M50,39L50,39c-0.7-0.1-1.3-0.5-1.9-1.4
	c-0.6-0.8-1.1-1.8-1.4-3.1c-0.3-1.2-0.5-2.6-0.5-4l0,0v-1.8c0-0.1,0-0.2,0.1-0.2l0,0l2.2,0.1c0.1,0,0.1,0.1,0.1,0.2l0,0v1.9
	c0,0.9,0.1,1.7,0.4,2.3c0.3,0.7,0.6,1,1,1.1l0,0c0.4,0,0.7-0.3,1-0.9c0.3-0.7,0.4-1.4,0.4-2.3l0,0c0-1-0.3-1.9-0.9-2.7l0,0
	c-0.2-0.3-0.5-0.6-1-1.2c-0.4-0.5-0.9-1-1.2-1.5l0,0c-0.7-0.9-1.2-1.9-1.6-3.2c-0.3-1.3-0.5-2.7-0.5-4.3l0,0c0-1.5,0.2-2.8,0.5-4
	c0.4-1.2,0.8-2.2,1.4-3c0.6-0.8,1.2-1.2,1.9-1.3l0,0c0.7-0.1,1.3,0.2,1.9,0.8c0.6,0.7,1,1.6,1.4,2.8c0.4,1.2,0.5,2.6,0.5,4.2l0,0V21
	c0,0.1,0,0.2-0.1,0.2l0,0l-2.2,0.1c-0.1,0-0.1-0.1-0.1-0.2l0,0l0-3.4c0-1-0.1-1.8-0.4-2.4s-0.6-0.9-1-0.8l0,0c-0.4,0-0.7,0.4-1,1
	c-0.3,0.7-0.4,1.4-0.4,2.3l0,0c0,0.9,0.1,1.6,0.3,2.2c0.2,0.6,0.5,1.2,1,1.7l0,0c0.1,0.1,0.2,0.2,0.4,0.4c0.2,0.2,0.4,0.4,0.6,0.7
	s0.4,0.5,0.6,0.7c0.2,0.2,0.3,0.3,0.3,0.4l0,0c0.6,0.8,1.2,1.7,1.5,2.9c0.4,1.1,0.6,2.6,0.6,4.2l0,0c0,1.6-0.2,3-0.5,4.3
	c-0.4,1.2-0.8,2.2-1.4,2.9C51.4,38.9,50.7,39.1,50,39z M57.5,39.6l-2.2-0.3c-0.1,0-0.1-0.1-0.1-0.2l0,0l0-14.7V9.6
	c0-0.1,0-0.2,0.1-0.2l0,0l2.2-0.2c0.1,0,0.1,0,0.1,0.2l0,0l0,11.9l2.9-0.1V9c0-0.1,0-0.2,0.1-0.2l0,0l2.2-0.3c0.1,0,0.1,0.1,0.1,0.2
	l0,0l0,15.7l0,15.7c0,0.2,0,0.2-0.1,0.2l0,0L60.6,40c-0.1,0-0.1-0.1-0.1-0.2l0,0V26.6l-2.9-0.1v12.9C57.6,39.5,57.5,39.6,57.5,39.6
	L57.5,39.6z M63.8,40.2L63.8,40.2L65,24.4l1.2-16.1c0-0.1,0-0.2,0.1-0.2l0,0l2.8-0.4c0.1,0,0.1,0.1,0.1,0.2l0,0l1.2,16.5l1.1,16.7
	c0,0.2,0,0.2-0.1,0.2l0,0l-2.2-0.3c-0.1,0-0.1-0.1-0.1-0.2l0,0L69,37.3l-2.6-0.3l-0.2,3.4c0,0.2,0,0.2-0.1,0.2l0,0l-2.2-0.3
	C63.8,40.4,63.8,40.3,63.8,40.2z M67.6,18.8l-0.9,13.3l1.9,0.1l-0.8-13.4l-0.1-1.7L67.6,18.8z M75,41.9l-2.2-0.3
	c-0.1,0-0.1-0.1-0.1-0.3l0,0l0-16.9l0-16.9c0-0.1,0-0.2,0.1-0.2l0,0l3.7-0.4c1.2-0.1,2.1,0.7,2.8,2.5c0.7,1.9,1,4.5,1,7.8l0,0
	c0,2.5-0.2,4.6-0.5,6.4c-0.4,1.8-0.8,3.2-1.4,4.1c-0.6,0.9-1.2,1.4-1.9,1.4l0,0L75.1,29v12.6C75.1,41.8,75.1,41.9,75,41.9L75,41.9z
	 M75.1,13v9.9h1.5c0.4,0,0.8-0.5,1.1-1.6c0.3-1,0.4-2.4,0.4-4.1l0,0c0-1.3-0.1-2.4-0.4-3.3c-0.3-0.8-0.6-1.2-1.1-1.2l0,0L75.1,13z
	 M88,43.5l-6.3-0.8c-0.1,0-0.1-0.1-0.1-0.3l0,0l0-18v-18c0-0.1,0-0.2,0.1-0.2l0,0L88,5.5c0.1,0,0.1,0.1,0.1,0.3l0,0v6.1
	c0,0.1,0,0.2-0.1,0.2l0,0l-4,0.3v8.3l4-0.1c0.1,0,0.1,0.1,0.1,0.2l0,0l0,6.2c0,0.1,0,0.2-0.1,0.2l0,0l-4-0.1v9.3l4,0.4
	c0.1,0,0.1,0.1,0.1,0.3l0,0v6.2C88.1,43.5,88.1,43.5,88,43.5L88,43.5z"/>
</svg>
