<?xml version="1.0" encoding="utf-8"?>
<!-- Generator: Adobe Illustrator 25.2.1, SVG Export Plug-In . SVG Version: 6.00 Build 0)  -->
<svg version="1.1" id="Layer_1" xmlns="http://www.w3.org/2000/svg" xmlns:xlink="http://www.w3.org/1999/xlink" x="0px" y="0px"
	 viewBox="0 0 100 49" style="enable-background:new 0 0 100 49;" xml:space="preserve">
<style type="text/css">
	.st0{fill:#FFFFFF;stroke:#FFFFFF;stroke-width:0.776;stroke-miterlimit:22.6907;stroke-opacity:0;}
</style>
<path class="st0" d="M15,36.7h-2.3c-0.1,0-0.1-0.1-0.1-0.2l0,0v-10v-10l-2.7-0.1c-0.1,0-0.1-0.1-0.1-0.2l0,0l0-4
	c0-0.1,0-0.1,0.1-0.1l0,0l7.8,1.5c0.1,0,0.1,0.1,0.1,0.2l0,0v3.7c0,0.1,0,0.2-0.1,0.1l0,0L15,17v9.8l0,9.8
	C15.1,36.7,15,36.7,15,36.7L15,36.7z M25.5,36.7h-6.6c-0.1,0-0.1-0.1-0.1-0.2l0,0V25.4l0-11.2c0-0.1,0-0.1,0.1-0.1l0,0l6.6,3.4
	c0.1,0,0.1,0.1,0.1,0.2l0,0v3.1c0,0.1,0,0.1-0.1,0.1l0,0l-4.2-2v4.8l4.2,1.4c0.1,0,0.1,0.1,0.1,0.1l0,0l0,3.1c0,0.1,0,0.1-0.1,0.1
	l0,0l-4.2-1V33l4.2,0.4c0.1,0,0.1,0.1,0.1,0.2l0,0v3.1C25.6,36.7,25.6,36.7,25.5,36.7L25.5,36.7z M28.7,36.7h-2.3
	c-0.1,0-0.1,0-0.1-0.1l0,0l2.3-8.8l-2.3-9.6c0-0.1,0-0.1,0.1-0.1l0,0l2.3,1.4c0.1,0,0.1,0.1,0.1,0.2l0,0l1.4,6.4l1.4-4.7
	c0,0,0.1,0,0.1,0l0,0l2.3,1.4c0.1,0,0.1,0.1,0.1,0.1l0,0l-2.3,5.8l2.3,7.8c0,0.1,0,0.1-0.1,0.1l0,0h-2.3c-0.1,0-0.1,0-0.1-0.1l0,0
	l-1.4-6l-1.4,6C28.8,36.7,28.7,36.7,28.7,36.7L28.7,36.7z M39.7,36.7h-2.3c-0.1,0-0.1,0-0.1-0.1l0,0v-4.9v-4.9l-2.7-1.2
	c-0.1,0-0.1-0.1-0.1-0.2l0,0l0-2.1c0-0.1,0-0.1,0.1,0l0,0l7.8,3.8c0.1,0,0.1,0,0.1,0.1l0,0v1.5c0,0,0,0.1-0.1,0l0,0l-2.7-0.9v4.4
	L39.7,36.7C39.8,36.7,39.7,36.7,39.7,36.7L39.7,36.7z M50,36.9L50,36.9c-0.7,0-1.4-0.1-2-0.3c-0.6-0.2-1.1-0.5-1.5-0.9
	c-0.4-0.4-0.5-0.8-0.5-1.2l0,0v-0.6c0,0,0-0.1,0.1,0l0,0l2.3,0.1c0.1,0,0.1,0,0.1,0.1l0,0v0.5c0,0.3,0.2,0.5,0.5,0.7
	c0.3,0.2,0.7,0.3,1.1,0.3l0,0c0.4,0,0.8-0.1,1.1-0.3c0.3-0.2,0.5-0.4,0.5-0.7l0,0c0-0.3-0.3-0.6-1-0.8l0,0c-0.2-0.1-0.6-0.2-1-0.3
	c-0.5-0.2-0.9-0.3-1.3-0.4l0,0c-0.8-0.3-1.3-0.7-1.7-1.1C46.2,31.4,46,31,46,30.5l0,0c0-0.5,0.2-0.9,0.6-1.2
	c0.4-0.3,0.9-0.5,1.5-0.7c0.6-0.2,1.3-0.2,2-0.2l0,0c0.7,0,1.4,0.1,2,0.2c0.6,0.1,1.1,0.4,1.4,0.7c0.4,0.3,0.6,0.7,0.6,1.2l0,0v1
	c0,0,0,0-0.1,0l0,0l-2.3,0.2c-0.1,0-0.1,0-0.1,0l0,0l0-1c0-0.3-0.2-0.5-0.5-0.7c-0.3-0.2-0.7-0.2-1.1-0.2l0,0
	c-0.4,0-0.8,0.1-1.1,0.3c-0.3,0.2-0.5,0.4-0.5,0.6l0,0c0,0.3,0.1,0.5,0.3,0.7c0.2,0.2,0.5,0.3,1,0.5l0,0c0.1,0,0.2,0.1,0.4,0.1
	c0.2,0.1,0.4,0.1,0.6,0.2c0.2,0.1,0.4,0.1,0.6,0.2c0.2,0,0.3,0.1,0.3,0.1l0,0c0.7,0.2,1.2,0.4,1.6,0.7c0.4,0.3,0.6,0.7,0.6,1.2l0,0
	c0,0.5-0.2,0.9-0.5,1.3c-0.4,0.4-0.9,0.7-1.5,0.9C51.5,36.8,50.8,36.9,50,36.9z M57.9,36.7h-2.3c-0.1,0-0.1,0-0.1-0.1l0,0l0-4.4
	v-4.4c0,0,0-0.1,0.1-0.1l0,0l2.3-0.8c0.1,0,0.1,0,0.1,0l0,0l0,3.8l3.1-0.8v-4.3c0,0,0-0.1,0.1-0.1l0,0l2.3-1.2c0.1,0,0.1,0,0.1,0
	l0,0l0,6.1l0,6.1c0,0.1,0,0.1-0.1,0.1l0,0h-2.3c-0.1,0-0.1,0-0.1-0.1l0,0V32L58,32.6L57.9,36.7C58,36.7,58,36.7,57.9,36.7L57.9,36.7
	z M64.6,36.7L64.6,36.7l1.3-6.8l1.3-7.5c0-0.1,0-0.1,0.1-0.1l0,0l3-1.9c0.1,0,0.1,0,0.1,0l0,0l1.2,7.8l1.2,8.5c0,0.1,0,0.1-0.1,0.1
	l0,0h-2.3c-0.1,0-0.1,0-0.1-0.1l0,0L70,34.9l-2.8,0.2L67,36.7c0,0.1,0,0.1-0.1,0.1l0,0L64.6,36.7C64.6,36.7,64.6,36.7,64.6,36.7z
	 M68.6,26.4l-0.9,6.4l2-0.3l-0.8-6.1l-0.1-0.8L68.6,26.4z M76.4,36.7h-2.3c-0.1,0-0.1,0-0.1-0.1l0,0l0-9.3l0-9.3
	c0-0.1,0-0.1,0.1-0.2l0,0l3.9-2.2c1.3-0.6,2.3-0.5,3,0.4c0.7,1,1.1,2.5,1.1,4.6l0,0c0,1.6-0.2,3-0.6,4.2c-0.4,1.2-0.9,2.2-1.5,2.9
	s-1.3,1.1-2,1.3l0,0l-1.6,0.3v7.4C76.5,36.7,76.5,36.7,76.4,36.7L76.4,36.7z M76.5,19.9v5.8l1.6-0.5c0.4-0.1,0.8-0.5,1.1-1.2
	c0.3-0.7,0.5-1.6,0.5-2.7l0,0c0-0.8-0.1-1.4-0.4-1.9c-0.3-0.4-0.7-0.5-1.2-0.3l0,0L76.5,19.9z M90.1,36.7h-6.6
	c-0.1,0-0.1-0.1-0.1-0.2l0,0l0-11.6V13.4c0-0.1,0-0.1,0.1-0.2l0,0l6.6-1.1c0.1,0,0.1,0.1,0.1,0.2l0,0v4c0,0.1,0,0.1-0.1,0.2l0,0
	l-4.2,0.4v5.4l4.2-0.3c0.1,0,0.1,0,0.1,0.1l0,0l0,4c0,0.1,0,0.1-0.1,0.1l0,0l-4.2,0.2v6.1l4.2-0.1c0.1,0,0.1,0.1,0.1,0.2l0,0v4
	C90.2,36.7,90.2,36.7,90.1,36.7L90.1,36.7z"/>
</svg>
