<?xml version="1.0" encoding="utf-8"?>
<!-- Generator: Adobe Illustrator 25.2.1, SVG Export Plug-In . SVG Version: 6.00 Build 0)  -->
<svg version="1.1" id="Layer_1" xmlns="http://www.w3.org/2000/svg" xmlns:xlink="http://www.w3.org/1999/xlink" x="0px" y="0px"
	 viewBox="0 0 100 49" style="enable-background:new 0 0 100 49;" xml:space="preserve">
<style type="text/css">
	.st0{fill:#FFFFFF;stroke:#FFFFFF;stroke-width:0.924;stroke-miterlimit:22.6907;stroke-opacity:0;}
</style>
<path class="st0" d="M9.5,24.9l-2.7-0.6c-0.1,0-0.1-0.1-0.1-0.2l0,0v-8.2V7.7L3.6,7.5c-0.1,0-0.1,0-0.1-0.1l0,0l0-3.2
	C3.5,4,3.5,4,3.6,4l0,0l9,1.9c0.1,0,0.1,0.1,0.1,0.2l0,0v3.2c0,0.1,0,0.1-0.1,0.1l0,0L9.5,8.3v8.2l0,8.2C9.6,24.9,9.5,24.9,9.5,24.9
	L9.5,24.9z M21.7,31L14,26.6c-0.1,0-0.1-0.1-0.1-0.2l0,0v-9.9l0-9.9c0-0.1,0-0.1,0.1-0.1l0,0l7.6,4.4c0.1,0,0.1,0.1,0.1,0.2l0,0v3.2
	c0,0.1,0,0.1-0.1,0.1l0,0l-4.9-3v4.5l4.9,3c0.1,0,0.1,0.1,0.1,0.2l0,0l0,3.3c0,0.1,0,0.1-0.1,0.1l0,0l-4.9-3v5.1l4.9,3
	c0.1,0,0.1,0.1,0.1,0.2l0,0L21.7,31C21.8,31,21.7,31,21.7,31L21.7,31z M25.3,33.4l-2.7-1.8c-0.1,0-0.1-0.1-0.1-0.2l0,0l2.7-8.4
	l-2.7-11.4c0-0.1,0-0.1,0.1-0.1l0,0l2.7,1.8c0.1,0.1,0.1,0.1,0.1,0.2l0,0l1.6,8l1.6-5.7c0-0.1,0.1-0.1,0.1,0l0,0l2.6,1.8
	c0.1,0.1,0.1,0.1,0.1,0.2l0,0l-2.7,7.7l2.7,12.2c0,0.1,0,0.1-0.1,0.1l0,0l-2.7-1.8c-0.1-0.1-0.1-0.1-0.1-0.3l0,0l-1.6-8.6l-1.6,6.3
	C25.4,33.5,25.4,33.5,25.3,33.4L25.3,33.4z M38,41.6l-2.7-1.5c-0.1,0-0.1-0.1-0.1-0.2l0,0v-8.2v-8.2l-3.1-1.9
	c-0.1-0.1-0.1-0.1-0.1-0.2l0,0l0-3.2c0-0.1,0-0.1,0.1-0.1l0,0l9,4.8c0.1,0,0.1,0.1,0.1,0.2l0,0v3.2c0,0.1,0,0.1-0.1,0.1l0,0L38.1,25
	v8.2L38,41.6C38.1,41.6,38.1,41.6,38,41.6L38,41.6z M50,45L50,45c-0.9,0-1.6-0.3-2.3-0.9c-0.7-0.6-1.3-1.4-1.7-2.3
	c-0.4-1-0.6-2-0.6-3l0,0v-1.3c0-0.1,0-0.1,0.1-0.1l0,0l2.7,0.4c0.1,0,0.1,0.1,0.1,0.2l0,0v1.3c0,0.6,0.2,1.2,0.5,1.6
	c0.3,0.5,0.8,0.7,1.3,0.7l0,0c0.5,0,0.9-0.3,1.3-0.7c0.3-0.5,0.5-1.1,0.5-1.7l0,0c0-0.7-0.4-1.3-1.1-1.8l0,0
	c-0.3-0.2-0.6-0.4-1.2-0.8c-0.5-0.4-1-0.8-1.5-1.1l0,0c-0.9-0.7-1.5-1.6-1.9-2.6c-0.4-1-0.6-2.1-0.6-3.3l0,0c0-1.1,0.2-2,0.6-2.8
	c0.4-0.8,1-1.4,1.7-1.8c0.7-0.4,1.5-0.7,2.3-0.6l0,0c0.8,0,1.6,0.2,2.3,0.6c0.7,0.4,1.3,1,1.7,1.8c0.4,0.8,0.6,1.7,0.6,2.7l0,0v2.4
	c0,0.1,0,0.1-0.1,0.1l0,0l-2.7,0.4c-0.1,0-0.1,0-0.1-0.1l0,0l0-2.4c0-0.7-0.2-1.2-0.5-1.6c-0.3-0.4-0.8-0.6-1.2-0.6l0,0
	c-0.5,0-0.9,0.2-1.3,0.6c-0.3,0.4-0.5,1-0.5,1.6l0,0c0,0.6,0.1,1.2,0.3,1.6c0.2,0.4,0.6,0.9,1.2,1.3l0,0c0.1,0.1,0.2,0.2,0.5,0.3
	c0.2,0.2,0.5,0.3,0.7,0.5c0.3,0.2,0.5,0.3,0.7,0.4c0.2,0.1,0.3,0.2,0.4,0.2l0,0c0.8,0.4,1.4,1,1.9,1.7c0.5,0.7,0.7,1.6,0.7,2.7l0,0
	c0,1.1-0.2,2.1-0.6,3.1c-0.4,0.9-1,1.7-1.7,2.3C51.7,44.7,50.9,45,50,45z M59.1,42.8l-2.7,0.9c-0.1,0-0.1,0-0.1-0.1l0,0l0-9.9v-9.9
	c0-0.1,0-0.1,0.1-0.1l0,0l2.6-0.9c0.1,0,0.1,0,0.1,0.1l0,0l0,7.9l3.6-1.7v-7.9c0-0.1,0-0.1,0.1-0.2l0,0l2.6-1.5c0.1-0.1,0.1,0,0.1,0
	l0,0l0,9.9l0,9.9c0,0.1,0,0.2-0.1,0.2l0,0L62.9,41c-0.1,0-0.1,0-0.1-0.1l0,0v-8.5l-3.6,1.7v8.5C59.2,42.7,59.2,42.8,59.1,42.8
	L59.1,42.8z M66.8,38.6L66.8,38.6l1.5-10.9l1.5-10.9c0-0.1,0.1-0.2,0.1-0.2l0,0l3.4-2.4c0.1,0,0.1,0,0.1,0l0,0l1.4,8.9l1.4,8.9
	c0,0.1,0,0.2-0.1,0.2l0,0l-2.6,1.8c-0.1,0-0.1,0-0.1-0.1l0,0l-0.3-1.9L70,34.4l-0.3,2.3c0,0.1-0.1,0.2-0.1,0.2l0,0L66.8,38.6
	C66.9,38.7,66.8,38.7,66.8,38.6z M71.5,22.2L70.4,31l2.3-1.6l-1-7.4l-0.1-1L71.5,22.2z M80.6,29.5l-2.7,1.7c-0.1,0-0.1,0-0.1-0.1
	l0,0l0-9.9l0-9.9c0-0.1,0-0.1,0.1-0.2l0,0l4.6-2.8C84,7.5,85.1,7.4,86,8.1c0.8,0.7,1.3,2,1.3,3.8l0,0c0,1.4-0.2,2.6-0.7,3.8
	c-0.4,1.2-1,2.2-1.7,3.1c-0.7,0.9-1.5,1.6-2.3,2l0,0L80.7,22v7.3C80.7,29.4,80.7,29.4,80.6,29.5L80.6,29.5z M80.7,12.8v5.7l1.8-1.1
	c0.5-0.3,1-0.8,1.3-1.6c0.4-0.8,0.5-1.7,0.5-2.6l0,0c0-0.8-0.2-1.3-0.5-1.6c-0.3-0.3-0.8-0.3-1.4,0l0,0L80.7,12.8z M96.4,24.1
	l-7.7,1.4c-0.1,0-0.1,0-0.1-0.1l0,0l0-9.9V5.5c0-0.1,0-0.1,0.1-0.1l0,0L96.4,4c0.1,0,0.1,0,0.1,0.1l0,0v3.2c0,0.1,0,0.1-0.1,0.1l0,0
	L91.5,8v4.5l4.9-0.6c0.1,0,0.1,0,0.1,0.1l0,0l0,3.3c0,0.1,0,0.1-0.1,0.1l0,0L91.5,16v5.1l4.9-0.6c0.1,0,0.1,0,0.1,0.1l0,0V24
	C96.5,24,96.5,24.1,96.4,24.1L96.4,24.1z"/>
</svg>
