<?xml version="1.0" encoding="utf-8"?>
<!-- Generator: Adobe Illustrator 25.2.1, SVG Export Plug-In . SVG Version: 6.00 Build 0)  -->
<svg version="1.1" id="Layer_1" xmlns="http://www.w3.org/2000/svg" xmlns:xlink="http://www.w3.org/1999/xlink" x="0px" y="0px"
	 viewBox="0 0 100 49" style="enable-background:new 0 0 100 49;" xml:space="preserve">
<style type="text/css">
	.st0{fill:#FFFFFF;stroke:#FFFFFF;stroke-width:0.8981;stroke-miterlimit:22.6907;stroke-opacity:0;}
</style>
<path class="st0" d="M14,44.1l-2.4-1.3c-0.1,0-0.1-0.1-0.1-0.2l0,0v-8.7v-8.7l-2.7-1.8c-0.1-0.1-0.1-0.1-0.1-0.2l0,0l0-3.4
	c0-0.1,0-0.1,0.1-0.1l0,0l8,4.4c0.1,0,0.1,0.1,0.1,0.2l0,0v3.4c0,0.1,0,0.1-0.1,0.1l0,0L14,26.5v8.7l0,8.7
	C14.1,44.1,14,44.1,14,44.1L14,44.1z M24.8,46.1L18,45.6c-0.1,0-0.1-0.1-0.1-0.2l0,0V34.9l0-10.5c0-0.1,0-0.1,0.1-0.1l0,0l6.8,0.4
	c0.1,0,0.1,0.1,0.1,0.2l0,0v3.4c0,0.1,0,0.1-0.1,0.1l0,0l-4.3,0.1v4.8l4.3-0.1c0.1,0,0.1,0,0.1,0.1l0,0l0,3.5c0,0.1,0,0.1-0.1,0.1
	l0,0L20.5,37v5.4l4.4-0.1c0.1,0,0.1,0.1,0.1,0.2l0,0v3.5C24.9,46,24.9,46.1,24.8,46.1L24.8,46.1z M28.1,45.3l-2.4,0.6
	c-0.1,0-0.1-0.1-0.1-0.2l0,0L28,34.2l-2.4-9.5c0-0.1,0-0.1,0.1-0.1l0,0l2.4-0.7c0.1,0,0.1,0,0.1,0.1l0,0l1.4,6.7l1.4-8
	c0-0.1,0.1-0.1,0.1-0.2l0,0l2.3-1.4c0.1,0,0.1,0,0.1,0.1l0,0l-2.4,11.4l2.4,9.6c0,0.1,0,0.1-0.1,0.2l0,0l-2.4,1.4
	c-0.1,0-0.1,0-0.1-0.1l0,0l-1.4-7.2l-1.5,8.5C28.2,45.2,28.1,45.2,28.1,45.3L28.1,45.3z M39.4,38.3L37,40.2c-0.1,0-0.1,0-0.1-0.1
	l0,0v-8.7v-8.7l-2.7,1.9c-0.1,0-0.1,0-0.1-0.1l0,0l0-3.5c0-0.1,0-0.1,0.1-0.2l0,0l8-6.2c0.1,0,0.1,0,0.1,0.1l0,0v3.4
	c0,0.1,0,0.2-0.1,0.2l0,0l-2.8,2.3v8.7l0,8.7C39.5,38.2,39.4,38.3,39.4,38.3L39.4,38.3z M50,30.1L50,30.1c-0.8,0.6-1.5,0.8-2.1,0.7
	c-0.6-0.1-1.1-0.4-1.5-1c-0.4-0.6-0.5-1.5-0.5-2.6l0,0v-1.4c0-0.1,0-0.2,0.1-0.2l0,0l2.4-1.9c0.1,0,0.1,0,0.1,0.1l0,0v1.4
	c0,0.7,0.2,1.1,0.5,1.4c0.3,0.2,0.7,0.2,1.1-0.1l0,0c0.4-0.3,0.8-0.8,1.1-1.5c0.3-0.7,0.5-1.4,0.5-2l0,0c0-0.8-0.3-1.2-1-1.3l0,0
	c-0.2,0-0.6-0.1-1.1-0.1c-0.5,0-0.9-0.1-1.4-0.1l0,0c-0.8,0-1.4-0.4-1.7-1.1c-0.4-0.7-0.5-1.7-0.5-2.9l0,0c0-1.1,0.2-2.3,0.6-3.5
	c0.4-1.2,0.9-2.4,1.5-3.4c0.6-1,1.3-1.8,2-2.3l0,0c0.7-0.5,1.4-0.7,2.1-0.6c0.6,0.1,1.1,0.6,1.5,1.3c0.4,0.7,0.6,1.6,0.6,2.7l0,0V14
	c0,0.1,0,0.1-0.1,0.2l0,0l-2.4,1.4c-0.1,0-0.1,0-0.1-0.1l0,0l0-2.5c0-0.7-0.2-1.2-0.5-1.4c-0.3-0.2-0.7-0.2-1.1,0.1l0,0
	c-0.4,0.3-0.8,0.8-1.1,1.5c-0.3,0.7-0.5,1.4-0.5,2.1l0,0c0,0.7,0.1,1.2,0.3,1.5c0.2,0.3,0.6,0.4,1.1,0.5l0,0c0.1,0,0.2,0,0.4,0
	c0.2,0,0.4,0,0.7,0.1c0.2,0,0.5,0.1,0.7,0.1c0.2,0,0.3,0,0.3,0.1l0,0c0.7,0.1,1.3,0.5,1.7,1.1c0.4,0.6,0.6,1.5,0.6,2.7l0,0
	c0,1.2-0.2,2.3-0.5,3.5c-0.4,1.1-0.9,2.2-1.5,3.1C51.5,28.8,50.8,29.5,50,30.1z M58.1,25.3l-2.4,1c-0.1,0-0.1,0-0.1-0.1l0,0l0-10.6
	V5c0-0.1,0-0.1,0.1-0.2l0,0l2.3-1c0.1,0,0.1,0,0.1,0.1l0,0l0,8.3l3.2-0.8V3.2c0-0.1,0-0.1,0.1-0.2l0,0l2.3-0.2c0.1,0,0.1,0,0.1,0.1
	l0,0l0,10.6l0,10.5c0,0.1,0,0.2-0.1,0.2l0,0l-2.4,0.2c-0.1,0-0.1,0-0.1-0.1l0,0v-9l-3.2,0.8v9C58.2,25.2,58.2,25.2,58.1,25.3
	L58.1,25.3z M65,24.2L65,24.2l1.3-10.4l1.3-10.3c0-0.1,0-0.1,0.1-0.1l0,0l3.1,1c0.1,0,0.1,0.1,0.1,0.2l0,0l1.3,11.1l1.2,11.2
	c0,0.1,0,0.2-0.1,0.1l0,0L71,25.9c-0.1,0-0.1-0.1-0.1-0.2l0,0l-0.2-2.4l-2.9-1l-0.2,2.2c0,0.1,0,0.2-0.1,0.2l0,0l-2.3-0.4
	C65,24.3,65,24.3,65,24.2z M69.1,10.9l-1,8.3l2,0.7l-0.9-9l-0.1-1.2L69.1,10.9z M77.2,29.5l-2.4-1.6c-0.1,0-0.1-0.1-0.1-0.2l0,0
	l0-10.5l0-10.5c0-0.1,0-0.1,0.1-0.1l0,0l4.1,2.9c1.3,1,2.3,2.4,3.1,4.1c0.7,1.8,1.1,3.6,1.1,5.6l0,0c0,1.5-0.2,2.6-0.6,3.3
	c-0.4,0.7-0.9,1.1-1.5,1.2s-1.3-0.2-2.1-0.8l0,0l-1.6-1.2v7.7C77.3,29.5,77.3,29.6,77.2,29.5L77.2,29.5z M77.3,11.9V18l1.6,1.2
	c0.5,0.3,0.8,0.3,1.2,0c0.3-0.4,0.5-1.1,0.5-2.1l0,0c0-0.8-0.1-1.6-0.4-2.3c-0.3-0.8-0.7-1.3-1.2-1.7l0,0L77.3,11.9z M91.3,40.7
	l-6.8-5.5c-0.1,0-0.1-0.1-0.1-0.2l0,0l0-10.5V14c0-0.1,0-0.1,0.1,0l0,0l6.8,5.4c0.1,0,0.1,0.1,0.1,0.2l0,0V23c0,0.1,0,0.1-0.1,0.1
	l0,0l-4.3-3.4v4.8l4.3,3.4c0.1,0,0.1,0.1,0.1,0.2l0,0l0,3.5c0,0.1,0,0.1-0.1,0.1l0,0l-4.4-3.4v5.4l4.4,3.4c0.1,0,0.1,0.1,0.1,0.2
	l0,0L91.3,40.7C91.4,40.7,91.3,40.8,91.3,40.7L91.3,40.7z"/>
</svg>
