<?xml version="1.0" encoding="utf-8"?>
<!-- Generator: Adobe Illustrator 25.2.1, SVG Export Plug-In . SVG Version: 6.00 Build 0)  -->
<svg version="1.1" id="Layer_1" xmlns="http://www.w3.org/2000/svg" xmlns:xlink="http://www.w3.org/1999/xlink" x="0px" y="0px"
	 viewBox="0 0 100 49" style="enable-background:new 0 0 100 49;" xml:space="preserve">
<style type="text/css">
	.st0{fill:#FFFFFF;stroke:#FFFFFF;stroke-width:0.7935;stroke-miterlimit:22.6907;stroke-opacity:0;}
</style>
<path class="st0" d="M13.4,31.5l-2.4-0.6c-0.1,0-0.1-0.1-0.1-0.1l0,0v-5.4V20L8,20.5c-0.1,0-0.1,0-0.1-0.1l0,0l0-1.9
	c0,0,0-0.1,0.1-0.1l0,0l8.2-1.9c0.1,0,0.1,0,0.1,0.1l0,0v2.5c0,0.1,0,0.1-0.1,0.1l0,0l-2.8,0.4v5.8L13.4,31.5
	C13.4,31.5,13.4,31.5,13.4,31.5L13.4,31.5z M24.4,33.7l-6.9-1.3c-0.1,0-0.1-0.1-0.1-0.1l0,0v-7.9l0-7.9c0-0.1,0-0.1,0.1-0.1l0,0
	l6.9-1.2c0.1,0,0.1,0,0.1,0.1l0,0v3c0,0.1,0,0.1-0.1,0.1l0,0L20,18.8v3.8l4.4-0.1c0.1,0,0.1,0,0.1,0.1l0,0l0,3c0,0.1,0,0.1-0.1,0.1
	l0,0L20,25.6v4.3l4.4,0.5c0.1,0,0.1,0.1,0.1,0.1l0,0L24.4,33.7C24.5,33.7,24.4,33.7,24.4,33.7L24.4,33.7z M27.7,34.2l-2.4-0.4
	c-0.1,0-0.1,0-0.1-0.1l0,0l2.4-9.7l-2.4-8.9c0-0.1,0-0.1,0.1-0.1l0,0l2.4-0.4c0.1,0,0.1,0,0.1,0.1l0,0l1.4,6.7l1.5-7.1
	c0-0.1,0.1-0.1,0.1-0.1l0,0l2.4-0.4c0.1,0,0.1,0,0.1,0.1l0,0L30.9,24l2.4,11c0,0.1,0,0.1-0.1,0.1l0,0l-2.4-0.4
	c-0.1,0-0.1-0.1-0.1-0.2l0,0l-1.5-7.7l-1.5,7.2C27.8,34.2,27.8,34.2,27.7,34.2L27.7,34.2z M39.2,36l-2.4-0.4c-0.1,0-0.1-0.1-0.1-0.2
	l0,0v-9.2v-9.2l-2.8,0.3c-0.1,0-0.1,0-0.1-0.1l0,0l0-3.5c0-0.1,0-0.1,0.1-0.1l0,0l8.2-1.1c0.1,0,0.1,0,0.1,0.1l0,0v3.8
	c0,0.1,0,0.2-0.1,0.2l0,0l-2.8,0.2v9.5l0,9.5C39.3,36,39.3,36,39.2,36L39.2,36z M50,37.8L50,37.8c-0.8-0.1-1.5-0.5-2.1-1.3
	c-0.6-0.7-1.2-1.7-1.5-2.8c-0.4-1.1-0.6-2.3-0.6-3.7l0,0v-1.6c0-0.1,0-0.2,0.1-0.2l0,0l2.4,0.1c0.1,0,0.1,0.1,0.1,0.2l0,0v1.7
	c0,0.8,0.2,1.5,0.5,2.1c0.3,0.6,0.7,0.9,1.1,0.9l0,0c0.4,0,0.8-0.4,1.1-1c0.3-0.6,0.5-1.3,0.5-2.1l0,0c0-0.9-0.3-1.7-1-2.3l0,0
	c-0.2-0.2-0.6-0.6-1.1-1c-0.5-0.5-0.9-0.9-1.4-1.3l0,0c-0.8-0.8-1.4-1.8-1.8-2.9c-0.4-1.2-0.6-2.5-0.6-3.9l0,0
	c0-1.3,0.2-2.6,0.6-3.7c0.4-1.1,0.9-2,1.5-2.7c0.6-0.7,1.3-1.1,2.1-1.2l0,0c0.8,0.1,1.5,0.5,2.1,1.2c0.6,0.7,1.1,1.6,1.5,2.7
	c0.4,1.1,0.6,2.3,0.6,3.6l0,0v2.9c0,0.1,0,0.1-0.1,0.1l0,0l-2.4,0c-0.1,0-0.1,0-0.1-0.1l0,0l0-3c0-0.8-0.2-1.6-0.5-2.1
	c-0.3-0.6-0.7-0.9-1.1-0.9l0,0c-0.4,0-0.8,0.3-1.1,0.9c-0.3,0.6-0.5,1.3-0.5,2.1l0,0c0,0.8,0.1,1.5,0.3,2s0.6,1,1.1,1.5l0,0
	c0.1,0.1,0.2,0.2,0.4,0.4c0.2,0.2,0.4,0.4,0.7,0.6c0.2,0.2,0.5,0.4,0.7,0.6c0.2,0.2,0.3,0.3,0.3,0.3l0,0c0.7,0.7,1.3,1.5,1.7,2.5
	c0.4,1,0.6,2.1,0.6,3.5l0,0c0,1.4-0.2,2.6-0.6,3.7c-0.4,1.1-0.9,2.1-1.5,2.8C51.5,37.3,50.8,37.7,50,37.8z M58.3,36.3l-2.4,0.4
	c-0.1,0-0.1-0.1-0.1-0.2l0,0l0-12.1V12.4c0-0.1,0-0.1,0.1-0.1l0,0l2.4,0.3c0.1,0,0.1,0,0.1,0.1l0,0l0,9.3l3.2,0.1v-8.9
	c0-0.1,0-0.1,0.1-0.1l0,0l2.4,0.3c0.1,0,0.1,0,0.1,0.1l0,0l0,10.9l0,10.9c0,0.1,0,0.1-0.1,0.2l0,0l-2.4,0.4c-0.1,0-0.1,0-0.1-0.1
	l0,0v-9.7l-3.2,0.1v10C58.4,36.3,58.3,36.3,58.3,36.3L58.3,36.3z M65.2,35.2L65.2,35.2l1.3-10.8L67.9,14c0-0.1,0.1-0.1,0.1-0.1l0,0
	l3.1,0.5c0.1,0,0.1,0,0.1,0.1l0,0l1.3,9.9l1.3,9.5c0,0.1,0,0.1-0.1,0.1l0,0l-2.4,0.4c-0.1,0-0.1,0-0.1-0.1l0,0L71,32.2L68,32.6
	l-0.2,2.2c0,0.1-0.1,0.1-0.1,0.2l0,0l-2.4,0.4C65.3,35.3,65.2,35.3,65.2,35.2z M69.4,20.9l-1,8.4l2.1-0.2l-0.9-8.2l-0.1-1.1
	L69.4,20.9z M77.6,33.3l-2.4,0.4c-0.1,0-0.1,0-0.1-0.1l0,0l0-9.2l0-9.2c0-0.1,0-0.1,0.1-0.1l0,0l4.1,0.7c1.3,0.3,2.4,0.9,3.1,1.9
	c0.8,1,1.1,2.2,1.1,3.6l0,0c0,1.1-0.2,2-0.6,2.7c-0.4,0.8-0.9,1.4-1.6,1.9c-0.6,0.5-1.3,0.7-2.1,0.8l0,0l-1.6,0.1v6.4
	C77.8,33.2,77.7,33.3,77.6,33.3L77.6,33.3z M77.8,18.5v5.1l1.6,0c0.5,0,0.9-0.2,1.2-0.7c0.3-0.5,0.5-1.1,0.5-1.9l0,0
	c0-0.6-0.2-1.2-0.5-1.6c-0.3-0.4-0.7-0.7-1.2-0.8l0,0L77.8,18.5z M92,30.1L85,31.8c-0.1,0-0.1,0-0.1-0.1l0,0l0-7.4v-7.4
	c0-0.1,0-0.1,0.1-0.1l0,0l6.9,1.6c0.1,0,0.1,0.1,0.1,0.1l0,0v1.9c0,0,0,0.1-0.1,0l0,0l-4.4-0.7v3.1l4.4,0.2c0.1,0,0.1,0,0.1,0.1l0,0
	l0,1.9c0,0,0,0.1-0.1,0.1l0,0l-4.4,0.2v3.5l4.4-0.7c0.1,0,0.1,0,0.1,0.1l0,0L92,30.1C92.1,30.1,92,30.1,92,30.1L92,30.1z"/>
</svg>
