<?xml version="1.0" encoding="utf-8"?>
<!-- Generator: Adobe Illustrator 25.2.1, SVG Export Plug-In . SVG Version: 6.00 Build 0)  -->
<svg version="1.1" id="Layer_1" xmlns="http://www.w3.org/2000/svg" xmlns:xlink="http://www.w3.org/1999/xlink" x="0px" y="0px"
	 viewBox="0 0 100 49" style="enable-background:new 0 0 100 49;" xml:space="preserve">
<style type="text/css">
	.st0{fill:#FFFFFF;stroke:#FFFFFF;stroke-width:0.6466;stroke-miterlimit:22.6907;stroke-opacity:0;}
</style>
<path class="st0" d="M18.9,35l-2.1,1.4c0,0-0.1,0-0.1,0l0,0V31v-5.3l-2.4,1.7c-0.1,0-0.1,0-0.1,0l0,0l0-2.1c0,0,0-0.1,0.1-0.1l0,0
	l6.9-4.6c0.1,0,0.1,0,0.1,0l0,0v2.1c0,0.1,0,0.1-0.1,0.1l0,0L19,24.3v5.3l0,5.3C19,34.9,19,34.9,18.9,35L18.9,35z M28.3,29.8l-5.9,3
	c0,0-0.1,0-0.1-0.1l0,0v-6.3l0-6.4c0,0,0-0.1,0.1-0.1l0,0l5.8-3c0,0,0.1,0,0.1,0.1l0,0v2.1c0,0,0,0.1-0.1,0.1l0,0L24.5,21v2.9
	l3.7-1.8c0,0,0.1,0,0.1,0.1l0,0l0,2.1c0,0,0,0.1-0.1,0.1l0,0l-3.7,1.8v3.2l3.7-1.8c0,0,0.1,0,0.1,0.1l0,0v2.1
	C28.3,29.8,28.3,29.8,28.3,29.8L28.3,29.8z M31,28.6l-2,0.9c0,0-0.1,0-0.1-0.1l0,0L31,22l-2-5.3c0,0,0-0.1,0.1-0.1l0,0l2-0.9
	c0.1,0,0.1,0,0.1,0l0,0l1.2,3.9l1.2-4.8c0-0.1,0-0.1,0.1-0.1l0,0l2-0.6c0,0,0.1,0,0.1,0.1l0,0l-2,6.7l2.1,6c0,0,0,0.1-0.1,0.1l0,0
	l-2,0.6c0,0-0.1,0-0.1-0.1l0,0l-1.2-4.3l-1.3,5.3C31.1,28.6,31.1,28.6,31,28.6L31,28.6z M40.8,25.8l-2.1,0.4c0,0-0.1,0-0.1-0.1l0,0
	v-5.3v-5.3l-2.4,0.6c-0.1,0-0.1,0-0.1-0.1l0,0l0-2.1c0,0,0-0.1,0.1-0.1l0,0l6.9-1.5c0.1,0,0.1,0,0.1,0.1l0,0v2.1
	c0,0.1,0,0.1-0.1,0.1l0,0l-2.4,0.4v5.3l0,5.3C40.8,25.7,40.8,25.8,40.8,25.8L40.8,25.8z M49.9,25.1L49.9,25.1
	c-0.7,0-1.2-0.2-1.8-0.5c-0.5-0.3-1-0.7-1.3-1.3c-0.3-0.5-0.5-1.2-0.5-1.8l0,0v-0.9c0-0.1,0-0.1,0.1-0.1l0,0l2-0.1
	c0,0,0.1,0,0.1,0.1l0,0v0.9c0,0.4,0.1,0.8,0.4,1c0.3,0.3,0.6,0.4,1,0.4l0,0c0.4,0,0.7-0.1,1-0.4c0.3-0.3,0.4-0.6,0.4-1l0,0
	c0-0.5-0.3-0.9-0.9-1.2l0,0c-0.2-0.1-0.5-0.3-0.9-0.5c-0.4-0.2-0.8-0.4-1.2-0.6l0,0c-0.7-0.4-1.2-0.8-1.5-1.4
	c-0.3-0.6-0.5-1.2-0.5-2l0,0c0-0.7,0.2-1.3,0.5-1.9c0.3-0.6,0.8-1,1.3-1.4c0.5-0.3,1.1-0.5,1.8-0.5l0,0c0.6,0,1.2,0.2,1.8,0.5
	c0.5,0.4,1,0.8,1.3,1.4c0.3,0.6,0.5,1.2,0.5,1.9l0,0v1.5c0,0,0,0.1-0.1,0.1l0,0l-2-0.1c0,0-0.1,0-0.1-0.1l0,0l0-1.5
	c0-0.4-0.1-0.8-0.4-1.1c-0.3-0.3-0.6-0.4-0.9-0.4l0,0c-0.4,0-0.7,0.1-1,0.4c-0.3,0.3-0.4,0.6-0.4,1l0,0c0,0.4,0.1,0.7,0.3,1
	c0.2,0.3,0.5,0.5,0.9,0.8l0,0c0.1,0,0.2,0.1,0.4,0.2c0.2,0.1,0.4,0.2,0.6,0.3c0.2,0.1,0.4,0.2,0.6,0.3c0.2,0.1,0.3,0.1,0.3,0.2l0,0
	c0.6,0.4,1.1,0.8,1.4,1.3c0.4,0.5,0.5,1.1,0.5,1.9l0,0c0,0.7-0.2,1.3-0.5,1.9c-0.3,0.5-0.8,1-1.3,1.3C51.2,25,50.6,25.1,49.9,25.1z
	 M56.9,25.4l-2.1-0.3c0,0-0.1,0-0.1-0.1l0,0l0-6.4v-6.3c0,0,0-0.1,0.1-0.1l0,0l2,0.3c0.1,0,0.1,0,0.1,0.1l0,0l0,5l2.7,0.5v-5
	c0,0,0-0.1,0.1-0.1l0,0l2,0.5c0.1,0,0.1,0,0.1,0.1l0,0l0,6.4l0,6.4c0,0.1,0,0.1-0.1,0.1l0,0l-2-0.5c-0.1,0-0.1,0-0.1-0.1l0,0v-5.4
	L57,19.9L56.9,25.4C57,25.4,57,25.4,56.9,25.4L56.9,25.4z M62.8,26.6L62.8,26.6l1.1-6l1.1-6c0,0,0-0.1,0.1-0.1l0,0l2.6,0.9
	c0,0,0.1,0,0.1,0.1l0,0l1.1,6.8l1.1,6.8c0,0.1,0,0.1-0.1,0.1l0,0l-2-0.8c0,0-0.1-0.1-0.1-0.1l0,0l-0.2-1.4l-2.5-0.9L65,27.2
	c0,0,0,0.1-0.1,0.1l0,0l-2-0.6C62.8,26.7,62.8,26.6,62.8,26.6z M66.3,19.1l-0.8,4.9l1.7,0.6l-0.7-5.5l-0.1-0.7L66.3,19.1z
	 M73.3,30.7l-2-1c-0.1,0-0.1-0.1-0.1-0.1l0,0l0-6.3l0-6.3c0,0,0-0.1,0.1,0l0,0l3.5,1.7c1.1,0.6,2,1.4,2.7,2.5c0.6,1.1,1,2.2,1,3.4
	l0,0c0,0.9-0.2,1.5-0.5,2c-0.3,0.4-0.8,0.7-1.3,0.7c-0.5,0-1.1-0.1-1.8-0.4l0,0l-1.4-0.7L73.3,30.7C73.4,30.7,73.3,30.7,73.3,30.7
	L73.3,30.7z M73.4,20v3.7l1.4,0.7c0.4,0.2,0.7,0.2,1,0c0.3-0.2,0.4-0.6,0.4-1.2l0,0c0-0.5-0.1-0.9-0.4-1.4c-0.3-0.4-0.6-0.8-1.1-1
	l0,0L73.4,20z M85.4,38.1l-5.9-4c0,0-0.1-0.1-0.1-0.1l0,0l0-6.3v-6.3c0,0,0-0.1,0.1,0l0,0l5.8,4c0,0,0.1,0.1,0.1,0.1l0,0v2.1
	c0,0,0,0.1-0.1,0l0,0l-3.7-2.6v2.9l3.7,2.6c0,0,0.1,0.1,0.1,0.1l0,0l0,2.1c0,0,0,0.1-0.1,0l0,0L81.7,30v3.2l3.7,2.6
	c0,0,0.1,0.1,0.1,0.1l0,0L85.4,38.1C85.5,38.2,85.4,38.2,85.4,38.1L85.4,38.1z"/>
</svg>
