<?xml version="1.0" encoding="utf-8"?>
<!-- Generator: Adobe Illustrator 25.2.1, SVG Export Plug-In . SVG Version: 6.00 Build 0)  -->
<svg version="1.1" id="Layer_1" xmlns="http://www.w3.org/2000/svg" xmlns:xlink="http://www.w3.org/1999/xlink" x="0px" y="0px"
	 viewBox="0 0 100 49" style="enable-background:new 0 0 100 49;" xml:space="preserve">
<style type="text/css">
	.st0{fill:#FFFFFF;stroke:#FFFFFF;stroke-width:0.7924;stroke-miterlimit:22.6907;stroke-opacity:0;}
</style>
<path class="st0" d="M15.3,37L13,37.5c-0.1,0-0.1,0-0.1-0.2l0,0V26.8V16.3l-2.6,0c-0.1,0-0.1-0.1-0.1-0.2l0,0l0-4.2
	c0-0.1,0-0.1,0.1-0.1l0,0l7.7,0c0.1,0,0.1,0,0.1,0.1l0,0v3.9c0,0.1,0,0.2-0.1,0.2l0,0l-2.7,0.2v10.3l0,10.3C15.4,37,15.3,37,15.3,37
	L15.3,37z M25.7,31.8l-6.6,3.8c-0.1,0-0.1,0-0.1-0.1l0,0V23.7l0-11.8c0-0.1,0-0.1,0.1-0.1l0,0l6.5-0.1c0.1,0,0.1,0,0.1,0.1l0,0v3.2
	c0,0.1,0,0.1-0.1,0.1l0,0l-4.2,0.5v5.1l4.2-1c0.1,0,0.1,0,0.1,0.1l0,0l0,3.2c0,0.1,0,0.1-0.1,0.1l0,0l-4.2,1.5v5.7l4.2-2.1
	c0.1,0,0.1,0,0.1,0.1l0,0v3.3C25.8,31.7,25.8,31.8,25.7,31.8L25.7,31.8z M28.9,29.7l-2.3,1.6c-0.1,0-0.1,0-0.1-0.1l0,0l2.3-10.9
	l-2.3-8.5c0-0.1,0-0.1,0.1-0.1l0,0l2.3,0c0.1,0,0.1,0,0.1,0.1l0,0l1.4,5.8l1.4-5.9c0,0,0.1-0.1,0.1-0.1l0,0l2.3,0
	c0.1,0,0.1,0,0.1,0.1l0,0l-2.3,7.6l2.3,6.7c0,0,0,0.1-0.1,0.1l0,0l-2.3,1.5c-0.1,0-0.1,0-0.1,0l0,0l-1.4-5.4L29,29.5
	C29,29.6,28.9,29.7,28.9,29.7L28.9,29.7z M39.8,22.7L37.5,24c-0.1,0-0.1,0-0.1,0l0,0v-5.1v-5.1L34.7,14c-0.1,0-0.1,0-0.1-0.1l0,0
	l0-2.3c0-0.1,0-0.1,0.1-0.1l0,0l7.7-0.1c0.1,0,0.1,0,0.1,0l0,0v1.6c0,0,0,0.1-0.1,0.1l0,0l-2.7,0.2V18l0,4.6
	C39.8,22.7,39.8,22.7,39.8,22.7L39.8,22.7z M50,20.1L50,20.1c-0.7,0-1.4-0.1-2-0.2c-0.6-0.1-1.1-0.4-1.5-0.7
	c-0.4-0.3-0.5-0.7-0.5-1.2l0,0v-0.6c0,0,0-0.1,0.1-0.1l0,0l2.3-0.2c0.1,0,0.1,0,0.1,0l0,0v0.6c0,0.3,0.1,0.5,0.4,0.7
	c0.3,0.2,0.7,0.3,1.1,0.3l0,0c0.4,0,0.8-0.1,1.1-0.3c0.3-0.2,0.4-0.4,0.4-0.7l0,0c0-0.3-0.3-0.6-1-0.8l0,0c-0.2-0.1-0.6-0.2-1-0.3
	c-0.5-0.1-0.9-0.3-1.3-0.4l0,0c-0.7-0.2-1.3-0.5-1.7-0.9c-0.4-0.4-0.5-0.9-0.5-1.4l0,0c0-0.5,0.2-0.9,0.5-1.3
	c0.4-0.4,0.8-0.7,1.4-0.9c0.6-0.2,1.3-0.3,2-0.3l0,0c0.7,0,1.4,0.1,2,0.3c0.6,0.2,1.1,0.5,1.4,0.9c0.4,0.4,0.5,0.8,0.5,1.3l0,0v1.1
	c0,0,0,0-0.1,0l0,0l-2.3-0.1c-0.1,0-0.1,0-0.1,0l0,0l0-1c0-0.3-0.1-0.5-0.4-0.7c-0.3-0.2-0.7-0.3-1.1-0.3l0,0
	c-0.4,0-0.8,0.1-1.1,0.3c-0.3,0.2-0.4,0.4-0.4,0.7l0,0c0,0.3,0.1,0.5,0.3,0.7c0.2,0.2,0.5,0.3,1,0.5l0,0c0.1,0,0.2,0.1,0.4,0.1
	c0.2,0.1,0.4,0.1,0.6,0.2c0.2,0.1,0.4,0.2,0.6,0.2c0.2,0.1,0.3,0.1,0.3,0.1l0,0c0.7,0.3,1.2,0.6,1.6,1C53.8,17,54,17.5,54,18l0,0
	c0,0.5-0.2,0.9-0.5,1.2c-0.4,0.3-0.9,0.6-1.5,0.7C51.4,20.1,50.8,20.2,50,20.1z M57.8,21.6l-2.3-0.8c-0.1,0-0.1,0-0.1-0.1l0,0l0-4.6
	v-4.7c0,0,0,0,0.1,0l0,0l2.3,0c0.1,0,0.1,0,0.1,0l0,0l0,4l3.1,0.6v-4.6c0,0,0,0,0.1,0l0,0l2.3,0c0.1,0,0.1,0,0.1,0.1l0,0l0,6.4
	l0,6.4c0,0.1,0,0.1-0.1,0l0,0l-2.3-1.3C61,23.1,61,23.1,61,23l0,0v-4.9l-3.1-0.8L57.8,21.6C57.9,21.7,57.9,21.7,57.8,21.6L57.8,21.6
	z M64.4,25.1L64.4,25.1l1.3-6.3l1.3-7.1c0,0,0-0.1,0.1-0.1l0,0l3,0c0.1,0,0.1,0,0.1,0.1l0,0l1.2,9l1.2,9.8c0,0.1,0,0.1-0.1,0.1l0,0
	l-2.3-1.6c-0.1,0-0.1-0.1-0.1-0.2l0,0l-0.2-2l-2.8-1.7l-0.2,1.5c0,0.1,0,0.1-0.1,0l0,0l-2.3-1.5C64.5,25.2,64.4,25.1,64.4,25.1z
	 M68.4,17L67.5,23l2,1L68.6,17l-0.1-0.9L68.4,17z M76.2,33.1l-2.3-1.5c-0.1,0-0.1-0.1-0.1-0.2l0,0l0-9.8l0-9.8c0-0.1,0-0.1,0.1-0.1
	l0,0l3.9,0.1c1.2,0,2.2,0.7,3,2c0.7,1.3,1.1,3.1,1.1,5.3l0,0c0,1.7-0.2,3-0.6,4.2c-0.4,1.1-0.9,1.9-1.5,2.4c-0.6,0.4-1.3,0.5-2,0.2
	l0,0l-1.5-0.6V33C76.3,33.1,76.3,33.1,76.2,33.1L76.2,33.1z M76.3,15.4v6.1l1.5,0.4c0.4,0.1,0.8-0.1,1.1-0.7
	c0.3-0.6,0.5-1.4,0.5-2.5l0,0c0-0.9-0.1-1.6-0.4-2.2c-0.3-0.6-0.7-0.9-1.2-0.9l0,0L76.3,15.4z M89.8,37.8l-6.6-1.2
	c-0.1,0-0.1-0.1-0.1-0.2l0,0l0-12.2V12c0-0.1,0-0.1,0.1-0.1l0,0l6.5,0c0.1,0,0.1,0.1,0.1,0.2l0,0v4.2c0,0.1,0,0.1-0.1,0.1l0,0
	l-4.2-0.1V22l4.2,0.2c0.1,0,0.1,0,0.1,0.1l0,0l0,4.2c0,0.1,0,0.1-0.1,0.1l0,0l-4.2-0.3v6.4l4.2,0.4c0.1,0,0.1,0.1,0.1,0.2l0,0v4.2
	C89.8,37.7,89.8,37.8,89.8,37.8L89.8,37.8z"/>
</svg>
