<?xml version="1.0" encoding="utf-8"?>
<!-- Generator: Adobe Illustrator 25.2.1, SVG Export Plug-In . SVG Version: 6.00 Build 0)  -->
<svg version="1.1" id="Layer_1" xmlns="http://www.w3.org/2000/svg" xmlns:xlink="http://www.w3.org/1999/xlink" x="0px" y="0px"
	 viewBox="0 0 100 49" style="enable-background:new 0 0 100 49;" xml:space="preserve">
<style type="text/css">
	.st0{fill:#FFFFFF;stroke:#FFFFFF;stroke-width:0.837;stroke-miterlimit:22.6907;stroke-opacity:0;}
</style>
<path class="st0" d="M15,42.2h-2.3c-0.1,0-0.1,0-0.1-0.1l0,0v-6.9v-6.9l-2.7,0c-0.1,0-0.1,0-0.1-0.1l0,0l0-2.7c0-0.1,0-0.1,0.1-0.1
	l0,0l7.8-0.2c0.1,0,0.1,0,0.1,0.1l0,0v2.7c0,0.1,0,0.1-0.1,0.1l0,0l-2.7,0.1v6.9l0,6.9C15.1,42.2,15.1,42.2,15,42.2L15,42.2z
	 M25.6,42.2h-6.6c-0.1,0-0.1,0-0.1-0.1l0,0v-8.4l0-8.4c0-0.1,0-0.1,0.1-0.1l0,0l6.6-0.5c0.1,0,0.1,0,0.1,0.1l0,0v2.8
	c0,0.1,0,0.1-0.1,0.1l0,0l-4.2,0.3V32l4.2-0.2c0.1,0,0.1,0,0.1,0.1l0,0l0,2.8c0,0.1,0,0.1-0.1,0.1l0,0l-4.2,0.1v4.3l4.2-0.1
	c0.1,0,0.1,0,0.1,0.1l0,0v2.9C25.6,42.2,25.6,42.2,25.6,42.2L25.6,42.2z M28.7,42.2h-2.3c-0.1,0-0.1,0-0.1-0.1l0,0l2.3-9.1l-2.3-8.2
	c0-0.1,0-0.1,0.1-0.1l0,0l2.3-0.2c0.1,0,0.1,0,0.1,0.1l0,0l1.4,6l1.4-6.3c0-0.1,0.1-0.1,0.1-0.1l0,0l2.3-0.3c0.1,0,0.1,0,0.1,0.1
	l0,0l-2.3,8.9l2.3,9.3c0,0.1,0,0.1-0.1,0.1l0,0h-2.3c-0.1,0-0.1,0-0.1-0.1l0,0l-1.4-6.6l-1.4,6.6C28.8,42.2,28.8,42.2,28.7,42.2
	L28.7,42.2z M39.7,42.2h-2.3c-0.1,0-0.1,0-0.1-0.1l0,0v-7.8v-7.7l-2.7,0.3c-0.1,0-0.1,0-0.1-0.1l0,0l0-3c0-0.1,0-0.1,0.1-0.1l0,0
	l7.8-1.3c0.1,0,0.1,0,0.1,0.1l0,0v3.2c0,0.1,0,0.2-0.1,0.2l0,0l-2.7,0.4v7.9l0,7.9C39.8,42.2,39.7,42.2,39.7,42.2L39.7,42.2z
	 M50,42.5L50,42.5c-0.7,0-1.4-0.3-2-0.8c-0.6-0.5-1.1-1.3-1.5-2.2c-0.4-0.9-0.5-1.9-0.5-3l0,0v-1.4c0-0.1,0-0.1,0.1-0.1l0,0l2.3-0.2
	c0.1,0,0.1,0.1,0.1,0.2l0,0v1.4c0,0.7,0.2,1.2,0.5,1.7c0.3,0.5,0.7,0.7,1.1,0.7l0,0c0.4,0,0.8-0.3,1.1-0.8c0.3-0.5,0.5-1.1,0.5-1.8
	l0,0c0-0.8-0.3-1.4-1-1.9l0,0c-0.2-0.2-0.6-0.4-1-0.8c-0.5-0.3-0.9-0.7-1.3-1l0,0c-0.8-0.6-1.3-1.3-1.7-2.2c-0.4-0.9-0.5-2-0.5-3.2
	l0,0c0-1.1,0.2-2.1,0.6-3.1c0.4-1,0.9-1.8,1.5-2.4c0.6-0.7,1.3-1.1,2-1.3l0,0c0.7-0.2,1.4,0,2,0.4c0.6,0.4,1.1,1,1.4,1.9
	c0.4,0.9,0.6,1.9,0.6,3.1l0,0v2.7c0,0.1,0,0.1-0.1,0.1l0,0l-2.3,0.4c-0.1,0-0.1,0-0.1-0.1l0,0l0-2.6c0-0.7-0.2-1.3-0.5-1.7
	c-0.3-0.4-0.7-0.5-1.1-0.5l0,0c-0.4,0.1-0.8,0.4-1.1,0.9c-0.3,0.5-0.5,1.1-0.5,1.8l0,0c0,0.7,0.1,1.2,0.3,1.6c0.2,0.4,0.5,0.8,1,1.1
	l0,0c0.1,0.1,0.2,0.1,0.4,0.3c0.2,0.1,0.4,0.3,0.6,0.4c0.2,0.2,0.4,0.3,0.6,0.4c0.2,0.1,0.3,0.2,0.3,0.2l0,0c0.7,0.5,1.2,1.2,1.6,2
	c0.4,0.8,0.6,1.9,0.6,3.2l0,0c0,1.2-0.2,2.3-0.5,3.3c-0.4,1-0.9,1.8-1.5,2.3C51.4,42.3,50.8,42.5,50,42.5z M57.9,42.2h-2.3
	c-0.1,0-0.1-0.1-0.1-0.2l0,0l0-11.3V19.5c0-0.1,0-0.1,0.1-0.1l0,0l2.3-0.6c0.1,0,0.1,0,0.1,0.1l0,0l0,9.2l3.1-0.5v-9.6
	c0-0.1,0-0.1,0.1-0.2l0,0l2.3-0.7c0.1,0,0.1,0,0.1,0.1l0,0l0,12.5l0,12.5c0,0.1,0,0.2-0.1,0.2l0,0h-2.3c-0.1,0-0.1-0.1-0.1-0.2l0,0
	V31.7L58,32.1v10C58,42.2,58,42.2,57.9,42.2L57.9,42.2z M64.5,42.1L64.5,42.1l1.3-12.8L67.1,16c0-0.1,0-0.2,0.1-0.2l0,0l3-1
	c0.1,0,0.1,0,0.1,0.1l0,0l1.2,13.4l1.2,13.8c0,0.1,0,0.2-0.1,0.2l0,0h-2.3c-0.1,0-0.1-0.1-0.1-0.2l0,0L70,39.2l-2.8,0.1L67,42.1
	c0,0.1,0,0.2-0.1,0.2l0,0h-2.3C64.6,42.2,64.5,42.2,64.5,42.1z M68.6,24.2l-0.9,11l2-0.2l-0.8-10.8l-0.1-1.4L68.6,24.2z M76.4,42.2
	h-2.3C74,42.2,74,42.2,74,42l0,0l0-14.3l0-14.3c0-0.1,0-0.2,0.1-0.2l0,0l3.9-1.5c1.3-0.5,2.3-0.1,3,1.3c0.7,1.4,1.1,3.6,1.1,6.6l0,0
	c0,2.2-0.2,4.1-0.6,5.8c-0.4,1.7-0.9,3-1.5,4c-0.6,0.9-1.3,1.5-2,1.6l0,0l-1.6,0.2V42C76.5,42.2,76.5,42.2,76.4,42.2L76.4,42.2z
	 M76.5,17.5V26l1.6-0.4c0.4-0.1,0.8-0.6,1.1-1.6c0.3-1,0.5-2.2,0.5-3.7l0,0c0-1.2-0.1-2.1-0.4-2.7C79,17,78.6,16.8,78.1,17l0,0
	L76.5,17.5z M90.1,42.2h-6.6c-0.1,0-0.1-0.1-0.1-0.2l0,0l0-16.1V9.7c0-0.1,0-0.2,0.1-0.2l0,0l6.6-3c0.1,0,0.1,0.1,0.1,0.2l0,0v5.8
	c0,0.1,0,0.2-0.1,0.2l0,0l-4.2,1.6v7.6l4.2-1.2c0.1,0,0.1,0,0.1,0.2l0,0l0,5.8c0,0.1,0,0.2-0.1,0.2l0,0l-4.2,0.8v8.5l4.2-0.3
	c0.1,0,0.1,0.1,0.1,0.2l0,0V42C90.2,42.2,90.1,42.2,90.1,42.2L90.1,42.2z"/>
</svg>
