<?xml version="1.0" encoding="utf-8"?>
<!-- Generator: Adobe Illustrator 25.2.1, SVG Export Plug-In . SVG Version: 6.00 Build 0)  -->
<svg version="1.1" id="Layer_1" xmlns="http://www.w3.org/2000/svg" xmlns:xlink="http://www.w3.org/1999/xlink" x="0px" y="0px"
	 viewBox="0 0 100 49" style="enable-background:new 0 0 100 49;" xml:space="preserve">
<style type="text/css">
	.st0{fill:#FFFFFF;stroke:#FFFFFF;stroke-width:0.8399;stroke-miterlimit:22.6907;stroke-opacity:0;}
</style>
<path class="st0" d="M14,42.7L11.6,43c-0.1,0-0.1-0.1-0.1-0.2l0,0v-15v-15l-2.7-0.2c-0.1,0-0.1-0.1-0.1-0.3l0,0l0-6
	c0-0.1,0-0.2,0.1-0.2l0,0l8,0.9c0.1,0,0.1,0.1,0.1,0.2l0,0v5.7c0,0.2,0,0.3-0.1,0.2l0,0L14,12.9v14.8l0,14.8
	C14.1,42.6,14,42.7,14,42.7L14,42.7z M24.8,41.5L18,42.2c-0.1,0-0.1-0.1-0.1-0.2l0,0V24.6l0-17.4C17.9,7.1,18,7,18,7l0,0l6.8,0.8
	c0.1,0,0.1,0.1,0.1,0.2l0,0v5.4c0,0.1,0,0.2-0.1,0.2l0,0l-4.3-0.3v7.8l4.3,0.1c0.1,0,0.1,0.1,0.1,0.2l0,0l0,5.5c0,0.1,0,0.2-0.1,0.2
	l0,0l-4.4,0.1v8.7l4.4-0.3c0.1,0,0.1,0.1,0.1,0.2l0,0v5.5C24.9,41.4,24.9,41.5,24.8,41.5L24.8,41.5z M28.1,41.1l-2.4,0.3
	c-0.1,0-0.1-0.1-0.1-0.2l0,0L28,23.9L25.7,8c0-0.1,0-0.2,0.1-0.2l0,0l2.4,0.3c0.1,0,0.1,0.1,0.1,0.2l0,0l1.4,11.3l1.4-11
	c0-0.1,0.1-0.2,0.1-0.2l0,0l2.3,0.3c0.1,0,0.1,0.1,0.1,0.2l0,0l-2.4,15l2.4,16.3c0,0.2,0,0.2-0.1,0.2l0,0l-2.4,0.3
	c-0.1,0-0.1-0.1-0.1-0.2l0,0l-1.4-11.9l-1.5,12.3C28.2,41,28.1,41.1,28.1,41.1L28.1,41.1z M39.4,39.8L37,40c-0.1,0-0.1-0.1-0.1-0.2
	l0,0V27.2V14.5l-2.7-0.2c-0.1,0-0.1-0.1-0.1-0.2l0,0l0-5.1c0-0.1,0-0.2,0.1-0.2l0,0l8,0.9c0.1,0,0.1,0.1,0.1,0.2l0,0v4.8
	c0,0.1,0,0.2-0.1,0.2l0,0l-2.8-0.2v12.5l0,12.4C39.5,39.7,39.4,39.8,39.4,39.8L39.4,39.8z M50,38.9L50,38.9
	c-0.8,0.1-1.5-0.2-2.1-0.9c-0.6-0.7-1.1-1.6-1.5-2.8c-0.4-1.2-0.5-2.6-0.5-4.1l0,0v-1.9c0-0.1,0-0.2,0.1-0.2l0,0l2.4-0.1
	c0.1,0,0.1,0.1,0.1,0.2l0,0v1.9c0,0.9,0.2,1.6,0.5,2.3c0.3,0.6,0.7,0.9,1.1,0.9l0,0c0.4,0,0.8-0.4,1.1-1c0.3-0.6,0.5-1.4,0.5-2.3
	l0,0c0-1-0.3-1.8-1-2.5l0,0c-0.2-0.2-0.6-0.6-1.1-1.1s-0.9-1-1.4-1.4l0,0c-0.8-0.9-1.4-2-1.7-3.3c-0.4-1.3-0.5-2.9-0.5-4.6l0,0
	c0-1.6,0.2-2.9,0.6-4.1c0.4-1.2,0.9-2.1,1.5-2.8c0.6-0.6,1.3-0.9,2-0.8l0,0c0.7,0.1,1.4,0.5,2.1,1.3c0.6,0.8,1.1,1.7,1.5,2.9
	c0.4,1.2,0.6,2.5,0.6,3.9l0,0v3.2c0,0.1,0,0.2-0.1,0.2l0,0l-2.4-0.1c-0.1,0-0.1-0.1-0.1-0.2l0,0l0-3.3c0-0.9-0.2-1.7-0.5-2.3
	c-0.3-0.6-0.7-0.9-1.1-1l0,0c-0.4,0-0.8,0.3-1.1,0.9c-0.3,0.6-0.5,1.4-0.5,2.2l0,0c0,0.9,0.1,1.6,0.3,2.3c0.2,0.6,0.6,1.2,1.1,1.7
	l0,0c0.1,0.1,0.2,0.2,0.4,0.4c0.2,0.2,0.4,0.4,0.7,0.7c0.2,0.3,0.5,0.5,0.7,0.6c0.2,0.2,0.3,0.3,0.3,0.4l0,0
	c0.7,0.7,1.3,1.6,1.7,2.7c0.4,1.1,0.6,2.3,0.6,3.9l0,0c0,1.5-0.2,2.8-0.5,4c-0.4,1.2-0.9,2.2-1.5,3C51.5,38.4,50.8,38.9,50,38.9z
	 M58.1,37.6l-2.4,0.3c-0.1,0-0.1-0.1-0.1-0.2l0,0l0-13.2V11.3c0-0.1,0-0.2,0.1-0.1l0,0l2.3,0.2c0.1,0,0.1,0.1,0.1,0.2l0,0l0,10.2
	l3.2,0.1v-10c0-0.1,0-0.1,0.1-0.1l0,0l2.3,0.3c0.1,0,0.1,0,0.1,0.1l0,0l0,12.3l0,12.3c0,0.1,0,0.2-0.1,0.2l0,0l-2.4,0.3
	c-0.1,0-0.1,0-0.1-0.2l0,0V26.3l-3.2,0.1v11C58.2,37.5,58.2,37.6,58.1,37.6L58.1,37.6z M65,36.6L65,36.6l1.3-12.2l1.3-11.9
	c0-0.1,0-0.1,0.1-0.1l0,0l3.1,0.3c0.1,0,0.1,0,0.1,0.1l0,0l1.3,11.5l1.2,11.2c0,0.1,0,0.2-0.1,0.2l0,0L71,36.1c-0.1,0-0.1,0-0.1-0.2
	l0,0l-0.2-2.4l-2.9,0.3l-0.2,2.5c0,0.1,0,0.2-0.1,0.2l0,0l-2.3,0.3C65,36.8,65,36.7,65,36.6z M69.1,20.4l-1,9.6l2-0.1l-0.9-9.5
	l-0.1-1.3L69.1,20.4z M77.2,35.4l-2.4,0.3c-0.1,0-0.1,0-0.1-0.1l0,0l0-11.1l0-11.1c0-0.1,0-0.1,0.1-0.1l0,0l4.1,0.4
	c1.3,0.1,2.3,0.8,3.1,2c0.7,1.2,1.1,2.7,1.1,4.6l0,0c0,1.4-0.2,2.6-0.6,3.6c-0.4,1-0.9,1.8-1.5,2.4c-0.6,0.6-1.3,0.9-2.1,0.9l0,0
	l-1.6,0.1v7.9C77.3,35.3,77.3,35.4,77.2,35.4L77.2,35.4z M77.3,17.3v6.2h1.6c0.5,0,0.8-0.3,1.2-0.9c0.3-0.6,0.5-1.4,0.5-2.4l0,0
	c0-0.8-0.1-1.4-0.4-2c-0.3-0.5-0.7-0.8-1.2-0.9l0,0L77.3,17.3z M91.3,33.7l-6.8,0.8c-0.1,0-0.1,0-0.1-0.1l0,0l0-10v-10
	c0-0.1,0-0.1,0.1-0.1l0,0l6.8,0.8c0.1,0,0.1,0,0.1,0.1l0,0v3c0,0.1,0,0.1-0.1,0.1l0,0L86.9,18v4.4l4.3,0.1c0.1,0,0.1,0,0.1,0.1l0,0
	l0,3c0,0.1,0,0.1-0.1,0.1l0,0l-4.4,0.1v5l4.4-0.3c0.1,0,0.1,0,0.1,0.1l0,0v3.1C91.4,33.7,91.3,33.7,91.3,33.7L91.3,33.7z"/>
</svg>
