<?xml version="1.0" encoding="utf-8"?>
<!-- Generator: Adobe Illustrator 25.2.1, SVG Export Plug-In . SVG Version: 6.00 Build 0)  -->
<svg version="1.1" id="Layer_1" xmlns="http://www.w3.org/2000/svg" xmlns:xlink="http://www.w3.org/1999/xlink" x="0px" y="0px"
	 viewBox="0 0 100 49" style="enable-background:new 0 0 100 49;" xml:space="preserve">
<style type="text/css">
	.st0{fill:#FFFFFF;stroke:#FFFFFF;stroke-width:0.9368;stroke-miterlimit:22.6907;stroke-opacity:0;}
</style>
<path class="st0" d="M10,45.5H7.4c-0.1,0-0.1-0.1-0.1-0.2l0,0v-9.7v-9.7l-3,2.2c-0.1,0.1-0.1,0-0.1-0.1l0,0l0-3.4
	c0-0.1,0-0.2,0.1-0.2l0,0l8.9-7.3c0.1-0.1,0.1,0,0.1,0.1l0,0v4.6c0,0.1,0,0.2-0.1,0.3l0,0l-3.1,1.9v10.7l0,10.7
	C10.1,45.4,10.1,45.5,10,45.5L10,45.5z M22.1,45.5h-7.6c-0.1,0-0.1-0.1-0.1-0.2l0,0V30.8l0-14.5c0-0.1,0-0.2,0.1-0.2l0,0l7.5-4.8
	c0.1,0,0.1,0,0.1,0.2l0,0V17c0,0.1,0,0.2-0.1,0.2l0,0l-4.8,2.4v7l4.8-1.7c0.1,0,0.1,0,0.1,0.2l0,0l0,5.5c0,0.1,0,0.2-0.1,0.2l0,0
	l-4.8,1.3v7.9l4.8-0.5c0.1,0,0.1,0.1,0.1,0.2l0,0v5.6C22.2,45.4,22.1,45.5,22.1,45.5L22.1,45.5z M25.7,45.5H23
	c-0.1,0-0.1-0.1-0.1-0.2l0,0l2.7-18.5L23,11c0-0.1,0-0.2,0.1-0.2l0,0l2.6-1.3c0.1,0,0.1,0,0.1,0.1l0,0l1.6,11.9L29,8.1
	c0-0.2,0.1-0.3,0.1-0.3l0,0l2.6-1c0.1,0,0.1,0,0.1,0.2l0,0l-2.6,18.8l2.6,19.4c0,0.2,0,0.3-0.1,0.3l0,0h-2.6c-0.1,0-0.1-0.1-0.1-0.3
	l0,0l-1.6-13.6l-1.6,13.6C25.8,45.4,25.7,45.5,25.7,45.5L25.7,45.5z M38.2,45.5h-2.6c-0.1,0-0.1-0.1-0.1-0.3l0,0V28.9V12.5l-3,0.8
	c-0.1,0-0.1-0.1-0.1-0.2l0,0l0-6.3c0-0.1,0-0.2,0.1-0.2l0,0l8.9-2.3c0.1,0,0.1,0.1,0.1,0.2l0,0v6.6c0,0.2,0,0.3-0.1,0.3l0,0
	l-3.1,0.5v16.6l0,16.6C38.3,45.4,38.3,45.5,38.2,45.5L38.2,45.5z M50,46.1L50,46.1c-0.8,0-1.6-0.6-2.3-1.7c-0.7-1.1-1.3-2.6-1.7-4.4
	c-0.4-1.8-0.6-3.8-0.6-6l0,0v-2.8c0-0.2,0-0.3,0.1-0.3l0,0l2.6-0.1c0.1,0,0.1,0.1,0.1,0.3l0,0V34c0,1.3,0.2,2.5,0.5,3.4
	c0.3,0.9,0.8,1.4,1.2,1.4l0,0c0.5,0,0.9-0.5,1.2-1.4c0.3-1,0.5-2.1,0.5-3.4l0,0c0-1.5-0.4-2.8-1.1-3.9l0,0c-0.2-0.4-0.6-0.9-1.2-1.7
	c-0.5-0.8-1-1.5-1.5-2.1l0,0c-0.9-1.3-1.5-2.9-1.9-4.8c-0.4-1.9-0.6-4.1-0.6-6.5l0,0c0-2.2,0.2-4.3,0.6-6.1s1-3.2,1.7-4.3
	c0.7-1.1,1.5-1.6,2.3-1.6l0,0c0.8,0,1.6,0.6,2.3,1.7C53,5.7,53.6,7.2,54,9c0.4,1.8,0.6,3.8,0.6,6l0,0v4.9c0,0.2,0,0.2-0.1,0.2l0,0
	L51.9,20c-0.1,0-0.1-0.1-0.1-0.2l0,0l0-4.9c0-1.4-0.2-2.6-0.5-3.5C50.9,10.5,50.5,10,50,10l0,0c-0.5,0-0.9,0.5-1.2,1.4
	c-0.3,1-0.5,2.1-0.5,3.4l0,0c0,1.3,0.1,2.4,0.3,3.3c0.2,0.9,0.6,1.7,1.2,2.5l0,0c0.1,0.1,0.2,0.3,0.5,0.6c0.2,0.3,0.5,0.6,0.7,1
	c0.3,0.4,0.5,0.7,0.7,1c0.2,0.3,0.3,0.5,0.4,0.5l0,0c0.8,1.1,1.4,2.5,1.9,4.2c0.5,1.6,0.7,3.6,0.7,6l0,0c0,2.3-0.2,4.3-0.6,6.1
	c-0.4,1.8-1,3.2-1.7,4.3C51.7,45.5,50.9,46.1,50,46.1z M59,45.5h-2.6c-0.1,0-0.1-0.1-0.1-0.3l0,0l0-20.5V4.2c0-0.2,0-0.2,0.1-0.2
	l0,0L59,4.4c0.1,0,0.1,0.1,0.1,0.3l0,0l0,16.1l3.5,0.5V5.4c0-0.2,0-0.2,0.1-0.2l0,0l2.6,0.7c0.1,0,0.1,0.1,0.1,0.3l0,0l0,19.5
	l0,19.5c0,0.2,0,0.3-0.1,0.3l0,0h-2.6c-0.1,0-0.1-0.1-0.1-0.3l0,0v-17l-3.5-0.3v17.3C59.1,45.4,59.1,45.5,59,45.5L59,45.5z
	 M66.6,45.2L66.6,45.2l1.5-19.1l1.5-18.5c0-0.1,0.1-0.2,0.1-0.2l0,0L73,8.8c0.1,0,0.1,0.1,0.1,0.3l0,0l1.4,18.4l1.4,17.7
	c0,0.2,0,0.2-0.1,0.2l0,0h-2.6c-0.1,0-0.1-0.1-0.1-0.3l0,0l-0.3-3.9l-3.2-0.2l-0.3,4c0,0.2-0.1,0.3-0.1,0.3l0,0h-2.6
	C66.6,45.5,66.6,45.4,66.6,45.2z M71.2,20.4l-1.1,15l2.2,0.2l-1-15.2l-0.1-2L71.2,20.4z M80.1,45.5h-2.6c-0.1,0-0.1-0.1-0.1-0.2l0,0
	l0-17l0-17c0-0.1,0-0.2,0.1-0.2l0,0l4.5,2.7c1.4,1,2.6,2.5,3.4,4.7c0.8,2.1,1.2,4.4,1.2,7l0,0c0,1.9-0.2,3.5-0.7,4.8
	c-0.4,1.3-1,2.2-1.7,2.8c-0.7,0.6-1.5,0.9-2.3,0.7l0,0l-1.8-0.4v11.9C80.3,45.4,80.2,45.5,80.1,45.5L80.1,45.5z M80.3,18.3v9.3
	l1.8,0.6c0.5,0.2,0.9-0.1,1.3-0.9c0.4-0.7,0.5-1.8,0.5-3.3l0,0c0-1.1-0.2-2.2-0.5-3.1c-0.3-0.9-0.8-1.5-1.4-1.8l0,0L80.3,18.3z
	 M95.8,45.5h-7.6c-0.1,0-0.1-0.1-0.1-0.2l0,0l0-13.5V18.2c0-0.1,0-0.1,0.1-0.1l0,0l7.5,6.3c0.1,0.1,0.1,0.1,0.1,0.2l0,0V28
	c0,0.1,0,0.1-0.1,0.1l0,0l-4.8-3.4v5.6l4.8,2.5c0.1,0,0.1,0.1,0.1,0.2l0,0l0,3.4c0,0.1,0,0.1-0.1,0.1l0,0l-4.8-1.8V41l4.8,0.8
	c0.1,0,0.1,0.1,0.1,0.2l0,0v3.4C95.9,45.4,95.8,45.5,95.8,45.5L95.8,45.5z"/>
</svg>
