<?xml version="1.0" encoding="utf-8"?>
<!-- Generator: Adobe Illustrator 25.2.1, SVG Export Plug-In . SVG Version: 6.00 Build 0)  -->
<svg version="1.1" id="Layer_1" xmlns="http://www.w3.org/2000/svg" xmlns:xlink="http://www.w3.org/1999/xlink" x="0px" y="0px"
	 viewBox="0 0 100 49" style="enable-background:new 0 0 100 49;" xml:space="preserve">
<style type="text/css">
	.st0{fill:#FFFFFF;stroke:#FFFFFF;stroke-width:0.9424;stroke-miterlimit:22.6907;stroke-opacity:0;}
</style>
<path class="st0" d="M16.2,35.7h-2.5c-0.1,0-0.1-0.1-0.2-0.2l0,0l-3.1-9.2l-3.2-9.2H4.3c-0.1,0-0.1-0.1-0.2-0.2l0,0L3,13.4
	c0-0.1,0-0.1,0-0.1l0,0h8.4c0.1,0,0.1,0,0.2,0.1l0,0l1.2,3.6c0,0.1,0,0.2,0,0.2l0,0H9.9l3.2,9.2l3.2,9.2
	C16.2,35.7,16.2,35.7,16.2,35.7L16.2,35.7z M27.5,35.7h-7.1c-0.1,0-0.1-0.1-0.2-0.2l0,0l-3.8-11.1l-3.8-11.1c0-0.1,0-0.1,0-0.1l0,0
	h7.1c0.1,0,0.1,0.1,0.1,0.2l0,0l1.2,3.6c0,0.1,0,0.1,0,0.1l0,0h-4.5l1.7,5h4.5c0.1,0,0.1,0,0.1,0.1l0,0l1.3,3.7c0,0.1,0,0.1,0,0.1
	l0,0h-4.5l1.9,5.7h4.5c0.1,0,0.1,0.1,0.2,0.2l0,0l1.3,3.7C27.6,35.7,27.6,35.7,27.5,35.7L27.5,35.7z M30.9,35.7h-2.5
	c-0.1,0-0.1-0.1-0.1-0.2l0,0L26.9,24l-6.1-10.7c0-0.1,0-0.1,0-0.1l0,0h2.5c0.1,0,0.1,0,0.2,0.1l0,0l4.1,7.7l-1.1-7.7
	c0-0.1,0-0.1,0.1-0.1l0,0h2.5c0.1,0,0.1,0,0.1,0.1l0,0L30.2,24l6.4,11.6c0.1,0.1,0.1,0.2,0,0.2l0,0h-2.5c-0.1,0-0.1-0.1-0.2-0.2l0,0
	l-4.3-8.3l1.3,8.3C31,35.7,31,35.7,30.9,35.7L30.9,35.7z M42.7,35.7h-2.5c-0.1,0-0.1-0.1-0.1-0.2l0,0l-3.2-9.2l-3.1-9.2h-2.9
	c-0.1,0-0.1-0.1-0.2-0.2l0,0l-1.2-3.6c0-0.1,0-0.1,0-0.1l0,0H38c0.1,0,0.1,0,0.2,0.1l0,0l1.2,3.6c0,0.1,0,0.2,0,0.2l0,0h-2.9
	l3.2,9.2l3.2,9.2C42.8,35.7,42.8,35.7,42.7,35.7L42.7,35.7z M54,36.1L54,36.1c-0.8,0-1.6-0.3-2.5-0.9c-0.9-0.6-1.6-1.4-2.4-2.4
	c-0.7-1-1.3-2-1.7-3.2l0,0l-0.5-1.5c0-0.1,0-0.2,0.1-0.2l0,0h2.5c0.1,0,0.1,0.1,0.2,0.2l0,0l0.5,1.5c0.2,0.7,0.6,1.3,1.1,1.8
	c0.5,0.5,1,0.8,1.4,0.8l0,0c0.5,0,0.8-0.3,0.9-0.8c0.2-0.5,0.1-1.1-0.1-1.8l0,0c-0.3-0.8-0.9-1.5-1.8-2.1l0,0
	c-0.3-0.2-0.8-0.5-1.4-0.9c-0.6-0.4-1.2-0.8-1.8-1.2l0,0c-1.1-0.7-2-1.6-2.7-2.6c-0.8-1-1.4-2.2-1.8-3.5l0,0
	c-0.4-1.2-0.6-2.3-0.5-3.3c0.1-0.9,0.3-1.7,0.8-2.3c0.5-0.6,1.1-0.8,1.9-0.8l0,0c0.8,0,1.6,0.3,2.5,0.8c0.8,0.6,1.6,1.3,2.3,2.3
	c0.7,1,1.3,2,1.7,3.2l0,0l0.9,2.6c0,0.1,0,0.1,0,0.1l0,0H51c-0.1,0-0.1,0-0.1-0.1l0,0l-0.9-2.6c-0.3-0.8-0.6-1.4-1.1-1.8
	c-0.5-0.5-0.9-0.7-1.4-0.7l0,0c-0.5,0-0.8,0.2-0.9,0.7c-0.1,0.5-0.1,1.1,0.1,1.8l0,0c0.2,0.7,0.5,1.3,0.9,1.8
	c0.4,0.5,0.9,0.9,1.6,1.4l0,0c0.1,0.1,0.3,0.2,0.6,0.3c0.3,0.2,0.6,0.4,0.9,0.5c0.3,0.2,0.6,0.4,0.8,0.5c0.3,0.2,0.4,0.2,0.5,0.3
	l0,0c0.9,0.6,1.8,1.3,2.5,2.2c0.7,0.9,1.3,2,1.7,3.2l0,0c0.4,1.2,0.6,2.3,0.5,3.3c0,1-0.3,1.8-0.8,2.3C55.4,35.8,54.8,36.1,54,36.1z
	 M62.3,35.7h-2.5c-0.1,0-0.1-0.1-0.1-0.2l0,0l-3.8-11.1l-3.8-11.1c0-0.1,0-0.1,0.1-0.1l0,0h2.5c0.1,0,0.1,0,0.2,0.1l0,0l3,8.8h3.3
	l-3-8.8c0-0.1,0-0.1,0-0.1l0,0h2.5c0.1,0,0.1,0,0.2,0.1l0,0l3.8,11.1l3.8,11.1c0,0.1,0,0.2-0.1,0.2l0,0h-2.5c-0.1,0-0.1-0.1-0.2-0.2
	l0,0l-3.2-9.5h-3.3l3.2,9.5C62.4,35.7,62.4,35.7,62.3,35.7L62.3,35.7z M69.4,35.6L69.4,35.6L67,24.5l-2.4-11.1c0-0.1,0-0.1,0.1-0.1
	l0,0h3.2c0.1,0,0.1,0,0.2,0.1l0,0l5.1,11.1l5.1,11.1c0.1,0.1,0.1,0.2,0,0.2l0,0h-2.5c-0.1,0-0.1-0.1-0.2-0.2l0,0l-1.1-2.4h-3
	l0.6,2.4c0,0.1,0,0.2-0.1,0.2l0,0h-2.5C69.5,35.7,69.5,35.7,69.4,35.6z M68.7,20.7l2.1,9.1h2.1l-4-9.1l-0.6-1.2L68.7,20.7z
	 M82.3,35.7h-2.5c-0.1,0-0.1-0.1-0.2-0.2l0,0l-3.8-11.1l-3.8-11.1c0-0.1,0-0.1,0-0.1l0,0h4.2c1.4,0,2.6,0.6,3.8,1.8
	c1.2,1.2,2.1,2.8,2.8,4.9l0,0c0.5,1.5,0.8,2.9,0.8,4c0,1.1-0.3,2-0.7,2.6c-0.5,0.6-1.1,0.9-1.9,0.9l0,0h-1.7l2.8,8.1
	C82.3,35.7,82.3,35.7,82.3,35.7L82.3,35.7z M76,17.1l2.2,6.4h1.7c0.5,0,0.8-0.3,0.9-1c0.1-0.6,0-1.5-0.4-2.6l0,0
	c-0.3-0.8-0.7-1.5-1.2-2.1c-0.5-0.5-1-0.8-1.6-0.8l0,0L76,17.1z M97,35.7h-7.1c-0.1,0-0.1-0.1-0.1-0.2l0,0l-3.8-11.1l-3.8-11.1
	c0-0.1,0-0.1,0-0.1l0,0h7.1c0.1,0,0.1,0.1,0.2,0.2l0,0l1.2,3.6c0,0.1,0,0.1,0,0.1l0,0h-4.5l1.7,5h4.5c0.1,0,0.1,0,0.2,0.1l0,0
	l1.3,3.7c0,0.1,0,0.1,0,0.1l0,0h-4.5l1.9,5.7h4.5c0.1,0,0.1,0.1,0.1,0.2l0,0l1.3,3.7C97.1,35.7,97,35.7,97,35.7L97,35.7z"/>
</svg>
