<?xml version="1.0" encoding="utf-8"?>
<!-- Generator: Adobe Illustrator 25.2.1, SVG Export Plug-In . SVG Version: 6.00 Build 0)  -->
<svg version="1.1" id="Layer_1" xmlns="http://www.w3.org/2000/svg" xmlns:xlink="http://www.w3.org/1999/xlink" x="0px" y="0px"
	 viewBox="0 0 100 49" style="enable-background:new 0 0 100 49;" xml:space="preserve">
<style type="text/css">
	.st0{fill:#FFFFFF;stroke:#FFFFFF;stroke-width:0.8215;stroke-miterlimit:22.6907;stroke-opacity:0;}
</style>
<path class="st0" d="M10.4,32.6H7.8c-0.1,0-0.1,0-0.1-0.1l0,0v-6.7v-6.7h-3c-0.1,0-0.1,0-0.1-0.1l0,0l0-2.6c0-0.1,0-0.1,0.1-0.1l0,0
	h8.8c0.1,0,0.1,0,0.1,0.1l0,0v2.6c0,0.1,0,0.1-0.1,0.1l0,0h-3v6.7l0,6.7C10.5,32.6,10.4,32.6,10.4,32.6L10.4,32.6z M22.3,32.6h-7.5
	c-0.1,0-0.1,0-0.1-0.1l0,0v-8l0-8c0-0.1,0-0.1,0.1-0.1l0,0h7.5c0.1,0,0.1,0,0.1,0.1l0,0v2.6c0,0.1,0,0.1-0.1,0.1l0,0h-4.8v3.6h4.8
	c0.1,0,0.1,0,0.1,0.1l0,0l0,2.6c0,0.1,0,0.1-0.1,0.1l0,0h-4.8v4.1h4.8c0.1,0,0.1,0,0.1,0.1l0,0L22.3,32.6
	C22.4,32.6,22.4,32.6,22.3,32.6L22.3,32.6z M25.9,32.6h-2.6c-0.1,0-0.1,0-0.1-0.1l0,0l2.6-8.3l-2.6-7.7c0-0.1,0-0.1,0.1-0.1l0,0h2.6
	c0.1,0,0.1,0,0.1,0.1l0,0l1.6,5.6l1.6-5.6c0-0.1,0.1-0.1,0.1-0.1l0,0h2.6c0.1,0,0.1,0,0.1,0.1l0,0l-2.6,7.7l2.6,8.4
	c0,0.1,0,0.1-0.1,0.1l0,0h-2.6c-0.1,0-0.1,0-0.1-0.1l0,0l-1.6-6l-1.6,6C26,32.6,26,32.6,25.9,32.6L25.9,32.6z M38.3,32.6h-2.6
	c-0.1,0-0.1,0-0.1-0.1l0,0v-6.7v-6.7h-3c-0.1,0-0.1,0-0.1-0.1l0,0l0-2.6c0-0.1,0-0.1,0.1-0.1l0,0h8.8c0.1,0,0.1,0,0.1,0.1l0,0v2.6
	c0,0.1,0,0.1-0.1,0.1l0,0h-3v6.7l0,6.7C38.4,32.6,38.4,32.6,38.3,32.6L38.3,32.6z M50,32.9L50,32.9c-0.8,0-1.6-0.2-2.3-0.7
	c-0.7-0.4-1.3-1-1.7-1.7c-0.4-0.7-0.6-1.5-0.6-2.3l0,0v-1.1c0-0.1,0-0.1,0.1-0.1l0,0h2.6c0.1,0,0.1,0,0.1,0.1l0,0v1.1
	c0,0.5,0.2,0.9,0.5,1.3c0.3,0.4,0.8,0.6,1.2,0.6l0,0c0.5,0,0.9-0.2,1.2-0.6c0.3-0.4,0.5-0.8,0.5-1.3l0,0c0-0.6-0.4-1.1-1.1-1.5l0,0
	c-0.2-0.1-0.6-0.4-1.2-0.7c-0.5-0.3-1-0.6-1.5-0.8l0,0c-0.9-0.5-1.5-1.1-1.9-1.9c-0.4-0.7-0.6-1.6-0.6-2.5l0,0
	c0-0.9,0.2-1.7,0.6-2.4c0.4-0.7,1-1.2,1.6-1.6c0.7-0.4,1.4-0.6,2.3-0.6l0,0c0.8,0,1.6,0.2,2.3,0.6c0.7,0.4,1.2,1,1.6,1.7
	c0.4,0.7,0.6,1.5,0.6,2.3l0,0v1.9c0,0.1,0,0.1-0.1,0.1l0,0h-2.6c-0.1,0-0.1,0-0.1-0.1l0,0l0-1.9c0-0.5-0.2-1-0.5-1.3
	c-0.3-0.3-0.7-0.5-1.2-0.5l0,0c-0.5,0-0.9,0.2-1.2,0.5c-0.3,0.4-0.5,0.8-0.5,1.3l0,0c0,0.5,0.1,0.9,0.3,1.3c0.2,0.3,0.6,0.7,1.2,1
	l0,0c0.1,0,0.2,0.1,0.5,0.2c0.2,0.1,0.5,0.3,0.7,0.4c0.3,0.2,0.5,0.3,0.7,0.4c0.2,0.1,0.3,0.2,0.4,0.2l0,0c0.8,0.4,1.4,1,1.8,1.6
	c0.4,0.6,0.7,1.4,0.7,2.3l0,0c0,0.9-0.2,1.7-0.6,2.4c-0.4,0.7-1,1.3-1.7,1.7C51.6,32.7,50.9,32.9,50,32.9z M58.9,32.6h-2.6
	c-0.1,0-0.1,0-0.1-0.1l0,0l0-8v-8c0-0.1,0-0.1,0.1-0.1l0,0h2.6c0.1,0,0.1,0,0.1,0.1l0,0l0,6.4h3.5v-6.4c0-0.1,0-0.1,0.1-0.1l0,0h2.6
	c0.1,0,0.1,0,0.1,0.1l0,0l0,8l0,8c0,0.1,0,0.1-0.1,0.1l0,0h-2.6c-0.1,0-0.1,0-0.1-0.1l0,0v-6.9H59v6.9C59,32.6,59,32.6,58.9,32.6
	L58.9,32.6z M66.5,32.5L66.5,32.5l1.4-8l1.4-8c0-0.1,0.1-0.1,0.1-0.1l0,0h3.4c0.1,0,0.1,0,0.1,0.1l0,0l1.4,8l1.4,8
	c0,0.1,0,0.1-0.1,0.1l0,0H73c-0.1,0-0.1,0-0.1-0.1l0,0l-0.3-1.7h-3.2l-0.3,1.7c0,0.1-0.1,0.1-0.1,0.1l0,0h-2.6
	C66.5,32.6,66.5,32.6,66.5,32.5z M71,21.7l-1,6.6h2.2l-1-6.6l-0.1-0.9L71,21.7z M79.9,32.6h-2.6c-0.1,0-0.1,0-0.1-0.1l0,0l0-8l0-8
	c0-0.1,0-0.1,0.1-0.1l0,0h4.5c1.4,0,2.6,0.4,3.4,1.3c0.8,0.9,1.2,2.1,1.2,3.5l0,0c0,1.1-0.2,2.1-0.7,2.9c-0.4,0.8-1,1.4-1.7,1.9
	s-1.5,0.7-2.3,0.7l0,0H80v5.9C80,32.6,80,32.6,79.9,32.6L79.9,32.6z M80,19.2v4.6h1.8c0.5,0,0.9-0.2,1.3-0.7
	c0.4-0.5,0.5-1.1,0.5-1.8l0,0c0-0.6-0.2-1.1-0.5-1.5c-0.3-0.4-0.8-0.6-1.3-0.6l0,0L80,19.2z M95.4,32.6h-7.5c-0.1,0-0.1,0-0.1-0.1
	l0,0l0-8v-8c0-0.1,0-0.1,0.1-0.1l0,0h7.5c0.1,0,0.1,0,0.1,0.1l0,0v2.6c0,0.1,0,0.1-0.1,0.1l0,0h-4.8v3.6h4.8c0.1,0,0.1,0,0.1,0.1
	l0,0l0,2.6c0,0.1,0,0.1-0.1,0.1l0,0h-4.8v4.1h4.8c0.1,0,0.1,0,0.1,0.1l0,0L95.4,32.6C95.5,32.6,95.4,32.6,95.4,32.6L95.4,32.6z"/>
</svg>
