<?xml version="1.0" encoding="utf-8"?>
<!-- Generator: Adobe Illustrator 25.2.1, SVG Export Plug-In . SVG Version: 6.00 Build 0)  -->
<svg version="1.1" id="Layer_1" xmlns="http://www.w3.org/2000/svg" xmlns:xlink="http://www.w3.org/1999/xlink" x="0px" y="0px"
	 viewBox="0 0 100 49" style="enable-background:new 0 0 100 49;" xml:space="preserve">
<style type="text/css">
	.st0{fill:#FFFFFF;stroke:#FFFFFF;stroke-width:0.9198;stroke-miterlimit:22.6907;stroke-opacity:0;}
</style>
<path class="st0" d="M9.2,35.8H6.8c-0.1,0-0.1-0.1,0-0.2l0,0l3-9.3l3-9.3H10c-0.1,0-0.1-0.1,0-0.2l0,0l1.2-3.7
	c0-0.1,0.1-0.2,0.1-0.2l0,0h8c0.1,0,0.1,0.1,0.1,0.2l0,0l-1.2,3.7c0,0.1-0.1,0.2-0.1,0.2l0,0h-2.7l-2.9,9.3l-3,9.3
	C9.3,35.7,9.2,35.8,9.2,35.8L9.2,35.8z M20,35.8h-6.7c-0.1,0-0.1-0.1,0-0.2l0,0l3.6-11.1l3.6-11.1c0-0.1,0.1-0.2,0.1-0.2l0,0h6.7
	c0.1,0,0.1,0.1,0,0.2l0,0L26,17c0,0.1-0.1,0.2-0.1,0.2l0,0h-4.3l-1.6,5h4.3c0.1,0,0.1,0.1,0,0.2l0,0L23.1,26c0,0.1-0.1,0.2-0.1,0.2
	l0,0h-4.3l-1.8,5.7h4.3c0.1,0,0.1,0.1,0,0.2l0,0L20,35.8C20.1,35.7,20.1,35.8,20,35.8L20,35.8z M23.2,35.8h-2.4
	c-0.1,0-0.1-0.1,0-0.2l0,0L27,24.1l1.1-10.6c0-0.1,0-0.2,0.1-0.2l0,0h2.4c0.1,0,0.1,0.1,0.1,0.2l0,0l-1.1,7.7l3.9-7.7
	c0-0.1,0.1-0.2,0.2-0.2l0,0H36c0.1,0,0.1,0.1,0,0.2l0,0l-5.7,10.6l-1.4,11.6c0,0.1,0,0.2-0.1,0.2l0,0h-2.4c-0.1,0-0.1-0.1-0.1-0.2
	l0,0l1.3-8.4l-4.1,8.4C23.3,35.7,23.3,35.8,23.2,35.8L23.2,35.8z M34.5,35.8h-2.4c-0.1,0-0.1-0.1,0-0.2l0,0l3-9.3l3-9.3h-2.7
	c-0.1,0-0.1-0.1-0.1-0.2l0,0l1.2-3.7c0-0.1,0.1-0.2,0.1-0.2l0,0h8c0.1,0,0.1,0.1,0.1,0.2l0,0l-1.2,3.7c0,0.1-0.1,0.2-0.1,0.2l0,0
	h-2.7l-3,9.3l-3,9.3C34.6,35.7,34.5,35.8,34.5,35.8L34.5,35.8z M45,36.1L45,36.1c-0.8,0-1.3-0.3-1.7-0.9c-0.5-0.7-0.8-1.4-0.8-2.4
	c-0.1-1,0.1-2,0.4-3.3l0,0l0.4-1.5c0-0.1,0.1-0.2,0.2-0.2l0,0h2.4c0.1,0,0.1,0.1,0,0.2l0,0l-0.4,1.5c-0.2,0.7-0.3,1.3-0.1,1.8
	c0.1,0.5,0.4,0.8,0.9,0.8l0,0c0.4,0,0.9-0.2,1.4-0.8c0.5-0.5,0.9-1.1,1.1-1.8l0,0c0.2-0.8,0.1-1.5-0.3-2.1l0,0
	c-0.1-0.2-0.4-0.5-0.8-0.9c-0.3-0.4-0.6-0.8-1-1.1l0,0c-0.5-0.7-0.9-1.5-0.9-2.6c0-1.1,0.2-2.2,0.5-3.5l0,0c0.4-1.2,1-2.3,1.6-3.3
	c0.6-1,1.4-1.7,2.3-2.3c0.8-0.6,1.5-0.8,2.3-0.8l0,0c0.8,0,1.3,0.2,1.7,0.8c0.4,0.6,0.6,1.4,0.8,2.3c0.1,1-0.1,2-0.5,3.3l0,0
	l-0.9,2.7c0,0.1-0.1,0.2-0.1,0.2l0,0h-2.4c-0.1,0-0.1-0.1,0-0.2l0,0l0.9-2.7c0.2-0.7,0.3-1.4,0.1-1.9c-0.1-0.5-0.4-0.7-0.9-0.7l0,0
	c-0.4,0-0.9,0.2-1.4,0.7c-0.4,0.5-0.8,1.1-1,1.8l0,0c-0.2,0.7-0.3,1.3-0.3,1.8c0,0.5,0.2,0.9,0.6,1.4l0,0c0.1,0.1,0.1,0.2,0.3,0.3
	c0.1,0.2,0.3,0.3,0.4,0.6c0.2,0.2,0.3,0.4,0.4,0.6c0.1,0.2,0.2,0.2,0.2,0.3l0,0c0.5,0.6,0.9,1.3,1,2.2c0.1,0.9,0,2-0.4,3.3l0,0
	c-0.4,1.2-1,2.4-1.6,3.3c-0.6,1-1.4,1.8-2.3,2.4C46.5,35.8,45.7,36.1,45,36.1z M53.1,35.8h-2.4c-0.1,0-0.1-0.1,0-0.2l0,0l3.6-11.1
	l3.6-11.1c0-0.1,0.1-0.2,0.1-0.2l0,0h2.4c0.1,0,0.1,0.1,0.1,0.2l0,0l-2.9,8.8h3.1l2.8-8.8c0-0.1,0.1-0.2,0.1-0.2l0,0H66
	c0.1,0,0.1,0.1,0.1,0.2l0,0l-3.6,11.1l-3.6,11.1c0,0.1-0.1,0.2-0.2,0.2l0,0h-2.4c-0.1,0-0.1-0.1,0-0.2l0,0l3-9.5h-3.1l-3,9.5
	C53.2,35.7,53.1,35.8,53.1,35.8L53.1,35.8z M59.9,35.6L59.9,35.6l4.9-11.1l4.9-11.1c0-0.1,0.1-0.2,0.1-0.2l0,0h3
	c0.1,0,0.1,0.1,0.1,0.2l0,0l-2.3,11.1l-2.4,11.1c0,0.1-0.1,0.2-0.1,0.2l0,0h-2.4c-0.1,0-0.1-0.1,0-0.2l0,0l0.5-2.4h-2.8l-1,2.4
	c-0.1,0.1-0.1,0.2-0.2,0.2l0,0h-2.4C59.9,35.8,59.9,35.7,59.9,35.6z M68.9,20.6L65,29.7h2.1l2.1-9.1l0.2-1.2L68.9,20.6z M72,35.8
	h-2.4c-0.1,0-0.1-0.1,0-0.2l0,0l3.6-11.1l3.7-11.1c0-0.1,0.1-0.2,0.1-0.2l0,0h4c1.3,0,2.2,0.6,2.5,1.8s0.2,2.8-0.4,5l0,0
	c-0.5,1.5-1.1,2.8-1.8,4c-0.8,1.1-1.5,2-2.4,2.6c-0.9,0.6-1.6,0.9-2.4,0.9l0,0h-1.6l-2.6,8.1C72.1,35.7,72,35.8,72,35.8L72,35.8z
	 M78.2,17.1L76,23.5h1.6c0.4,0,1-0.3,1.5-1c0.5-0.7,1-1.5,1.3-2.5l0,0c0.3-0.8,0.3-1.5,0.2-2.1c-0.1-0.6-0.4-0.8-1-0.8l0,0
	L78.2,17.1z M86,35.8h-6.8c-0.1,0-0.1-0.1,0-0.2l0,0l3.6-11.1l3.6-11.1c0-0.1,0.1-0.2,0.1-0.2l0,0h6.7c0.1,0,0.1,0.1,0,0.2l0,0
	L92,17c0,0.1-0.1,0.2-0.1,0.2l0,0h-4.3l-1.6,5h4.3c0.1,0,0.1,0.1,0,0.2l0,0L89,26c0,0.1-0.1,0.2-0.1,0.2l0,0h-4.3l-1.8,5.7h4.3
	c0.1,0,0.1,0.1,0,0.2l0,0l-1.2,3.7C86.1,35.7,86.1,35.8,86,35.8L86,35.8z"/>
</svg>
