<?xml version="1.0" encoding="utf-8"?>
<!-- Generator: Adobe Illustrator 25.2.1, SVG Export Plug-In . SVG Version: 6.00 Build 0)  -->
<svg version="1.1" id="Layer_1" xmlns="http://www.w3.org/2000/svg" xmlns:xlink="http://www.w3.org/1999/xlink" x="0px" y="0px"
	 viewBox="0 0 100 49" style="enable-background:new 0 0 100 49;" xml:space="preserve">
<style type="text/css">
	.st0{fill:#FFFFFF;stroke:#FFFFFF;stroke-width:0.7622;stroke-miterlimit:22.6907;stroke-opacity:0;}
</style>
<path class="st0" d="M11,42.3H8.4c-0.1,0-0.1-0.1-0.1-0.2l0,0v-8.8v-8.8l-3,0.1c-0.1,0-0.1,0-0.1-0.1l0,0l0-3.4c0-0.1,0-0.1,0.1-0.1
	l0,0l8.7-1.3c0.1,0,0.1,0,0.1,0.1l0,0v3.7c0,0.1,0,0.2-0.1,0.2l0,0l-3,0.6v9l0,9C11.1,42.2,11,42.3,11,42.3L11,42.3z M22.7,42.3
	h-7.4c-0.1,0-0.1-0.1-0.1-0.2l0,0V30.7l0-11.4c0-0.1,0-0.1,0.1-0.2l0,0l7.3-3c0.1,0,0.1,0,0.1,0.1l0,0v4.2c0,0.1,0,0.2-0.1,0.2l0,0
	L18,22.4v5.4l4.7-1.2c0.1,0,0.1,0,0.1,0.1l0,0l0,4.2c0,0.1,0,0.2-0.1,0.2l0,0L18,32v6l4.7-0.3c0.1,0,0.1,0,0.1,0.2l0,0v4.3
	C22.8,42.2,22.8,42.3,22.7,42.3L22.7,42.3z M26.2,42.3h-2.6c-0.1,0-0.1-0.1-0.1-0.2l0,0l2.6-14.2l-2.6-11.9c0-0.1,0-0.2,0.1-0.2l0,0
	l2.6-1.2c0.1,0,0.1,0,0.1,0.1l0,0l1.5,9l1.6-10.5c0-0.1,0.1-0.2,0.1-0.2l0,0l2.5-1.2c0.1,0,0.1,0,0.1,0.1l0,0l-2.6,15.1L32.3,42
	c0,0.1,0,0.2-0.1,0.2l0,0h-2.6c-0.1,0-0.1-0.1-0.1-0.2l0,0L28,31.5l-1.6,10.6C26.4,42.2,26.3,42.3,26.2,42.3L26.2,42.3z M38.5,42.3
	h-2.6c-0.1,0-0.1-0.1-0.1-0.2l0,0V28.8V15.6l-3,1.1c-0.1,0-0.1,0-0.1-0.2l0,0l0-5c0-0.1,0-0.2,0.1-0.2l0,0l8.7-3.3
	c0.1,0,0.1,0,0.1,0.2l0,0v5.5c0,0.2,0,0.3-0.1,0.3l0,0l-3,0.8v13.7l0,13.7C38.6,42.2,38.6,42.3,38.5,42.3L38.5,42.3z M50,42.8
	L50,42.8c-0.8,0-1.6-0.5-2.2-1.4c-0.7-0.9-1.2-2.2-1.6-3.7c-0.4-1.5-0.6-3.2-0.6-5.1l0,0v-2.3c0-0.2,0-0.3,0.1-0.3l0,0l2.6-0.1
	c0.1,0,0.1,0.1,0.1,0.2l0,0v2.3c0,1.1,0.2,2.1,0.5,2.9c0.3,0.8,0.7,1.2,1.2,1.2l0,0c0.5,0,0.9-0.4,1.2-1.2c0.3-0.8,0.5-1.8,0.5-2.9
	l0,0c0-1.3-0.4-2.3-1.1-3.3l0,0c-0.2-0.3-0.6-0.8-1.1-1.4c-0.5-0.6-1-1.2-1.5-1.8l0,0c-0.8-1-1.5-2.4-1.9-4
	c-0.4-1.6-0.6-3.4-0.6-5.5l0,0c0-1.9,0.2-3.6,0.6-5.1s1-2.8,1.6-3.7c0.7-0.9,1.4-1.4,2.2-1.4l0,0c0.8,0,1.6,0.5,2.2,1.4
	c0.7,1,1.2,2.2,1.6,3.8c0.4,1.6,0.6,3.3,0.6,5.1l0,0v4.1c0,0.1,0,0.2-0.1,0.2l0,0l-2.6-0.2c-0.1,0-0.1-0.1-0.1-0.2l0,0l0-4.2
	c0-1.2-0.2-2.2-0.5-2.9c-0.3-0.8-0.7-1.1-1.2-1.1l0,0c-0.5,0-0.9,0.4-1.2,1.2c-0.3,0.8-0.5,1.7-0.5,2.8l0,0c0,1.1,0.1,2.1,0.3,2.8
	c0.2,0.7,0.6,1.5,1.2,2.1l0,0c0.1,0.1,0.2,0.3,0.5,0.5c0.2,0.3,0.4,0.6,0.7,0.9c0.3,0.3,0.5,0.6,0.7,0.9c0.2,0.2,0.3,0.4,0.4,0.5
	l0,0c0.8,1,1.4,2.2,1.8,3.6c0.4,1.4,0.7,3.1,0.7,5.1l0,0c0,1.9-0.2,3.6-0.6,5.2c-0.4,1.5-1,2.8-1.6,3.7C51.6,42.3,50.9,42.8,50,42.8
	z M58.8,42.3h-2.6c-0.1,0-0.1-0.1-0.1-0.2l0,0l0-17.2V7.6c0-0.1,0-0.2,0.1-0.2l0,0l2.5,0.7c0.1,0,0.1,0.1,0.1,0.2l0,0l0,13.3
	l3.4,0.7V9.4c0-0.1,0-0.2,0.1-0.2l0,0l2.5,1c0.1,0,0.1,0.1,0.1,0.2l0,0l0,15.7l0,15.7c0,0.1,0,0.2-0.1,0.2l0,0h-2.6
	c-0.1,0-0.1-0.1-0.1-0.2l0,0V28.1l-3.4-0.5V42C58.9,42.2,58.9,42.3,58.8,42.3L58.8,42.3z M66.2,42L66.2,42l1.4-15.2l1.4-14.5
	c0-0.1,0.1-0.1,0.1-0.1l0,0l3.3,1.7c0.1,0,0.1,0.1,0.1,0.2l0,0L74,28.4l1.3,13.7c0,0.1,0,0.2-0.1,0.2l0,0h-2.5
	c-0.1,0-0.1-0.1-0.1-0.2l0,0l-0.3-3l-3.1-0.2L69,42c0,0.1-0.1,0.2-0.1,0.2l0,0h-2.5C66.2,42.3,66.2,42.2,66.2,42z M70.7,22.7
	l-1,11.7l2.2,0.3l-0.9-11.9l-0.1-1.6L70.7,22.7z M79.4,42.3h-2.6c-0.1,0-0.1-0.1-0.1-0.2l0,0l0-13l0-12.9c0-0.1,0-0.1,0.1-0.1l0,0
	l4.4,1.9c1.4,0.5,2.5,1.6,3.3,3.1c0.8,1.5,1.2,3.2,1.2,5.3l0,0c0,1.5-0.2,2.8-0.6,3.9c-0.4,1.1-1,1.9-1.7,2.4s-1.4,0.7-2.2,0.6l0,0
	L79.5,33v9C79.5,42.2,79.5,42.3,79.4,42.3L79.4,42.3z M79.5,21.6v7.1l1.7,0.4c0.5,0.1,0.9-0.2,1.3-0.8c0.4-0.6,0.5-1.5,0.5-2.6l0,0
	c0-0.9-0.2-1.7-0.5-2.3c-0.3-0.7-0.8-1.1-1.3-1.3l0,0L79.5,21.6z M94.7,42.3h-7.4c-0.1,0-0.1-0.1-0.1-0.2l0,0l0-11v-11
	c0-0.1,0-0.1,0.1-0.1l0,0l7.3,0.9c0.1,0,0.1,0,0.1,0.1l0,0v3.4c0,0.1,0,0.1-0.1,0.1l0,0L90,24.3v4.9l4.7,0.2c0.1,0,0.1,0,0.1,0.1
	l0,0l0,3.5c0,0.1,0,0.1-0.1,0.1l0,0L90,33v5.4l4.7,0.1c0.1,0,0.1,0.1,0.1,0.2l0,0v3.5C94.8,42.2,94.7,42.3,94.7,42.3L94.7,42.3z"/>
</svg>
