<?xml version="1.0" encoding="utf-8"?>
<!-- Generator: Adobe Illustrator 25.2.1, SVG Export Plug-In . SVG Version: 6.00 Build 0)  -->
<svg version="1.1" id="Layer_1" xmlns="http://www.w3.org/2000/svg" xmlns:xlink="http://www.w3.org/1999/xlink" x="0px" y="0px"
	 viewBox="0 0 100 49" style="enable-background:new 0 0 100 49;" xml:space="preserve">
<style type="text/css">
	.st0{fill:#FFFFFF;stroke:#FFFFFF;stroke-width:0.7697;stroke-miterlimit:22.6907;stroke-opacity:0;}
</style>
<path class="st0" d="M15.2,40.9l-2.3,0c-0.1,0-0.1,0-0.1-0.1l0,0v-6.7v-6.7l-2.6,0c-0.1,0-0.1,0-0.1-0.1l0,0l0-2.6
	c0-0.1,0-0.1,0.1-0.1l0,0l7.7-0.2c0.1,0,0.1,0,0.1,0.1l0,0v2.6c0,0.1,0,0.1-0.1,0.1l0,0l-2.7,0.1v6.7l0,6.7
	C15.3,40.9,15.3,40.9,15.2,40.9L15.2,40.9z M25.7,40.4l-6.6,0.4c-0.1,0-0.1,0-0.1-0.1l0,0v-8l0-8c0-0.1,0-0.1,0.1-0.1l0,0l6.5-0.4
	c0.1,0,0.1,0,0.1,0.1l0,0v2.6c0,0.1,0,0.1-0.1,0.1l0,0l-4.2,0.3v3.6l4.2-0.3c0.1,0,0.1,0,0.1,0.1l0,0l0,2.6c0,0.1,0,0.1-0.1,0.1l0,0
	l-4.2,0.3v4.1l4.2-0.3c0.1,0,0.1,0,0.1,0.1l0,0v2.7C25.8,40.3,25.8,40.3,25.7,40.4L25.7,40.4z M28.8,40.1l-2.3,0.2
	c-0.1,0-0.1,0-0.1-0.1l0,0l2.3-8.6l-2.3-7.5c0-0.1,0-0.1,0.1-0.1l0,0l2.3-0.2c0.1,0,0.1,0,0.1,0.1l0,0l1.4,5.4l1.4-5.7
	c0-0.1,0.1-0.1,0.1-0.1l0,0l2.3-0.3c0.1,0,0.1,0,0.1,0.1l0,0l-2.3,7.9l2.3,8.1c0,0.1,0,0.1-0.1,0.1l0,0l-2.3,0.3
	c-0.1,0-0.1,0-0.1-0.1l0,0l-1.4-5.9L29,39.9C28.9,40,28.9,40.1,28.8,40.1L28.8,40.1z M39.8,38.7L37.4,39c-0.1,0-0.1,0-0.1-0.1l0,0
	v-6.7v-6.7L34.7,26c-0.1,0-0.1,0-0.1-0.1l0,0l0-2.6c0-0.1,0-0.1,0.1-0.1l0,0l7.7-1.2c0.1,0,0.1,0,0.1,0.1l0,0v2.6
	c0,0.1,0,0.1-0.1,0.1l0,0l-2.7,0.4v6.7l0,6.6C39.8,38.6,39.8,38.7,39.8,38.7L39.8,38.7z M50,37L50,37c-0.7,0.2-1.4,0.1-2-0.2
	c-0.6-0.3-1.1-0.8-1.5-1.4C46.2,34.7,46,34,46,33.1l0,0v-1.1c0-0.1,0-0.1,0.1-0.1l0,0l2.3-0.4c0.1,0,0.1,0,0.1,0.1l0,0v1.1
	c0,0.5,0.1,0.9,0.4,1.2c0.3,0.3,0.7,0.4,1.1,0.3l0,0c0.4-0.1,0.8-0.3,1.1-0.8c0.3-0.5,0.4-0.9,0.4-1.4l0,0c0-0.6-0.3-1-1-1.3l0,0
	c-0.2-0.1-0.6-0.2-1-0.4c-0.5-0.2-0.9-0.4-1.3-0.6l0,0c-0.7-0.3-1.3-0.9-1.7-1.6c-0.4-0.7-0.5-1.5-0.5-2.5l0,0
	c0-0.9,0.2-1.7,0.6-2.5c0.4-0.8,0.8-1.4,1.4-1.9c0.6-0.5,1.3-0.9,2-1l0,0c0.7-0.1,1.4-0.1,2,0.2c0.6,0.3,1.1,0.7,1.4,1.3
	c0.4,0.6,0.6,1.3,0.6,2.2l0,0V26c0,0.1,0,0.1-0.1,0.1l0,0l-2.3,0.5c-0.1,0-0.1,0-0.1-0.1l0,0l0-1.9c0-0.5-0.1-1-0.4-1.2
	c-0.3-0.3-0.7-0.4-1.1-0.3l0,0c-0.4,0.1-0.8,0.4-1.1,0.8c-0.3,0.4-0.4,0.9-0.4,1.4l0,0c0,0.5,0.1,0.9,0.3,1.2c0.2,0.3,0.5,0.6,1,0.8
	l0,0c0.1,0,0.2,0.1,0.4,0.2c0.2,0.1,0.4,0.2,0.6,0.3c0.2,0.1,0.4,0.2,0.6,0.3c0.2,0.1,0.3,0.1,0.3,0.1l0,0c0.7,0.3,1.2,0.7,1.6,1.2
	c0.4,0.5,0.6,1.3,0.6,2.2l0,0c0,0.9-0.2,1.7-0.5,2.5c-0.4,0.8-0.9,1.4-1.5,2C51.4,36.5,50.8,36.9,50,37z M57.8,35l-2.3,0.6
	c-0.1,0-0.1,0-0.1-0.1l0,0l0-8v-8c0-0.1,0-0.1,0.1-0.1l0,0l2.3-0.6c0.1,0,0.1,0,0.1,0.1l0,0l0,6.4l3.1-0.8V18c0-0.1,0-0.1,0.1-0.1
	l0,0l2.3-0.6c0.1,0,0.1,0,0.1,0.1l0,0l0,8l0,8c0,0.1,0,0.1-0.1,0.2l0,0l-2.3,0.6c-0.1,0-0.1,0-0.1-0.1l0,0v-6.9L57.9,28v6.9
	C57.9,35,57.9,35,57.8,35L57.8,35z M64.4,33.1L64.4,33.1l1.3-8.4l1.3-8.4c0-0.1,0-0.1,0.1-0.1l0,0l3-0.9c0.1,0,0.1,0,0.1,0.1l0,0
	l1.2,7.6l1.2,7.6c0,0.1,0,0.1-0.1,0.1l0,0l-2.3,0.7c-0.1,0-0.1,0-0.1-0.1l0,0l-0.2-1.6l-2.8,0.8l-0.2,1.8c0,0.1,0,0.1-0.1,0.1l0,0
	L64.4,33.1C64.5,33.2,64.4,33.2,64.4,33.1z M68.4,21.2L67.5,28l2-0.6l-0.8-6.3l-0.1-0.8L68.4,21.2z M76.2,29.5l-2.3,0.8
	c-0.1,0-0.1,0-0.1-0.1l0,0l0-8l0-8c0-0.1,0-0.1,0.1-0.1l0,0l3.9-1.4c1.2-0.5,2.2-0.4,3,0.2c0.7,0.6,1.1,1.7,1.1,3.2l0,0
	c0,1.1-0.2,2.1-0.6,3.1c-0.4,1-0.9,1.8-1.5,2.4c-0.6,0.7-1.3,1.1-2,1.4l0,0l-1.5,0.6v5.9C76.3,29.4,76.3,29.5,76.2,29.5L76.2,29.5z
	 M76.3,16v4.6l1.5-0.6c0.4-0.2,0.8-0.5,1.1-1.1c0.3-0.6,0.5-1.3,0.5-2l0,0c0-0.6-0.1-1.1-0.4-1.3c-0.3-0.3-0.7-0.3-1.2-0.2l0,0
	L76.3,16z M89.8,24.3l-6.6,2.6c-0.1,0-0.1,0-0.1-0.1l0,0l0-8v-8c0-0.1,0-0.1,0.1-0.1l0,0L89.8,8c0.1,0,0.1,0,0.1,0.1l0,0v2.6
	c0,0.1,0,0.1-0.1,0.1l0,0l-4.2,1.7v3.6l4.2-1.7c0.1,0,0.1,0,0.1,0.1l0,0l0,2.6c0,0.1,0,0.1-0.1,0.1l0,0L85.6,19v4.1l4.2-1.7
	c0.1,0,0.1,0,0.1,0.1l0,0v2.7C89.9,24.2,89.9,24.3,89.8,24.3L89.8,24.3z"/>
</svg>
