<?xml version="1.0" encoding="utf-8"?>
<!-- Generator: Adobe Illustrator 25.2.1, SVG Export Plug-In . SVG Version: 6.00 Build 0)  -->
<svg version="1.1" id="Layer_1" xmlns="http://www.w3.org/2000/svg" xmlns:xlink="http://www.w3.org/1999/xlink" x="0px" y="0px"
	 viewBox="0 0 100 49" style="enable-background:new 0 0 100 49;" xml:space="preserve">
<style type="text/css">
	.st0{fill:#FFFFFF;stroke:#FFFFFF;stroke-width:0.6413;stroke-miterlimit:22.6907;stroke-opacity:0;}
</style>
<path class="st0" d="M18.9,27.8l-2.1-1.3c0,0-0.1-0.1-0.1-0.1l0,0v-5.2v-5.2l-2.4-1.7c-0.1,0-0.1-0.1-0.1-0.1l0,0l0-2
	c0,0,0-0.1,0.1,0l0,0l6.9,4.5c0.1,0,0.1,0.1,0.1,0.1l0,0v2c0,0.1,0,0.1-0.1,0.1l0,0l-2.4-1.5v5.2L18.9,27.8
	C19,27.8,18.9,27.8,18.9,27.8L18.9,27.8z M28.2,32.8l-5.9-3c0,0-0.1-0.1-0.1-0.1l0,0v-6.3l0-6.2c0,0,0-0.1,0.1,0l0,0l5.8,3
	c0,0,0.1,0,0.1,0.1l0,0v2c0,0,0,0.1-0.1,0.1l0,0l-3.7-1.8v2.8l3.7,1.8c0,0,0.1,0,0.1,0.1l0,0l0,2.1c0,0,0,0.1-0.1,0l0,0l-3.7-1.8
	v3.2l3.7,1.8c0,0,0.1,0.1,0.1,0.1l0,0L28.2,32.8C28.3,32.8,28.3,32.9,28.2,32.8L28.2,32.8z M31,34l-2-0.8c0,0-0.1-0.1-0.1-0.1l0,0
	l2.1-5.7l-2-6.8c0-0.1,0-0.1,0.1-0.1l0,0l2,0.8c0.1,0,0.1,0,0.1,0.1l0,0l1.2,4.8l1.2-3.9c0,0,0,0,0.1,0l0,0l2,0.6c0,0,0.1,0,0.1,0.1
	l0,0l-2,5.3l2.1,7.1c0,0.1,0,0.1-0.1,0.1l0,0l-2-0.6c0,0-0.1-0.1-0.1-0.1l0,0l-1.2-5.1l-1.3,4.2C31.1,34,31.1,34,31,34L31,34z
	 M40.8,36.8l-2.1-0.4c0,0-0.1,0-0.1-0.1l0,0v-5.2v-5.2l-2.4-0.6c-0.1,0-0.1,0-0.1-0.1l0,0l0-2c0,0,0-0.1,0.1-0.1l0,0l6.9,1.5
	c0.1,0,0.1,0,0.1,0.1l0,0v2c0,0.1,0,0.1-0.1,0.1l0,0l-2.4-0.4v5.2L40.8,36.8C40.8,36.8,40.8,36.8,40.8,36.8L40.8,36.8z M49.9,37.8
	L49.9,37.8c-0.7,0-1.2-0.2-1.8-0.5c-0.5-0.4-1-0.8-1.3-1.4c-0.3-0.6-0.5-1.2-0.5-1.9l0,0v-0.8c0-0.1,0-0.1,0.1-0.1l0,0l2,0.1
	c0,0,0.1,0,0.1,0.1l0,0v0.8c0,0.4,0.1,0.7,0.4,1c0.3,0.3,0.6,0.4,1,0.4l0,0c0.4,0,0.7-0.2,1-0.5c0.3-0.3,0.4-0.6,0.4-1l0,0
	c0-0.4-0.3-0.8-0.9-1.1l0,0c-0.2-0.1-0.5-0.3-0.9-0.5c-0.4-0.2-0.8-0.5-1.2-0.7l0,0c-0.7-0.4-1.2-0.9-1.5-1.5
	c-0.3-0.6-0.5-1.3-0.5-2l0,0c0-0.7,0.2-1.3,0.5-1.8c0.3-0.5,0.8-0.9,1.3-1.2c0.5-0.3,1.1-0.4,1.8-0.4l0,0c0.6,0,1.2,0.1,1.8,0.5
	c0.5,0.3,1,0.7,1.3,1.2c0.3,0.5,0.5,1.1,0.5,1.8l0,0v1.5c0,0,0,0.1-0.1,0.1l0,0l-2,0.1c0,0-0.1,0-0.1-0.1l0,0l0-1.5
	c0-0.4-0.1-0.8-0.4-1c-0.3-0.3-0.6-0.4-0.9-0.4l0,0c-0.4,0-0.7,0.1-1,0.4c-0.3,0.3-0.4,0.6-0.4,1l0,0c0,0.4,0.1,0.7,0.3,1
	c0.2,0.3,0.5,0.5,0.9,0.8l0,0c0.1,0,0.2,0.1,0.4,0.2c0.2,0.1,0.4,0.2,0.6,0.3c0.2,0.1,0.4,0.2,0.6,0.3c0.2,0.1,0.3,0.1,0.3,0.1l0,0
	c0.6,0.3,1.1,0.7,1.4,1.2c0.4,0.5,0.5,1.1,0.5,1.8l0,0c0,0.7-0.2,1.3-0.5,1.9c-0.3,0.6-0.8,1-1.3,1.4C51.2,37.6,50.6,37.8,49.9,37.8
	z M56.9,37.1l-2.1,0.3c0,0-0.1,0-0.1-0.1l0,0l0-6.2v-6.3c0,0,0-0.1,0.1-0.1l0,0l2-0.3c0.1,0,0.1,0,0.1,0.1l0,0l0,5l2.7-0.5v-4.9
	c0,0,0-0.1,0.1-0.1l0,0l2-0.5c0.1,0,0.1,0,0.1,0.1l0,0l0,6.2l0,6.2c0,0.1,0,0.1-0.1,0.1l0,0l-2,0.5c-0.1,0-0.1,0-0.1-0.1l0,0v-5.3
	L57,31.7L56.9,37.1C57,37.1,57,37.1,56.9,37.1L56.9,37.1z M62.8,35.8L62.8,35.8l1.1-6.6l1.1-6.6c0,0,0-0.1,0.1-0.1l0,0l2.6-0.9
	c0,0,0.1,0,0.1,0l0,0l1.1,5.8l1.1,5.8c0,0,0,0.1-0.1,0.1l0,0l-2,0.8c0,0-0.1,0-0.1-0.1l0,0L67.6,33l-2.5,0.8L65,35.2
	c0,0.1,0,0.1-0.1,0.1l0,0L62.8,35.8C62.8,35.9,62.8,35.9,62.8,35.8z M66.4,26.4l-0.8,5.4l1.7-0.6l-0.7-4.9l-0.1-0.6L66.4,26.4z
	 M73.3,32l-2,0.9c-0.1,0-0.1,0-0.1-0.1l0,0l0-6.3l0-6.3c0,0,0-0.1,0.1-0.1l0,0l3.5-1.7c1.1-0.6,2-0.7,2.7-0.4c0.6,0.3,1,1,1,2.2l0,0
	c0,0.9-0.2,1.7-0.5,2.5c-0.3,0.8-0.8,1.6-1.3,2.2c-0.5,0.6-1.1,1.1-1.8,1.5l0,0l-1.4,0.7v4.6C73.4,31.9,73.4,32,73.3,32L73.3,32z
	 M73.4,21.5v3.6l1.4-0.7c0.4-0.2,0.7-0.6,1-1.1c0.3-0.5,0.4-1.1,0.4-1.7l0,0c0-0.5-0.1-0.8-0.4-0.9c-0.3-0.2-0.6-0.1-1.1,0.1l0,0
	L73.4,21.5z M85.4,24.7l-5.9,3.9c0,0-0.1,0-0.1-0.1l0,0l0-6.3V16c0,0,0-0.1,0.1-0.1l0,0l5.8-3.9c0,0,0.1,0,0.1,0l0,0v2
	c0,0,0,0.1-0.1,0.1l0,0l-3.7,2.6v2.8l3.7-2.6c0,0,0.1,0,0.1,0l0,0l0,2c0,0,0,0.1-0.1,0.1l0,0l-3.7,2.6V25l3.7-2.6c0,0,0.1,0,0.1,0
	l0,0v2.1C85.5,24.6,85.5,24.6,85.4,24.7L85.4,24.7z"/>
</svg>
